<svg width="688" height="765" viewBox="0 0 688 765" fill="none" xmlns="http://www.w3.org/2000/svg">
<g clip-path="url(#clip0)">
<rect width="688" height="765" rx="44" fill="white"/>
<g opacity="0.1">
<path d="M86.8249 82.4488C90.6474 79.2331 94.0452 76.3813 97.443 73.5296C98.7171 72.4375 100.295 72.1948 101.265 73.833C105.816 82.0241 106.969 92.7028 108 101.865C108.182 103.26 108.85 104.777 108.668 106.173C108.425 107.993 106.908 108.053 105.27 107.993C100.173 107.75 94.834 107.993 89.616 108.114C86.2789 108.175 83.0025 108.782 79.7867 109.328C78.6946 109.51 76.5103 110.359 75.4181 109.692C74.2047 108.964 74.9328 107.689 75.1148 106.476C75.7822 102.714 76.935 99.0736 78.6946 95.6758C79.0586 94.9477 79.4833 94.2803 79.544 93.4915C79.6654 91.8533 76.753 90.0938 75.6608 89.0623C70.1395 83.4803 64.4967 77.9589 59.4608 71.9521C54.0607 65.4599 48.7821 58.7251 44.7169 51.3228C40.7124 43.7992 36.4045 34.5766 38.5888 26.1429C39.8022 21.471 50.0562 21.7743 53.6967 22.2597C56.245 22.6238 58.9147 22.4418 61.5237 22.3811C63.526 22.3811 65.1035 24.262 64.4967 26.5069C62.8585 32.7564 64.5574 38.7025 65.8316 44.77C67.2878 51.5655 69.5934 57.997 72.8698 64.1251C76.5103 71.1633 81.8496 76.6847 86.8249 82.4488ZM58.7327 25.1114C53.8787 25.1114 49.5102 24.6867 45.2629 25.4148C43.2607 25.7182 39.6202 26.0822 40.1056 30.0261C41.1371 38.3385 44.1708 45.9228 48.5394 52.9003C54.8495 62.8509 62.1304 72.0128 70.8676 79.9611C74.4474 83.1769 77.7238 86.7567 81.5463 89.6084C83.6092 91.1859 83.4879 92.1567 82.5171 94.159C80.7575 97.9815 79.4227 101.986 77.7238 106.294C86.9463 105.93 95.2587 105.626 104.299 105.323C103.389 105.384 99.5666 81.7207 98.7171 79.5971C98.2924 79.7791 97.989 80.0218 97.6857 80.3252C94.8946 82.7522 92.1036 85.2398 89.0699 87.3634C86.7036 89.0623 85.5508 86.9994 83.7305 85.3005C81.789 83.4803 79.9687 81.5993 78.2092 79.5971C71.5957 72.1948 66.135 63.8217 62.1304 54.7206C58.0653 45.6194 57.6405 35.1227 58.7327 25.1114Z" fill="#333333"/>
</g>
<g opacity="0.1">
<path d="M-45.5556 628.277C-48.0724 612.749 -39.6672 593.516 -26.2285 585.159C-10.273 575.234 11.8082 576.279 28.1436 584.304C44.7165 592.472 56.3507 607.477 58.8674 625.997C60.1971 635.922 57.4428 646.417 59.3423 656.246C60.1021 660.14 62.239 663.179 65.1357 665.839C68.5547 669.02 70.8341 670.967 73.2559 674.956C46.6634 684.073 18.124 689.819 -8.89592 678.85C-30.2174 670.16 -43.2287 650.975 -45.5556 628.277ZM55.8283 673.341C56.2557 670.825 50.1299 665.981 48.9428 663.844C46.0461 658.573 45.1438 651.64 43.7667 645.752C41.2499 634.83 40.0153 623.243 35.8364 612.796C28.0961 593.564 8.53166 579.84 -12.5524 584.589C-31.6895 588.863 -43.3237 607.335 -42.3265 626.52C-41.3768 644.565 -30.2649 662.609 -14.7843 671.822C-4.33721 678.043 7.77188 680.417 19.8335 680.512C26.9565 680.559 33.937 679.61 40.965 678.233C43.6243 677.71 55.1635 677.235 55.8283 673.341Z" fill="#333333"/>
<path d="M15.2738 613.746C13.137 616.025 10.6676 617.165 7.58102 616.215C4.96925 615.408 2.6899 613.841 0.0781364 613.176C-1.25149 612.843 -2.67609 612.748 -4.00571 613.081C-5.76272 613.508 -7.13983 614.6 -8.56443 615.598C-9.41919 616.215 -10.6538 617.165 -11.4136 617.26C-12.8857 617.45 -14.5003 616.785 -15.9249 616.5C-20.1037 615.645 -24.4724 616.5 -25.9445 621.011C-26.4194 622.578 -23.9976 623.243 -23.4752 621.676C-22.1931 617.64 -17.7768 618.684 -14.5952 619.349C-13.3606 619.634 -12.0309 619.919 -10.7488 619.681C-9.51416 619.397 -8.42197 618.589 -7.37726 617.83C-6.04764 616.88 -4.7655 615.74 -3.10347 615.455C-1.96379 615.218 -0.824108 615.455 0.315571 615.835C2.83236 616.642 5.06423 618.162 7.67599 618.779C11.38 619.682 14.609 618.162 17.1733 615.455C18.218 614.363 16.4135 612.559 15.2738 613.746Z" fill="#333333"/>
<path d="M22.7778 625.807C21.923 624.62 20.0235 625.57 20.4034 626.709C20.3085 626.804 20.166 626.994 20.071 627.042C19.4537 627.516 18.6939 627.896 17.9816 628.181C16.4146 628.846 15.3699 628.846 13.8978 627.896C12.2357 626.852 10.8586 625.997 8.8167 625.807C7.15467 625.665 5.54013 626.044 4.06804 626.852C2.59596 627.611 1.31382 628.704 -0.158262 629.368C-1.58286 630.033 -3.14992 630.271 -4.71698 630.081C-7.70864 629.701 -10.3679 628.086 -13.3121 627.516C-17.3959 626.662 -20.8149 628.276 -23.4742 631.41C-24.5189 632.645 -22.7619 634.45 -21.6697 633.215C-20.435 631.743 -18.963 630.413 -17.0635 629.938C-15.6389 629.606 -14.1668 629.891 -12.7422 630.271C-9.70307 631.173 -6.85387 632.693 -3.62479 632.693C-1.77281 632.693 -0.0158081 632.17 1.64622 631.315C3.16579 630.508 4.44794 629.368 6.015 628.704C7.62954 628.039 9.5765 628.181 11.0486 629.036C12.6631 629.986 14.1352 631.315 16.1771 631.22C17.8392 631.173 19.6437 630.318 21.0208 629.416C22.0655 628.799 23.87 627.279 22.7778 625.807Z" fill="#333333"/>
<path d="M27.5734 641.193C27.5259 642.285 27.241 643.14 26.2438 643.282C25.1041 643.424 23.7745 642.95 22.6823 642.475C20.118 641.43 17.7437 639.436 14.9895 638.961C10.7157 638.248 8.15139 642.142 5.15974 644.422C3.8776 645.419 2.78542 645.894 1.31334 645.039C-0.538643 643.947 -2.10571 642.427 -4.10014 641.573C-9.08624 639.388 -14.0723 641.62 -17.6338 645.324C-18.7735 646.511 -16.969 648.316 -15.8293 647.128C-14.2148 645.419 -12.2678 643.947 -9.941 643.377C-7.66164 642.807 -5.42977 643.519 -3.5303 644.802C-1.91576 645.846 -0.396185 647.366 1.50328 647.936C3.30777 648.458 4.9698 647.698 6.44188 646.654C8.19888 645.371 9.62348 643.662 11.3805 642.427C12.9001 641.335 14.3247 641.24 16.0342 641.952C18.5985 643.045 20.8303 644.707 23.5845 645.466C25.0091 645.846 26.6237 646.036 27.9533 645.371C29.5678 644.564 30.0427 642.855 30.1377 641.145C30.1852 639.578 27.6209 639.578 27.5734 641.193Z" fill="#333333"/>
</g>
<g opacity="0.1">
<path d="M655.472 420.779C658.939 416.126 662.216 411.472 666.632 407.578C671.523 403.257 676.936 399.505 682.207 395.659C684.249 394.187 686.529 392.097 689.188 392.002C691.99 391.908 693.937 394.567 695.694 396.371C699.872 400.645 704.336 404.776 707.755 409.667C703.149 410.427 698.495 410.855 694.174 412.659C689.235 414.701 685.057 418.358 680.83 421.539C675.939 425.196 671.096 428.852 666.252 432.604C665.397 433.268 663.07 434.503 663.308 435.833C663.498 437.115 666.347 438.397 667.202 439.109C668.294 439.964 671.76 442.101 671.57 443.81C671.333 446.232 667.392 445.235 665.967 445.282C660.696 445.425 655.188 447.229 650.154 448.701C648.112 449.319 646.498 450.316 644.598 451.123C642.224 452.121 640.514 450.933 638.995 449.034C637.333 446.992 638.14 445.235 638.662 442.813C639.327 439.774 639.944 436.687 640.609 433.648C641.986 427.238 643.363 421.064 646.07 415.081C646.83 413.371 647.4 412.232 649.157 413.609C651.626 415.461 653.526 418.5 655.472 420.779ZM702.959 408.29C701.202 404.681 697.736 401.547 695.124 398.508C692.037 394.947 688.761 396.324 685.389 398.698C677.554 404.254 670.431 410.142 664.163 417.455C662.263 419.64 660.601 421.919 658.986 424.341C658.369 425.243 656.422 429.184 655.14 429.232C654.238 429.279 651.626 425.243 651.104 424.578C650.486 423.771 649.679 421.349 648.777 420.922C646.782 420.02 645.453 427 645.168 428.14C643.648 434.693 643.838 441.578 643.078 448.274C644.598 448.464 646.45 447.657 647.922 447.277C649.869 446.802 651.816 446.327 653.81 445.9C657.657 445.045 661.503 444.238 665.302 443.335C669.244 442.433 663.878 440.106 662.311 439.252C659.129 437.542 657.752 436.545 661.028 433.933C667.866 428.472 674.8 423.059 681.828 417.883C684.724 415.746 687.668 413.656 690.85 412.042C694.744 410.047 698.78 409.288 702.959 408.29Z" fill="#333333"/>
</g>
<g opacity="0.1">
<path d="M699.515 252.194C700.133 253.761 700.655 255.328 701.177 256.943C701.367 257.56 701.557 258.225 701.225 258.795C700.94 259.317 700.323 259.555 699.753 259.744C691.728 262.309 683.227 264.351 674.727 263.686C671.831 263.448 671.403 262.119 672.685 259.412C676.484 251.529 680.283 243.646 684.177 235.811C685.934 232.25 687.739 231.965 690.398 235.574C694.149 240.655 697.189 246.258 699.515 252.194ZM686.504 258.652C686.362 258.7 686.219 258.7 686.077 258.652C685.079 258.367 686.314 256.23 686.599 255.756C688.404 252.337 690.35 249.06 692.107 245.593C692.535 244.786 693.437 241.7 691.538 242.127C690.066 242.412 689.448 245.119 688.926 246.306C688.119 248.015 687.311 249.725 686.504 251.434C685.697 253.144 684.889 254.901 684.082 256.61C683.56 257.703 681.565 260.789 683.275 261.501C683.702 261.691 684.225 261.691 684.7 261.691C685.649 261.691 686.647 261.644 687.549 261.406C691.87 260.267 693.247 254.521 694.577 250.912C694.862 250.2 695.764 248.49 695.194 247.825C694.529 247.113 693.532 247.825 693.057 248.3C691.823 249.535 691.49 251.482 690.683 252.954C689.686 254.711 688.831 257.228 687.169 258.367C686.884 258.462 686.694 258.605 686.504 258.652ZM686.931 244.359C686.836 244.264 686.647 244.264 686.267 244.454C685.554 244.881 685.269 246.353 684.937 247.066C684.272 248.395 683.655 249.677 682.943 251.007C682.658 251.529 680.521 256.135 679.666 255.756C678.051 255.043 680.948 250.912 681.47 249.962C682.61 247.73 683.797 245.498 684.89 243.267C685.602 241.889 686.504 240.56 687.169 239.278C687.834 237.996 686.979 237.283 685.744 238.091C684.652 238.803 684.13 240.987 683.56 242.127C682.753 243.789 681.945 245.451 681.138 247.113C679.571 250.342 678.004 253.571 676.532 256.895C676.057 257.987 674.87 260.124 675.962 261.217C679.286 264.541 681.281 257.228 682.135 255.471C683.655 252.432 685.364 249.487 686.552 246.306C686.647 245.783 687.169 244.644 686.931 244.359ZM696.951 257.798C697.236 257.465 697.426 257.085 697.473 256.8C697.616 255.756 697.568 254.663 697.521 253.571C697.521 252.811 697.758 251.814 696.809 252.242C695.764 252.716 695.574 255.186 695.194 256.088C695.004 256.563 694.292 257.56 694.529 258.035C695.099 259.175 696.286 258.605 696.951 257.798Z" fill="#333333"/>
</g>
<path opacity="0.1" d="M538.083 679.933C539.214 678.71 540.09 677.17 541.19 675.991C541.928 675.142 543.137 674.9 544.175 675.06C545.212 675.22 546.119 675.813 546.953 676.419C552.878 680.724 559.03 684.798 564.954 689.102C565.55 689.535 565.745 691.524 565.306 692.128C563.989 693.941 562.521 695.71 560.966 697.35C559.834 698.572 558.975 700.257 557.354 699.144C552.829 695.923 548.305 692.702 543.781 689.481C541.166 687.646 538.102 686.344 535.769 684.121C535.689 684.063 535.602 683.933 535.553 683.832C535.505 683.731 535.528 683.616 535.551 683.501C535.983 681.902 537.023 681.141 538.083 679.933ZM539.442 683.162C539.492 683.595 539.827 683.97 540.447 684.288C542.035 685.112 543.654 685.893 545.228 686.904C548.971 689.361 552.715 691.817 556.262 694.46C559.093 696.583 559.835 693.89 561.21 692.582C563.042 690.813 561.747 690.004 560.475 689.079C554.814 685.165 549.225 681.236 543.446 677.234C543.406 677.205 540.527 680.917 540.276 681.262C539.703 681.967 539.375 682.586 539.442 683.162Z" fill="#333333"/>
<g opacity="0.1">
<path d="M636.658 26.9532C637.751 24.1515 641.217 25.1012 643.686 25.3861C647.39 25.861 651.047 26.3359 654.751 26.7633C656.603 27.0007 657.363 27.8555 656.46 29.5175C655.368 31.6069 654.086 33.5539 652.804 35.5483C650.572 39.1098 648.34 42.6713 646.061 46.1853C641.929 52.5485 637.323 58.5793 633.239 64.99C631.197 68.1241 629.678 71.6856 627.589 74.7722C626.164 76.9091 624.597 78.951 623.03 81.0405C622.27 82.0377 620.655 85.7416 618.993 84.507C617.664 83.5098 619.373 80.993 619.658 79.8058C620.181 77.9064 620.703 76.0069 621.273 74.1074C622.318 70.4984 623.362 66.8894 624.454 63.233C625.974 58.1994 627.494 53.1658 629.203 48.2272C630.438 44.6182 631.815 41.0092 633.144 37.4003C634.379 34.0287 635.519 30.7046 636.516 27.2856C636.563 27.1906 636.611 27.0957 636.658 26.9532ZM624.359 72.2554L624.407 72.3029C625.642 71.4956 626.401 69.0263 627.114 67.7442C628.063 65.9872 629.013 64.2777 629.915 62.5207C631.815 59.0542 633.667 55.5401 635.566 52.0736C637.466 48.5596 639.318 45.0931 641.217 41.5791C641.787 40.5819 646.251 30.9896 646.868 31.0845C644.541 30.7521 642.024 30.3248 639.555 30.0873C638.938 30.0398 637.941 30.5622 637.703 31.0845C636.516 33.4589 635.424 35.8332 634.569 38.3025C631.767 46.4702 629.013 54.6379 626.401 62.8056C625.832 64.5626 625.404 66.4146 624.977 68.2191C624.644 69.2163 623.552 71.4007 624.359 72.2554Z" fill="#333333"/>
<path d="M616.192 95.6662C616.999 96.1411 617.759 96.6634 618.424 97.3282C620.086 98.9903 619.943 101.032 619.658 103.217C619.516 104.166 619.373 105.164 619.041 106.066C618.139 108.488 616.334 108.962 614.007 109.39C609.401 110.197 605.555 107.87 604.225 103.454C602.943 99.1327 607.359 93.6718 611.87 94.3366C612.44 94.4316 613.058 94.5265 613.627 94.669C614.53 94.8589 615.384 95.1913 616.192 95.6662ZM613.295 102.314C613.39 101.982 613.485 101.697 613.532 101.365C614.007 96.6159 607.407 96.4735 607.027 101.127C606.884 102.694 606.789 104.689 608.736 104.974C610.066 105.164 611.491 104.689 612.44 103.739C612.82 103.264 613.105 102.789 613.295 102.314Z" fill="#333333"/>
</g>
<g opacity="0.1">
<path d="M30.4317 378.982C28.7697 378.317 32.4261 377.225 32.6636 377.177C34.563 376.702 35.6552 375.99 36.4625 374.043C38.077 369.959 34.1831 370.861 32.0462 368.677C26.3953 362.836 34.7055 355.096 41.0212 356.188C48.6191 357.47 51.7057 365.543 48.714 372.096C45.5799 379.029 37.4122 381.783 30.4317 378.982ZM38.6469 375.847C41.9234 373.948 44.3927 370.434 43.2056 366.398C42.4933 363.881 38.7893 361.649 36.2251 361.744C34.753 361.791 33.7083 362.504 33.2809 363.976C32.6636 366.113 33.7557 367.015 35.5128 367.727C39.5966 369.437 39.6441 372.001 38.4569 375.99C38.4569 375.942 38.5519 375.895 38.6469 375.847Z" fill="#333333"/>
<path d="M38.7895 344.554C40.3091 340.66 44.6303 337.716 48.7142 339.568C51.8483 340.992 53.7953 344.649 53.083 348.02C51.2785 356.473 35.3705 353.244 38.7895 344.554ZM47.0522 347.166C47.8119 342.512 41.6862 342.417 41.4487 346.548C41.2588 350.062 46.4348 351.06 47.0522 347.166Z" fill="#333333"/>
</g>
<g opacity="0.1">
<path d="M258.306 746.98C256.055 746.581 255.064 742.206 253.649 739.751C250.195 733.711 246.244 727.916 242.706 721.986C240.747 718.704 238.842 715.394 237.516 711.869C236.38 708.866 237.79 707.418 240.397 708.12C249.26 710.537 258.095 713.035 266.903 715.616C269.399 716.373 271.756 717.541 274.224 718.518C275.951 719.242 277.676 720.38 278.16 722.196C278.669 724.343 277.228 726.423 275.871 728.119C271.192 733.918 266.837 740.654 261.31 745.706C260.066 746.798 259.075 747.149 258.306 746.98ZM253.53 732C253.199 732.3 253.169 732.657 253.909 733.046C255.444 733.798 258.451 731.836 259.829 731.295C262.225 730.32 264.677 729.317 267.102 728.26C268.839 727.473 270.687 726.22 271.988 724.826C272.457 724.389 272.873 723.842 272.904 723.21C272.991 722.413 272.418 721.668 271.762 721.169C267.684 718.177 263.345 722.301 259.708 723.818C258.11 724.469 251.671 725.722 251.442 727.342C251.068 730.061 254.681 727.939 255.563 727.504C257.189 726.772 258.87 726.012 260.551 725.39C261.652 724.984 267.054 722.598 267.59 724.8C267.911 726.286 260.998 728.663 259.814 729.179C258.353 729.83 256.81 730.453 255.35 731.103C254.992 731.211 253.945 731.59 253.53 732ZM247.131 722.067C246.992 722.204 246.964 722.286 246.963 722.424C246.934 722.781 247.124 723.167 247.452 723.416C248.218 724.135 249.454 724.142 250.472 723.984C252.783 723.667 255.149 723.324 257.297 722.54C259.693 721.702 262.231 720.178 263.973 718.292C263.894 717.714 263.071 717.572 262.466 717.596C259.496 717.826 256.883 718.222 254.046 719.277C252.944 719.683 248.181 721.002 247.131 722.067ZM241.003 712.549C241.19 713.484 241.87 714.725 241.87 714.725C242.685 716.242 243.528 717.813 244.398 719.303C244.561 719.634 245.384 719.913 245.742 719.805C247.257 719.265 248.8 718.642 250.315 718.101C251.417 717.695 253.26 717.404 254.198 716.667C254.502 716.449 254.752 715.984 254.644 715.626C254.591 715.378 254.345 715.157 254.153 715.046C253.524 714.602 252.672 714.542 251.903 714.51C250.501 714.447 249.293 714.357 247.971 714.734C246.374 715.247 246.014 715.629 244.866 714.551C243.718 713.472 243.232 712.067 241.503 711.617C240.872 711.449 240.842 711.943 241.003 712.549ZM256.389 736.689C256.333 736.854 256.304 737.073 256.303 737.211C256.721 740.841 267.981 732.965 269.305 732.176C269.719 731.903 270.217 731.384 269.89 730.997C269.672 730.694 269.231 730.774 268.928 730.854C266.534 731.417 264.082 732.42 261.768 733.285C260.143 733.88 256.977 734.824 256.389 736.689ZM260.842 741.14C261.393 740.869 262 740.57 262.524 740.243C262.828 740.025 262.994 739.806 262.968 739.476C262.118 739.142 259.254 740.142 258.891 741.074C258.332 742.582 260.236 741.439 260.842 741.14Z" fill="#333333"/>
</g>
<g opacity="0.1">
<path d="M635.678 613.615C636.248 607.062 636.771 599.274 641.947 594.573C646.458 590.442 652.869 588.257 658.662 586.69C673.81 582.511 690.336 581.087 705.911 579.425C713.936 578.57 721.962 578 730.034 578C736.872 578 743.853 577.953 749.979 581.277C756.057 584.553 757.292 589.064 757.577 595.618C757.956 603.785 757.529 611.953 756.627 620.073C755.155 633.512 754.632 650.56 742.761 659.392C731.601 667.702 716.643 663.856 703.822 663.856C695.986 663.856 688.151 664.283 680.363 665.09C675.615 665.565 670.391 666.04 666.165 668.462C662.746 670.409 660.704 673.591 659.422 677.247C657.332 683.23 656.098 689.356 653.771 695.292C652.631 698.284 652.251 701.18 648.642 700.183C645.603 699.376 641.614 697.334 640.427 694.295C637.435 686.697 637.34 676.44 636.771 668.415C635.489 650.465 634.159 631.565 635.678 613.615ZM651.017 687.124C652.394 690.021 652.869 686.317 653.059 685.415C653.581 682.85 654.483 680.334 655.148 677.817C656.715 671.739 658.852 668.082 664.693 665.375C676.754 659.772 690.288 661.244 703.252 661.054C713.651 660.912 725.523 662.621 735.353 658.442C744.138 654.691 748.412 646.761 750.454 637.833C751.926 631.422 752.875 624.964 753.445 618.411C754.015 611.858 754.87 604.498 753.825 597.944C751.688 584.838 736.587 586.785 726.378 586.738C712.702 586.643 699.073 588.637 685.492 589.967C675.615 590.964 657.047 590.631 651.444 600.936C648.025 607.204 647.882 616.939 647.882 623.825C647.835 631.138 648.025 638.45 648.262 645.763C648.5 653.599 648.785 661.387 649.402 669.222C649.687 672.736 650.114 676.297 650.304 679.811C650.399 682.186 649.972 684.94 651.017 687.124Z" fill="#333333"/>
<path d="M688.531 636.741C690.193 636.741 690.193 634.177 688.531 634.177C686.869 634.177 686.869 636.741 688.531 636.741Z" fill="#333333"/>
<path d="M671.531 637.596C673.193 637.596 673.193 635.031 671.531 635.031C669.869 635.031 669.869 637.596 671.531 637.596Z" fill="#333333"/>
<path d="M685.491 618.507C685.729 618.744 686.061 618.887 686.393 618.887H686.821C687.153 618.887 687.486 618.744 687.723 618.507C687.961 618.269 688.103 617.937 688.103 617.604C688.103 617.272 687.961 616.94 687.723 616.702C687.486 616.465 687.153 616.322 686.821 616.322H686.393C686.061 616.322 685.729 616.465 685.491 616.702C685.254 616.94 685.111 617.272 685.111 617.604C685.159 617.937 685.254 618.269 685.491 618.507Z" fill="#333333"/>
<path d="M669.821 618.887C671.483 618.887 671.483 616.322 669.821 616.322C668.159 616.322 668.159 618.887 669.821 618.887Z" fill="#333333"/>
</g>
</g>
<defs>
<clipPath id="clip0">
<rect width="688" height="765" rx="44" fill="white"/>
</clipPath>
</defs>
</svg>
