<svg width="902" height="765" viewBox="0 0 902 765" fill="none" xmlns="http://www.w3.org/2000/svg">
<g clip-path="url(#clip0)">
<rect width="902" height="765" rx="44" fill="white"/>
<g opacity="0.1">
<path d="M124.825 82.4488C128.647 79.2331 132.045 76.3813 135.443 73.5296C136.717 72.4375 138.295 72.1948 139.265 73.833C143.816 82.0241 144.969 92.7028 146 101.865C146.182 103.26 146.85 104.777 146.668 106.173C146.425 107.993 144.908 108.053 143.27 107.993C138.173 107.75 132.834 107.993 127.616 108.114C124.279 108.175 121.002 108.782 117.787 109.328C116.695 109.51 114.51 110.359 113.418 109.692C112.205 108.964 112.933 107.689 113.115 106.476C113.782 102.714 114.935 99.0736 116.695 95.6758C117.059 94.9477 117.483 94.2803 117.544 93.4915C117.665 91.8533 114.753 90.0938 113.661 89.0623C108.139 83.4803 102.497 77.9589 97.4608 71.9521C92.0607 65.4599 86.7821 58.7251 82.7169 51.3228C78.7124 43.7992 74.4045 34.5766 76.5888 26.1429C77.8022 21.471 88.0562 21.7743 91.6967 22.2597C94.245 22.6238 96.9147 22.4418 99.5237 22.3811C101.526 22.3811 103.103 24.262 102.497 26.5069C100.859 32.7564 102.557 38.7025 103.832 44.77C105.288 51.5655 107.593 57.997 110.87 64.1251C114.51 71.1633 119.85 76.6847 124.825 82.4488ZM96.7327 25.1114C91.8787 25.1114 87.5102 24.6867 83.2629 25.4148C81.2607 25.7182 77.6202 26.0822 78.1056 30.0261C79.1371 38.3385 82.1708 45.9228 86.5394 52.9003C92.8495 62.8509 100.13 72.0128 108.868 79.9611C112.447 83.1769 115.724 86.7567 119.546 89.6084C121.609 91.1859 121.488 92.1567 120.517 94.159C118.757 97.9815 117.423 101.986 115.724 106.294C124.946 105.93 133.259 105.626 142.299 105.323C141.389 105.384 137.567 81.7207 136.717 79.5971C136.292 79.7791 135.989 80.0218 135.686 80.3252C132.895 82.7522 130.104 85.2398 127.07 87.3634C124.704 89.0623 123.551 86.9994 121.731 85.3005C119.789 83.4803 117.969 81.5993 116.209 79.5971C109.596 72.1948 104.135 63.8217 100.13 54.7206C96.0653 45.6194 95.6405 35.1227 96.7327 25.1114Z" fill="#333333"/>
</g>
<g opacity="0.1">
<path d="M51.4444 628.277C48.9276 612.749 57.3328 593.516 70.7715 585.159C86.727 575.234 108.808 576.279 125.144 584.304C141.716 592.472 153.351 607.477 155.867 625.997C157.197 635.922 154.443 646.417 156.342 656.246C157.102 660.14 159.239 663.179 162.136 665.839C165.555 669.02 167.834 670.967 170.256 674.956C143.663 684.073 115.124 689.819 88.1041 678.85C66.7826 670.16 53.7713 650.975 51.4444 628.277ZM152.828 673.341C153.256 670.825 147.13 665.981 145.943 663.844C143.046 658.573 142.144 651.64 140.767 645.752C138.25 634.83 137.015 623.243 132.836 612.796C125.096 593.564 105.532 579.84 84.4476 584.589C65.3105 588.863 53.6763 607.335 54.6735 626.52C55.6232 644.565 66.7351 662.609 82.2157 671.822C92.6628 678.043 104.772 680.417 116.833 680.512C123.956 680.559 130.937 679.61 137.965 678.233C140.624 677.71 152.163 677.235 152.828 673.341Z" fill="#333333"/>
<path d="M112.274 613.746C110.137 616.025 107.668 617.165 104.581 616.215C101.969 615.408 99.6899 613.841 97.0781 613.176C95.7485 612.843 94.3239 612.748 92.9943 613.081C91.2373 613.508 89.8602 614.6 88.4356 615.598C87.5808 616.215 86.3462 617.165 85.5864 617.26C84.1143 617.45 82.4997 616.785 81.0751 616.5C76.8963 615.645 72.5276 616.5 71.0555 621.011C70.5806 622.578 73.0024 623.243 73.5248 621.676C74.8069 617.64 79.2232 618.684 82.4048 619.349C83.6394 619.634 84.9691 619.919 86.2512 619.681C87.4858 619.397 88.578 618.589 89.6227 617.83C90.9524 616.88 92.2345 615.74 93.8965 615.455C95.0362 615.218 96.1759 615.455 97.3156 615.835C99.8324 616.642 102.064 618.162 104.676 618.779C108.38 619.682 111.609 618.162 114.173 615.455C115.218 614.363 113.414 612.559 112.274 613.746Z" fill="#333333"/>
<path d="M119.778 625.807C118.923 624.62 117.024 625.57 117.403 626.709C117.308 626.804 117.166 626.994 117.071 627.042C116.454 627.516 115.694 627.896 114.982 628.181C113.415 628.846 112.37 628.846 110.898 627.896C109.236 626.852 107.859 625.997 105.817 625.807C104.155 625.665 102.54 626.044 101.068 626.852C99.596 627.611 98.3138 628.704 96.8417 629.368C95.4171 630.033 93.8501 630.271 92.283 630.081C89.2914 629.701 86.6321 628.086 83.6879 627.516C79.6041 626.662 76.1851 628.276 73.5258 631.41C72.4811 632.645 74.2381 634.45 75.3303 633.215C76.565 631.743 78.037 630.413 79.9365 629.938C81.3611 629.606 82.8332 629.891 84.2578 630.271C87.2969 631.173 90.1461 632.693 93.3752 632.693C95.2272 632.693 96.9842 632.17 98.6462 631.315C100.166 630.508 101.448 629.368 103.015 628.704C104.63 628.039 106.576 628.181 108.049 629.036C109.663 629.986 111.135 631.315 113.177 631.22C114.839 631.173 116.644 630.318 118.021 629.416C119.065 628.799 120.87 627.279 119.778 625.807Z" fill="#333333"/>
<path d="M124.573 641.193C124.526 642.285 124.241 643.14 123.244 643.282C122.104 643.424 120.774 642.95 119.682 642.475C117.118 641.43 114.744 639.436 111.989 638.961C107.716 638.248 105.151 642.142 102.16 644.422C100.878 645.419 99.7854 645.894 98.3133 645.039C96.4614 643.947 94.8943 642.427 92.8999 641.573C87.9138 639.388 82.9277 641.62 79.3662 645.324C78.2265 646.511 80.031 648.316 81.1707 647.128C82.7852 645.419 84.7322 643.947 87.059 643.377C89.3384 642.807 91.5702 643.519 93.4697 644.802C95.0842 645.846 96.6038 647.366 98.5033 647.936C100.308 648.458 101.97 647.698 103.442 646.654C105.199 645.371 106.623 643.662 108.38 642.427C109.9 641.335 111.325 641.24 113.034 641.952C115.598 643.045 117.83 644.707 120.585 645.466C122.009 645.846 123.624 646.036 124.953 645.371C126.568 644.564 127.043 642.855 127.138 641.145C127.185 639.578 124.621 639.578 124.573 641.193Z" fill="#333333"/>
</g>
<g opacity="0.1">
<path d="M862.472 420.779C865.939 416.126 869.216 411.472 873.632 407.578C878.523 403.257 883.936 399.505 889.207 395.659C891.249 394.187 893.529 392.097 896.188 392.002C898.99 391.908 900.937 394.567 902.694 396.371C906.872 400.645 911.336 404.776 914.755 409.667C910.149 410.427 905.495 410.855 901.174 412.659C896.235 414.701 892.057 418.358 887.83 421.539C882.939 425.196 878.096 428.852 873.252 432.604C872.397 433.268 870.07 434.503 870.308 435.833C870.498 437.115 873.347 438.397 874.202 439.109C875.294 439.964 878.76 442.101 878.57 443.81C878.333 446.232 874.392 445.235 872.967 445.282C867.696 445.425 862.188 447.229 857.154 448.701C855.112 449.319 853.498 450.316 851.598 451.123C849.224 452.121 847.514 450.933 845.995 449.034C844.333 446.992 845.14 445.235 845.662 442.813C846.327 439.774 846.944 436.687 847.609 433.648C848.986 427.238 850.363 421.064 853.07 415.081C853.83 413.371 854.4 412.232 856.157 413.609C858.626 415.461 860.526 418.5 862.472 420.779ZM909.959 408.29C908.202 404.681 904.736 401.547 902.124 398.508C899.037 394.947 895.761 396.324 892.389 398.698C884.554 404.254 877.431 410.142 871.163 417.455C869.263 419.64 867.601 421.919 865.986 424.341C865.369 425.243 863.422 429.184 862.14 429.232C861.238 429.279 858.626 425.243 858.104 424.578C857.486 423.771 856.679 421.349 855.777 420.922C853.782 420.02 852.453 427 852.168 428.14C850.648 434.693 850.838 441.578 850.078 448.274C851.598 448.464 853.45 447.657 854.922 447.277C856.869 446.802 858.816 446.327 860.81 445.9C864.657 445.045 868.503 444.238 872.302 443.335C876.244 442.433 870.878 440.106 869.311 439.252C866.129 437.542 864.752 436.545 868.028 433.933C874.866 428.472 881.8 423.059 888.828 417.883C891.724 415.746 894.668 413.656 897.85 412.042C901.744 410.047 905.78 409.288 909.959 408.29Z" fill="#333333"/>
</g>
<g opacity="0.1">
<path d="M829.515 252.194C830.133 253.761 830.655 255.328 831.177 256.943C831.367 257.56 831.557 258.225 831.225 258.795C830.94 259.317 830.323 259.555 829.753 259.744C821.728 262.309 813.227 264.351 804.727 263.686C801.831 263.448 801.403 262.119 802.685 259.412C806.484 251.529 810.283 243.646 814.177 235.811C815.934 232.25 817.739 231.965 820.398 235.574C824.149 240.655 827.189 246.258 829.515 252.194ZM816.504 258.652C816.362 258.7 816.219 258.7 816.077 258.652C815.079 258.367 816.314 256.23 816.599 255.756C818.404 252.337 820.35 249.06 822.107 245.593C822.535 244.786 823.437 241.7 821.538 242.127C820.066 242.412 819.448 245.119 818.926 246.306C818.119 248.015 817.311 249.725 816.504 251.434C815.697 253.144 814.889 254.901 814.082 256.61C813.56 257.703 811.565 260.789 813.275 261.501C813.702 261.691 814.225 261.691 814.7 261.691C815.649 261.691 816.647 261.644 817.549 261.406C821.87 260.267 823.247 254.521 824.577 250.912C824.862 250.2 825.764 248.49 825.194 247.825C824.529 247.113 823.532 247.825 823.057 248.3C821.823 249.535 821.49 251.482 820.683 252.954C819.686 254.711 818.831 257.228 817.169 258.367C816.884 258.462 816.694 258.605 816.504 258.652ZM816.931 244.359C816.836 244.264 816.647 244.264 816.267 244.454C815.554 244.881 815.269 246.353 814.937 247.066C814.272 248.395 813.655 249.677 812.943 251.007C812.658 251.529 810.521 256.135 809.666 255.756C808.051 255.043 810.948 250.912 811.47 249.962C812.61 247.73 813.797 245.498 814.89 243.267C815.602 241.889 816.504 240.56 817.169 239.278C817.834 237.996 816.979 237.283 815.744 238.091C814.652 238.803 814.13 240.987 813.56 242.127C812.753 243.789 811.945 245.451 811.138 247.113C809.571 250.342 808.004 253.571 806.532 256.895C806.057 257.987 804.87 260.124 805.962 261.217C809.286 264.541 811.281 257.228 812.135 255.471C813.655 252.432 815.364 249.487 816.552 246.306C816.647 245.783 817.169 244.644 816.931 244.359ZM826.951 257.798C827.236 257.465 827.426 257.085 827.473 256.8C827.616 255.756 827.568 254.663 827.521 253.571C827.521 252.811 827.758 251.814 826.809 252.242C825.764 252.716 825.574 255.186 825.194 256.088C825.004 256.563 824.292 257.56 824.529 258.035C825.099 259.175 826.286 258.605 826.951 257.798Z" fill="#333333"/>
</g>
<g opacity="0.1">
<path d="M24.0681 481.028C22.9759 483.165 21.6463 485.159 20.1267 486.964C19.2245 488.009 18.3222 489.101 17.2775 490.051C15.0931 492.093 -2.61939 502.112 -3.42666 497.031C-3.85404 494.467 -4.47137 491.95 -5.08869 489.433C-5.4211 488.199 -5.56355 486.679 -3.949 486.964C2.84158 488.294 7.16286 484.352 11.6266 480.268C15.6155 476.612 16.7551 471.958 16.7551 466.925C16.7551 462.176 13.4786 458.567 8.87238 457.475C5.69078 456.715 5.40584 455.908 7.49526 453.533C8.63493 452.251 9.4897 450.684 10.6769 449.45C11.4366 448.69 13.0987 447.788 14.1909 447.93C14.9507 448.025 15.6155 448.405 16.2803 448.785C19.9842 451.064 22.9759 454.436 24.8754 458.33C25.6826 459.897 26.6798 461.464 26.9648 463.221C28.057 469.204 26.8698 475.567 24.0681 481.028ZM-0.719921 495.702C0.79965 496.746 5.12092 494.419 6.54552 493.802C10.2495 492.188 13.9534 490.573 16.7077 487.581C24.0681 479.699 29.1967 466.402 21.6463 456.857C21.029 456.098 20.4116 455.338 19.7468 454.578C18.3697 453.106 16.8026 451.871 15.0456 450.874C13.2411 449.877 12.7663 450.589 11.7216 452.156C11.5316 452.441 9.96456 455.148 9.86959 455.148C10.7718 455.29 11.5316 455.813 12.3389 456.193C14.9507 457.427 17.1825 458.947 18.2272 461.796C20.2692 467.447 19.5569 473.145 16.5177 477.894C12.6713 483.877 7.44777 488.721 -0.245055 489.718C-0.862381 489.813 -1.4322 490.098 -2.09702 490.336C-1.76461 491.808 -1.8121 493.375 -1.38472 494.799C-1.14728 495.274 -0.957354 495.559 -0.719921 495.702Z" fill="#333333"/>
</g>
<g opacity="0.1">
<path d="M11.3681 202.278C13.2508 204.081 14.8506 206.135 16.2713 208.423C18.2927 211.634 18.9942 215.235 20.8083 218.474C23.6613 223.525 27.8673 227.653 32.9551 230.499C35.5214 231.893 37.6072 232.084 40.1317 230.843C43.5919 229.104 43.9492 233.28 43.6965 235.691C43.5971 237.289 43.2314 238.871 42.7479 240.362C42.0522 242.623 40.4659 242.997 38.2292 243.249C31.5639 243.945 22.5849 240.836 18.3273 235.554C16.1101 232.845 14.4281 229.8 12.746 226.754C10.8589 223.367 8.54045 220.303 6.54967 216.929C2.80377 210.362 -3.96424 206.425 -11.3536 209.174C-15.8791 210.846 -16.9984 209.995 -16.4199 205.321C-16.1697 203.28 -16.6944 199.813 -15.7445 199.42C-12.2112 197.83 -8.15944 196.169 -4.41683 196.505C-0.511606 196.871 3.99929 197.419 7.49405 199.425C8.96927 200.175 10.2064 201.116 11.3681 202.278ZM-12.875 204.205C-12.8399 205.626 -12.5736 205.643 -11.2703 205.518C-9.86318 205.38 -8.58805 205.047 -7.16686 205.012C-6.38201 204.958 -5.58305 205.008 -4.843 205.013C-1.38083 205.228 2.09058 206.287 4.9042 208.334C7.42326 210.156 8.41253 212.768 9.83074 215.427C12.024 219.511 14.6487 223.274 16.842 227.359C20.6303 234.237 27.8904 239.85 36.1065 239.682C38.164 239.666 40.3418 239.37 40.6087 237.062C40.689 236.101 40.7129 234.724 40.2299 233.892C40.2888 233.937 37.0881 234.478 36.6592 234.431C34.663 234.122 32.7423 233.591 30.9419 232.78C27.282 231.113 24.2518 228.251 21.667 225.17C20.0954 223.324 19 221.097 17.7113 219.001C16.5545 217.099 15.6923 215.421 14.9951 213.403C13.4265 208.864 9.8665 203.275 5.00702 201.718C-0.132897 200.041 -5.04448 199.653 -10.4488 199.914C-11.0262 199.94 -11.7074 199.98 -12.1835 200.361C-13.1807 201.184 -12.9266 203.05 -12.875 204.205Z" fill="#333333"/>
</g>
<path opacity="0.1" d="M645.083 679.933C646.214 678.71 647.09 677.17 648.19 675.991C648.928 675.142 650.137 674.9 651.175 675.06C652.212 675.22 653.119 675.813 653.953 676.419C659.878 680.724 666.03 684.798 671.954 689.102C672.55 689.535 672.745 691.524 672.306 692.128C670.989 693.941 669.521 695.71 667.966 697.35C666.834 698.572 665.975 700.257 664.354 699.144C659.829 695.923 655.305 692.702 650.781 689.481C648.166 687.646 645.102 686.344 642.769 684.121C642.689 684.063 642.602 683.933 642.553 683.832C642.505 683.731 642.528 683.616 642.551 683.501C642.983 681.902 644.023 681.141 645.083 679.933ZM646.442 683.162C646.492 683.595 646.827 683.97 647.447 684.288C649.035 685.112 650.654 685.893 652.228 686.904C655.971 689.361 659.715 691.817 663.262 694.46C666.093 696.583 666.835 693.89 668.21 692.582C670.042 690.813 668.747 690.004 667.475 689.079C661.814 685.165 656.225 681.236 650.446 677.234C650.406 677.205 647.527 680.917 647.276 681.262C646.703 681.967 646.375 682.586 646.442 683.162Z" fill="#333333"/>
<g opacity="0.1">
<path d="M795.658 -5.04678C796.751 -7.84849 800.217 -6.89877 802.686 -6.61385C806.39 -6.13898 810.047 -5.66411 813.751 -5.23673C815.603 -4.99929 816.363 -4.14454 815.46 -2.48251C814.368 -0.3931 813.086 1.55386 811.804 3.54829C809.572 7.10979 807.34 10.6713 805.061 14.1853C800.929 20.5485 796.323 26.5793 792.239 32.99C790.197 36.1241 788.678 39.6856 786.589 42.7722C785.164 44.9091 783.597 46.951 782.03 49.0405C781.27 50.0377 779.655 53.7416 777.993 52.507C776.664 51.5098 778.373 48.993 778.658 47.8058C779.181 45.9064 779.703 44.0069 780.273 42.1074C781.318 38.4984 782.362 34.8894 783.454 31.233C784.974 26.1994 786.494 21.1658 788.203 16.2272C789.438 12.6182 790.815 9.00924 792.144 5.40025C793.379 2.02871 794.519 -1.29535 795.516 -4.71439C795.563 -4.80936 795.611 -4.90432 795.658 -5.04678ZM783.359 40.2554L783.407 40.3029C784.642 39.4956 785.401 37.0263 786.114 35.7442C787.063 33.9872 788.013 32.2777 788.915 30.5207C790.815 27.0542 792.667 23.5401 794.566 20.0736C796.466 16.5596 798.318 13.0931 800.217 9.5791C800.787 8.58188 805.251 -1.01043 805.868 -0.915458C803.541 -1.24786 801.024 -1.67523 798.555 -1.91266C797.938 -1.96015 796.941 -1.43781 796.703 -0.915458C795.516 1.45887 794.424 3.83321 793.569 6.30251C790.767 14.4702 788.013 22.6379 785.401 30.8056C784.832 32.5626 784.404 34.4146 783.977 36.2191C783.644 37.2163 782.552 39.4007 783.359 40.2554Z" fill="#333333"/>
<path d="M775.192 63.6662C775.999 64.1411 776.759 64.6634 777.424 65.3282C779.086 66.9903 778.943 69.0322 778.658 71.2166C778.516 72.1663 778.373 73.1635 778.041 74.0658C777.139 76.4876 775.334 76.9625 773.007 77.3898C768.401 78.1971 764.555 75.8703 763.225 71.454C761.943 67.1327 766.359 61.6718 770.87 62.3366C771.44 62.4316 772.058 62.5265 772.627 62.669C773.53 62.8589 774.384 63.1913 775.192 63.6662ZM772.295 70.3143C772.39 69.9819 772.485 69.697 772.532 69.3646C773.007 64.6159 766.407 64.4735 766.027 69.1272C765.884 70.6942 765.789 72.6887 767.736 72.9736C769.066 73.1635 770.491 72.6887 771.44 71.7389C771.82 71.2641 772.105 70.7892 772.295 70.3143Z" fill="#333333"/>
</g>
<g opacity="0.1">
<path d="M111.432 378.982C109.77 378.317 113.426 377.225 113.664 377.177C115.563 376.702 116.655 375.99 117.462 374.043C119.077 369.959 115.183 370.861 113.046 368.677C107.395 362.836 115.705 355.096 122.021 356.188C129.619 357.47 132.706 365.543 129.714 372.096C126.58 379.029 118.412 381.783 111.432 378.982ZM119.647 375.847C122.923 373.948 125.393 370.434 124.206 366.398C123.493 363.881 119.789 361.649 117.225 361.744C115.753 361.791 114.708 362.504 114.281 363.976C113.664 366.113 114.756 367.015 116.513 367.727C120.597 369.437 120.644 372.001 119.457 375.99C119.457 375.942 119.552 375.895 119.647 375.847Z" fill="#333333"/>
<path d="M119.789 344.554C121.309 340.66 125.63 337.716 129.714 339.568C132.848 340.992 134.795 344.649 134.083 348.02C132.278 356.473 116.37 353.244 119.789 344.554ZM128.052 347.166C128.812 342.512 122.686 342.417 122.449 346.548C122.259 350.062 127.435 351.06 128.052 347.166Z" fill="#333333"/>
</g>
<g opacity="0.1">
<path d="M365.306 746.98C363.055 746.581 362.064 742.206 360.649 739.751C357.195 733.711 353.244 727.916 349.706 721.986C347.747 718.704 345.842 715.394 344.516 711.869C343.38 708.866 344.79 707.418 347.397 708.12C356.26 710.537 365.095 713.035 373.903 715.616C376.399 716.373 378.756 717.541 381.224 718.518C382.951 719.242 384.676 720.38 385.16 722.196C385.669 724.343 384.228 726.423 382.871 728.119C378.192 733.918 373.837 740.654 368.31 745.706C367.066 746.798 366.075 747.149 365.306 746.98ZM360.53 732C360.199 732.3 360.169 732.657 360.909 733.046C362.444 733.798 365.451 731.836 366.829 731.295C369.225 730.32 371.677 729.317 374.102 728.26C375.839 727.473 377.687 726.22 378.988 724.826C379.457 724.389 379.873 723.842 379.904 723.21C379.991 722.413 379.418 721.668 378.762 721.169C374.684 718.177 370.345 722.301 366.708 723.818C365.11 724.469 358.671 725.722 358.442 727.342C358.068 730.061 361.681 727.939 362.563 727.504C364.189 726.772 365.87 726.012 367.551 725.39C368.652 724.984 374.054 722.598 374.59 724.8C374.911 726.286 367.998 728.663 366.814 729.179C365.353 729.83 363.81 730.453 362.35 731.103C361.992 731.211 360.945 731.59 360.53 732ZM354.131 722.067C353.992 722.204 353.964 722.286 353.963 722.424C353.934 722.781 354.124 723.167 354.452 723.416C355.218 724.135 356.454 724.142 357.472 723.984C359.783 723.667 362.149 723.324 364.297 722.54C366.693 721.702 369.231 720.178 370.973 718.292C370.894 717.714 370.071 717.572 369.466 717.596C366.496 717.826 363.883 718.222 361.046 719.277C359.944 719.683 355.181 721.002 354.131 722.067ZM348.003 712.549C348.19 713.484 348.87 714.725 348.87 714.725C349.685 716.242 350.528 717.813 351.398 719.303C351.561 719.634 352.384 719.913 352.742 719.805C354.257 719.265 355.8 718.642 357.315 718.101C358.417 717.695 360.26 717.404 361.198 716.667C361.502 716.449 361.752 715.984 361.644 715.626C361.591 715.378 361.345 715.157 361.153 715.046C360.524 714.602 359.672 714.542 358.903 714.51C357.501 714.447 356.293 714.357 354.971 714.734C353.374 715.247 353.014 715.629 351.866 714.551C350.718 713.472 350.232 712.067 348.503 711.617C347.872 711.449 347.842 711.943 348.003 712.549ZM363.389 736.689C363.333 736.854 363.304 737.073 363.303 737.211C363.721 740.841 374.981 732.965 376.305 732.176C376.719 731.903 377.217 731.384 376.89 730.997C376.672 730.694 376.231 730.774 375.928 730.854C373.534 731.417 371.082 732.42 368.768 733.285C367.143 733.88 363.977 734.824 363.389 736.689ZM367.842 741.14C368.393 740.869 369 740.57 369.524 740.243C369.828 740.025 369.994 739.806 369.968 739.476C369.118 739.142 366.254 740.142 365.891 741.074C365.332 742.582 367.236 741.439 367.842 741.14Z" fill="#333333"/>
</g>
<g opacity="0.1">
<path d="M792.678 613.615C793.248 607.062 793.771 599.274 798.947 594.573C803.458 590.442 809.869 588.257 815.662 586.69C830.81 582.511 847.336 581.087 862.911 579.425C870.936 578.57 878.962 578 887.034 578C893.872 578 900.853 577.953 906.979 581.277C913.057 584.553 914.292 589.064 914.577 595.618C914.956 603.785 914.529 611.953 913.627 620.073C912.155 633.512 911.632 650.56 899.761 659.392C888.601 667.702 873.643 663.856 860.822 663.856C852.986 663.856 845.151 664.283 837.363 665.09C832.615 665.565 827.391 666.04 823.165 668.462C819.746 670.409 817.704 673.591 816.422 677.247C814.332 683.23 813.098 689.356 810.771 695.292C809.631 698.284 809.251 701.18 805.642 700.183C802.603 699.376 798.614 697.334 797.427 694.295C794.435 686.697 794.34 676.44 793.771 668.415C792.489 650.465 791.159 631.565 792.678 613.615ZM808.017 687.124C809.394 690.021 809.869 686.317 810.059 685.415C810.581 682.85 811.483 680.334 812.148 677.817C813.715 671.739 815.852 668.082 821.693 665.375C833.754 659.772 847.288 661.244 860.252 661.054C870.651 660.912 882.523 662.621 892.353 658.442C901.138 654.691 905.412 646.761 907.454 637.833C908.926 631.422 909.875 624.964 910.445 618.411C911.015 611.858 911.87 604.498 910.825 597.944C908.688 584.838 893.587 586.785 883.378 586.738C869.702 586.643 856.073 588.637 842.492 589.967C832.615 590.964 814.047 590.631 808.444 600.936C805.025 607.204 804.882 616.939 804.882 623.825C804.835 631.138 805.025 638.45 805.262 645.763C805.5 653.599 805.785 661.387 806.402 669.222C806.687 672.736 807.114 676.297 807.304 679.811C807.399 682.186 806.972 684.94 808.017 687.124Z" fill="#333333"/>
<path d="M874.022 634.177C874.022 634.509 874.165 634.841 874.402 635.079C874.497 635.126 874.592 635.221 874.64 635.269C874.83 635.364 875.067 635.459 875.305 635.459C875.352 635.459 875.4 635.459 875.447 635.459C875.59 635.459 875.732 635.459 875.874 635.411C876.159 635.364 876.349 635.174 876.587 635.031C876.777 634.842 876.919 634.604 876.967 634.367C877.014 634.224 877.014 634.082 877.014 633.939C877.014 633.892 877.014 633.844 877.014 633.797C877.014 633.607 876.967 633.464 876.919 633.322C876.872 633.179 876.777 633.037 876.634 632.895C876.397 632.657 876.064 632.515 875.732 632.515C875.4 632.515 875.067 632.657 874.83 632.895C874.782 632.99 874.687 633.037 874.64 633.132C874.545 633.179 874.45 633.274 874.402 633.322C874.212 633.512 874.022 633.892 874.022 634.177Z" fill="#333333"/>
<path d="M861.724 635.887C863.386 635.887 863.386 633.322 861.724 633.322C860.062 633.322 860.062 635.887 861.724 635.887Z" fill="#333333"/>
<path d="M845.531 636.741C847.193 636.741 847.193 634.177 845.531 634.177C843.869 634.177 843.869 636.741 845.531 636.741Z" fill="#333333"/>
<path d="M828.531 637.596C830.193 637.596 830.193 635.031 828.531 635.031C826.869 635.031 826.869 637.596 828.531 637.596Z" fill="#333333"/>
<path d="M875.353 616.749C877.015 616.749 877.015 614.185 875.353 614.185C873.691 614.185 873.691 616.749 875.353 616.749Z" fill="#333333"/>
<path d="M860.014 618.459C861.676 618.459 861.676 615.895 860.014 615.895C858.352 615.895 858.352 618.459 860.014 618.459Z" fill="#333333"/>
<path d="M842.491 618.507C842.729 618.744 843.061 618.887 843.393 618.887H843.821C844.153 618.887 844.486 618.744 844.723 618.507C844.961 618.269 845.103 617.937 845.103 617.604C845.103 617.272 844.961 616.94 844.723 616.702C844.486 616.465 844.153 616.322 843.821 616.322H843.393C843.061 616.322 842.729 616.465 842.491 616.702C842.254 616.94 842.111 617.272 842.111 617.604C842.159 617.937 842.254 618.269 842.491 618.507Z" fill="#333333"/>
<path d="M826.821 618.887C828.483 618.887 828.483 616.322 826.821 616.322C825.159 616.322 825.159 618.887 826.821 618.887Z" fill="#333333"/>
</g>
</g>
<defs>
<clipPath id="clip0">
<rect width="902" height="765" rx="44" fill="white"/>
</clipPath>
</defs>
</svg>
