<svg width="1920" height="967" viewBox="0 0 1920 967" fill="none" xmlns="http://www.w3.org/2000/svg">
<path opacity="0.15" d="M534.193 760.597H534.693V760.097V564.89V564.39H534.193H441.123V367.01V366.51H440.623H213.382H212.953L212.887 366.933L182.209 564.39H71.108L275.331 82.417L275.538 81.9283L275.038 81.7507L49.1329 1.52883L48.6902 1.3716L48.5058 1.80371L-201.46 587.424L-201.5 587.518V587.62V760.097V760.597H-201H179.467L180.8 939.263L180.804 939.759H181.3H440.623H441.123V939.259V760.597H534.193ZM1228.67 841.959L1228.68 841.957C1292.04 758.051 1323.68 639.379 1323.68 486.006C1323.68 332.633 1292.04 214.849 1228.67 132.724C1165.29 49.6878 1074.69 8.18515 956.925 8.18515C839.161 8.18515 748.554 49.6878 685.176 132.724C621.811 214.849 590.165 332.633 590.165 486.006C590.165 639.379 621.812 758.051 685.172 841.957L685.174 841.959C748.553 924.996 839.161 966.5 956.925 966.5C1074.69 966.5 1165.3 924.996 1228.67 841.959ZM1043.32 665.093L1043.32 665.103C1037.97 706.083 1028.63 734.482 1015.36 750.412C1002.11 765.426 982.664 772.967 956.925 772.967C932.102 772.967 912.647 764.552 898.497 747.748C885.216 730.917 875.431 702.505 869.197 662.426C863.854 621.457 861.181 562.654 861.181 486.006C861.181 410.247 863.854 351.889 869.197 310.919C875.433 269.939 885.219 241.537 898.493 225.604C912.644 208.798 932.1 200.381 956.925 200.381C982.667 200.381 1002.12 207.924 1015.36 222.941C1028.63 237.974 1037.97 265.92 1043.31 306.908L1043.32 306.92C1049.55 346.992 1052.67 406.681 1052.67 486.006C1052.67 564.438 1049.55 624.128 1043.32 665.093ZM2121 760.597H2121.5V760.097V564.89V564.39H2121H2027.93V367.01V366.51H2027.43H1800.19H1799.76L1799.69 366.933L1769.02 564.39H1657.91L1862.14 82.417L1862.34 81.9283L1861.84 81.7507L1635.94 1.52883L1635.5 1.3716L1635.31 1.80371L1385.35 587.424L1385.31 587.518V587.62V760.097V760.597H1385.81H1766.27L1767.61 939.263L1767.61 939.759H1768.11H2027.43H2027.93V939.259V760.597H2121Z" stroke="#4B6858"/>
</svg>
