<svg width="20" height="20" viewBox="0 0 20 20" fill="none" xmlns="http://www.w3.org/2000/svg">
<path fill-rule="evenodd" clip-rule="evenodd" d="M7.41658 1.66602H12.5583C14.8166 1.66602 16.6416 2.55768 16.6666 4.82435V17.4743C16.6666 17.616 16.6333 17.7577 16.5666 17.8827C16.4583 18.0827 16.2749 18.2327 16.0499 18.2993C15.8333 18.366 15.5916 18.3327 15.3916 18.216L9.99158 15.516L4.58325 18.216C4.45909 18.2819 4.31659 18.3244 4.17492 18.3244C3.70825 18.3244 3.33325 17.941 3.33325 17.4743V4.82435C3.33325 2.55768 5.16659 1.66602 7.41658 1.66602ZM6.84985 8.01601H13.1248C13.4832 8.01601 13.7748 7.72351 13.7748 7.35768C13.7748 6.99101 13.4832 6.69934 13.1248 6.69934H6.84985C6.49151 6.69934 6.19985 6.99101 6.19985 7.35768C6.19985 7.72351 6.49151 8.01601 6.84985 8.01601Z" fill="#4B6858"/>
</svg>
