<svg width="36" height="36" viewBox="0 0 36 36" fill="none" xmlns="http://www.w3.org/2000/svg">
<path d="M0.0120697 9.64049L0.483074 6.95411C0.547707 6.58552 0.85527 6.31808 1.21372 6.31808C1.21521 6.31808 1.21595 6.31808 1.21744 6.31808C1.57775 6.31963 1.8842 6.59056 1.94586 6.9607L6.18303 32.433L27.7775 32.4338C28.2949 32.4338 28.7737 32.2105 29.127 31.8055C29.5319 31.34 29.7573 30.6459 29.7031 30.0509C29.5449 28.6172 28.5516 27.5761 27.3429 27.5761H9.32145C8.95928 27.5761 8.64949 27.3037 8.58931 26.9304L4.37034 0.904632C4.33393 0.679443 4.39411 0.449215 4.53563 0.2748C4.67642 0.100385 4.88406 0 5.10247 0H23.1098C27.2177 0 31.2279 3.48597 32.05 7.76805L35.8975 27.4254C36.2437 29.7269 35.7066 31.8904 34.3849 33.5187C33.0871 35.1175 31.1841 35.9981 29.0263 35.9981L28.6824 35.9969C28.6757 35.9969 28.6694 35.9973 28.6619 35.9973C27.5127 35.9984 5.53336 36 5.30417 36C4.47249 36 3.76376 35.3783 3.61666 34.5051L0.00872803 9.8963C-0.00427246 9.8118 -0.00241852 9.7246 0.0120697 9.64049Z" fill="#4B6858"/>
</svg>
