<svg width="51" height="52" viewBox="0 0 51 52" fill="none" xmlns="http://www.w3.org/2000/svg">
<rect width="51" height="52" rx="12" fill="white"/>
<path d="M20.8924 30.0807C21.4164 29.6573 21.829 29.1371 22.1012 28.5568C22.3733 27.9766 22.4983 27.3505 22.4672 26.7227V23.8873C22.3006 23.7224 22.0719 23.6169 21.8239 23.5904C20.2826 23.4627 20.2826 25.0333 19.8838 25.7756V26.8801C19.9012 27.5722 19.7763 28.2613 19.5153 28.9138C19.5019 28.9493 19.4862 28.984 19.4684 29.0178C19.4581 29.0442 19.4458 29.07 19.4315 29.095C19.4047 29.1514 19.3678 29.2197 19.3243 29.2939C19.3107 29.3205 19.295 29.3463 19.2774 29.3711C19.2254 29.4599 19.166 29.5453 19.0998 29.6264C19.0377 29.7097 18.9706 29.79 18.8987 29.8669C18.6187 30.1959 18.2531 30.4601 17.8331 30.6369C17.413 30.8137 16.9509 30.8979 16.4862 30.8823C15.9193 30.8601 15.3675 30.7127 14.8812 30.4534C14.3949 30.1942 13.9895 29.8313 13.7018 29.3978C12.9278 28.2518 12.328 26.3071 14.707 24.1337L13.092 22.6997C12.6651 23.1883 12.2713 23.6989 11.9125 24.2287C11.6626 24.6146 11.4561 25.0214 11.296 25.4431C11.1071 25.9203 11.0086 26.4219 11.0045 26.9276C10.9744 27.5297 11.0955 28.1301 11.3592 28.6857C11.6228 29.2412 12.0224 29.738 12.5291 30.14C13.5454 30.9318 14.9315 31.3277 16.6873 31.3277C18.443 31.3366 19.8436 30.9209 20.8924 30.0807Z" fill="#333333"/>
<path d="M40.4234 27.0451C40.0818 26.2236 39.609 25.4497 39.0195 24.7471C38.4837 24.1133 37.8419 23.5556 37.1163 23.0933C36.5125 22.6986 35.8306 22.4076 35.1059 22.2353C34.739 22.1395 34.3634 22.072 33.9834 22.0334C34.3686 21.8344 34.6921 21.5539 34.9249 21.2169C35.1575 20.9087 35.2993 20.5538 35.3373 20.1845C35.3754 19.8153 35.3085 19.4434 35.1427 19.103C34.6703 18.2509 33.4908 17.8768 32.4622 17.9154C31.8521 17.9284 31.2636 18.1182 30.7868 18.4557C30.4196 18.718 30.1279 19.0538 29.9358 19.4355C29.8398 19.6315 29.7701 19.8368 29.728 20.0471C29.6919 20.2643 29.6773 20.4839 29.6845 20.7033H31.2358C31.1296 20.427 31.1296 20.1274 31.2358 19.8512C31.3097 19.6797 31.4216 19.523 31.5648 19.3903C31.7081 19.2576 31.8798 19.1517 32.0699 19.0786C32.26 19.0056 32.4647 18.967 32.6719 18.9651C32.879 18.9631 33.0846 18.9979 33.2764 19.0674C33.8661 19.2782 34.0672 19.8809 34.0437 20.4064C34.0316 20.8025 33.8619 21.1822 33.5646 21.4782C33.4066 21.6353 33.2211 21.7686 33.015 21.8731C32.9082 21.9266 32.796 21.9713 32.68 22.0067C32.6264 22.0245 32.5493 22.0512 32.4756 22.069C32.4343 22.0661 32.3929 22.0661 32.3516 22.069C31.7703 22.1415 31.1981 22.2628 30.6427 22.4312C29.8208 22.6668 29.0428 23.009 28.3341 23.4467C27.6861 23.8512 27.1091 24.3384 26.6219 24.8926C26.441 25.0974 26.2868 25.3082 26.1227 25.519C26.1166 25.0597 26.0582 24.6022 25.9484 24.1533C25.7698 23.2868 25.3338 22.4782 24.6852 21.8107C24.0981 21.2554 23.3164 20.8924 22.4671 20.7805V10L20.0211 11.8052L17.7962 13.453L18.2016 13.7766L18.4931 14.0082L19.9942 12.8592L19.8837 17.6749V21.1991C19.347 21.4618 18.8762 21.8183 18.4998 22.2472C18.2924 22.4874 18.1117 22.745 17.9604 23.0161C17.891 23.1187 17.8359 23.2284 17.7962 23.3427L19.3409 24.6847C19.3409 24.6847 19.6056 22.36 21.874 22.4639C23.7705 22.553 23.6934 25.038 23.6934 25.038L23.5527 28.3426V37.5465C23.5653 38.2068 23.452 38.8643 23.2176 39.4912C23.2176 39.4912 23.2176 39.5387 23.1607 39.6218C23.039 39.9027 22.8744 40.1674 22.6715 40.4086C22.2845 40.89 21.7147 41.2315 21.0665 41.3706H21.0363C20.7601 41.4361 20.4743 41.4642 20.1886 41.4537C19.6218 41.4307 19.0704 41.283 18.5843 41.0238C18.0981 40.7646 17.6925 40.4022 17.4042 39.9692C16.6369 38.835 16.0438 36.9141 18.3424 34.7705L16.7541 33.3631C16.3281 33.8523 15.9343 34.3628 15.5747 34.8922C15.326 35.2782 15.1206 35.685 14.9615 36.1065C14.7711 36.5834 14.6726 37.0852 14.67 37.591C14.6382 38.1951 14.7593 38.7979 15.0242 39.3553C15.2891 39.9126 15.6913 40.4105 16.2013 40.8124C17.2176 41.6041 18.6026 42 20.3561 42C22.1097 42 23.5125 41.5804 24.5646 40.7411C25.0876 40.3172 25.4994 39.7969 25.7709 39.2167C26.0424 38.6365 26.1671 38.0107 26.1361 37.3832V37.0863C25.9086 36.7755 25.7038 36.4523 25.5229 36.1184C25.2212 35.5698 24.9821 34.9959 24.8092 34.4053C24.6572 33.8974 24.5762 33.3749 24.5679 32.8495V31.8519C24.5679 31.7243 24.5679 31.5936 24.5679 31.463C24.5999 31.892 24.6773 32.3175 24.7991 32.7337C25.1623 33.9589 25.8018 35.1062 26.6789 36.1065C27.1465 36.6459 27.6904 37.1299 28.2973 37.5465C28.9051 37.9692 29.5833 38.3057 30.3077 38.5441C31.0788 38.7957 31.8951 38.9215 32.7168 38.9152C33.5795 38.9237 34.4373 38.8011 35.2533 38.553C35.9909 38.3238 36.6863 37.9997 37.3173 37.591C37.9232 37.1949 38.4664 36.7286 38.9324 36.2045C39.385 35.6962 39.7716 35.1445 40.085 34.5597C40.3844 34.0076 40.6147 33.4282 40.7719 32.8317C40.9175 32.2928 40.9939 31.741 40.9997 31.1869V29.8271C41.0033 28.8761 40.8079 27.9329 40.4234 27.0451ZM37.7429 34.8061C37.7429 34.8061 36.5232 38.0364 32.9413 37.9889H32.8944C32.6443 37.9891 32.3949 37.9652 32.1506 37.9176C32.1086 37.9125 32.0672 37.9046 32.0266 37.8939C29.8654 37.4901 28.2336 35.774 27.5568 33.948C26.6461 31.5948 26.7379 29.0278 27.8148 26.7304C28.1926 25.9291 28.6969 25.1794 29.3125 24.5036C30.3646 23.3754 31.7753 22.553 33.5009 22.7786C33.8131 22.8184 34.1175 22.8964 34.4056 23.0102C36.7008 23.889 37.8802 26.3028 38.3125 28.3426C38.747 30.5041 38.5556 32.7279 37.7563 34.8061H37.7429Z" fill="#333333"/>
</svg>
