<svg width="20" height="20" viewBox="0 0 20 20" fill="none" xmlns="http://www.w3.org/2000/svg">
<path fill-rule="evenodd" clip-rule="evenodd" d="M6.50833 1.66602H13.4925C16.0667 1.66602 17.5 3.14935 17.5 5.69102V14.2993C17.5 16.8827 16.0667 18.3327 13.4925 18.3327H6.50833C3.975 18.3327 2.5 16.8827 2.5 14.2993V5.69102C2.5 3.14935 3.975 1.66602 6.50833 1.66602ZM6.73337 5.54935V5.54101H9.2242C9.58337 5.54101 9.87503 5.83268 9.87503 6.19018C9.87503 6.55768 9.58337 6.84935 9.2242 6.84935H6.73337C6.3742 6.84935 6.08337 6.55768 6.08337 6.19935C6.08337 5.84101 6.3742 5.54935 6.73337 5.54935ZM6.73337 10.616H13.2667C13.625 10.616 13.9167 10.3243 13.9167 9.966C13.9167 9.60767 13.625 9.31517 13.2667 9.31517H6.73337C6.3742 9.31517 6.08337 9.60767 6.08337 9.966C6.08337 10.3243 6.3742 10.616 6.73337 10.616ZM6.73334 14.4244H13.2667C13.5992 14.391 13.85 14.1069 13.85 13.7744C13.85 13.4327 13.5992 13.1494 13.2667 13.116H6.73334C6.48334 13.091 6.24167 13.2077 6.10834 13.4244C5.97501 13.6327 5.97501 13.9077 6.10834 14.1244C6.24167 14.3327 6.48334 14.4577 6.73334 14.4244Z" fill="#5A5B5B"/>
</svg>
