<svg width="276" height="52" viewBox="0 0 276 52" fill="none" xmlns="http://www.w3.org/2000/svg">
<path d="M74.448 12.27V19.13C74.448 19.7367 74.308 20.278 74.028 20.754C73.7573 21.23 73.3513 21.6033 72.81 21.874C72.278 22.1353 71.634 22.266 70.878 22.266C70.15 22.266 69.52 22.1353 68.988 21.874C68.456 21.6127 68.0547 21.2673 67.784 20.838C67.5133 20.3993 67.378 19.9327 67.378 19.438C67.378 18.9807 67.4807 18.5747 67.686 18.22L69.94 18.794C69.884 18.9433 69.856 19.1347 69.856 19.368C69.856 19.6667 69.94 19.914 70.108 20.11C70.276 20.306 70.5327 20.404 70.878 20.404C71.2047 20.404 71.4473 20.3013 71.606 20.096C71.774 19.8907 71.858 19.6013 71.858 19.228V15.7C71.5593 15.4667 71.2327 15.35 70.878 15.35C70.5793 15.35 70.3553 15.4293 70.206 15.588C70.0567 15.7373 69.982 15.9333 69.982 16.176C69.982 16.3533 70.0147 16.5587 70.08 16.792L67.91 17.226C67.686 16.8247 67.574 16.3953 67.574 15.938C67.574 15.49 67.6813 15.0793 67.896 14.706C68.12 14.3327 68.4233 14.0387 68.806 13.824C69.1887 13.6 69.618 13.488 70.094 13.488C70.43 13.488 70.752 13.544 71.06 13.656C71.368 13.7587 71.634 13.8987 71.858 14.076V12.27H74.448ZM80.7547 12.27C80.7641 12.7553 80.8667 13.1987 81.0627 13.6C81.2681 14.0013 81.5667 14.482 81.9587 15.042C82.2574 15.4713 82.5001 15.8493 82.6867 16.176C82.8734 16.4933 83.0321 16.8573 83.1627 17.268C83.2934 17.6787 83.3587 18.1267 83.3587 18.612C83.3587 19.368 83.1954 20.0213 82.8687 20.572C82.5514 21.1227 82.0987 21.5427 81.5107 21.832C80.9227 22.1213 80.2367 22.266 79.4527 22.266C78.6594 22.266 77.9734 22.1167 77.3947 21.818C76.8161 21.5193 76.3727 21.0993 76.0647 20.558C75.7567 20.0073 75.6027 19.368 75.6027 18.64C75.6027 17.8933 75.8081 17.142 76.2187 16.386L78.4587 17.17C78.2721 17.6273 78.1787 18.1313 78.1787 18.682C78.1787 19.2233 78.2814 19.648 78.4867 19.956C78.6921 20.2547 79.0141 20.404 79.4527 20.404C79.8634 20.404 80.1667 20.264 80.3627 19.984C80.5587 19.6947 80.6567 19.298 80.6567 18.794C80.6567 18.262 80.5634 17.8 80.3767 17.408C80.1901 17.0067 79.9054 16.5447 79.5227 16.022C79.2241 15.602 78.9814 15.2333 78.7947 14.916C78.6081 14.5987 78.4494 14.2207 78.3187 13.782C78.1974 13.334 78.1367 12.83 78.1367 12.27H80.7547ZM85.1483 22C84.8683 21.4213 84.6489 20.796 84.4903 20.124C84.3409 19.4427 84.2663 18.6447 84.2663 17.73C84.2663 16.75 84.3876 15.924 84.6303 15.252C84.8823 14.5707 85.3303 14.0107 85.9743 13.572C86.6276 13.124 87.5423 12.8207 88.7183 12.662C89.4929 12.5593 90.1089 12.4567 90.5663 12.354C91.0329 12.2513 91.4296 12.1347 91.7563 12.004L92.5823 13.614C92.2836 13.838 91.8543 14.0387 91.2943 14.216C90.7343 14.384 90.0809 14.496 89.3343 14.552C88.4383 14.6173 87.7849 14.7293 87.3743 14.888C86.9729 15.0373 86.6929 15.252 86.5343 15.532C86.8516 15.2707 87.2669 15.14 87.7803 15.14C88.2656 15.14 88.6669 15.28 88.9843 15.56C89.3109 15.84 89.5256 16.2553 89.6283 16.806C89.7589 16.2553 90.0296 15.84 90.4403 15.56C90.8509 15.28 91.3736 15.14 92.0083 15.14C92.9323 15.14 93.6649 15.4153 94.2063 15.966C94.7476 16.5167 95.0183 17.3567 95.0183 18.486C95.0183 19.158 94.9389 19.76 94.7803 20.292C94.6309 20.8147 94.4116 21.384 94.1223 22H91.7283C91.9709 21.3373 92.1529 20.7633 92.2743 20.278C92.3956 19.7833 92.4563 19.242 92.4563 18.654C92.4563 17.5527 92.1669 17.002 91.5883 17.002C91.0936 17.002 90.8463 17.3427 90.8463 18.024V20.18H88.4243V18.024C88.4243 17.3427 88.1863 17.002 87.7103 17.002C87.4209 17.002 87.2016 17.1327 87.0523 17.394C86.9029 17.6553 86.8283 18.0707 86.8283 18.64C86.8283 19.2373 86.8843 19.7833 86.9963 20.278C87.1176 20.7727 87.2996 21.3467 87.5423 22H85.1483ZM105.12 12.018C106.156 12.018 106.959 12.3913 107.528 13.138C108.107 13.8753 108.396 15 108.396 16.512C108.396 17.7067 108.298 18.724 108.102 19.564C107.906 20.3947 107.636 21.2067 107.29 22H104.7C105.055 21.188 105.316 20.376 105.484 19.564C105.662 18.752 105.75 17.7813 105.75 16.652C105.75 15.6627 105.643 14.9533 105.428 14.524C105.223 14.0947 104.92 13.88 104.518 13.88C104.145 13.88 103.804 14.02 103.496 14.3C103.776 15.084 103.916 16.036 103.916 17.156C103.916 18.948 103.58 20.25 102.908 21.062C102.246 21.8647 101.28 22.266 100.01 22.266C98.7317 22.266 97.761 21.86 97.0983 21.048C96.4357 20.236 96.1043 18.9387 96.1043 17.156C96.1043 15.364 96.4357 14.062 97.0983 13.25C97.761 12.4287 98.7317 12.018 100.01 12.018C101.14 12.018 102.022 12.3307 102.656 12.956C103.328 12.3307 104.15 12.018 105.12 12.018ZM100.01 20.404C100.3 20.404 100.533 20.306 100.71 20.11C100.888 19.914 101.014 19.5827 101.088 19.116C101.172 18.64 101.214 17.9867 101.214 17.156C101.214 16.316 101.172 15.6627 101.088 15.196C101.014 14.72 100.888 14.384 100.71 14.188C100.533 13.9827 100.3 13.88 100.01 13.88C99.7023 13.88 99.4597 13.978 99.2823 14.174C99.1143 14.3607 98.9883 14.692 98.9043 15.168C98.8297 15.6347 98.7923 16.2973 98.7923 17.156C98.7923 18.0053 98.8297 18.6633 98.9043 19.13C98.9883 19.5967 99.1143 19.928 99.2823 20.124C99.4597 20.3107 99.7023 20.404 100.01 20.404ZM114.982 12.018C115.776 12.018 116.406 12.2467 116.872 12.704C117.348 13.152 117.586 13.7633 117.586 14.538V19.13C117.586 19.7367 117.442 20.278 117.152 20.754C116.872 21.2207 116.452 21.5893 115.892 21.86C115.332 22.1307 114.656 22.266 113.862 22.266C113.097 22.266 112.434 22.126 111.874 21.846C111.314 21.566 110.885 21.1833 110.586 20.698C110.297 20.2033 110.152 19.648 110.152 19.032C110.152 18.4347 110.311 17.856 110.628 17.296L112.868 17.968C112.747 18.2853 112.686 18.6353 112.686 19.018C112.686 19.438 112.78 19.774 112.966 20.026C113.162 20.278 113.461 20.404 113.862 20.404C114.245 20.404 114.53 20.278 114.716 20.026C114.903 19.774 114.996 19.4287 114.996 18.99V14.65C114.996 14.1367 114.8 13.88 114.408 13.88C113.998 13.88 113.792 14.1367 113.792 14.65V16.372H111.44V14.664C111.44 14.2627 111.263 14.062 110.908 14.062L110.558 14.076C110.372 14.0947 110.236 14.104 110.152 14.104C109.788 14.104 109.508 14.0247 109.312 13.866L109.634 12.074C109.83 12.1393 110.031 12.172 110.236 12.172C110.33 12.172 110.409 12.1673 110.474 12.158C110.549 12.1487 110.61 12.1393 110.656 12.13C110.88 12.0927 111.062 12.074 111.202 12.074C111.566 12.074 111.888 12.1813 112.168 12.396C112.458 12.6107 112.663 12.9467 112.784 13.404C112.934 12.9373 113.195 12.592 113.568 12.368C113.951 12.1347 114.422 12.018 114.982 12.018ZM126.56 22C126.401 21.5707 126.088 21.2393 125.622 21.006C125.155 20.7727 124.576 20.656 123.886 20.656C123.288 20.656 122.738 20.7307 122.234 20.88C121.739 21.02 121.258 21.2113 120.792 21.454L120.134 19.802C120.358 19.6993 120.642 19.6107 120.988 19.536C121.342 19.4613 121.66 19.424 121.94 19.424C121.277 19.116 120.717 18.8127 120.26 18.514C119.812 18.206 119.429 17.7953 119.112 17.282C118.794 16.7687 118.636 16.134 118.636 15.378C118.636 14.258 118.897 13.418 119.42 12.858C119.952 12.298 120.68 12.018 121.604 12.018C122.91 12.018 123.671 12.55 123.886 13.614C124.091 12.55 124.74 12.018 125.832 12.018C126.896 12.018 127.53 12.55 127.736 13.614C127.829 13.1007 128.067 12.7087 128.45 12.438C128.832 12.158 129.341 12.018 129.976 12.018C130.918 12.018 131.665 12.3073 132.216 12.886C132.766 13.4647 133.042 14.328 133.042 15.476C133.042 16.7547 132.668 17.9493 131.922 19.06L129.696 18.024C129.938 17.576 130.106 17.1607 130.2 16.778C130.293 16.3953 130.34 15.952 130.34 15.448C130.34 14.8507 130.274 14.4353 130.144 14.202C130.022 13.9687 129.831 13.852 129.57 13.852C129.131 13.852 128.912 14.132 128.912 14.692V16.862H126.49V14.692C126.49 14.132 126.27 13.852 125.832 13.852C125.626 13.852 125.463 13.922 125.342 14.062C125.22 14.1927 125.16 14.4027 125.16 14.692V16.862H122.738V14.678C122.738 14.3793 122.682 14.1693 122.57 14.048C122.467 13.9173 122.313 13.852 122.108 13.852C121.585 13.852 121.324 14.3327 121.324 15.294C121.324 15.9753 121.464 16.5307 121.744 16.96C122.024 17.38 122.411 17.7113 122.906 17.954C123.41 18.1873 124.072 18.4067 124.894 18.612C126.2 18.9387 127.222 19.368 127.96 19.9C128.706 20.432 129.122 21.132 129.206 22H126.56ZM134.138 16.596C134.138 15.0467 134.465 13.8987 135.118 13.152C135.771 12.396 136.728 12.018 137.988 12.018C139.229 12.018 140.181 12.3913 140.844 13.138C141.516 13.8847 141.852 15.0373 141.852 16.596C141.852 17.7533 141.773 18.766 141.614 19.634C141.465 20.502 141.255 21.2907 140.984 22H138.52C138.744 21.188 138.912 20.362 139.024 19.522C139.145 18.6727 139.206 17.716 139.206 16.652C139.206 15.6627 139.108 14.9533 138.912 14.524C138.725 14.0947 138.417 13.88 137.988 13.88C137.549 13.88 137.237 14.0947 137.05 14.524C136.863 14.944 136.77 15.658 136.77 16.666C136.77 17.73 136.831 18.6867 136.952 19.536C137.083 20.376 137.269 21.1973 137.512 22H135.034C134.754 21.2627 134.535 20.46 134.376 19.592C134.217 18.724 134.138 17.7253 134.138 16.596ZM150.029 12.018C150.729 12.018 151.345 12.144 151.877 12.396C152.409 12.648 152.82 13.0027 153.109 13.46C153.399 13.9173 153.543 14.4493 153.543 15.056V19.088C153.543 19.6853 153.403 20.2267 153.123 20.712C152.843 21.1973 152.433 21.58 151.891 21.86C151.35 22.1307 150.697 22.266 149.931 22.266C149.194 22.266 148.555 22.126 148.013 21.846C147.472 21.566 147.057 21.1833 146.767 20.698C146.478 20.2127 146.333 19.6667 146.333 19.06C146.333 18.5 146.483 17.9307 146.781 17.352L149.035 18.024C148.923 18.36 148.867 18.7007 148.867 19.046C148.867 19.4473 148.956 19.774 149.133 20.026C149.32 20.278 149.586 20.404 149.931 20.404C150.613 20.404 150.953 19.9887 150.953 19.158V14.93C150.953 14.594 150.874 14.3373 150.715 14.16C150.557 13.9733 150.333 13.88 150.043 13.88C149.754 13.88 149.53 13.964 149.371 14.132C149.222 14.2907 149.147 14.5053 149.147 14.776C149.147 15.056 149.185 15.3173 149.259 15.56L146.865 15.966C146.66 15.5273 146.557 15.112 146.557 14.72C146.557 14.188 146.702 13.7213 146.991 13.32C147.281 12.9093 147.687 12.592 148.209 12.368C148.732 12.1347 149.339 12.018 150.029 12.018ZM159.164 15.126C159.771 15.126 160.307 15.266 160.774 15.546C161.241 15.826 161.605 16.2227 161.866 16.736C162.127 17.2493 162.258 17.8373 162.258 18.5C162.258 19.648 161.927 20.5627 161.264 21.244C160.611 21.9253 159.668 22.266 158.436 22.266C157.213 22.266 156.285 21.9487 155.65 21.314C155.015 20.6793 154.698 19.7833 154.698 18.626V15.084C154.698 14.048 154.969 13.292 155.51 12.816C156.061 12.34 156.756 12.102 157.596 12.102C157.867 12.102 158.305 12.1347 158.912 12.2C159.341 12.256 159.659 12.284 159.864 12.284C160.349 12.284 160.797 12.2233 161.208 12.102L161.488 13.908C161.105 14.0853 160.639 14.174 160.088 14.174C159.892 14.174 159.607 14.146 159.234 14.09C159.178 14.0807 159.047 14.062 158.842 14.034C158.646 14.006 158.441 13.992 158.226 13.992C157.909 13.992 157.671 14.0573 157.512 14.188C157.363 14.3187 157.288 14.5287 157.288 14.818V15.686C157.493 15.518 157.759 15.3827 158.086 15.28C158.422 15.1773 158.781 15.126 159.164 15.126ZM158.436 20.404C159.201 20.404 159.584 19.8067 159.584 18.612C159.584 18.0147 159.491 17.5807 159.304 17.31C159.127 17.03 158.842 16.89 158.45 16.89C158.002 16.89 157.615 17.03 157.288 17.31V18.612C157.288 19.1907 157.372 19.634 157.54 19.942C157.717 20.25 158.016 20.404 158.436 20.404ZM163.321 16.596C163.321 15.0467 163.647 13.8987 164.301 13.152C164.954 12.396 165.911 12.018 167.171 12.018C168.412 12.018 169.364 12.3913 170.027 13.138C170.699 13.8847 171.035 15.0373 171.035 16.596C171.035 17.7533 170.955 18.766 170.797 19.634C170.647 20.502 170.437 21.2907 170.167 22H167.703C167.927 21.188 168.095 20.362 168.207 19.522C168.328 18.6727 168.389 17.716 168.389 16.652C168.389 15.6627 168.291 14.9533 168.095 14.524C167.908 14.0947 167.6 13.88 167.171 13.88C166.732 13.88 166.419 14.0947 166.233 14.524C166.046 14.944 165.953 15.658 165.953 16.666C165.953 17.73 166.013 18.6867 166.135 19.536C166.265 20.376 166.452 21.1973 166.695 22H164.217C163.937 21.2627 163.717 20.46 163.559 19.592C163.4 18.724 163.321 17.7253 163.321 16.596ZM175.995 22.266C174.772 22.266 173.839 21.9767 173.195 21.398C172.551 20.81 172.229 19.9793 172.229 18.906V12.27H174.819V18.78C174.819 19.34 174.917 19.7507 175.113 20.012C175.309 20.2733 175.598 20.404 175.981 20.404C176.727 20.404 177.101 19.9093 177.101 18.92C177.101 18.556 177.059 18.248 176.975 17.996C176.9 17.7347 176.779 17.4407 176.611 17.114C176.433 16.7593 176.298 16.4327 176.205 16.134C176.111 15.8353 176.065 15.4667 176.065 15.028H178.627C178.655 15.308 178.711 15.56 178.795 15.784C178.879 16.008 178.995 16.2693 179.145 16.568C179.359 16.9787 179.518 17.352 179.621 17.688C179.733 18.024 179.789 18.4347 179.789 18.92C179.789 19.9653 179.448 20.7867 178.767 21.384C178.085 21.972 177.161 22.266 175.995 22.266ZM189.921 16.134C190.518 16.4233 190.98 16.792 191.307 17.24C191.643 17.688 191.811 18.2153 191.811 18.822C191.811 19.5033 191.657 20.1053 191.349 20.628C191.041 21.1413 190.593 21.5427 190.005 21.832C189.426 22.1213 188.74 22.266 187.947 22.266C187.163 22.266 186.477 22.126 185.889 21.846C185.31 21.566 184.862 21.1647 184.545 20.642C184.228 20.1193 184.069 19.5127 184.069 18.822C184.069 17.9727 184.302 17.282 184.769 16.75C185.236 16.2087 185.964 15.742 186.953 15.35C187.429 15.1633 187.779 15.014 188.003 14.902C188.227 14.7807 188.376 14.6733 188.451 14.58C188.526 14.4773 188.563 14.3513 188.563 14.202C188.563 14.0433 188.507 13.9173 188.395 13.824C188.283 13.7307 188.11 13.684 187.877 13.684C187.354 13.684 187.093 13.866 187.093 14.23C187.093 14.3047 187.102 14.398 187.121 14.51L184.923 15.084C184.783 14.776 184.713 14.4633 184.713 14.146C184.713 13.7633 184.848 13.4133 185.119 13.096C185.39 12.7693 185.768 12.508 186.253 12.312C186.738 12.116 187.289 12.018 187.905 12.018C188.54 12.018 189.09 12.1207 189.557 12.326C190.033 12.522 190.397 12.7973 190.649 13.152C190.91 13.4973 191.041 13.894 191.041 14.342C191.041 14.7247 190.952 15.0607 190.775 15.35C190.598 15.6393 190.313 15.9007 189.921 16.134ZM189.179 18.794C189.179 18.402 189.09 18.052 188.913 17.744C188.745 17.4267 188.502 17.1327 188.185 16.862C187.616 17.114 187.224 17.3987 187.009 17.716C186.804 18.024 186.701 18.4253 186.701 18.92C186.701 19.396 186.804 19.7647 187.009 20.026C187.214 20.278 187.527 20.404 187.947 20.404C188.768 20.404 189.179 19.8673 189.179 18.794ZM193.601 22C193.321 21.4213 193.102 20.796 192.943 20.124C192.794 19.4427 192.719 18.6447 192.719 17.73C192.719 16.75 192.84 15.924 193.083 15.252C193.335 14.5707 193.783 14.0107 194.427 13.572C195.08 13.124 195.995 12.8207 197.171 12.662C197.946 12.5593 198.562 12.4567 199.019 12.354C199.486 12.2513 199.882 12.1347 200.209 12.004L201.035 13.614C200.736 13.838 200.307 14.0387 199.747 14.216C199.187 14.384 198.534 14.496 197.787 14.552C196.891 14.6173 196.238 14.7293 195.827 14.888C195.426 15.0373 195.146 15.252 194.987 15.532C195.304 15.2707 195.72 15.14 196.233 15.14C196.718 15.14 197.12 15.28 197.437 15.56C197.764 15.84 197.978 16.2553 198.081 16.806C198.212 16.2553 198.482 15.84 198.893 15.56C199.304 15.28 199.826 15.14 200.461 15.14C201.385 15.14 202.118 15.4153 202.659 15.966C203.2 16.5167 203.471 17.3567 203.471 18.486C203.471 19.158 203.392 19.76 203.233 20.292C203.084 20.8147 202.864 21.384 202.575 22H200.181C200.424 21.3373 200.606 20.7633 200.727 20.278C200.848 19.7833 200.909 19.242 200.909 18.654C200.909 17.5527 200.62 17.002 200.041 17.002C199.546 17.002 199.299 17.3427 199.299 18.024V20.18H196.877V18.024C196.877 17.3427 196.639 17.002 196.163 17.002C195.874 17.002 195.654 17.1327 195.505 17.394C195.356 17.6553 195.281 18.0707 195.281 18.64C195.281 19.2373 195.337 19.7833 195.449 20.278C195.57 20.7727 195.752 21.3467 195.995 22H193.601ZM209.541 12.27C209.55 12.7553 209.653 13.1987 209.849 13.6C210.054 14.0013 210.353 14.482 210.745 15.042C211.044 15.4713 211.286 15.8493 211.473 16.176C211.66 16.4933 211.818 16.8573 211.949 17.268C212.08 17.6787 212.145 18.1267 212.145 18.612C212.145 19.368 211.982 20.0213 211.655 20.572C211.338 21.1227 210.885 21.5427 210.297 21.832C209.709 22.1213 209.023 22.266 208.239 22.266C207.446 22.266 206.76 22.1167 206.181 21.818C205.602 21.5193 205.159 21.0993 204.851 20.558C204.543 20.0073 204.389 19.368 204.389 18.64C204.389 17.8933 204.594 17.142 205.005 16.386L207.245 17.17C207.058 17.6273 206.965 18.1313 206.965 18.682C206.965 19.2233 207.068 19.648 207.273 19.956C207.478 20.2547 207.8 20.404 208.239 20.404C208.65 20.404 208.953 20.264 209.149 19.984C209.345 19.6947 209.443 19.298 209.443 18.794C209.443 18.262 209.35 17.8 209.163 17.408C208.976 17.0067 208.692 16.5447 208.309 16.022C208.01 15.602 207.768 15.2333 207.581 14.916C207.394 14.5987 207.236 14.2207 207.105 13.782C206.984 13.334 206.923 12.83 206.923 12.27H209.541ZM216.861 12.018C218.093 12.018 219.021 12.3073 219.647 12.886C220.272 13.4647 220.585 14.2533 220.585 15.252V18.64C220.585 19.788 220.272 20.6793 219.647 21.314C219.021 21.9487 218.093 22.266 216.861 22.266C215.629 22.266 214.681 21.93 214.019 21.258C213.356 20.5767 213.025 19.6667 213.025 18.528C213.025 17.884 213.16 17.3053 213.431 16.792C213.701 16.2787 214.075 15.8773 214.551 15.588C215.036 15.2987 215.582 15.154 216.189 15.154C216.543 15.154 216.879 15.2053 217.197 15.308C217.523 15.4107 217.789 15.546 217.995 15.714V14.818C217.995 14.118 217.631 13.768 216.903 13.768C216.557 13.768 216.291 13.8287 216.105 13.95C215.918 14.0713 215.825 14.2393 215.825 14.454V14.51L213.347 14.692C213.319 14.608 213.305 14.4867 213.305 14.328C213.305 13.908 213.44 13.5207 213.711 13.166C213.991 12.8113 214.397 12.5313 214.929 12.326C215.47 12.1207 216.114 12.018 216.861 12.018ZM216.847 20.404C217.257 20.404 217.551 20.25 217.729 19.942C217.906 19.6247 217.995 19.186 217.995 18.626V17.338C217.705 17.058 217.346 16.918 216.917 16.918C216.525 16.918 216.221 17.0627 216.007 17.352C215.801 17.632 215.699 18.0613 215.699 18.64C215.699 19.816 216.081 20.404 216.847 20.404ZM226.757 12.27C226.767 12.7553 226.869 13.1987 227.065 13.6C227.271 14.0013 227.569 14.482 227.961 15.042C228.26 15.4713 228.503 15.8493 228.689 16.176C228.876 16.4933 229.035 16.8573 229.165 17.268C229.296 17.6787 229.361 18.1267 229.361 18.612C229.361 19.368 229.198 20.0213 228.871 20.572C228.554 21.1227 228.101 21.5427 227.513 21.832C226.925 22.1213 226.239 22.266 225.455 22.266C224.662 22.266 223.976 22.1167 223.397 21.818C222.819 21.5193 222.375 21.0993 222.067 20.558C221.759 20.0073 221.605 19.368 221.605 18.64C221.605 17.8933 221.811 17.142 222.221 16.386L224.461 17.17C224.275 17.6273 224.181 18.1313 224.181 18.682C224.181 19.2233 224.284 19.648 224.489 19.956C224.695 20.2547 225.017 20.404 225.455 20.404C225.866 20.404 226.169 20.264 226.365 19.984C226.561 19.6947 226.659 19.298 226.659 18.794C226.659 18.262 226.566 17.8 226.379 17.408C226.193 17.0067 225.908 16.5447 225.525 16.022C225.227 15.602 224.984 15.2333 224.797 14.916C224.611 14.5987 224.452 14.2207 224.321 13.782C224.2 13.334 224.139 12.83 224.139 12.27H226.757ZM230.269 17.394C230.269 16.1247 230.61 15.0747 231.291 14.244C231.972 13.404 232.943 12.8673 234.203 12.634L234.133 12.004H236.359L236.275 12.634C237.544 12.858 238.524 13.3853 239.215 14.216C239.906 15.0467 240.251 16.106 240.251 17.394C240.251 18.374 240.055 19.2327 239.663 19.97C239.271 20.698 238.697 21.2627 237.941 21.664C237.194 22.056 236.298 22.252 235.253 22.252C234.198 22.252 233.298 22.0607 232.551 21.678C231.804 21.286 231.235 20.726 230.843 19.998C230.46 19.2607 230.269 18.3927 230.269 17.394ZM232.915 17.394C232.915 19.4007 233.694 20.404 235.253 20.404C236.028 20.404 236.611 20.1613 237.003 19.676C237.404 19.1813 237.605 18.4207 237.605 17.394C237.605 16.5633 237.493 15.9193 237.269 15.462C237.045 14.9953 236.704 14.6313 236.247 14.37C236.359 14.7433 236.415 15.2287 236.415 15.826V18.108H234.091V15.882C234.091 15.238 234.147 14.734 234.259 14.37C233.792 14.6313 233.452 14.9907 233.237 15.448C233.022 15.9053 232.915 16.554 232.915 17.394ZM241.328 16.596C241.328 15.0467 241.654 13.8987 242.308 13.152C242.961 12.396 243.918 12.018 245.178 12.018C246.419 12.018 247.371 12.3913 248.034 13.138C248.706 13.8847 249.042 15.0373 249.042 16.596C249.042 17.7533 248.962 18.766 248.804 19.634C248.654 20.502 248.444 21.2907 248.174 22H245.71C245.934 21.188 246.102 20.362 246.214 19.522C246.335 18.6727 246.396 17.716 246.396 16.652C246.396 15.6627 246.298 14.9533 246.102 14.524C245.915 14.0947 245.607 13.88 245.178 13.88C244.739 13.88 244.426 14.0947 244.24 14.524C244.053 14.944 243.96 15.658 243.96 16.666C243.96 17.73 244.02 18.6867 244.142 19.536C244.272 20.376 244.459 21.1973 244.702 22H242.224C241.944 21.2627 241.724 20.46 241.566 19.592C241.407 18.724 241.328 17.7253 241.328 16.596ZM254.996 16.372C255.714 16.484 256.284 16.7733 256.704 17.24C257.133 17.6973 257.348 18.29 257.348 19.018C257.348 19.634 257.198 20.1893 256.9 20.684C256.61 21.1787 256.181 21.566 255.612 21.846C255.052 22.126 254.38 22.266 253.596 22.266C252.84 22.266 252.186 22.126 251.636 21.846C251.094 21.566 250.679 21.188 250.39 20.712C250.1 20.236 249.956 19.6993 249.956 19.102C249.956 18.5327 250.1 17.9867 250.39 17.464L252.644 18.122C252.532 18.402 252.476 18.724 252.476 19.088C252.476 19.48 252.564 19.7973 252.742 20.04C252.928 20.2827 253.213 20.404 253.596 20.404C254.296 20.404 254.646 19.8907 254.646 18.864C254.646 18.3413 254.538 17.9447 254.324 17.674C254.109 17.394 253.801 17.254 253.4 17.254H252.868L253.162 15.434H253.302C253.964 15.434 254.296 15.0373 254.296 14.244C254.296 13.9267 254.258 13.614 254.184 13.306C254.109 12.998 253.988 12.6527 253.82 12.27H256.186C256.652 12.97 256.886 13.6373 256.886 14.272C256.886 14.8133 256.732 15.2567 256.424 15.602C256.116 15.9473 255.64 16.204 254.996 16.372ZM258.38 16.596C258.38 15.0467 258.707 13.8987 259.36 13.152C260.013 12.396 260.97 12.018 262.23 12.018C263.471 12.018 264.423 12.3913 265.086 13.138C265.758 13.8847 266.094 15.0373 266.094 16.596C266.094 17.7533 266.015 18.766 265.856 19.634C265.707 20.502 265.497 21.2907 265.226 22H262.762C262.986 21.188 263.154 20.362 263.266 19.522C263.387 18.6727 263.448 17.716 263.448 16.652C263.448 15.6627 263.35 14.9533 263.154 14.524C262.967 14.0947 262.659 13.88 262.23 13.88C261.791 13.88 261.479 14.0947 261.292 14.524C261.105 14.944 261.012 15.658 261.012 16.666C261.012 17.73 261.073 18.6867 261.194 19.536C261.325 20.376 261.511 21.1973 261.754 22H259.276C258.996 21.2627 258.777 20.46 258.618 19.592C258.459 18.724 258.38 17.7253 258.38 16.596ZM271.054 22.266C269.831 22.266 268.898 21.9767 268.254 21.398C267.61 20.81 267.288 19.9793 267.288 18.906V12.27H269.878V18.78C269.878 19.34 269.976 19.7507 270.172 20.012C270.368 20.2733 270.657 20.404 271.04 20.404C271.787 20.404 272.16 19.9093 272.16 18.92C272.16 18.556 272.118 18.248 272.034 17.996C271.959 17.7347 271.838 17.4407 271.67 17.114C271.493 16.7593 271.357 16.4327 271.264 16.134C271.171 15.8353 271.124 15.4667 271.124 15.028H273.686C273.714 15.308 273.77 15.56 273.854 15.784C273.938 16.008 274.055 16.2693 274.204 16.568C274.419 16.9787 274.577 17.352 274.68 17.688C274.792 18.024 274.848 18.4347 274.848 18.92C274.848 19.9653 274.507 20.7867 273.826 21.384C273.145 21.972 272.221 22.266 271.054 22.266ZM70.92 30.186C71.48 30.186 71.984 30.298 72.432 30.522C72.88 30.7367 73.2347 31.0587 73.496 31.488C73.7573 31.9173 73.888 32.4307 73.888 33.028V37.116C73.888 38.04 73.622 38.7867 73.09 39.356C72.5673 39.916 71.8067 40.196 70.808 40.196C70.1827 40.196 69.6413 40.0747 69.184 39.832C68.7267 39.58 68.3767 39.244 68.134 38.824C67.8913 38.404 67.77 37.928 67.77 37.396C67.77 36.7893 67.9193 36.22 68.218 35.688L69.394 36.038C69.2353 36.402 69.156 36.8127 69.156 37.27C69.156 37.83 69.2913 38.278 69.562 38.614C69.8327 38.9407 70.248 39.104 70.808 39.104C71.9747 39.104 72.558 38.4087 72.558 37.018V33.07C72.558 32.4913 72.418 32.048 72.138 31.74C71.858 31.432 71.452 31.278 70.92 31.278C70.388 31.278 69.9867 31.418 69.716 31.698C69.4547 31.9687 69.324 32.314 69.324 32.734C69.324 32.9393 69.338 33.112 69.366 33.252C69.394 33.3827 69.436 33.532 69.492 33.7L68.302 33.994C68.078 33.546 67.966 33.1167 67.966 32.706C67.966 32.2207 68.0967 31.7867 68.358 31.404C68.6193 31.0213 68.974 30.7227 69.422 30.508C69.87 30.2933 70.3693 30.186 70.92 30.186ZM83.8357 40C83.6024 39.5147 83.2524 39.1553 82.7857 38.922C82.3191 38.6887 81.7171 38.572 80.9797 38.572C79.8691 38.572 78.8284 38.8007 77.8577 39.258L77.4797 38.152C77.8251 38.0213 78.1657 37.9233 78.5017 37.858C78.8471 37.7927 79.2391 37.76 79.6777 37.76C78.9777 37.4893 78.3664 37.1907 77.8437 36.864C77.3211 36.5373 76.8777 36.0893 76.5137 35.52C76.1591 34.9507 75.9817 34.2413 75.9817 33.392C75.9817 32.328 76.2244 31.53 76.7097 30.998C77.2044 30.4567 77.8297 30.186 78.5857 30.186C79.2017 30.186 79.6824 30.3213 80.0277 30.592C80.3824 30.8533 80.6204 31.264 80.7417 31.824C80.8257 31.2827 81.0357 30.8767 81.3717 30.606C81.7171 30.326 82.1464 30.186 82.6597 30.186C83.2197 30.186 83.6584 30.3167 83.9757 30.578C84.3024 30.8393 84.5264 31.2547 84.6477 31.824C84.7317 31.2827 84.9511 30.8767 85.3057 30.606C85.6604 30.326 86.1131 30.186 86.6637 30.186C87.4664 30.186 88.1197 30.4613 88.6237 31.012C89.1371 31.5627 89.3937 32.3933 89.3937 33.504C89.3937 34.204 89.2957 34.8013 89.0997 35.296C88.9131 35.7907 88.6377 36.2993 88.2737 36.822L87.1677 36.29C87.4477 35.8607 87.6484 35.436 87.7697 35.016C87.8911 34.596 87.9517 34.1153 87.9517 33.574C87.9517 32.706 87.8351 32.1087 87.6017 31.782C87.3684 31.446 87.0231 31.278 86.5657 31.278C86.1551 31.278 85.8377 31.418 85.6137 31.698C85.3991 31.978 85.2917 32.398 85.2917 32.958V35.044H83.9757V32.958C83.9757 32.4073 83.8591 31.992 83.6257 31.712C83.4017 31.4227 83.0937 31.278 82.7017 31.278C82.2911 31.278 81.9691 31.4227 81.7357 31.712C81.5024 31.992 81.3857 32.4073 81.3857 32.958V35.044H80.0697V32.958C80.0697 32.342 79.9531 31.908 79.7197 31.656C79.4957 31.404 79.1737 31.278 78.7537 31.278C78.2777 31.278 77.9324 31.4693 77.7177 31.852C77.5031 32.2347 77.3957 32.748 77.3957 33.392C77.3957 34.4653 77.7644 35.3007 78.5017 35.898C79.2391 36.486 80.1817 36.9433 81.3297 37.27C82.1884 37.5127 82.8511 37.7273 83.3177 37.914C83.7937 38.1007 84.2044 38.3573 84.5497 38.684C84.8951 39.0107 85.1424 39.4493 85.2917 40H83.8357ZM94.152 30.186C94.712 30.186 95.216 30.298 95.664 30.522C96.112 30.7367 96.4667 31.0587 96.728 31.488C96.9894 31.9173 97.12 32.4307 97.12 33.028V37.116C97.12 38.04 96.854 38.7867 96.322 39.356C95.7994 39.916 95.0387 40.196 94.04 40.196C93.4147 40.196 92.8734 40.0747 92.416 39.832C91.9587 39.58 91.6087 39.244 91.366 38.824C91.1234 38.404 91.002 37.928 91.002 37.396C91.002 36.7893 91.1514 36.22 91.45 35.688L92.626 36.038C92.4674 36.402 92.388 36.8127 92.388 37.27C92.388 37.83 92.5234 38.278 92.794 38.614C93.0647 38.9407 93.48 39.104 94.04 39.104C95.2067 39.104 95.79 38.4087 95.79 37.018V33.07C95.79 32.4913 95.65 32.048 95.37 31.74C95.09 31.432 94.684 31.278 94.152 31.278C93.62 31.278 93.2187 31.418 92.948 31.698C92.6867 31.9687 92.556 32.314 92.556 32.734C92.556 32.9393 92.57 33.112 92.598 33.252C92.626 33.3827 92.668 33.532 92.724 33.7L91.534 33.994C91.31 33.546 91.198 33.1167 91.198 32.706C91.198 32.2207 91.3287 31.7867 91.59 31.404C91.8514 31.0213 92.206 30.7227 92.654 30.508C93.102 30.2933 93.6014 30.186 94.152 30.186ZM105.15 30.354V37.256C105.15 38.1613 104.888 38.88 104.366 39.412C103.852 39.9347 103.101 40.196 102.112 40.196C101.486 40.196 100.954 40.0793 100.516 39.846C100.086 39.6127 99.7598 39.3047 99.5358 38.922C99.3211 38.53 99.2138 38.1053 99.2138 37.648C99.2138 37.2653 99.2978 36.878 99.4658 36.486L100.698 36.78C100.623 37.0227 100.586 37.2887 100.586 37.578C100.586 38.0353 100.712 38.404 100.964 38.684C101.216 38.964 101.598 39.104 102.112 39.104C102.69 39.104 103.12 38.9453 103.4 38.628C103.68 38.3013 103.82 37.7927 103.82 37.102V33.77C103.605 33.518 103.344 33.3127 103.036 33.154C102.728 32.986 102.401 32.902 102.056 32.902C101.636 32.902 101.309 33.014 101.076 33.238C100.852 33.4527 100.74 33.7327 100.74 34.078C100.74 34.3207 100.791 34.5867 100.894 34.876L99.7038 35.142C99.5078 34.7593 99.4098 34.386 99.4098 34.022C99.4098 33.5927 99.5171 33.21 99.7318 32.874C99.9558 32.538 100.254 32.2767 100.628 32.09C101.001 31.9033 101.407 31.81 101.846 31.81C102.256 31.81 102.634 31.8893 102.98 32.048C103.325 32.2067 103.605 32.4167 103.82 32.678V30.354H105.15ZM107.384 35.464C107.384 34.1293 107.711 33.056 108.364 32.244C109.018 31.4227 109.9 30.9327 111.01 30.774L110.94 30.158H112.228L112.158 30.774C113.278 30.914 114.165 31.39 114.818 32.202C115.481 33.0047 115.812 34.0873 115.812 35.45C115.812 36.402 115.635 37.2373 115.28 37.956C114.926 38.6653 114.431 39.2113 113.796 39.594C113.162 39.9767 112.429 40.168 111.598 40.168C110.768 40.168 110.035 39.9813 109.4 39.608C108.766 39.2253 108.271 38.6793 107.916 37.97C107.562 37.2607 107.384 36.4253 107.384 35.464ZM108.77 35.464C108.77 36.6867 109.022 37.5967 109.526 38.194C110.04 38.7913 110.73 39.09 111.598 39.09C112.485 39.09 113.176 38.7913 113.67 38.194C114.174 37.5967 114.426 36.682 114.426 35.45C114.426 33.3033 113.67 32.062 112.158 31.726C112.205 31.978 112.228 32.2627 112.228 32.58V35.59H110.94V32.552C110.94 32.2533 110.964 31.9827 111.01 31.74C110.301 31.908 109.75 32.3 109.358 32.916C108.966 33.5227 108.77 34.372 108.77 35.464ZM118.405 40C118.144 39.4027 117.934 38.796 117.775 38.18C117.626 37.5547 117.551 36.8313 117.551 36.01C117.551 34.9927 117.654 34.1527 117.859 33.49C118.074 32.818 118.461 32.2673 119.021 31.838C119.591 31.3993 120.398 31.082 121.443 30.886C122.853 30.6247 123.777 30.382 124.215 30.158L124.705 31.152C124.425 31.3293 124.066 31.4787 123.627 31.6C123.189 31.712 122.61 31.8193 121.891 31.922C121.005 32.0527 120.328 32.2767 119.861 32.594C119.404 32.9113 119.073 33.336 118.867 33.868C119.073 33.6067 119.301 33.42 119.553 33.308C119.815 33.1867 120.123 33.126 120.477 33.126C120.963 33.126 121.378 33.252 121.723 33.504C122.069 33.756 122.302 34.1387 122.423 34.652C122.666 33.6347 123.375 33.126 124.551 33.126C125.363 33.126 126.021 33.392 126.525 33.924C127.029 34.456 127.281 35.2447 127.281 36.29C127.281 36.9993 127.202 37.648 127.043 38.236C126.894 38.8147 126.684 39.4027 126.413 40H125.027C125.326 39.2533 125.541 38.6047 125.671 38.054C125.802 37.494 125.867 36.9153 125.867 36.318C125.867 35.534 125.732 34.988 125.461 34.68C125.191 34.372 124.817 34.218 124.341 34.218C123.959 34.218 123.651 34.3393 123.417 34.582C123.184 34.8153 123.067 35.198 123.067 35.73V37.886H121.765V35.73C121.765 35.2073 121.635 34.8247 121.373 34.582C121.121 34.3393 120.813 34.218 120.449 34.218C119.945 34.218 119.572 34.386 119.329 34.722C119.087 35.058 118.965 35.5807 118.965 36.29C118.965 36.9153 119.026 37.508 119.147 38.068C119.278 38.628 119.493 39.272 119.791 40H118.405ZM130.235 40C129.927 39.2813 129.67 38.4927 129.465 37.634C129.26 36.766 129.157 35.7347 129.157 34.54C129.157 32.9907 129.409 31.88 129.913 31.208C130.417 30.5267 131.131 30.186 132.055 30.186C132.634 30.186 133.091 30.326 133.427 30.606C133.763 30.8767 134.006 31.2827 134.155 31.824C134.454 30.732 135.158 30.186 136.269 30.186C137.165 30.186 137.865 30.5313 138.369 31.222C138.882 31.9127 139.139 33.0187 139.139 34.54C139.139 35.744 139.036 36.7847 138.831 37.662C138.626 38.53 138.369 39.3093 138.061 40H136.731C137.076 39.16 137.333 38.32 137.501 37.48C137.678 36.64 137.767 35.6647 137.767 34.554C137.767 33.3033 137.627 32.4447 137.347 31.978C137.076 31.502 136.698 31.264 136.213 31.264C135.774 31.264 135.429 31.418 135.177 31.726C134.934 32.034 134.813 32.5053 134.813 33.14V37.046H133.483V33.14C133.483 31.8987 133.044 31.278 132.167 31.278C131.756 31.278 131.43 31.3853 131.187 31.6C130.954 31.8053 130.786 32.146 130.683 32.622C130.58 33.0887 130.529 33.742 130.529 34.582C130.529 35.702 130.613 36.682 130.781 37.522C130.949 38.362 131.21 39.188 131.565 40H130.235ZM144.796 32.986C145.412 32.986 145.944 33.14 146.392 33.448C146.84 33.756 147.18 34.176 147.414 34.708C147.647 35.24 147.764 35.8327 147.764 36.486C147.764 37.186 147.642 37.816 147.4 38.376C147.166 38.936 146.807 39.3793 146.322 39.706C145.836 40.0327 145.244 40.196 144.544 40.196C143.508 40.196 142.719 39.8693 142.178 39.216C141.636 38.5627 141.366 37.69 141.366 36.598V32.44C141.366 31.6653 141.585 31.096 142.024 30.732C142.472 30.368 143.074 30.186 143.83 30.186C144.166 30.186 144.567 30.2233 145.034 30.298C145.407 30.354 145.664 30.382 145.804 30.382C146.177 30.382 146.56 30.3167 146.952 30.186L147.148 31.222C146.774 31.39 146.34 31.474 145.846 31.474C145.603 31.474 145.374 31.46 145.16 31.432C144.954 31.404 144.824 31.3853 144.768 31.376C144.422 31.3107 144.11 31.278 143.83 31.278C143.456 31.278 143.172 31.3667 142.976 31.544C142.789 31.7213 142.696 32.006 142.696 32.398V33.854C142.948 33.5927 143.251 33.3827 143.606 33.224C143.96 33.0653 144.357 32.986 144.796 32.986ZM144.558 39.132C145.155 39.132 145.603 38.894 145.902 38.418C146.2 37.942 146.35 37.298 146.35 36.486C146.35 35.674 146.196 35.0673 145.888 34.666C145.589 34.2553 145.155 34.05 144.586 34.05C143.839 34.05 143.209 34.344 142.696 34.932V36.584C142.696 37.34 142.84 37.956 143.13 38.432C143.428 38.8987 143.904 39.132 144.558 39.132ZM153.826 30.186C154.47 30.186 154.988 30.3867 155.38 30.788C155.782 31.1893 155.982 31.7867 155.982 32.58V37.116C155.982 37.7133 155.861 38.2453 155.618 38.712C155.376 39.1693 155.021 39.5333 154.554 39.804C154.088 40.0653 153.528 40.196 152.874 40.196C152.221 40.196 151.656 40.0747 151.18 39.832C150.714 39.5893 150.359 39.258 150.116 38.838C149.874 38.4087 149.752 37.928 149.752 37.396C149.752 36.7893 149.902 36.22 150.2 35.688L151.376 36.038C151.218 36.402 151.138 36.8127 151.138 37.27C151.138 37.83 151.278 38.278 151.558 38.614C151.838 38.9407 152.277 39.104 152.874 39.104C154.06 39.104 154.652 38.39 154.652 36.962V32.636C154.652 32.1693 154.578 31.8287 154.428 31.614C154.279 31.39 154.046 31.278 153.728 31.278C153.392 31.278 153.14 31.3853 152.972 31.6C152.804 31.8147 152.72 32.1133 152.72 32.496V34.134H151.418V32.272C151.418 31.6747 151.185 31.376 150.718 31.376C150.625 31.376 150.494 31.3853 150.326 31.404L149.976 31.418C149.678 31.418 149.412 31.348 149.178 31.208L149.43 30.2C149.552 30.2467 149.692 30.27 149.85 30.27C149.981 30.27 150.112 30.256 150.242 30.228C150.55 30.2 150.723 30.186 150.76 30.186C151.059 30.186 151.325 30.2793 151.558 30.466C151.792 30.6527 151.96 30.956 152.062 31.376C152.202 30.956 152.426 30.6527 152.734 30.466C153.052 30.2793 153.416 30.186 153.826 30.186ZM165.922 40C165.689 39.5147 165.339 39.1553 164.872 38.922C164.405 38.6887 163.803 38.572 163.066 38.572C161.955 38.572 160.915 38.8007 159.944 39.258L159.566 38.152C159.911 38.0213 160.252 37.9233 160.588 37.858C160.933 37.7927 161.325 37.76 161.764 37.76C161.064 37.4893 160.453 37.1907 159.93 36.864C159.407 36.5373 158.964 36.0893 158.6 35.52C158.245 34.9507 158.068 34.2413 158.068 33.392C158.068 32.328 158.311 31.53 158.796 30.998C159.291 30.4567 159.916 30.186 160.672 30.186C161.288 30.186 161.769 30.3213 162.114 30.592C162.469 30.8533 162.707 31.264 162.828 31.824C162.912 31.2827 163.122 30.8767 163.458 30.606C163.803 30.326 164.233 30.186 164.746 30.186C165.306 30.186 165.745 30.3167 166.062 30.578C166.389 30.8393 166.613 31.2547 166.734 31.824C166.818 31.2827 167.037 30.8767 167.392 30.606C167.747 30.326 168.199 30.186 168.75 30.186C169.553 30.186 170.206 30.4613 170.71 31.012C171.223 31.5627 171.48 32.3933 171.48 33.504C171.48 34.204 171.382 34.8013 171.186 35.296C170.999 35.7907 170.724 36.2993 170.36 36.822L169.254 36.29C169.534 35.8607 169.735 35.436 169.856 35.016C169.977 34.596 170.038 34.1153 170.038 33.574C170.038 32.706 169.921 32.1087 169.688 31.782C169.455 31.446 169.109 31.278 168.652 31.278C168.241 31.278 167.924 31.418 167.7 31.698C167.485 31.978 167.378 32.398 167.378 32.958V35.044H166.062V32.958C166.062 32.4073 165.945 31.992 165.712 31.712C165.488 31.4227 165.18 31.278 164.788 31.278C164.377 31.278 164.055 31.4227 163.822 31.712C163.589 31.992 163.472 32.4073 163.472 32.958V35.044H162.156V32.958C162.156 32.342 162.039 31.908 161.806 31.656C161.582 31.404 161.26 31.278 160.84 31.278C160.364 31.278 160.019 31.4693 159.804 31.852C159.589 32.2347 159.482 32.748 159.482 33.392C159.482 34.4653 159.851 35.3007 160.588 35.898C161.325 36.486 162.268 36.9433 163.416 37.27C164.275 37.5127 164.937 37.7273 165.404 37.914C165.88 38.1007 166.291 38.3573 166.636 38.684C166.981 39.0107 167.229 39.4493 167.378 40H165.922ZM173.365 34.54C173.365 33.0653 173.636 31.9733 174.177 31.264C174.728 30.5453 175.558 30.186 176.669 30.186C177.686 30.186 178.489 30.536 179.077 31.236C179.674 31.9267 179.973 33.028 179.973 34.54C179.973 35.744 179.87 36.7847 179.665 37.662C179.46 38.53 179.203 39.3093 178.895 40H177.565C177.91 39.16 178.167 38.32 178.335 37.48C178.512 36.64 178.601 35.6647 178.601 34.554C178.601 33.4433 178.447 32.622 178.139 32.09C177.831 31.5487 177.341 31.278 176.669 31.278C176.202 31.278 175.829 31.3853 175.549 31.6C175.269 31.8147 175.064 32.16 174.933 32.636C174.802 33.112 174.737 33.7607 174.737 34.582C174.737 35.702 174.821 36.682 174.989 37.522C175.157 38.362 175.418 39.188 175.773 40H174.443C174.135 39.2813 173.878 38.4927 173.673 37.634C173.468 36.766 173.365 35.7347 173.365 34.54ZM186.606 40C186.345 39.4027 186.135 38.796 185.976 38.18C185.827 37.5547 185.752 36.8313 185.752 36.01C185.752 34.9927 185.855 34.1527 186.06 33.49C186.275 32.818 186.662 32.2673 187.222 31.838C187.791 31.3993 188.599 31.082 189.644 30.886C191.053 30.6247 191.977 30.382 192.416 30.158L192.906 31.152C192.626 31.3293 192.267 31.4787 191.828 31.6C191.389 31.712 190.811 31.8193 190.092 31.922C189.205 32.0527 188.529 32.2767 188.062 32.594C187.605 32.9113 187.273 33.336 187.068 33.868C187.273 33.6067 187.502 33.42 187.754 33.308C188.015 33.1867 188.323 33.126 188.678 33.126C189.163 33.126 189.579 33.252 189.924 33.504C190.269 33.756 190.503 34.1387 190.624 34.652C190.867 33.6347 191.576 33.126 192.752 33.126C193.564 33.126 194.222 33.392 194.726 33.924C195.23 34.456 195.482 35.2447 195.482 36.29C195.482 36.9993 195.403 37.648 195.244 38.236C195.095 38.8147 194.885 39.4027 194.614 40H193.228C193.527 39.2533 193.741 38.6047 193.872 38.054C194.003 37.494 194.068 36.9153 194.068 36.318C194.068 35.534 193.933 34.988 193.662 34.68C193.391 34.372 193.018 34.218 192.542 34.218C192.159 34.218 191.851 34.3393 191.618 34.582C191.385 34.8153 191.268 35.198 191.268 35.73V37.886H189.966V35.73C189.966 35.2073 189.835 34.8247 189.574 34.582C189.322 34.3393 189.014 34.218 188.65 34.218C188.146 34.218 187.773 34.386 187.53 34.722C187.287 35.058 187.166 35.5807 187.166 36.29C187.166 36.9153 187.227 37.508 187.348 38.068C187.479 38.628 187.693 39.272 187.992 40H186.606ZM200.368 30.186C200.928 30.186 201.432 30.298 201.88 30.522C202.328 30.7367 202.682 31.0587 202.944 31.488C203.205 31.9173 203.336 32.4307 203.336 33.028V37.116C203.336 38.04 203.07 38.7867 202.538 39.356C202.015 39.916 201.254 40.196 200.256 40.196C199.63 40.196 199.089 40.0747 198.632 39.832C198.174 39.58 197.824 39.244 197.582 38.824C197.339 38.404 197.218 37.928 197.218 37.396C197.218 36.7893 197.367 36.22 197.666 35.688L198.842 36.038C198.683 36.402 198.604 36.8127 198.604 37.27C198.604 37.83 198.739 38.278 199.01 38.614C199.28 38.9407 199.696 39.104 200.256 39.104C201.422 39.104 202.006 38.4087 202.006 37.018V33.07C202.006 32.4913 201.866 32.048 201.586 31.74C201.306 31.432 200.9 31.278 200.368 31.278C199.836 31.278 199.434 31.418 199.164 31.698C198.902 31.9687 198.772 32.314 198.772 32.734C198.772 32.9393 198.786 33.112 198.814 33.252C198.842 33.3827 198.884 33.532 198.94 33.7L197.75 33.994C197.526 33.546 197.414 33.1167 197.414 32.706C197.414 32.2207 197.544 31.7867 197.806 31.404C198.067 31.0213 198.422 30.7227 198.87 30.508C199.318 30.2933 199.817 30.186 200.368 30.186ZM208.957 40.196C207.921 40.196 207.133 39.902 206.591 39.314C206.05 38.7167 205.779 37.9047 205.779 36.878V30.354H207.109V36.864C207.109 37.536 207.254 38.0773 207.543 38.488C207.842 38.8987 208.318 39.104 208.971 39.104C209.559 39.104 210.003 38.9173 210.301 38.544C210.609 38.1613 210.763 37.69 210.763 37.13C210.763 36.7287 210.703 36.3927 210.581 36.122C210.469 35.842 210.297 35.5247 210.063 35.17C209.821 34.7967 209.639 34.47 209.517 34.19C209.405 33.9007 209.349 33.546 209.349 33.126H210.665C210.665 33.378 210.712 33.6113 210.805 33.826C210.908 34.0313 211.067 34.288 211.281 34.596C211.571 35.0253 211.79 35.4267 211.939 35.8C212.098 36.164 212.177 36.6073 212.177 37.13C212.177 37.662 212.056 38.1613 211.813 38.628C211.571 39.0947 211.207 39.4727 210.721 39.762C210.236 40.0513 209.648 40.196 208.957 40.196ZM218.103 30.186C218.747 30.186 219.265 30.3867 219.657 30.788C220.058 31.1893 220.259 31.7867 220.259 32.58V37.116C220.259 37.7133 220.138 38.2453 219.895 38.712C219.652 39.1693 219.298 39.5333 218.831 39.804C218.364 40.0653 217.804 40.196 217.151 40.196C216.498 40.196 215.933 40.0747 215.457 39.832C214.99 39.5893 214.636 39.258 214.393 38.838C214.15 38.4087 214.029 37.928 214.029 37.396C214.029 36.7893 214.178 36.22 214.477 35.688L215.653 36.038C215.494 36.402 215.415 36.8127 215.415 37.27C215.415 37.83 215.555 38.278 215.835 38.614C216.115 38.9407 216.554 39.104 217.151 39.104C218.336 39.104 218.929 38.39 218.929 36.962V32.636C218.929 32.1693 218.854 31.8287 218.705 31.614C218.556 31.39 218.322 31.278 218.005 31.278C217.669 31.278 217.417 31.3853 217.249 31.6C217.081 31.8147 216.997 32.1133 216.997 32.496V34.134H215.695V32.272C215.695 31.6747 215.462 31.376 214.995 31.376C214.902 31.376 214.771 31.3853 214.603 31.404L214.253 31.418C213.954 31.418 213.688 31.348 213.455 31.208L213.707 30.2C213.828 30.2467 213.968 30.27 214.127 30.27C214.258 30.27 214.388 30.256 214.519 30.228C214.827 30.2 215 30.186 215.037 30.186C215.336 30.186 215.602 30.2793 215.835 30.466C216.068 30.6527 216.236 30.956 216.339 31.376C216.479 30.956 216.703 30.6527 217.011 30.466C217.328 30.2793 217.692 30.186 218.103 30.186ZM223.199 40C222.938 39.4027 222.728 38.796 222.569 38.18C222.42 37.5547 222.345 36.8313 222.345 36.01C222.345 34.9927 222.448 34.1527 222.653 33.49C222.868 32.818 223.255 32.2673 223.815 31.838C224.384 31.3993 225.192 31.082 226.237 30.886C227.646 30.6247 228.57 30.382 229.009 30.158L229.499 31.152C229.219 31.3293 228.86 31.4787 228.421 31.6C227.982 31.712 227.404 31.8193 226.685 31.922C225.798 32.0527 225.122 32.2767 224.655 32.594C224.198 32.9113 223.866 33.336 223.661 33.868C223.866 33.6067 224.095 33.42 224.347 33.308C224.608 33.1867 224.916 33.126 225.271 33.126C225.756 33.126 226.172 33.252 226.517 33.504C226.862 33.756 227.096 34.1387 227.217 34.652C227.46 33.6347 228.169 33.126 229.345 33.126C230.157 33.126 230.815 33.392 231.319 33.924C231.823 34.456 232.075 35.2447 232.075 36.29C232.075 36.9993 231.996 37.648 231.837 38.236C231.688 38.8147 231.478 39.4027 231.207 40H229.821C230.12 39.2533 230.334 38.6047 230.465 38.054C230.596 37.494 230.661 36.9153 230.661 36.318C230.661 35.534 230.526 34.988 230.255 34.68C229.984 34.372 229.611 34.218 229.135 34.218C228.752 34.218 228.444 34.3393 228.211 34.582C227.978 34.8153 227.861 35.198 227.861 35.73V37.886H226.559V35.73C226.559 35.2073 226.428 34.8247 226.167 34.582C225.915 34.3393 225.607 34.218 225.243 34.218C224.739 34.218 224.366 34.386 224.123 34.722C223.88 35.058 223.759 35.5807 223.759 36.29C223.759 36.9153 223.82 37.508 223.941 38.068C224.072 38.628 224.286 39.272 224.585 40H223.199ZM237.339 40.196C236.303 40.196 235.514 39.902 234.973 39.314C234.431 38.7167 234.161 37.9047 234.161 36.878V30.354H235.491V36.864C235.491 37.536 235.635 38.0773 235.925 38.488C236.223 38.8987 236.699 39.104 237.353 39.104C237.941 39.104 238.384 38.9173 238.683 38.544C238.991 38.1613 239.145 37.69 239.145 37.13C239.145 36.7287 239.084 36.3927 238.963 36.122C238.851 35.842 238.678 35.5247 238.445 35.17C238.202 34.7967 238.02 34.47 237.899 34.19C237.787 33.9007 237.731 33.546 237.731 33.126H239.047C239.047 33.378 239.093 33.6113 239.187 33.826C239.289 34.0313 239.448 34.288 239.663 34.596C239.952 35.0253 240.171 35.4267 240.321 35.8C240.479 36.164 240.559 36.6073 240.559 37.13C240.559 37.662 240.437 38.1613 240.195 38.628C239.952 39.0947 239.588 39.4727 239.103 39.762C238.617 40.0513 238.029 40.196 237.339 40.196ZM242.463 34.54C242.463 33.0653 242.734 31.9733 243.275 31.264C243.826 30.5453 244.656 30.186 245.767 30.186C246.784 30.186 247.587 30.536 248.175 31.236C248.772 31.9267 249.071 33.028 249.071 34.54C249.071 35.744 248.968 36.7847 248.763 37.662C248.558 38.53 248.301 39.3093 247.993 40H246.663C247.008 39.16 247.265 38.32 247.433 37.48C247.61 36.64 247.699 35.6647 247.699 34.554C247.699 33.4433 247.545 32.622 247.237 32.09C246.929 31.5487 246.439 31.278 245.767 31.278C245.3 31.278 244.927 31.3853 244.647 31.6C244.367 31.8147 244.162 32.16 244.031 32.636C243.9 33.112 243.835 33.7607 243.835 34.582C243.835 35.702 243.919 36.682 244.087 37.522C244.255 38.362 244.516 39.188 244.871 40H243.541C243.233 39.2813 242.976 38.4927 242.771 37.634C242.566 36.766 242.463 35.7347 242.463 34.54Z" fill="white"/>
<rect width="51" height="52" rx="12" fill="white"/>
<path d="M20.8924 30.0807C21.4164 29.6573 21.829 29.1371 22.1012 28.5568C22.3733 27.9766 22.4983 27.3505 22.4672 26.7227V23.8873C22.3006 23.7224 22.0719 23.6169 21.8239 23.5904C20.2826 23.4627 20.2826 25.0333 19.8838 25.7756V26.8801C19.9012 27.5722 19.7763 28.2613 19.5153 28.9138C19.5019 28.9493 19.4862 28.984 19.4684 29.0178C19.4581 29.0442 19.4458 29.07 19.4315 29.095C19.4047 29.1514 19.3678 29.2197 19.3243 29.2939C19.3107 29.3205 19.295 29.3463 19.2774 29.3711C19.2254 29.4599 19.166 29.5453 19.0998 29.6264C19.0377 29.7097 18.9706 29.79 18.8987 29.8669C18.6187 30.1959 18.2531 30.4601 17.8331 30.6369C17.413 30.8137 16.9509 30.8979 16.4862 30.8823C15.9193 30.8601 15.3675 30.7127 14.8812 30.4534C14.3949 30.1942 13.9895 29.8313 13.7018 29.3978C12.9278 28.2518 12.328 26.3071 14.707 24.1337L13.092 22.6997C12.6651 23.1883 12.2713 23.6989 11.9125 24.2287C11.6626 24.6146 11.4561 25.0214 11.296 25.4431C11.1071 25.9203 11.0086 26.4219 11.0045 26.9276C10.9744 27.5297 11.0955 28.1301 11.3592 28.6857C11.6228 29.2412 12.0224 29.738 12.5291 30.14C13.5454 30.9318 14.9315 31.3277 16.6873 31.3277C18.443 31.3366 19.8436 30.9209 20.8924 30.0807Z" fill="#333333"/>
<path d="M40.4234 27.0451C40.0818 26.2236 39.609 25.4497 39.0195 24.7471C38.4837 24.1133 37.8419 23.5556 37.1163 23.0933C36.5125 22.6986 35.8306 22.4076 35.1059 22.2353C34.739 22.1395 34.3634 22.072 33.9834 22.0334C34.3686 21.8344 34.6921 21.5539 34.9249 21.2169C35.1575 20.9087 35.2993 20.5538 35.3373 20.1845C35.3754 19.8153 35.3085 19.4434 35.1427 19.103C34.6703 18.2509 33.4908 17.8768 32.4622 17.9154C31.8521 17.9284 31.2636 18.1182 30.7868 18.4557C30.4196 18.718 30.1279 19.0538 29.9358 19.4355C29.8398 19.6315 29.7701 19.8368 29.728 20.0471C29.6919 20.2643 29.6773 20.4839 29.6845 20.7033H31.2358C31.1296 20.427 31.1296 20.1274 31.2358 19.8512C31.3097 19.6797 31.4216 19.523 31.5648 19.3903C31.7081 19.2576 31.8798 19.1517 32.0699 19.0786C32.26 19.0056 32.4647 18.967 32.6719 18.9651C32.879 18.9631 33.0846 18.9979 33.2764 19.0674C33.8661 19.2782 34.0672 19.8809 34.0437 20.4064C34.0316 20.8025 33.8619 21.1822 33.5646 21.4782C33.4066 21.6353 33.2211 21.7686 33.015 21.8731C32.9082 21.9266 32.796 21.9713 32.68 22.0067C32.6264 22.0245 32.5493 22.0512 32.4756 22.069C32.4343 22.0661 32.3929 22.0661 32.3516 22.069C31.7703 22.1415 31.1981 22.2628 30.6427 22.4312C29.8208 22.6668 29.0428 23.009 28.3341 23.4467C27.6861 23.8512 27.1091 24.3384 26.6219 24.8926C26.441 25.0974 26.2868 25.3082 26.1227 25.519C26.1166 25.0597 26.0582 24.6022 25.9484 24.1533C25.7698 23.2868 25.3338 22.4782 24.6852 21.8107C24.0981 21.2554 23.3164 20.8924 22.4671 20.7805V10L20.0211 11.8052L17.7962 13.453L18.2016 13.7766L18.4931 14.0082L19.9942 12.8592L19.8837 17.6749V21.1991C19.347 21.4618 18.8762 21.8183 18.4998 22.2472C18.2924 22.4874 18.1117 22.745 17.9604 23.0161C17.891 23.1187 17.8359 23.2284 17.7962 23.3427L19.3409 24.6847C19.3409 24.6847 19.6056 22.36 21.874 22.4639C23.7705 22.553 23.6934 25.038 23.6934 25.038L23.5527 28.3426V37.5465C23.5653 38.2068 23.452 38.8643 23.2176 39.4912C23.2176 39.4912 23.2176 39.5387 23.1607 39.6218C23.039 39.9027 22.8744 40.1674 22.6715 40.4086C22.2845 40.89 21.7147 41.2315 21.0665 41.3706H21.0363C20.7601 41.4361 20.4743 41.4642 20.1886 41.4537C19.6218 41.4307 19.0704 41.283 18.5843 41.0238C18.0981 40.7646 17.6925 40.4022 17.4042 39.9692C16.6369 38.835 16.0438 36.9141 18.3424 34.7705L16.7541 33.3631C16.3281 33.8523 15.9343 34.3628 15.5747 34.8922C15.326 35.2782 15.1206 35.685 14.9615 36.1065C14.7711 36.5834 14.6726 37.0852 14.67 37.591C14.6382 38.1951 14.7593 38.7979 15.0242 39.3553C15.2891 39.9126 15.6913 40.4105 16.2013 40.8124C17.2176 41.6041 18.6026 42 20.3561 42C22.1097 42 23.5125 41.5804 24.5646 40.7411C25.0876 40.3172 25.4994 39.7969 25.7709 39.2167C26.0424 38.6365 26.1671 38.0107 26.1361 37.3832V37.0863C25.9086 36.7755 25.7038 36.4523 25.5229 36.1184C25.2212 35.5698 24.9821 34.9959 24.8092 34.4053C24.6572 33.8974 24.5762 33.3749 24.5679 32.8495V31.8519C24.5679 31.7243 24.5679 31.5936 24.5679 31.463C24.5999 31.892 24.6773 32.3175 24.7991 32.7337C25.1623 33.9589 25.8018 35.1062 26.6789 36.1065C27.1465 36.6459 27.6904 37.1299 28.2973 37.5465C28.9051 37.9692 29.5833 38.3057 30.3077 38.5441C31.0788 38.7957 31.8951 38.9215 32.7168 38.9152C33.5795 38.9237 34.4373 38.8011 35.2533 38.553C35.9909 38.3238 36.6863 37.9997 37.3173 37.591C37.9232 37.1949 38.4664 36.7286 38.9324 36.2045C39.385 35.6962 39.7716 35.1445 40.085 34.5597C40.3844 34.0076 40.6147 33.4282 40.7719 32.8317C40.9175 32.2928 40.9939 31.741 40.9997 31.1869V29.8271C41.0033 28.8761 40.8079 27.9329 40.4234 27.0451ZM37.7429 34.8061C37.7429 34.8061 36.5232 38.0364 32.9413 37.9889H32.8944C32.6443 37.9891 32.3949 37.9652 32.1506 37.9176C32.1086 37.9125 32.0672 37.9046 32.0266 37.8939C29.8654 37.4901 28.2336 35.774 27.5568 33.948C26.6461 31.5948 26.7379 29.0278 27.8148 26.7304C28.1926 25.9291 28.6969 25.1794 29.3125 24.5036C30.3646 23.3754 31.7753 22.553 33.5009 22.7786C33.8131 22.8184 34.1175 22.8964 34.4056 23.0102C36.7008 23.889 37.8802 26.3028 38.3125 28.3426C38.747 30.5041 38.5556 32.7279 37.7563 34.8061H37.7429Z" fill="#333333"/>
</svg>
