<svg width="20" height="20" viewBox="0 0 20 20" fill="none" xmlns="http://www.w3.org/2000/svg">
<path fill-rule="evenodd" clip-rule="evenodd" d="M10.272 1.84073C10.4051 1.72128 10.5811 1.65867 10.7613 1.6667C14.5703 1.78073 17.7537 4.54585 18.3306 8.24154C18.3343 8.26361 18.3343 8.28611 18.3306 8.30818C18.3431 8.48304 18.284 8.65555 18.1664 8.78756C18.0489 8.91956 17.8825 9.00017 17.7043 9.01157L11.3047 9.4336C11.0931 9.45236 10.8832 9.38272 10.7266 9.24178C10.57 9.10084 10.4812 8.90167 10.4821 8.69319L10.0519 2.40711V2.30346C10.0598 2.12666 10.139 1.96018 10.272 1.84073ZM9.83312 11.0773L15.3799 10.7219L15.4177 10.7367C15.6558 10.7406 15.8827 10.8372 16.0483 11.0052C16.2139 11.1732 16.3047 11.3989 16.3006 11.6326C16.082 14.8177 13.7469 17.4789 10.5691 18.1645C7.39123 18.8501 4.13356 17.3955 2.57323 14.5942C2.11443 13.7874 1.8245 12.8988 1.72046 11.9806C1.68011 11.7085 1.66244 11.4336 1.66763 11.1587C1.67815 7.77189 4.08948 4.84856 7.46347 4.13226C7.87192 4.05581 8.28143 4.25974 8.45963 4.62833C8.50399 4.69522 8.5395 4.76737 8.56528 4.84305C8.62853 5.81934 8.69413 6.78639 8.75946 7.74935C8.81106 8.5099 8.86248 9.26791 8.91243 10.0259C8.90985 10.2045 8.93792 10.3822 8.99544 10.5516C9.13087 10.885 9.46788 11.0965 9.83312 11.0773Z" fill="#5A5B5B"/>
</svg>
