<svg width="44" height="44" viewBox="0 0 44 44" fill="none" xmlns="http://www.w3.org/2000/svg">
<path d="M0 20.3077C0 10.7346 0 5.94799 2.97399 2.97399C5.94799 0 10.7346 0 20.3077 0H22.8462C32.4193 0 37.2059 0 40.1799 2.97399C43.1538 5.94799 43.1538 10.7346 43.1538 20.3077V23.6923C43.1538 33.2654 43.1538 38.052 40.1799 41.026C37.2059 44 32.4193 44 22.8462 44H20.3077C10.7346 44 5.94799 44 2.97399 41.026C0 38.052 0 33.2654 0 23.6923V20.3077Z" fill="#333333"/>
<path d="M17.6781 25.4527C18.1215 25.0945 18.4707 24.6543 18.7009 24.1633C18.9312 23.6723 19.0369 23.1425 19.0106 22.6114V20.2122C18.8696 20.0726 18.6762 19.9833 18.4663 19.9609C17.1621 19.8529 17.1621 21.1819 16.8247 21.81V22.7445C16.8394 23.3302 16.7337 23.9133 16.5128 24.4654C16.5015 24.4954 16.4883 24.5247 16.4731 24.5533C16.4645 24.5757 16.4541 24.5975 16.442 24.6186C16.4193 24.6664 16.3881 24.7242 16.3512 24.787C16.3397 24.8095 16.3264 24.8313 16.3115 24.8523C16.2675 24.9275 16.2173 24.9997 16.1613 25.0683C16.1088 25.1388 16.052 25.2068 15.9912 25.2718C15.7542 25.5502 15.4449 25.7737 15.0895 25.9233C14.734 26.0729 14.343 26.1442 13.9498 26.131C13.4701 26.1122 13.0032 25.9875 12.5917 25.7681C12.1802 25.5487 11.8372 25.2417 11.5938 24.8749C10.9388 23.9052 10.4313 22.2596 12.4443 20.4207L11.0778 19.2073C10.7166 19.6207 10.3833 20.0527 10.0798 20.5011C9.86829 20.8276 9.69356 21.1718 9.55809 21.5286C9.39824 21.9324 9.3149 22.3568 9.31143 22.7847C9.28595 23.2942 9.38845 23.8023 9.61154 24.2723C9.83463 24.7424 10.1727 25.1627 10.6014 25.5029C11.4615 26.1729 12.6343 26.5078 14.1199 26.5078C15.6056 26.5154 16.7907 26.1637 17.6781 25.4527Z" fill="white"/>
<path d="M34.2042 22.8842C33.9152 22.1891 33.5151 21.5342 33.0163 20.9397C32.5629 20.4034 32.0199 19.9316 31.4059 19.5404C30.895 19.2064 30.318 18.9601 29.7048 18.8144C29.3943 18.7333 29.0765 18.6762 28.755 18.6435C29.0809 18.4751 29.3546 18.2378 29.5517 17.9527C29.7485 17.6919 29.8684 17.3915 29.9006 17.0791C29.9328 16.7666 29.8762 16.452 29.736 16.164C29.3362 15.4429 28.3382 15.1264 27.4678 15.1591C26.9516 15.17 26.4536 15.3306 26.0502 15.6163C25.7395 15.8382 25.4927 16.1224 25.3301 16.4453C25.2489 16.6112 25.1899 16.7849 25.1543 16.9628C25.1237 17.1466 25.1114 17.3324 25.1174 17.5181H26.4301C26.3403 17.2843 26.3403 17.0308 26.4301 16.797C26.4927 16.6519 26.5873 16.5193 26.7085 16.4071C26.8297 16.2948 26.975 16.2051 27.1359 16.1434C27.2967 16.0816 27.4699 16.0489 27.6452 16.0472C27.8205 16.0456 27.9945 16.075 28.1568 16.1338C28.6558 16.3122 28.8259 16.8222 28.806 17.2668C28.7958 17.602 28.6522 17.9233 28.4006 18.1737C28.267 18.3066 28.11 18.4195 27.9356 18.5079C27.8452 18.5531 27.7503 18.591 27.6521 18.6209C27.6067 18.636 27.5415 18.6586 27.4791 18.6737C27.4442 18.6712 27.4092 18.6712 27.3742 18.6737C26.8824 18.735 26.3982 18.8377 25.9283 18.9802C25.2328 19.1795 24.5745 19.469 23.9748 19.8394C23.4265 20.1817 22.9383 20.594 22.5261 21.0628C22.3729 21.2362 22.2425 21.4145 22.1036 21.5929C22.0984 21.2043 22.0491 20.8171 21.9562 20.4373C21.805 19.7041 21.4361 19.0199 20.8873 18.4551C20.3906 17.9853 19.7291 17.678 19.0104 17.5834V8.46143L16.9407 9.98887L15.0581 11.3832L15.4012 11.657L15.6479 11.8529L16.918 10.8807L16.8245 14.9556V17.9376C16.3704 18.1598 15.972 18.4616 15.6535 18.8244C15.478 19.0277 15.3251 19.2456 15.1971 19.4751C15.1384 19.5619 15.0917 19.6547 15.0581 19.7514L16.3652 20.887C16.3652 20.887 16.5891 18.9199 18.5086 19.0078C20.1133 19.0832 20.0481 21.1859 20.0481 21.1859L19.929 23.982V31.77C19.9397 32.3287 19.8438 32.8851 19.6455 33.4155C19.6455 33.4155 19.6455 33.4557 19.5973 33.526C19.4943 33.7637 19.355 33.9877 19.1833 34.1918C18.856 34.5991 18.3738 34.8881 17.8253 35.0058H17.7998C17.5661 35.0612 17.3242 35.085 17.0825 35.0761C16.6029 35.0567 16.1363 34.9316 15.725 34.7123C15.3136 34.493 14.9704 34.1863 14.7264 33.82C14.0771 32.8603 13.5753 31.2349 15.5203 29.421L14.1764 28.2302C13.8159 28.6441 13.4826 29.0761 13.1784 29.524C12.968 29.8507 12.7942 30.1948 12.6595 30.5516C12.4985 30.9551 12.4151 31.3797 12.4129 31.8077C12.386 32.3188 12.4884 32.8289 12.7126 33.3005C12.9368 33.7721 13.2771 34.1934 13.7086 34.5335C14.5686 35.2034 15.7405 35.5383 17.2242 35.5383C18.708 35.5383 19.895 35.1833 20.7852 34.4732C21.2278 34.1145 21.5762 33.6742 21.806 33.1833C22.0357 32.6923 22.1412 32.1628 22.1149 31.6318V31.3806C21.9225 31.1177 21.7492 30.8441 21.5961 30.5616C21.3408 30.0974 21.1385 29.6118 20.9922 29.112C20.8636 28.6823 20.795 28.2402 20.7881 27.7956V26.9515C20.7881 26.8435 20.7881 26.7329 20.7881 26.6224C20.8151 26.9855 20.8806 27.3455 20.9837 27.6976C21.291 28.7343 21.8321 29.7052 22.5742 30.5516C22.9699 31.008 23.4302 31.4175 23.9437 31.77C24.458 32.1276 25.0319 32.4124 25.6448 32.6141C26.2973 32.827 26.9879 32.9334 27.6833 32.9281C28.4132 32.9353 29.1391 32.8316 29.8295 32.6216C30.4536 32.4277 31.0421 32.1535 31.576 31.8077C32.0887 31.4725 32.5483 31.0779 32.9426 30.6345C33.3255 30.2044 33.6527 29.7375 33.9179 29.2427C34.1712 28.7755 34.3661 28.2853 34.4991 27.7806C34.6223 27.3245 34.687 26.8577 34.6919 26.3888V25.2382C34.6949 24.4335 34.5296 23.6354 34.2042 22.8842ZM31.9361 29.4512C31.9361 29.4512 30.9041 32.1845 27.8732 32.1443H27.8335C27.6219 32.1445 27.4108 32.1243 27.2041 32.084C27.1686 32.0797 27.1336 32.073 27.0992 32.0639C25.2705 31.7223 23.8898 30.2702 23.3171 28.7252C22.5465 26.734 22.6242 24.5619 23.5354 22.6179C23.8551 21.9399 24.2818 21.3055 24.8027 20.7337C25.693 19.7791 26.8866 19.0832 28.3467 19.2741C28.6109 19.3078 28.8685 19.3737 29.1122 19.4701C31.0543 20.2137 32.0523 22.2561 32.4181 23.982C32.7857 25.811 32.6238 27.6927 31.9474 29.4512H31.9361Z" fill="white"/>
</svg>
