<svg width="38" height="36" viewBox="0 0 38 36" fill="none" xmlns="http://www.w3.org/2000/svg">
<path d="M0.0125542 9.57312L0.500381 6.90551C0.567322 6.53949 0.885868 6.27393 1.25712 6.27393C1.25866 6.27393 1.25943 6.27393 1.26097 6.27393C1.63415 6.27547 1.95154 6.5445 2.01541 6.91206L6.40391 32.2064L28.7696 32.2071C29.3055 32.2071 29.8014 31.9854 30.1673 31.5832C30.5866 31.121 30.8202 30.4317 30.764 29.8409C30.6001 28.4172 29.5714 27.3834 28.3195 27.3834H9.65441C9.27931 27.3834 8.95845 27.1129 8.89612 26.7422L4.52647 0.898309C4.48877 0.674694 4.5511 0.446076 4.69767 0.27288C4.84348 0.0996839 5.05854 0 5.28476 0H23.9352C28.1898 0 32.3433 3.46161 33.1947 7.71376L37.1796 27.2337C37.5381 29.5191 36.9818 31.6675 35.613 33.2844C34.2688 34.872 32.2979 35.7465 30.063 35.7465L29.7068 35.7453C29.6999 35.7453 29.6933 35.7457 29.6856 35.7457C28.4953 35.7469 5.73103 35.7484 5.49366 35.7484C4.63227 35.7484 3.89823 35.1311 3.74588 34.2639L0.00909424 9.82714C-0.00437164 9.74323 -0.00244904 9.65663 0.0125542 9.57312Z" fill="#00CC6F"/>
</svg>
