<svg width="29" height="28" viewBox="0 0 29 28" fill="none" xmlns="http://www.w3.org/2000/svg">
<path fill-rule="evenodd" clip-rule="evenodd" d="M21.3284 11.1056C23.7945 11.1056 25.7918 9.14189 25.7918 6.7191C25.7918 4.29772 23.7945 2.33398 21.3284 2.33398C18.8638 2.33398 16.865 4.29772 16.865 6.7191C16.865 9.14189 18.8638 11.1056 21.3284 11.1056ZM7.05149 11.1058C9.51754 11.1058 11.5149 9.14202 11.5149 6.71923C11.5149 4.29785 9.51754 2.33411 7.05149 2.33411C4.5869 2.33411 2.5881 4.29785 2.5881 6.71923C2.5881 9.14202 4.5869 11.1058 7.05149 11.1058ZM25.9504 21.0231C25.9504 23.4445 23.9531 25.4082 21.4871 25.4082C19.0225 25.4082 17.0237 23.4445 17.0237 21.0231C17.0237 18.6003 19.0225 16.6366 21.4871 16.6366C23.9531 16.6366 25.9504 18.6003 25.9504 21.0231ZM7.05165 25.4082C9.51769 25.4082 11.515 23.4445 11.515 21.0231C11.515 18.6003 9.51769 16.6366 7.05165 16.6366C4.58705 16.6366 2.58826 18.6003 2.58826 21.0231C2.58826 23.4445 4.58705 25.4082 7.05165 25.4082Z" fill="#333333"/>
</svg>
