<svg width="104" height="104" viewBox="0 0 104 104" fill="none" xmlns="http://www.w3.org/2000/svg">
<path opacity="0.2" d="M95.3347 52.0209C95.3347 75.8929 75.8848 95.3333 52.0013 95.3333C28.1178 95.3333 8.66797 75.8929 8.66797 52.0209C8.66797 28.107 28.1178 8.66663 52.0013 8.66663C75.8848 8.66663 95.3347 28.107 95.3347 52.0209Z" fill="white"/>
<path d="M69.3333 52.021C69.3333 53.1162 68.9886 54.2156 68.2992 55.0959C68.17 55.2686 67.5668 55.9805 67.0928 56.4438L66.8343 56.6966C63.215 60.5339 54.2098 66.3047 49.6425 68.1538C49.6425 68.196 46.928 69.2954 45.6354 69.3333H45.4631C43.4811 69.3333 41.6283 68.2423 40.6804 66.4732C40.1634 65.5001 39.6894 62.6779 39.6463 62.64C39.2585 60.1085 39 56.2332 39 51.9789C39 47.5181 39.2585 43.4702 39.7325 40.985C39.7325 40.9428 40.2064 38.6682 40.508 37.91C40.982 36.8191 41.8438 35.8882 42.9209 35.2985C43.7827 34.8814 44.6875 34.6666 45.6354 34.6666C46.6264 34.713 48.4792 35.3406 49.2116 35.6354C54.0374 37.4888 63.2581 43.5544 66.7912 47.2612C67.3944 47.8509 68.0407 48.5712 68.2131 48.7355C68.9456 49.6622 69.3333 50.7995 69.3333 52.021Z" fill="white"/>
</svg>
