<svg width="44" height="44" viewBox="0 0 44 44" fill="none" xmlns="http://www.w3.org/2000/svg">
<circle opacity="0.1" cx="22" cy="22" r="22" fill="white"/>
<path fill-rule="evenodd" clip-rule="evenodd" d="M8.66797 22.0078C8.66797 14.6484 14.6525 8.66675 22.0013 8.66675C29.3501 8.66675 35.3346 14.6484 35.3346 22.0078C35.3346 29.3517 29.3501 35.3334 22.0013 35.3334C14.6525 35.3334 8.66797 29.3517 8.66797 22.0078ZM26.8919 23.3572C27.0335 23.2157 27.2137 22.997 27.2523 22.9456C27.4582 22.6755 27.5611 22.341 27.5611 22.0078C27.5611 21.6335 27.4453 21.2862 27.2265 21.0032C27.2086 20.9852 27.1735 20.947 27.1277 20.8972C27.0421 20.8041 26.9192 20.6703 26.8018 20.5529C25.7465 19.4209 22.9923 17.5685 21.5509 17.0025C21.3321 16.9138 20.7787 16.7195 20.4826 16.7066C20.1995 16.7066 19.9292 16.771 19.6718 16.8996C19.3501 17.0797 19.0927 17.3627 18.9511 17.6972C18.861 17.9287 18.7195 18.6234 18.7195 18.6362C18.5779 19.3952 18.5007 20.6301 18.5007 21.9937C18.5007 23.2942 18.5779 24.4764 18.6937 25.2482C18.6969 25.2514 18.708 25.3066 18.7252 25.3924C18.7775 25.6531 18.8864 26.1962 19.0026 26.4188C19.2857 26.9591 19.8391 27.2936 20.4312 27.2936H20.4826C20.8687 27.2807 21.6796 26.9462 21.6796 26.9334C23.0438 26.3674 25.7336 24.605 26.8147 23.4344L26.8919 23.3572Z" fill="white"/>
</svg>
