<svg width="14" height="14" viewBox="0 0 14 14" fill="none" xmlns="http://www.w3.org/2000/svg">
<path d="M14 7C14 10.866 10.866 14 7 14C3.13401 14 0 10.866 0 7C0 3.13401 3.13401 0 7 0C10.866 0 14 3.13401 14 7ZM1.4 7C1.4 10.0928 3.90721 12.6 7 12.6C10.0928 12.6 12.6 10.0928 12.6 7C12.6 3.90721 10.0928 1.4 7 1.4C3.90721 1.4 1.4 3.90721 1.4 7Z" fill="#EDF0EE"/>
<circle cx="6.99997" cy="7.00022" r="3.88889" fill="#4B6858"/>
<path d="M7 0.7C7 0.313401 7.31418 -0.0036253 7.69884 0.0349709C8.48801 0.114153 9.25974 0.327067 9.98045 0.66621C10.9128 1.10494 11.7368 1.74409 12.3936 2.53803C13.0504 3.33198 13.5238 4.26113 13.7801 5.25917C14.0363 6.25721 14.0691 7.29951 13.876 8.31167C13.6829 9.32383 13.2688 10.2809 12.6631 11.1145C12.0575 11.9481 11.2752 12.6377 10.3723 13.1341C9.46932 13.6305 8.46791 13.9215 7.43954 13.9862C6.64458 14.0362 5.84867 13.9501 5.08577 13.7332C4.71391 13.6275 4.5385 13.217 4.68082 12.8576C4.82313 12.4981 5.22936 12.3268 5.60375 12.4231C6.17263 12.5696 6.76246 12.626 7.35163 12.5889C8.17433 12.5372 8.97546 12.3044 9.69782 11.9073C10.4202 11.5102 11.046 10.9585 11.5305 10.2916C12.015 9.6247 12.3463 8.85906 12.5008 8.04933C12.6553 7.23961 12.6291 6.40577 12.4241 5.60734C12.2191 4.80891 11.8403 4.06558 11.3149 3.43043C10.7894 2.79527 10.1302 2.28395 9.38436 1.93297C8.85021 1.68162 8.28104 1.51693 7.69819 1.44369C7.3146 1.39549 7 1.0866 7 0.7Z" fill="#4B6858"/>
</svg>
