<svg width="52" height="52" viewBox="0 0 52 52" fill="none" xmlns="http://www.w3.org/2000/svg">
<rect width="52" height="52" rx="12" fill="#EDF0EE"/>
<path fill-rule="evenodd" clip-rule="evenodd" d="M22.0282 16.5215H29.9727C32.9008 16.5215 34.5312 18.2088 34.5312 21.0999V30.8919C34.5312 33.8304 32.9008 35.4798 29.9727 35.4798H22.0282C19.1466 35.4798 17.4688 33.8304 17.4688 30.8919V21.0999C17.4688 18.2088 19.1466 16.5215 22.0282 16.5215ZM22.2842 20.9388V20.9293H25.1175C25.5261 20.9293 25.8578 21.2611 25.8578 21.6677C25.8578 22.0858 25.5261 22.4175 25.1175 22.4175H22.2842C21.8756 22.4175 21.5448 22.0858 21.5448 21.6782C21.5448 21.2705 21.8756 20.9388 22.2842 20.9388ZM22.2842 26.7021H29.7158C30.1234 26.7021 30.4552 26.3703 30.4552 25.9627C30.4552 25.5551 30.1234 25.2224 29.7158 25.2224H22.2842C21.8756 25.2224 21.5448 25.5551 21.5448 25.9627C21.5448 26.3703 21.8756 26.7021 22.2842 26.7021ZM22.2842 31.0341H29.7158C30.0941 30.9962 30.3794 30.6729 30.3794 30.2947C30.3794 29.9061 30.0941 29.5838 29.7158 29.5459H22.2842C21.9998 29.5174 21.7249 29.6501 21.5732 29.8966C21.4216 30.1336 21.4216 30.4464 21.5732 30.6928C21.7249 30.9298 21.9998 31.072 22.2842 31.0341Z" fill="#4B6858"/>
</svg>
