<svg width="89" height="76" viewBox="0 0 89 76" fill="none" xmlns="http://www.w3.org/2000/svg">
<path d="M42.2446 13.0515C42.3031 13.1393 42.3031 13.1978 42.2739 13.2563C43.6779 8.22506 49.3527 3.66188 53.8574 1.4973C58.6545 -0.813544 65.0313 -0.872045 67.9272 4.36391C72.8999 4.51017 75.825 1.17554 80.7977 4.65642C83.4303 6.49925 85.1853 9.62912 84.3078 12.9345C83.401 16.4154 80.7684 17.1467 84.5126 19.7793C88.754 22.7629 89.6023 28.1159 87.7302 32.8545C87.0867 34.5219 84.7758 35.6334 84.2786 37.0375C83.752 38.5293 85.5656 39.8163 85.8289 41.7761C86.5602 46.8658 84.0445 52.4236 80.5052 55.9922C77.4338 59.0636 74.6842 58.6541 70.7353 58.069C69.5652 65.0308 63.8027 69.6818 56.724 69.009C55.0567 68.8627 53.3893 68.424 51.839 67.7512C49.5574 66.7859 49.8792 66.4056 48.3581 67.8389C45.8718 70.2083 44.1752 71.7293 40.2848 70.7933C35.0489 69.5355 30.4857 66.3179 28.8769 61.0234C19.7212 66.0254 10.5071 70.9396 1.38077 76C-0.520558 74.7422 1.20526 71.8171 2.0243 70.4423C3.4576 67.9559 5.00791 65.5866 6.38272 63.071C8.45955 59.2976 10.5364 55.5534 12.6425 51.78C14.7193 48.0359 17.5859 44.087 18.99 40.0503C20.1308 36.8034 18.8437 32.6205 19.3702 29.1689C19.9553 25.2785 21.4763 21.6806 23.6409 18.4045C25.8932 15.0113 28.1163 12.291 32.0945 11.0917C34.0836 10.5067 35.8094 10.2141 37.857 10.7699C38.4127 10.9454 41.8059 12.2617 42.2446 13.0515ZM7.08474 69.0675C8.40105 71.4076 26.6245 59.2391 28.0578 58.3616C32.7673 55.4072 31.217 61.2574 32.2407 63.539C33.1768 65.5866 36.4529 66.8444 38.3542 67.6927C40.2263 68.541 42.9759 69.6525 44.848 68.2484C46.7786 66.8151 45.667 65.0308 46.1643 63.188C46.4568 62.0472 46.5446 61.4622 48.1534 62.1935C49.3819 62.7492 50.4642 64.3288 51.6343 65.0893C55.7002 67.6927 61.7552 67.9559 65.3823 64.358C66.6694 63.1002 68.1319 60.9064 67.7224 59.0343C67.4006 57.601 65.7333 56.3725 65.6456 54.9099C65.5578 53.2719 67.0204 53.2426 68.3074 53.7691C70.6183 54.7052 71.7883 56.2555 74.4794 56.2262C80.0664 56.197 82.9623 48.7672 83.1378 44.1162C83.2548 41.0741 81.9677 40.4891 79.5984 39.1728C78.3991 38.5 76.3808 36.7742 77.8433 35.3701C78.7208 34.5219 80.5637 35.0191 81.5875 34.3464C83.4303 33.1178 85.3316 27.7941 84.6003 25.6003C83.5473 22.4119 79.4521 24.5472 77.1705 23.9914C71.6128 22.6459 78.9841 14.5433 79.5984 11.9985C80.1249 9.71688 79.0426 7.40603 76.6148 6.96726C74.8012 6.6455 73.1339 7.61079 71.6421 8.54682C69.0095 10.2141 65.9673 12.525 63.7442 9.01484C63.0422 7.93255 62.7205 6.32374 61.4919 5.68021C59.6198 4.65642 56.7825 6.35299 55.0859 7.14277C52.658 8.28357 49.9377 9.77538 48.2411 11.94C47.0711 13.4025 46.3106 15.1868 45.2575 16.7079C44.5555 17.7609 43.5902 19.4575 42.1276 19.2528C41.1038 19.1065 40.3141 17.4977 39.6413 16.8542C38.676 15.8304 37.5644 15.3331 36.1311 15.3916C27.4143 15.8304 17.2642 34.7559 28.0578 38.734C24.2552 44.555 20.6865 50.5515 16.5329 56.1385C14.6608 58.6541 12.7595 61.2574 10.6534 63.539C9.80511 64.592 6.0902 67.2539 7.08474 69.0675Z" fill="#46ACC2"/>
<path d="M70.4426 25.6003C61.9306 27.1798 53.3015 27.9696 44.6431 28.2621C42.186 28.3499 39.7582 28.3791 37.3011 28.3791C36.3065 28.3791 36.3065 29.9294 37.3011 29.9294C46.0472 29.9294 54.7933 29.4322 63.4516 28.2621C65.9087 27.9404 68.3658 27.5308 70.8229 27.0921C71.8467 26.9166 71.4079 25.4248 70.4426 25.6003Z" fill="#46ACC2"/>
<path d="M72.4904 31.2456C68.015 32.4157 63.3933 32.7082 58.8009 32.7082C56.5193 32.7082 54.2377 32.5912 51.9561 32.5034C49.5868 32.4157 47.2174 32.6204 44.8773 32.8837C42.1862 33.1762 39.5244 33.5272 36.804 33.5272C35.8095 33.5272 35.8095 35.0775 36.804 35.0775C41.6305 35.0483 46.3984 33.9367 51.2248 34.0245C55.8758 34.1122 60.4974 34.4047 65.1484 34.0245C67.781 33.8197 70.3843 33.4102 72.9292 32.7374C73.8652 32.4742 73.4557 30.9824 72.4904 31.2456Z" fill="#46ACC2"/>
<path d="M73.0166 38.9388C68.278 39.6408 63.627 40.8986 58.8298 41.1911C54.2666 41.4836 49.7035 41.3081 45.1695 41.1326C42.7417 41.0449 40.2846 40.9571 37.8567 40.9571C36.8622 40.9571 36.8622 42.5074 37.8567 42.5074C47.0416 42.5074 56.1972 43.5605 65.3236 41.9224C68.0439 41.4251 70.7351 40.8401 73.4554 40.4306C74.3914 40.2843 73.9819 38.7925 73.0166 38.9388Z" fill="#46ACC2"/>
<path d="M73.3385 46.1931C71.7589 47.0414 69.8576 47.1292 68.1318 47.1877C66.0842 47.2462 64.0366 47.1584 61.989 47.1584C59.6782 47.1877 57.3674 47.4802 55.0565 47.5387C52.3069 47.5972 49.5573 47.5094 46.8077 47.3924C43.7363 47.2754 40.6649 47.1292 37.5936 47.1292C36.599 47.1292 36.599 48.6795 37.5936 48.6795C43.2098 48.6795 48.7968 49.1768 54.413 49.1183C56.8408 49.089 59.2394 48.7672 61.638 48.738C63.7441 48.7087 65.8502 48.8257 67.927 48.7672C70.0039 48.7087 72.2269 48.5625 74.099 47.5679C75.0058 47.0707 74.216 45.7251 73.3385 46.1931Z" fill="#46ACC2"/>
</svg>
