<svg width="57" height="70" viewBox="0 0 57 70" fill="none" xmlns="http://www.w3.org/2000/svg">
<path d="M38.863 48.1151C41.9055 45.5555 44.61 43.2857 47.3145 41.0158C48.3287 40.1465 49.5844 39.9533 50.3571 41.2573C53.9792 47.7771 54.8968 56.277 55.7178 63.5695C55.8627 64.6803 56.394 65.8876 56.2491 66.9984C56.0559 68.4472 54.8485 68.4955 53.5446 68.4472C49.4878 68.2541 45.2379 68.4472 41.0845 68.5438C38.4283 68.5921 35.8204 69.0751 33.2608 69.5097C32.3915 69.6546 30.6529 70.3307 29.7835 69.7995C28.8177 69.22 29.3972 68.2058 29.5421 67.2399C30.0733 64.2456 30.9909 61.3479 32.3915 58.6434C32.6812 58.0639 33.0193 57.5326 33.0676 56.9048C33.1642 55.6008 30.846 54.2003 29.9767 53.3793C25.5819 48.9362 21.0905 44.5413 17.082 39.7601C12.7838 34.5926 8.58215 29.2319 5.3464 23.3399C2.15894 17.3514 -1.26999 10.0106 0.468625 3.2976C1.43452 -0.4211 9.59634 -0.179624 12.494 0.206734C14.5224 0.496503 16.6474 0.351625 18.724 0.30333C20.3178 0.30333 21.5734 1.80046 21.0905 3.58737C19.7865 8.56173 21.1388 13.2946 22.153 18.1241C23.312 23.5331 25.1473 28.6523 27.7552 33.5301C30.6529 39.1323 34.9028 43.5271 38.863 48.1151ZM16.5025 2.47659C12.6389 2.47659 9.16168 2.13853 5.78105 2.71807C4.18732 2.95954 1.28964 3.24931 1.67599 6.38847C2.497 13.0049 4.91174 19.0417 8.38897 24.5956C13.4116 32.5159 19.207 39.8084 26.1614 46.1351C29.0108 48.6947 31.6187 51.5441 34.6613 53.8139C36.3033 55.0696 36.2068 55.8423 35.434 57.436C34.0335 60.4786 32.971 63.6661 31.6187 67.095C38.9596 66.8052 45.5759 66.5637 52.7719 66.3223C52.0474 66.3706 49.0049 47.5356 48.3287 45.8453C47.9907 45.9902 47.7492 46.1834 47.5077 46.4248C45.2862 48.3566 43.0646 50.3367 40.6499 52.027C38.7664 53.3793 37.8488 51.7372 36.3999 50.385C34.8545 48.9361 33.4057 47.439 32.0051 45.8453C26.741 39.9533 22.3944 33.2886 19.207 26.0444C15.9712 18.8002 15.6332 10.4452 16.5025 2.47659Z" fill="#FB5012"/>
</svg>
