<svg width="69" height="70" viewBox="0 0 69 70" fill="none" xmlns="http://www.w3.org/2000/svg">
<path d="M56.7907 50.5849C53.4218 56.027 49.9664 61.4692 46.7702 66.9977C44.2651 71.4897 38.9094 70.1075 35.1949 68.2071C33.8127 67.516 32.4306 66.825 31.0485 66.0475C28.8889 64.9245 26.4701 63.5424 25.9518 61.21C25.4335 59.2232 26.5565 57.15 27.5068 55.336C34.763 42.3784 43.0558 29.8529 50.6575 17.0681C52.8171 13.3536 56.0997 14.0447 59.3822 15.8587C61.1963 16.8089 62.9239 17.8456 64.738 18.7958C65.861 19.4005 67.0703 20.0915 67.7614 21.2145C68.6252 22.683 68.5389 24.4971 68.107 26.1384C67.4159 28.8163 66.8976 31.6669 65.7746 34.0857C63.2695 39.787 60.0733 45.2291 56.7907 50.5849ZM54.1992 35.9861C55.6677 35.0358 57.5682 35.0358 59.0367 33.9992C61.0235 32.7035 62.8376 30.9758 64.2197 29.0754C64.3925 28.8162 64.5652 28.4707 64.4788 28.1252C64.3061 27.4341 63.2695 27.6069 62.6648 27.9524C60.4188 29.0754 58.2592 30.4575 56.0133 31.5805C54.9767 32.0988 53.3354 32.5307 52.6443 33.481C52.126 34.172 52.4716 35.1222 51.6077 35.9861C50.2256 37.2818 48.1524 37.2818 46.3383 37.8001C44.006 38.4912 42.1056 39.8733 40.0323 41.1691C39.4277 41.5146 38.823 41.9465 38.4774 42.6376C38.1319 43.3287 38.3911 44.1925 39.0821 44.4517C39.514 44.6244 39.946 44.4517 40.3779 44.2789C45.3017 42.2921 49.7073 38.7503 54.1992 35.9861ZM63.2695 23.2877C63.3559 23.115 63.4423 23.0286 63.3559 22.8558C63.2695 22.683 63.0967 22.5103 62.924 22.4239C59.9005 20.3507 56.3588 18.5366 53.249 21.1281C50.7439 23.2877 49.7073 26.743 48.066 29.5073C47.2885 30.9758 47.8068 31.9261 49.3617 31.4942C50.2256 31.235 51.9532 29.3345 52.8171 28.8162C56.0133 27.0022 59.2958 25.4473 62.5784 23.806C62.8375 23.6332 63.0967 23.4605 63.2695 23.2877ZM46.6839 53.6083C43.4013 54.6449 40.2051 55.9407 36.9225 57.2364C35.454 57.8411 31.5668 58.5321 30.6165 59.7415C27.8523 63.1104 38.4774 60.6054 39.4277 60.2598C43.4013 58.7049 50.1392 56.2862 52.2124 52.3125C50.312 52.5717 48.4979 53.09 46.6839 53.6083ZM55.5814 43.9333C56.186 43.415 56.7907 42.9831 57.3954 42.4648C57.8273 42.0329 58.3456 41.2555 57.9137 40.8236C57.7409 40.6508 57.4818 40.5644 57.2226 40.5644C55.1494 40.3916 54.4584 41.601 52.9899 42.6376C51.2622 43.847 49.189 44.7108 47.2885 45.661C45.7336 46.4385 43.9196 47.907 42.4511 47.6478C39.0821 46.9567 36.0587 48.598 33.8991 51.0168C33.5536 51.4487 33.2944 51.7942 33.208 52.3125C37.2681 52.6581 42.7966 50.4985 46.5111 49.03C49.5345 47.8206 52.8171 46.0065 55.5814 43.9333ZM43.0558 64.9245C44.6107 64.147 45.9064 62.7649 46.4247 60.9509C43.7468 60.6917 42.5375 61.9875 40.4643 63.1968C39.0821 63.9743 36.8362 63.8879 35.6268 64.9245C35.2813 65.1836 40.3779 65.702 40.9825 65.6156C41.6736 65.5292 42.3647 65.27 43.0558 64.9245Z" fill="#4B6858"/>
<path d="M11.6129 21.3009C11.7856 21.0417 11.9584 20.6962 12.2176 20.437C15.9321 15.0813 19.0419 9.2936 23.0155 4.1106C24.5704 2.0374 28.1121 -0.381349 30.1853 0.0505679C34.85 1.00079 40.3786 1.86463 42.4518 7.13402C43.1428 8.94807 41.9335 11.8851 40.8105 13.8719C34.6773 25.1018 28.2849 36.2452 21.8925 47.3887C19.9921 50.7576 17.2278 54.5585 12.7359 53.8674C10.7491 53.5219 8.84863 52.4853 7.20735 51.3623C4.18393 49.3755 0.469423 48.1661 0.0375064 44.1061C-0.221644 41.3418 0.90134 38.4048 2.19709 36.0725C4.87498 31.1486 8.41669 26.052 11.6129 21.3009ZM31.0491 20.5234C28.1121 21.3009 24.5704 23.9788 22.4972 25.2745C20.424 26.5703 18.3508 27.9524 16.0184 28.7299C13.8589 29.5073 11.0946 28.9026 9.53968 30.7167C7.3801 33.1354 5.56606 35.8133 4.18393 38.664C3.66563 39.7006 3.14732 40.9099 3.66562 41.9465C4.52945 43.847 7.98478 43.415 9.53968 42.8104C11.9584 41.8601 14.2044 40.7372 16.5367 39.5278C17.8325 38.9231 21.2878 37.8865 22.1517 36.8499C23.2747 35.3814 22.3244 34.0856 20.7695 34.172C19.7329 34.2584 18.6099 35.295 17.6597 35.8133C15.0682 37.0227 12.995 38.4912 10.4899 36.2452C10.3171 36.1589 10.2308 35.9861 10.1444 35.8133C10.058 35.5542 10.1444 35.3814 10.3171 35.2086C11.872 32.1852 16.4504 30.9758 19.4738 29.9392C22.1517 28.989 24.2249 27.4341 26.6436 25.8792C29.1487 24.2379 31.913 23.2013 33.2951 20.3507C32.6041 20.2643 31.913 20.3507 31.0491 20.5234ZM14.118 22.4239C13.5133 22.9422 12.995 23.5469 12.7359 24.2379C14.7227 25.3609 17.8325 22.5966 19.4738 21.7328C22.67 20.0915 25.7798 18.5366 28.976 16.809C31.2219 15.5996 33.8998 14.563 35.973 13.0944C36.4049 12.7489 39.5147 9.63915 38.1326 9.03446C35.4547 7.99786 33.8998 10.3302 31.913 11.8851C29.4079 13.7855 26.9028 15.686 24.3976 17.5C22.9291 18.5366 21.0287 18.9686 19.301 19.8324C17.7461 20.6098 15.5865 21.3009 14.118 22.4239ZM22.1517 13.1809C23.8793 15.3404 32.3449 6.96125 33.3815 5.40635C30.6172 4.02422 27.2483 4.36974 24.9159 6.52932C23.8793 7.65231 20.8559 11.626 22.1517 13.1809ZM10.6627 45.5746C10.3171 45.7474 9.97159 45.8338 9.88521 46.0066C9.71244 46.1793 9.88522 46.4385 9.9716 46.5248C11.3537 48.2525 13.8589 48.5117 16.0184 48.5981C16.364 48.5981 16.6231 48.5981 16.9687 48.4253C17.2278 48.2525 17.4006 47.907 17.5734 47.6478C18.2644 46.2657 18.9555 44.7972 19.6466 43.4151C19.7329 43.2423 15.241 44.2789 14.8091 44.4517C14.2044 44.7108 11.9584 45.1427 10.6627 45.5746Z" fill="#4B6858"/>
</svg>
