<svg width="295" height="296" viewBox="0 0 295 296" fill="none" xmlns="http://www.w3.org/2000/svg">
<g clip-path="url(#clip0)">
<path d="M124.939 14.7687C130.394 19.1254 136.718 22.0345 143.013 25.0739C146.587 26.8252 149.895 21.0522 146.052 19.1591C140.249 16.3657 134.464 13.7403 129.425 9.72226C126.277 7.16323 121.698 12.1344 124.939 14.7687Z" fill="#E7E8E8"/>
<path d="M168.333 39.4229C172.176 42.5464 175.973 45.6323 179.815 48.7558C182.918 51.2772 187.496 46.306 184.255 43.6717C180.412 40.5482 176.616 37.4623 172.773 34.3388C169.671 31.8174 165.092 36.7885 168.333 39.4229Z" fill="#E7E8E8"/>
<path d="M207.548 69.2193C212.236 72.722 216.333 76.6677 219.949 81.2996C222.44 84.4782 228.026 80.6332 225.535 77.4545C221.623 72.4289 217.092 67.9766 211.996 64.2192C208.819 61.7904 204.24 66.7616 207.548 69.2193Z" fill="#E7E8E8"/>
<path d="M235.163 104.204C238.441 108.023 239.898 112.284 239.653 117.316C239.452 121.537 246.095 120.552 246.239 116.592C246.511 110.581 244.655 104.919 240.711 100.406C238.099 97.282 232.513 101.127 235.163 104.204Z" fill="#E7E8E8"/>
<path d="M239.129 144.353C238.782 149.226 238.138 154.086 237.279 158.927C236.573 163.2 243.046 163.845 243.693 159.833C244.622 154.433 245.298 149.06 245.715 143.629C246.084 139.39 239.449 140.459 239.129 144.353Z" fill="#E7E8E8"/>
<path d="M224.726 180.803C219.907 186.733 215.049 192.709 210.23 198.638C207.481 202.02 212.456 205.832 215.129 202.543C219.949 196.614 224.806 190.638 229.625 184.708C232.374 181.327 227.399 177.514 224.726 180.803Z" fill="#E7E8E8"/>
<path d="M200.621 213.676C193.594 218.349 189.506 226.027 182.524 230.738C178.954 233.144 182.455 238.297 186.062 235.845C193.044 231.134 197.178 223.493 204.159 218.783C207.776 216.414 204.238 211.307 200.621 213.676Z" fill="#E7E8E8"/>
<path d="M152.799 242.81C151.647 255.106 146.802 266.553 143.474 278.31C142.737 280.635 145.46 282.771 147.603 281.744C159.138 276.349 169.902 268.404 182.949 267.393C187.071 267.051 187.094 260.685 182.72 261.053C168.963 262.18 157.864 270.16 145.721 275.829C147.11 276.958 148.499 278.087 149.897 279.3C153.416 266.929 158.181 255.108 159.393 242.17C159.8 237.885 153.156 238.87 152.799 242.81Z" fill="#E7E8E8"/>
</g>
<defs>
<clipPath id="clip0">
<rect width="211.145" height="208.291" fill="white" transform="matrix(0.630733 -0.776 -0.776 -0.630733 161.634 295.224)"/>
</clipPath>
</defs>
</svg>
