<svg xmlns="http://www.w3.org/2000/svg" fill="none" viewBox="60.43 81.45 196.13 152.01">
<path d="M251.612 93.2885C256.344 93.5572 258.175 97.8035 254.89 100.933L246.55 108.829L238.211 116.725C234.926 119.854 229.015 119.488 227.534 116.133L223.814 107.525L220.095 98.9175C218.647 95.5191 222.728 91.6391 227.46 91.9077L239.473 92.5836L251.612 93.2885Z" fill="#E7E8E8"/>
<path d="M60.6661 179.195C58.3079 193.751 73.9501 209.634 84.4773 218.486C95.7115 227.959 114.809 239.24 128.078 230.045C135.941 224.617 137.995 214.509 139.178 205.442C141.02 191.172 140.002 176.387 138.151 161.916C136.504 148.915 133.603 136.103 129.716 123.417C127.119 114.84 123.999 103.856 116.056 98.1968C108.067 92.501 100.098 102.119 97.1379 108.004C93.1934 115.945 93.7094 125.789 95.0316 134.678C98.4494 157.334 109.169 180.117 121.712 199.847C129.339 211.806 146.924 235.961 163.193 228.354C170.098 225.14 172.331 215.86 173.599 208.997C175.317 199.521 175.342 189.55 174.998 179.771C174.548 165.5 173.655 151.227 172.319 136.953C171.46 127.46 170.349 117.91 168.683 108.407C167.513 101.635 166.217 94.3515 163.025 87.9967C161.201 84.2966 157.725 80.3383 153.252 81.7327C146.175 83.9167 145.257 92.6392 145.363 99.0617C145.529 109.459 148.78 120.27 151.946 130.325C154.669 138.932 157.868 147.497 161.774 155.719C166.037 164.633 171.489 174.409 180.001 180.1C189.133 186.138 196.335 178.677 199.85 171.296C204.535 161.522 205.056 150.422 206.655 139.751C208.524 127.087 214.814 118.982 226.134 113.293C229.365 111.685 225.928 107 222.922 108.508C212.68 113.661 205.233 120.861 202.161 132.103C199.181 142.935 199.545 154.52 195.938 165.205C194.313 169.929 190.461 179.39 183.608 176.168C178.19 173.584 174.37 167.083 171.429 162.234C166.281 153.799 162.791 144.455 159.579 135.329C155.845 124.76 152.566 113.79 151.456 102.792C151.006 98.6507 150.887 94.0785 152.466 90.283C153.047 88.946 155.096 86.2754 155.988 87.0418C160.111 90.5418 161.149 99.4155 162.088 104.077C163.952 113.321 165.069 122.67 166.015 131.954C167.536 146.856 168.422 161.813 169.024 176.754C169.395 186.209 169.448 195.691 168.18 204.966C167.289 211.435 165.281 223.991 156.763 224.291C147.518 224.573 138.22 213.444 132.986 206.664C125.855 197.437 120.073 187.127 115.004 176.755C109.565 165.611 105.137 154.018 102.235 142.171C99.8487 132.45 98.2621 121.011 101.883 111.852C103.416 108.02 106.58 103.122 110.869 102.065C114.569 101.1 117.755 108.139 118.925 110.569C123.591 120.212 126.301 131.151 128.687 141.355C131.774 154.794 133.446 168.436 134.015 181.973C134.584 194.064 134.651 207.966 129.676 218.891C122.217 235.178 102.485 225.882 91.0191 217.192C84.2456 212.034 78.1856 205.848 73.1763 198.969C69.5746 194.016 65.279 187.074 66.2698 180.958C66.937 177.483 61.1879 175.813 60.6661 179.195Z" fill="#E7E8E8"/>
</svg>