<svg width="182" height="282" viewBox="0 0 182 282" fill="none" xmlns="http://www.w3.org/2000/svg">
<g opacity="0.1">
<path d="M63.0774 294.185C59.3355 300.23 55.4976 306.275 51.9475 312.415C49.1651 317.404 43.2163 315.869 39.0906 313.758C37.5555 312.991 36.0203 312.223 34.4851 311.36C32.0865 310.112 29.3999 308.577 28.8243 305.987C28.2486 303.78 29.4959 301.477 30.5513 299.462C38.6109 285.07 47.8218 271.158 56.2651 256.958C58.6638 252.832 62.3098 253.6 65.9558 255.614C67.9707 256.67 69.8896 257.821 71.9045 258.877C73.1518 259.548 74.4951 260.316 75.2627 261.563C76.2221 263.194 76.1262 265.209 75.6465 267.032C74.8789 270.007 74.3032 273.173 73.0559 275.859C70.2734 282.192 66.7234 288.237 63.0774 294.185ZM60.199 277.97C61.8301 276.915 63.9409 276.915 65.572 275.763C67.7788 274.324 69.7937 272.405 71.3289 270.294C71.5208 270.007 71.7126 269.623 71.6167 269.239C71.4248 268.471 70.2734 268.663 69.6018 269.047C67.1072 270.294 64.7085 271.83 62.2139 273.077C61.0625 273.653 59.2395 274.132 58.4719 275.188C57.8962 275.955 58.28 277.011 57.3206 277.97C55.7854 279.409 53.4827 279.409 51.4678 279.985C48.8772 280.753 46.7664 282.288 44.4637 283.727C43.792 284.111 43.1204 284.591 42.7366 285.358C42.3528 286.126 42.6407 287.085 43.4082 287.373C43.888 287.565 44.3677 287.373 44.8474 287.181C50.3164 284.974 55.2097 281.04 60.199 277.97ZM70.2734 263.866C70.3694 263.674 70.4653 263.578 70.3694 263.386C70.2734 263.194 70.0815 263.002 69.8897 262.906C66.5315 260.604 62.5977 258.589 59.1436 261.467C56.3611 263.866 55.2097 267.704 53.3867 270.774C52.5232 272.405 53.0989 273.461 54.8259 272.981C55.7854 272.693 57.7044 270.582 58.6638 270.007C62.2139 267.992 65.8598 266.265 69.5058 264.442C69.7937 264.25 70.0815 264.058 70.2734 263.866ZM51.8516 297.543C48.2056 298.695 44.6555 300.134 41.0096 301.573C39.3785 302.245 35.0608 303.012 34.0054 304.356C30.9351 308.098 42.7366 305.315 43.792 304.931C48.2056 303.204 55.6894 300.518 57.9922 296.104C55.8813 296.392 53.8665 296.968 51.8516 297.543ZM61.7341 286.797C62.4058 286.222 63.0774 285.742 63.749 285.166C64.2287 284.686 64.8044 283.823 64.3247 283.343C64.1328 283.151 63.845 283.055 63.5571 283.055C61.2544 282.863 60.4868 284.207 58.8557 285.358C56.9368 286.701 54.634 287.661 52.5232 288.716C50.7962 289.58 48.7813 291.211 47.1502 290.923C43.4082 290.155 40.0501 291.978 37.6514 294.665C37.2676 295.145 36.9798 295.528 36.8838 296.104C41.3933 296.488 47.534 294.089 51.6597 292.458C55.0178 291.115 58.6638 289.1 61.7341 286.797ZM47.8218 310.112C49.5489 309.249 50.9881 307.714 51.5637 305.699C48.5894 305.411 47.2461 306.85 44.9434 308.193C43.4082 309.057 40.9136 308.961 39.5703 310.112C39.1866 310.4 44.8474 310.976 45.5191 310.88C46.2866 310.784 47.0542 310.496 47.8218 310.112Z" fill="white"/>
<path d="M12.8986 261.659C13.0905 261.371 13.2824 260.988 13.5702 260.7C17.6959 254.751 21.15 248.323 25.5636 242.566C27.2907 240.263 31.2245 237.576 33.5272 238.056C38.7084 239.112 44.849 240.071 47.1517 245.924C47.9193 247.939 46.576 251.201 45.3287 253.408C38.5165 265.881 31.4164 278.258 24.3163 290.635C22.2055 294.377 19.1352 298.599 14.1459 297.831C11.9391 297.447 9.82829 296.296 8.00529 295.049C4.64714 292.842 0.521395 291.499 0.0416588 286.989C-0.246183 283.919 1.00113 280.657 2.44034 278.066C5.4147 272.597 9.34853 266.936 12.8986 261.659ZM34.4867 260.796C31.2245 261.659 27.2907 264.634 24.9879 266.073C22.6852 267.512 20.3825 269.047 17.7919 269.911C15.3932 270.774 12.3229 270.103 10.5958 272.117C8.19717 274.804 6.18229 277.778 4.64714 280.945C4.07146 282.096 3.49577 283.439 4.07145 284.591C5.03092 286.701 8.8688 286.222 10.5958 285.55C13.2824 284.495 15.777 283.247 18.3676 281.904C19.8068 281.232 23.6447 280.081 24.6041 278.93C25.8514 277.299 24.796 275.859 23.069 275.955C21.9176 276.051 20.6703 277.203 19.6149 277.778C16.7365 279.122 14.4337 280.753 11.6513 278.258C11.4594 278.162 11.3634 277.97 11.2675 277.778C11.1715 277.49 11.2675 277.299 11.4594 277.107C13.1864 273.749 18.2716 272.405 21.6298 271.254C24.6041 270.198 26.9069 268.471 29.5934 266.744C32.3759 264.921 35.4462 263.77 36.9813 260.604C36.2137 260.508 35.4462 260.604 34.4867 260.796ZM15.6811 262.907C15.0094 263.482 14.4337 264.154 14.1459 264.921C16.3527 266.169 19.8068 263.098 21.6298 262.139C25.1798 260.316 28.6339 258.589 32.184 256.67C34.6786 255.327 37.653 254.175 39.9557 252.544C40.4354 252.16 43.8895 248.706 42.3544 248.035C39.38 246.883 37.6529 249.474 35.4462 251.201C32.6637 253.312 29.8812 255.423 27.0988 257.438C25.4677 258.589 23.3568 259.069 21.4379 260.028C19.7108 260.892 17.3122 261.659 15.6811 262.907ZM24.6041 252.64C26.5231 255.039 35.9259 245.732 37.0773 244.005C34.007 242.47 30.265 242.854 27.6745 245.252C26.5231 246.5 23.1649 250.913 24.6041 252.64ZM11.8432 288.62C11.4594 288.812 11.0756 288.908 10.9796 289.1C10.7877 289.292 10.9796 289.58 11.0756 289.676C12.6107 291.595 15.3932 291.883 17.7919 291.978C18.1757 291.978 18.4635 291.978 18.8473 291.787C19.1351 291.595 19.3271 291.211 19.5189 290.923C20.2865 289.388 21.0541 287.757 21.8217 286.222C21.9176 286.03 16.9284 287.181 16.4486 287.373C15.777 287.661 13.2824 288.141 11.8432 288.62Z" fill="white"/>
</g>
<g opacity="0.1">
<path d="M123.989 132.822C119.447 129.001 115.41 125.613 111.373 122.225C109.859 120.927 107.985 120.639 106.832 122.585C101.425 132.317 100.055 145.005 98.8297 155.891C98.6134 157.549 97.8204 159.351 98.0367 161.009C98.325 163.172 100.127 163.244 102.074 163.172C108.129 162.883 114.473 163.172 120.673 163.316C124.638 163.388 128.531 164.109 132.351 164.758C133.649 164.974 136.244 165.983 137.542 165.19C138.984 164.325 138.119 162.811 137.902 161.369C137.109 156.9 135.74 152.574 133.649 148.537C133.217 147.672 132.712 146.879 132.64 145.942C132.496 143.996 135.956 141.905 137.254 140.68C143.814 134.047 150.518 127.487 156.502 120.35C162.918 112.637 169.189 104.635 174.019 95.8396C178.777 86.9005 183.896 75.9428 181.3 65.9223C179.859 60.3714 167.675 60.7319 163.35 61.3086C160.322 61.7411 157.15 61.5249 154.051 61.4528C151.672 61.4528 149.797 63.6876 150.518 66.3549C152.465 73.7801 150.446 80.8449 148.932 88.0539C147.202 96.128 144.463 103.77 140.57 111.051C136.244 119.413 129.9 125.973 123.989 132.822ZM157.367 64.6968C163.134 64.6968 168.324 64.1922 173.371 65.0573C175.75 65.4177 180.075 65.8503 179.498 70.5361C178.273 80.4124 174.668 89.4236 169.478 97.714C161.98 109.537 153.33 120.422 142.949 129.866C138.695 133.687 134.803 137.94 130.261 141.328C127.81 143.203 127.954 144.356 129.107 146.735C131.198 151.277 132.784 156.035 134.803 161.153C123.845 160.721 113.969 160.36 103.227 160C104.308 160.072 108.85 131.957 109.859 129.434C110.364 129.65 110.724 129.938 111.085 130.299C114.401 133.182 117.717 136.138 121.322 138.661C124.133 140.68 125.503 138.228 127.666 136.21C129.972 134.047 132.135 131.812 134.226 129.434C142.084 120.639 148.572 110.69 153.33 99.8767C158.16 89.0632 158.664 76.5917 157.367 64.6968Z" fill="white"/>
</g>
<g opacity="0.1">
<path d="M41.2554 45.0437C39.5537 45.2675 42.1058 42.6228 42.2825 42.4708C43.6514 41.1749 44.2337 40.0597 44.0015 38.0387C43.4486 33.8366 40.609 36.4332 37.8009 35.6008C30.345 33.3451 33.6929 22.9047 39.4905 20.8461C46.4503 18.3429 52.8001 23.6883 53.3517 30.6202C53.9613 37.9393 48.407 44.1118 41.2554 45.0437ZM46.6722 38.5287C48.5297 35.3831 48.9583 31.258 46.0816 28.4173C44.3112 26.6329 40.1689 26.4995 38.0661 27.7889C36.8557 28.5232 36.3132 29.616 36.6419 31.0578C37.1217 33.1493 38.4571 33.3943 40.2605 33.1657C44.4773 32.6799 45.7131 34.8178 46.5796 38.7383C46.5574 38.6983 46.6148 38.6135 46.6722 38.5287Z" fill="white"/>
<path d="M32.1945 12.0985C31.6506 8.10128 33.8956 3.58281 38.1789 3.21699C41.4676 2.93904 44.8033 5.10131 45.7794 8.27772C48.2111 16.25 33.385 21.0323 32.1945 12.0985ZM40.3311 10.4019C38.7967 6.12293 33.6232 8.93204 35.3514 12.5246C36.8314 15.5747 41.6304 13.9736 40.3311 10.4019Z" fill="white"/>
</g>
</svg>
