<svg width="1284" height="538" viewBox="0 0 1284 538" fill="none" xmlns="http://www.w3.org/2000/svg">
<g clip-path="url(#clip0)">
<rect width="1284" height="538" rx="56" fill="#F8F7F2"/>
<path d="M779.34 335.52C780.366 334.12 783.678 334.913 785.824 334.773C791.095 334.447 796.366 333.7 801.59 333.28C804.482 333.047 807.375 332.861 810.22 333.141C812.646 333.374 813.159 334.82 811.806 336.359C807.188 341.584 802.523 346.761 797.812 351.893C796.459 353.339 794.873 354.552 793.38 355.904C792.307 356.837 790.955 357.63 789.555 357.35C787.923 356.977 786.99 355.298 786.29 353.805C783.911 348.674 780.786 343.45 779.2 337.992C778.873 336.779 778.966 335.986 779.34 335.52ZM791.141 337.292C791.048 336.966 790.815 336.826 790.302 337.199C789.275 337.992 789.602 340.697 789.509 341.817C789.369 343.776 789.229 345.782 789.135 347.788C789.089 349.234 789.322 350.913 789.835 352.266C789.975 352.732 790.208 353.199 790.628 353.432C791.141 353.759 791.841 353.619 792.401 353.339C795.806 351.566 794.453 347.228 794.64 344.243C794.733 342.936 796.039 338.132 795.013 337.432C793.287 336.266 793.52 339.438 793.52 340.184C793.474 341.537 793.427 342.936 793.287 344.289C793.194 345.175 793.007 349.654 791.328 349.28C790.208 349.001 790.908 343.496 790.955 342.517C791.001 341.304 791.095 340.044 791.141 338.831C791.188 338.552 791.281 337.712 791.141 337.292ZM800.051 336.266C800.004 336.126 799.958 336.079 799.864 336.033C799.631 335.893 799.305 335.893 799.025 336.033C798.278 336.313 797.859 337.152 797.625 337.899C797.066 339.578 796.506 341.304 796.319 343.03C796.086 344.942 796.273 347.181 796.972 349.001C797.392 349.141 797.765 348.627 797.952 348.208C798.791 346.108 799.398 344.196 799.631 341.91C799.724 341.024 800.424 337.339 800.051 336.266ZM808.587 335.286C807.888 335.1 806.815 335.146 806.815 335.146C805.509 335.193 804.156 335.24 802.85 335.333C802.57 335.333 802.103 335.799 802.057 336.079C801.917 337.292 801.824 338.552 801.684 339.764C801.59 340.651 801.17 342.003 801.357 342.89C801.404 343.17 801.637 343.496 801.917 343.543C802.103 343.589 802.337 343.496 802.477 343.403C802.99 343.123 803.316 342.563 803.596 342.05C804.109 341.117 804.576 340.324 804.762 339.298C804.949 338.038 804.809 337.665 805.928 337.245C807.048 336.826 808.168 336.966 809.054 335.939C809.38 335.566 809.054 335.38 808.587 335.286ZM786.99 337.665C786.896 337.572 786.756 337.479 786.663 337.432C784.051 336.499 785.637 346.808 785.73 347.974C785.777 348.347 785.963 348.861 786.337 348.767C786.617 348.721 786.71 348.394 786.756 348.161C787.176 346.342 787.316 344.336 787.503 342.47C787.643 341.164 788.063 338.692 786.99 337.665ZM782.465 339.205C782.465 339.671 782.465 340.184 782.512 340.651C782.558 340.931 782.652 341.117 782.885 341.21C783.398 340.744 783.678 338.458 783.165 337.899C782.325 337.012 782.465 338.692 782.465 339.205Z" fill="#DBE1DE"/>
<path d="M814.473 450.44C811.798 433.935 820.732 413.493 835.017 404.609C851.976 394.06 875.447 395.17 892.81 403.701C910.426 412.382 922.792 428.332 925.467 448.017C926.88 458.567 923.953 469.722 925.972 480.17C926.779 484.309 929.051 487.539 932.13 490.366C935.764 493.747 938.187 495.817 940.761 500.057C912.495 509.748 882.16 515.855 853.44 504.196C830.777 494.959 816.947 474.567 814.473 450.44ZM922.237 498.341C922.691 495.666 916.18 490.517 914.918 488.246C911.839 482.643 910.88 475.274 909.416 469.015C906.741 457.406 905.429 445.09 900.987 433.986C892.76 413.543 871.964 398.956 849.553 404.004C829.212 408.546 816.846 428.181 817.906 448.573C818.915 467.753 830.726 486.933 847.181 496.725C858.285 503.338 871.156 505.861 883.977 505.962C891.548 506.013 898.968 505.003 906.438 503.54C909.265 502.984 921.53 502.48 922.237 498.341Z" fill="#DBE1DE"/>
<path d="M879.132 434.995C876.861 437.418 874.236 438.629 870.955 437.62C868.179 436.761 865.756 435.096 862.98 434.389C861.567 434.036 860.053 433.935 858.639 434.288C856.772 434.742 855.308 435.903 853.794 436.963C852.885 437.62 851.573 438.629 850.765 438.73C849.201 438.932 847.484 438.225 845.97 437.922C841.528 437.014 836.885 437.922 835.32 442.717C834.815 444.383 837.39 445.09 837.945 443.424C839.308 439.134 844.002 440.244 847.384 440.951C848.696 441.254 850.109 441.557 851.472 441.304C852.784 441.001 853.945 440.143 855.056 439.336C856.469 438.326 857.832 437.115 859.598 436.812C860.81 436.56 862.021 436.812 863.233 437.216C865.908 438.074 868.28 439.689 871.056 440.345C874.993 441.304 878.425 439.689 881.151 436.812C882.262 435.651 880.343 433.733 879.132 434.995Z" fill="#DBE1DE"/>
<path d="M887.109 447.815C886.2 446.553 884.181 447.563 884.585 448.774C884.484 448.875 884.333 449.077 884.232 449.127C883.575 449.632 882.768 450.036 882.011 450.339C880.345 451.045 879.235 451.045 877.67 450.036C875.903 448.925 874.439 448.017 872.269 447.815C870.502 447.664 868.786 448.067 867.222 448.925C865.657 449.733 864.294 450.894 862.729 451.601C861.215 452.307 859.549 452.56 857.884 452.358C854.704 451.954 851.877 450.238 848.748 449.632C844.407 448.724 840.773 450.44 837.946 453.771C836.836 455.083 838.703 457.001 839.864 455.689C841.177 454.124 842.741 452.711 844.76 452.206C846.275 451.853 847.839 452.156 849.354 452.56C852.584 453.519 855.612 455.134 859.045 455.134C861.013 455.134 862.881 454.579 864.647 453.67C866.263 452.812 867.625 451.601 869.291 450.894C871.007 450.187 873.077 450.339 874.641 451.247C876.358 452.257 877.922 453.67 880.093 453.569C881.859 453.519 883.777 452.61 885.241 451.651C886.352 450.995 888.27 449.38 887.109 447.815Z" fill="#DBE1DE"/>
<path d="M892.205 464.169C892.154 465.33 891.851 466.239 890.791 466.39C889.58 466.542 888.167 466.037 887.006 465.532C884.28 464.422 881.756 462.302 878.829 461.797C874.286 461.04 871.56 465.179 868.381 467.602C867.018 468.662 865.857 469.166 864.292 468.258C862.324 467.097 860.658 465.482 858.538 464.573C853.238 462.251 847.938 464.624 844.153 468.561C842.941 469.823 844.859 471.741 846.071 470.479C847.787 468.662 849.856 467.097 852.33 466.491C854.752 465.886 857.125 466.643 859.144 468.006C860.86 469.116 862.475 470.731 864.494 471.337C866.412 471.892 868.179 471.084 869.743 469.974C871.611 468.611 873.125 466.794 874.993 465.482C876.608 464.321 878.122 464.22 879.939 464.977C882.665 466.138 885.037 467.905 887.965 468.712C889.479 469.116 891.195 469.318 892.608 468.611C894.325 467.753 894.829 465.936 894.93 464.119C894.981 462.453 892.255 462.453 892.205 464.169Z" fill="#DBE1DE"/>
<path d="M683.894 491.626C684.354 488.829 687.441 493.772 687.604 494.105C689.059 496.716 690.6 498.01 694.018 498.294C701.158 498.772 698.289 493.384 701.013 489.159C708.32 477.955 723.769 486.701 724.323 496.65C725.04 508.603 713.217 517.034 701.613 515.669C689.348 514.27 681.949 503.376 683.894 491.626ZM691.921 502.41C696.164 506.404 702.702 508.429 708.743 504.745C712.52 502.49 714.748 495.902 713.66 492.118C713.046 489.942 711.522 488.719 709.005 488.777C705.352 488.867 704.303 490.925 703.802 493.886C702.551 500.794 698.455 502.079 691.623 502.194C691.699 502.172 691.81 502.291 691.921 502.41Z" fill="#DBE1DE"/>
<path d="M741.509 489.333C748.353 489.763 754.694 494.862 753.205 501.892C752.056 507.288 746.868 511.963 741.164 512.499C726.855 513.816 726.224 488.333 741.509 489.333ZM740.328 503.015C748.12 501.938 746.023 492.673 739.266 494.287C733.523 495.677 733.815 503.943 740.328 503.015Z" fill="#DBE1DE"/>
<path d="M1104.14 403.095C1100.87 405.662 1102.45 396.848 1102.6 396.305C1103.62 391.841 1103.24 388.729 1099.84 384.669C1092.63 376.314 1090.38 385.377 1083.27 387.029C1064.31 391.32 1056.34 364.771 1065.59 353.239C1076.66 339.326 1097.74 343.034 1108.87 357.26C1120.69 372.247 1117.87 392.325 1104.14 403.095ZM1106.18 382.449C1105.57 373.41 1100.53 364.017 1090.38 361.436C1084.08 359.77 1075.16 364.561 1072.58 369.911C1071.09 372.973 1071.52 375.987 1074.29 378.684C1078.31 382.592 1081.47 381.482 1084.95 378.78C1093.13 372.566 1098.82 375.647 1106.29 383.013C1106.18 382.954 1106.18 382.702 1106.18 382.449Z" fill="#DBE1DE"/>
<path d="M1039.46 344.577C1032.53 336.6 1030.74 324.055 1039.29 317.98C1045.86 313.321 1056.06 313.884 1062.73 319.552C1079.42 333.8 1054.92 362.436 1039.46 344.577ZM1054.26 330.869C1044.81 323.504 1037.91 335.964 1046.77 341.604C1054.32 346.377 1062.18 336.993 1054.26 330.869Z" fill="#DBE1DE"/>
<path d="M1267.19 70.1869C1266.65 76.3185 1266.16 83.6054 1261.32 88.0041C1257.1 91.8697 1251.1 93.9136 1245.68 95.3799C1231.51 99.2899 1216.04 100.623 1201.47 102.178C1193.96 102.978 1186.45 103.511 1178.9 103.511C1172.5 103.511 1165.97 103.555 1160.24 100.445C1154.55 97.3793 1153.4 93.1582 1153.13 87.0266C1152.77 79.3843 1153.17 71.742 1154.02 64.1442C1155.39 51.5699 1155.88 35.6189 1166.99 27.3545C1177.43 19.5789 1191.43 23.1779 1203.43 23.1779C1210.76 23.1779 1218.09 22.778 1225.38 22.0227C1229.82 21.5784 1234.71 21.1341 1238.66 18.868C1241.86 17.0463 1243.77 14.0694 1244.97 10.6481C1246.92 5.04969 1248.08 -0.682036 1250.26 -6.23603C1251.32 -9.03524 1251.68 -11.7456 1255.06 -10.8125C1257.9 -10.0572 1261.63 -8.14662 1262.74 -5.30297C1265.54 1.80614 1265.63 11.4034 1266.16 18.9124C1267.41 35.7077 1268.65 53.3917 1267.19 70.1869ZM1252.83 1.40627C1251.55 -1.30408 1251.1 2.1616 1250.92 3.00581C1250.43 5.40514 1249.59 7.76003 1248.97 10.1149C1247.5 15.8022 1245.5 19.2235 1240.04 21.7561C1228.75 26.9991 1216.09 25.6217 1203.96 25.7994C1194.23 25.9327 1183.12 24.3331 1173.92 28.2432C1165.7 31.7533 1161.7 39.1734 1159.79 47.5266C1158.42 53.5249 1157.53 59.5677 1156.99 65.6993C1156.46 71.8309 1155.66 78.7179 1156.64 84.8495C1158.64 97.1127 1172.77 95.291 1182.32 95.3354C1195.12 95.4243 1207.87 93.5581 1220.58 92.314C1229.82 91.381 1247.19 91.692 1252.43 82.0503C1255.63 76.1853 1255.77 67.0767 1255.77 60.6341C1255.81 53.7915 1255.63 46.949 1255.41 40.1065C1255.19 32.7752 1254.92 25.4884 1254.34 18.1571C1254.08 14.8691 1253.68 11.5367 1253.5 8.24878C1253.41 6.02718 1253.81 3.45014 1252.83 1.40627Z" fill="#DBE1DE"/>
<path d="M1191.07 50.9038C1191.07 50.5927 1190.94 50.2817 1190.72 50.0596C1190.63 50.0151 1190.54 49.9263 1190.5 49.8818C1190.32 49.793 1190.1 49.7041 1189.87 49.7041C1189.83 49.7041 1189.79 49.7041 1189.74 49.7041C1189.61 49.7041 1189.48 49.7041 1189.34 49.7485C1189.08 49.793 1188.9 49.9707 1188.68 50.104C1188.5 50.2817 1188.36 50.5039 1188.32 50.7261C1188.28 50.8594 1188.28 50.9926 1188.28 51.1259C1188.28 51.1704 1188.28 51.2148 1188.28 51.2592C1188.28 51.4369 1188.32 51.5702 1188.36 51.7035C1188.41 51.8368 1188.5 51.9701 1188.63 52.1034C1188.85 52.3256 1189.16 52.4589 1189.48 52.4589C1189.79 52.4589 1190.1 52.3256 1190.32 52.1034C1190.36 52.0146 1190.45 51.9701 1190.5 51.8813C1190.59 51.8368 1190.67 51.748 1190.72 51.7035C1190.94 51.5702 1191.07 51.2148 1191.07 50.9038Z" fill="#DBE1DE"/>
<path d="M1202.63 49.3481C1201.07 49.3481 1201.07 51.7475 1202.63 51.7475C1204.14 51.7475 1204.14 49.3481 1202.63 49.3481Z" fill="#DBE1DE"/>
<path d="M1217.73 48.5488C1216.18 48.5488 1216.18 50.9482 1217.73 50.9482C1219.29 50.9482 1219.29 48.5488 1217.73 48.5488Z" fill="#DBE1DE"/>
<path d="M1233.68 47.749C1232.13 47.749 1232.13 50.1483 1233.68 50.1483C1235.19 50.1483 1235.19 47.749 1233.68 47.749Z" fill="#DBE1DE"/>
<path d="M1189.87 67.2544C1188.32 67.2544 1188.32 69.6537 1189.87 69.6537C1191.43 69.6537 1191.43 67.2544 1189.87 67.2544Z" fill="#DBE1DE"/>
<path d="M1204.18 65.6548C1202.62 65.6548 1202.62 68.0541 1204.18 68.0541C1205.74 68.0541 1205.74 65.6548 1204.18 65.6548Z" fill="#DBE1DE"/>
<path d="M1220.58 65.6104C1220.35 65.3882 1220.04 65.2549 1219.73 65.2549H1219.33C1219.02 65.2549 1218.71 65.3882 1218.49 65.6104C1218.27 65.8325 1218.13 66.1435 1218.13 66.4546C1218.13 66.7656 1218.27 67.0766 1218.49 67.2988C1218.71 67.5209 1219.02 67.6542 1219.33 67.6542H1219.73C1220.04 67.6542 1220.35 67.5209 1220.58 67.2988C1220.8 67.0766 1220.93 66.7656 1220.93 66.4546C1220.93 66.1435 1220.8 65.8325 1220.58 65.6104Z" fill="#DBE1DE"/>
<path d="M1235.24 65.2549C1233.68 65.2549 1233.68 67.6542 1235.24 67.6542C1236.79 67.6542 1236.79 65.2549 1235.24 65.2549Z" fill="#DBE1DE"/>
<path d="M1214.64 346.445C1215.63 343.53 1216.73 340.041 1219.87 338.703C1222.61 337.521 1226.11 337.531 1229.23 337.728C1237.4 338.204 1245.97 340.161 1254.09 341.859C1258.27 342.734 1262.42 343.741 1266.54 345.016C1270.02 346.096 1273.58 347.177 1276.35 349.669C1279.1 352.131 1279.25 354.395 1278.69 357.446C1278.01 361.251 1276.92 364.93 1275.59 368.511C1273.41 374.442 1271.32 382.177 1264.32 384.353C1257.75 386.401 1250.53 382.275 1244 380.249C1240.01 379.012 1235.97 377.97 1231.91 377.11C1229.44 376.578 1226.73 375.971 1224.31 376.414C1222.36 376.767 1220.98 377.903 1219.94 379.378C1218.23 381.792 1216.95 384.406 1215.13 386.761C1214.23 387.953 1213.72 389.221 1211.99 388.194C1210.53 387.343 1208.71 385.777 1208.43 384.196C1207.72 380.239 1208.77 375.52 1209.34 371.749C1210.58 363.307 1211.92 354.43 1214.64 346.445ZM1214.6 382.58C1214.99 384.126 1215.63 382.502 1215.82 382.118C1216.36 381.025 1217.09 380.013 1217.7 378.964C1219.15 376.424 1220.63 375.085 1223.89 374.766C1230.64 374.101 1237.38 376.914 1244.01 378.875C1249.32 380.452 1255.19 383.111 1260.65 382.747C1265.53 382.414 1268.55 379.452 1270.55 375.681C1271.98 372.973 1273.16 370.162 1274.15 367.246C1275.14 364.331 1276.36 361.09 1276.53 357.92C1276.84 351.572 1268.94 350.08 1263.74 348.445C1256.78 346.242 1249.62 345.004 1242.55 343.468C1237.41 342.365 1227.98 339.28 1224.03 343.121C1221.61 345.456 1220.5 349.898 1219.77 353.055C1218.96 356.402 1218.27 359.785 1217.61 363.177C1216.9 366.807 1216.21 370.424 1215.69 374.115C1215.46 375.771 1215.29 377.472 1215.02 379.114C1214.81 380.218 1214.3 381.413 1214.6 382.58Z" fill="#DBE1DE"/>
<path d="M1253.51 368.006C1253.47 368.161 1253.5 368.338 1253.59 368.484C1253.64 368.52 1253.67 368.579 1253.69 368.608C1253.78 368.681 1253.88 368.76 1254 368.796C1254.03 368.803 1254.05 368.81 1254.07 368.817C1254.15 368.838 1254.22 368.859 1254.29 368.858C1254.44 368.878 1254.56 368.817 1254.7 368.786C1254.81 368.725 1254.91 368.635 1254.96 368.531C1255 368.472 1255.02 368.405 1255.04 368.339C1255.04 368.316 1255.05 368.294 1255.05 368.272C1255.07 368.183 1255.07 368.109 1255.06 368.036C1255.05 367.962 1255.02 367.881 1254.96 367.794C1254.87 367.647 1254.72 367.531 1254.55 367.482C1254.39 367.433 1254.2 367.45 1254.06 367.526C1254.02 367.563 1253.97 367.571 1253.93 367.609C1253.88 367.617 1253.82 367.647 1253.79 367.662C1253.66 367.694 1253.54 367.85 1253.51 368.006Z" fill="#DBE1DE"/>
<path d="M1247.33 367.213C1248.16 367.46 1248.45 366.258 1247.62 366.011C1246.81 365.771 1246.51 366.973 1247.33 367.213Z" fill="#DBE1DE"/>
<path d="M1239.36 365.524C1240.2 365.771 1240.49 364.57 1239.66 364.323C1238.82 364.076 1238.53 365.277 1239.36 365.524Z" fill="#DBE1DE"/>
<path d="M1230.96 363.719C1231.8 363.966 1232.09 362.764 1231.26 362.517C1230.44 362.277 1230.15 363.479 1230.96 363.719Z" fill="#DBE1DE"/>
<path d="M1256.45 359.682C1257.29 359.929 1257.58 358.728 1256.74 358.481C1255.91 358.234 1255.61 359.435 1256.45 359.682Z" fill="#DBE1DE"/>
<path d="M1248.79 358.521C1249.63 358.768 1249.92 357.567 1249.08 357.32C1248.25 357.073 1247.95 358.274 1248.79 358.521Z" fill="#DBE1DE"/>
<path d="M1240.24 356.245C1240.33 356.391 1240.48 356.506 1240.65 356.556L1240.86 356.619C1241.03 356.668 1241.21 356.651 1241.36 356.575C1241.5 356.499 1241.61 356.366 1241.65 356.211C1241.69 356.056 1241.65 355.88 1241.56 355.734C1241.47 355.589 1241.32 355.473 1241.15 355.424L1240.94 355.361C1240.77 355.312 1240.59 355.329 1240.45 355.405C1240.3 355.48 1240.19 355.614 1240.15 355.769C1240.12 355.924 1240.15 356.1 1240.24 356.245Z" fill="#DBE1DE"/>
<path d="M1232.59 354.403C1233.43 354.65 1233.72 353.449 1232.88 353.202C1232.05 352.955 1231.76 354.156 1232.59 354.403Z" fill="#DBE1DE"/>
<path d="M1061.24 92.8044C1058.67 91.597 1056.23 90.0542 1053.79 88.5784C1043.71 82.474 1033.28 76.9734 1022.59 72.0765C1017.78 69.8628 1012.98 67.8503 1008.31 65.4354C1006.41 64.4963 1003.5 63.3559 1002.35 61.4776C1001.6 60.2031 1002.21 59.264 1002.69 58.1236C1003.5 56.1782 1004.52 54.2999 1005.46 52.4888C1007.16 49.1347 1009.8 48.0614 1013.11 49.8726C1017.38 52.1534 1021.64 54.4341 1025.97 56.6478C1034.57 61.1422 1043.1 65.6366 1051.69 70.064C1055.48 72.0764 1059.27 74.0888 1063.07 76.0342C1066.65 77.9124 1070.17 80.1932 1073.83 82.0044C1077.89 83.9497 1075.38 86.8343 1073.35 89.5175C1072.34 90.9262 1070.98 93.8107 1069.43 94.6157C1067.26 95.8231 1063.61 93.8778 1061.64 93.0057C1061.58 92.9386 1061.44 92.8715 1061.24 92.8044ZM1006.34 60.3372C1006.34 60.4043 1019.27 66.777 1020.22 67.2466C1025.43 69.7286 1030.64 72.2106 1035.85 74.8268C1041.41 77.5771 1046.89 80.3945 1052.37 83.279C1055.08 84.7547 1057.85 86.1634 1060.56 87.6392C1063 88.9808 1065.57 90.9262 1068.34 91.53C1069.36 89.7188 1070.38 87.9075 1071.19 86.0293C1071.26 85.828 1071.39 85.6268 1071.32 85.4255C1071.26 85.1572 1071.05 84.956 1070.78 84.8219C1069.36 83.8827 1067.94 82.9436 1066.52 82.1386C1061.64 79.3883 1056.57 77.0405 1051.63 74.4243C1038.09 67.3808 1024.75 59.8006 1010.95 53.3608C1010.68 53.2267 1010.4 53.0925 1010.13 53.1596C1009.93 53.1596 1009.73 53.2937 1009.52 53.4279C1008.85 53.9646 1008.51 54.8366 1008.17 55.6416C1007.56 57.1174 1007.22 58.9956 1006.34 60.3372Z" fill="#DBE1DE"/>
<path d="M999.703 170.864C1002.82 166.682 1005.76 162.499 1009.73 159C1014.13 155.116 1018.99 151.745 1023.73 148.288C1025.56 146.965 1027.61 145.088 1030 145.002C1032.52 144.917 1034.27 147.307 1035.85 148.928C1039.61 152.769 1043.62 156.482 1046.69 160.878C1042.55 161.56 1038.37 161.945 1034.48 163.566C1030.05 165.401 1026.29 168.687 1022.49 171.547C1018.1 174.833 1013.74 178.119 1009.39 181.49C1008.62 182.088 1006.53 183.197 1006.74 184.392C1006.92 185.544 1009.48 186.697 1010.24 187.337C1011.23 188.105 1014.34 190.025 1014.17 191.562C1013.96 193.738 1010.41 192.842 1009.13 192.885C1004.4 193.013 999.447 194.634 994.924 195.957C993.089 196.512 991.638 197.408 989.931 198.134C987.797 199.03 986.26 197.963 984.895 196.256C983.401 194.421 984.127 192.842 984.596 190.665C985.194 187.934 985.748 185.16 986.346 182.429C987.583 176.668 988.821 171.12 991.254 165.743C991.936 164.206 992.448 163.182 994.027 164.42C996.247 166.084 997.954 168.815 999.703 170.864ZM1042.38 159.64C1040.8 156.397 1037.68 153.58 1035.34 150.849C1032.56 147.648 1029.62 148.886 1026.59 151.02C1019.55 156.013 1013.15 161.304 1007.51 167.876C1005.81 169.84 1004.31 171.888 1002.86 174.064C1002.31 174.875 1000.56 178.417 999.405 178.46C998.594 178.503 996.247 174.875 995.777 174.278C995.222 173.552 994.497 171.376 993.686 170.992C991.894 170.181 990.699 176.454 990.443 177.479C989.077 183.368 989.248 189.556 988.565 195.573C989.931 195.744 991.595 195.018 992.918 194.677C994.668 194.25 996.417 193.823 998.21 193.439C1001.67 192.671 1005.12 191.946 1008.54 191.135C1012.08 190.324 1007.26 188.233 1005.85 187.465C1002.99 185.928 1001.75 185.032 1004.7 182.685C1010.84 177.777 1017.07 172.912 1023.39 168.261C1025.99 166.34 1028.64 164.462 1031.5 163.011C1035 161.219 1038.62 160.536 1042.38 159.64Z" fill="#DBE1DE"/>
<path d="M892.427 117.158C893.713 115.404 897.864 116.398 900.554 116.222C907.161 115.813 913.767 114.878 920.316 114.352C923.941 114.059 927.566 113.825 931.133 114.176C934.173 114.468 934.816 116.281 933.12 118.21C927.332 124.759 921.485 131.249 915.58 137.68C913.884 139.493 911.896 141.013 910.026 142.709C908.681 143.878 906.985 144.872 905.231 144.521C903.185 144.053 902.015 141.949 901.138 140.078C898.156 133.646 894.239 127.098 892.251 120.257C891.842 118.737 891.959 117.743 892.427 117.158ZM907.219 119.38C907.102 118.97 906.81 118.795 906.167 119.263C904.88 120.257 905.29 123.648 905.173 125.051C904.997 127.507 904.822 130.021 904.705 132.535C904.646 134.348 904.939 136.452 905.582 138.148C905.757 138.733 906.05 139.317 906.576 139.61C907.219 140.019 908.096 139.844 908.798 139.493C913.066 137.271 911.37 131.834 911.604 128.092C911.721 126.454 913.358 120.432 912.072 119.555C909.909 118.093 910.201 122.069 910.201 123.005C910.142 124.7 910.084 126.454 909.909 128.15C909.792 129.261 909.558 134.874 907.453 134.406C906.05 134.055 906.927 127.156 906.985 125.928C907.044 124.408 907.161 122.829 907.219 121.309C907.278 120.958 907.394 119.906 907.219 119.38ZM918.386 118.093C918.328 117.918 918.27 117.86 918.153 117.801C917.86 117.626 917.451 117.626 917.1 117.801C916.165 118.152 915.638 119.204 915.346 120.14C914.645 122.245 913.943 124.408 913.709 126.571C913.417 128.969 913.651 131.775 914.528 134.055C915.054 134.231 915.522 133.588 915.755 133.061C916.808 130.43 917.568 128.033 917.86 125.168C917.977 124.057 918.854 119.438 918.386 118.093ZM929.086 116.866C928.209 116.632 926.864 116.69 926.864 116.69C925.227 116.749 923.532 116.807 921.895 116.924C921.544 116.924 920.959 117.509 920.901 117.86C920.725 119.38 920.608 120.958 920.433 122.479C920.316 123.589 919.79 125.285 920.024 126.396C920.082 126.747 920.374 127.156 920.725 127.215C920.959 127.273 921.251 127.156 921.427 127.039C922.07 126.688 922.479 125.987 922.83 125.344C923.473 124.174 924.058 123.18 924.292 121.894C924.526 120.315 924.35 119.848 925.753 119.321C927.157 118.795 928.56 118.971 929.671 117.684C930.08 117.216 929.671 116.983 929.086 116.866ZM902.015 119.848C901.898 119.731 901.723 119.614 901.606 119.555C898.332 118.386 900.32 131.307 900.437 132.769C900.495 133.237 900.729 133.88 901.197 133.763C901.548 133.704 901.665 133.295 901.723 133.003C902.249 130.723 902.425 128.208 902.659 125.87C902.834 124.233 903.36 121.134 902.015 119.848ZM896.344 121.777C896.344 122.362 896.344 123.005 896.402 123.589C896.461 123.94 896.578 124.174 896.87 124.291C897.513 123.706 897.864 120.841 897.221 120.14C896.169 119.029 896.344 121.134 896.344 121.777Z" fill="#DBE1DE"/>
<path d="M1276.25 535.767C1272.95 535.341 1271.8 529.145 1269.89 525.724C1265.22 517.304 1259.8 509.265 1254.99 501.008C1252.34 496.437 1249.76 491.824 1248.05 486.865C1246.59 482.642 1248.78 480.481 1252.57 481.321C1265.49 484.214 1278.36 487.226 1291.18 490.359C1294.81 491.283 1298.2 492.804 1301.78 494.044C1304.28 494.972 1306.74 496.488 1307.33 499.057C1307.93 502.095 1305.65 505.162 1303.53 507.674C1296.2 516.266 1289.29 526.177 1280.77 533.754C1278.86 535.395 1277.37 535.961 1276.25 535.767ZM1270.26 514.644C1269.75 515.094 1269.68 515.607 1270.75 516.117C1272.96 517.094 1277.54 514.098 1279.61 513.235C1283.22 511.688 1286.91 510.099 1290.57 508.432C1293.19 507.196 1296.01 505.286 1298.03 503.21C1298.75 502.555 1299.4 501.746 1299.5 500.84C1299.68 499.695 1298.89 498.665 1297.95 497.993C1292.15 493.972 1285.45 500.147 1279.97 502.549C1277.56 503.58 1267.97 505.782 1267.51 508.114C1266.77 512.027 1272.25 508.762 1273.59 508.084C1276.04 506.933 1278.57 505.74 1281.1 504.743C1282.76 504.093 1290.9 500.336 1291.54 503.452C1291.9 505.557 1281.53 509.397 1279.74 510.209C1277.54 511.233 1275.22 512.222 1273.01 513.246C1272.48 513.423 1270.9 514.031 1270.26 514.644ZM1261.52 500.843C1261.31 501.047 1261.26 501.166 1261.25 501.363C1261.18 501.876 1261.43 502.416 1261.9 502.751C1262.98 503.731 1264.81 503.663 1266.32 503.372C1269.75 502.773 1273.27 502.131 1276.5 500.873C1280.1 499.522 1283.95 497.181 1286.66 494.373C1286.58 493.551 1285.38 493.4 1284.48 493.473C1280.08 493.99 1276.2 494.724 1271.93 496.413C1270.28 497.063 1263.15 499.252 1261.52 500.843ZM1253.15 487.617C1253.36 488.943 1254.28 490.675 1254.28 490.675C1255.37 492.792 1256.51 494.987 1257.69 497.062C1257.9 497.525 1259.1 497.872 1259.63 497.695C1261.91 496.826 1264.23 495.837 1266.51 494.967C1268.16 494.317 1270.9 493.783 1272.34 492.67C1272.81 492.338 1273.21 491.656 1273.08 491.151C1273.01 490.8 1272.67 490.499 1272.39 490.353C1271.49 489.758 1270.24 489.727 1269.11 489.73C1267.04 489.728 1265.26 489.677 1263.29 490.3C1260.89 491.135 1260.33 491.705 1258.71 490.235C1257.1 488.765 1256.48 486.786 1253.96 486.253C1253.04 486.051 1252.96 486.761 1253.15 487.617ZM1274.15 521.17C1274.05 521.409 1274 521.725 1273.99 521.921C1274.34 527.088 1291.53 515.106 1293.54 513.893C1294.17 513.477 1294.95 512.703 1294.49 512.171C1294.19 511.75 1293.53 511.892 1293.08 512.027C1289.5 512.984 1285.81 514.574 1282.33 515.959C1279.89 516.914 1275.15 518.464 1274.15 521.17ZM1280.41 527.254C1281.24 526.831 1282.16 526.365 1282.95 525.864C1283.42 525.533 1283.68 525.209 1283.67 524.739C1282.43 524.314 1278.13 525.926 1277.53 527.283C1276.6 529.476 1279.49 527.72 1280.41 527.254Z" fill="#DBE1DE"/>
<path d="M1245.17 250.597C1243.67 253.525 1241.85 256.259 1239.77 258.732C1238.53 260.163 1237.3 261.66 1235.87 262.962C1232.87 265.76 1208.6 279.491 1207.49 272.528C1206.91 269.014 1206.06 265.565 1205.21 262.116C1204.76 260.424 1204.56 258.341 1206.78 258.732C1216.08 260.554 1222 255.152 1228.12 249.556C1233.59 244.545 1235.15 238.167 1235.15 231.269C1235.15 224.761 1230.66 219.816 1224.35 218.319C1219.99 217.278 1219.6 216.171 1222.46 212.917C1224.02 211.16 1225.19 209.013 1226.82 207.321C1227.86 206.28 1230.14 205.043 1231.64 205.238C1232.68 205.368 1233.59 205.889 1234.5 206.41C1239.57 209.533 1243.67 214.154 1246.28 219.49C1247.38 221.638 1248.75 223.785 1249.14 226.193C1250.64 234.393 1249.01 243.113 1245.17 250.597ZM1211.2 270.706C1213.28 272.137 1219.21 268.949 1221.16 268.103C1226.23 265.89 1231.31 263.677 1235.08 259.578C1245.17 248.775 1252.2 230.553 1241.85 217.473C1241.01 216.432 1240.16 215.39 1239.25 214.349C1237.36 212.332 1235.21 210.64 1232.81 209.273C1230.33 207.906 1229.68 208.883 1228.25 211.03C1227.99 211.421 1225.84 215.13 1225.71 215.13C1226.95 215.325 1227.99 216.041 1229.1 216.562C1232.68 218.254 1235.74 220.336 1237.17 224.241C1239.97 231.985 1238.99 239.794 1234.82 246.302C1229.55 254.502 1222.39 261.139 1211.85 262.506C1211.01 262.636 1210.22 263.027 1209.31 263.352C1209.77 265.369 1209.7 267.517 1210.29 269.469C1210.62 270.12 1210.88 270.511 1211.2 270.706Z" fill="#DBE1DE"/>
<path d="M1158.88 219.425C1161.09 213.503 1165.39 208.037 1169.88 203.677C1173 200.683 1176.71 198.275 1180.68 196.583C1184.72 194.891 1188.88 193.134 1193.31 193.004C1197.21 192.874 1199.03 195.997 1199.49 199.577C1199.62 200.488 1199.88 201.334 1200.07 202.18C1200.72 204.718 1199.62 206.215 1197.02 206.475C1179.84 208.427 1172.74 216.627 1171.05 231.79C1170.01 241.031 1173.98 248.189 1180.75 253.981C1183.94 256.714 1183.8 258.276 1180.03 260.033C1179.25 260.424 1178.4 260.814 1177.62 261.27C1175.74 262.376 1173.59 263.417 1171.38 263.612C1168.84 263.873 1167.8 262.897 1166.43 260.814C1162.52 254.632 1158.16 247.929 1156.67 240.705C1155.24 233.677 1156.21 226.323 1158.62 219.62C1158.82 219.62 1158.82 219.49 1158.88 219.425ZM1177.88 256.519C1172.35 251.313 1168.58 244.545 1167.8 236.931C1167.01 228.861 1169.03 219.1 1174.63 213.048C1178.01 209.403 1182.5 206.865 1187.19 205.304C1188.1 204.978 1196.95 201.789 1197.28 202.896C1196.69 200.878 1196.49 198.731 1195.26 196.974C1194.41 195.737 1194.09 195.802 1192.59 195.997C1190.31 196.323 1188.17 196.974 1186.08 198.015C1183.74 199.251 1181.27 199.707 1178.99 201.269C1173.59 204.783 1167.67 208.622 1164.87 214.544C1163.44 217.668 1161.74 220.662 1160.64 223.916C1158.95 228.796 1158.95 234.393 1160.12 239.404C1161.35 244.675 1164.54 249.686 1166.88 254.502C1169.55 260.033 1172.61 260.619 1177.88 256.519Z" fill="#DBE1DE"/>
<path d="M885.501 238.178C884.283 235.054 880.418 236.113 877.665 236.431C873.536 236.96 869.459 237.489 865.329 237.966C863.264 238.231 862.417 239.184 863.423 241.037C864.641 243.366 866.07 245.537 867.5 247.761C869.988 251.731 872.477 255.702 875.018 259.62C879.624 266.715 884.76 273.438 889.313 280.586C891.59 284.08 893.284 288.051 895.613 291.492C897.202 293.875 898.949 296.151 900.696 298.481C901.543 299.593 903.343 303.722 905.196 302.346C906.679 301.234 904.773 298.428 904.455 297.105C903.873 294.987 903.29 292.869 902.655 290.751C901.49 286.727 900.325 282.704 899.108 278.627C897.413 273.015 895.719 267.403 893.813 261.897C892.437 257.873 890.901 253.849 889.419 249.825C888.042 246.066 886.772 242.36 885.66 238.548C885.607 238.442 885.554 238.337 885.501 238.178ZM899.213 288.686L899.16 288.739C897.784 287.839 896.937 285.086 896.143 283.657C895.084 281.698 894.025 279.792 893.019 277.833C890.901 273.968 888.836 270.05 886.719 266.185C884.601 262.267 882.536 258.402 880.418 254.484C879.783 253.373 874.806 242.678 874.118 242.784C876.712 242.413 879.518 241.937 882.271 241.672C882.96 241.619 884.071 242.201 884.336 242.784C885.66 245.431 886.877 248.078 887.83 250.831C890.954 259.938 894.025 269.044 896.937 278.15C897.572 280.109 898.049 282.174 898.525 284.186C898.896 285.298 900.113 287.733 899.213 288.686Z" fill="#DBE1DE"/>
<path d="M908.318 314.788C907.418 315.318 906.571 315.9 905.829 316.641C903.976 318.494 904.135 320.771 904.453 323.206C904.612 324.265 904.771 325.377 905.141 326.383C906.147 329.083 908.159 329.613 910.753 330.089C915.889 330.989 920.177 328.395 921.66 323.471C923.089 318.653 918.165 312.565 913.136 313.306C912.5 313.412 911.812 313.518 911.177 313.676C910.171 313.888 909.218 314.259 908.318 314.788ZM911.547 322.2C911.441 321.83 911.336 321.512 911.283 321.142C910.753 315.847 918.112 315.688 918.536 320.877C918.695 322.624 918.801 324.848 916.63 325.165C915.148 325.377 913.559 324.848 912.5 323.789C912.077 323.259 911.759 322.73 911.547 322.2Z" fill="#DBE1DE"/>
<path d="M1032.99 539.69C1029.68 541.042 1027.7 537.293 1025.96 534.942C1023.38 531.378 1020.84 527.854 1018.22 524.328C1016.93 522.545 1017.06 521.195 1019.23 520.611C1021.92 519.841 1024.64 519.35 1027.41 518.82C1032.3 517.825 1037.19 516.83 1042.08 515.914C1050.93 514.258 1059.88 513.282 1068.74 511.547C1073.11 510.738 1077.42 509.132 1081.79 508.402C1084.79 507.878 1087.83 507.554 1090.91 507.191C1092.38 507.028 1096.9 505.387 1097.17 507.821C1097.38 509.776 1093.82 510.366 1092.56 511.091C1090.49 512.195 1088.42 513.299 1086.31 514.362C1082.34 516.414 1078.36 518.467 1074.31 520.517C1068.72 523.326 1063.13 526.135 1057.46 528.704C1053.34 530.593 1049.09 532.361 1044.89 534.169C1040.97 535.864 1037.16 537.602 1033.39 539.54C1033.27 539.577 1033.15 539.614 1032.99 539.69ZM1082.21 513.228L1082.22 513.148C1080.52 512.749 1077.76 514.115 1076.08 514.551C1073.79 515.172 1071.54 515.754 1069.28 516.416C1064.74 517.619 1060.2 518.901 1055.66 520.104C1051.08 521.346 1046.58 522.589 1042 523.831C1040.67 524.157 1028.75 528.165 1028.33 527.558C1029.92 529.825 1031.58 532.333 1033.37 534.645C1033.83 535.213 1035.09 535.642 1035.73 535.419C1038.75 534.497 1041.69 533.494 1044.52 532.21C1053.87 527.94 1063.18 523.629 1072.37 519.197C1074.35 518.25 1076.3 517.104 1078.21 515.996C1079.35 515.466 1082.12 514.618 1082.21 513.228Z" fill="#DBE1DE"/>
<path d="M1109.08 501.446C1108.83 500.364 1108.67 499.284 1108.71 498.169C1108.81 495.382 1110.7 493.834 1112.83 492.291C1113.77 491.637 1114.75 490.943 1115.8 490.491C1118.64 489.284 1120.51 490.445 1122.76 492.094C1127.18 495.39 1128.27 500.597 1125.51 505.352C1122.8 509.989 1114.48 510.663 1111.41 506.245C1111.04 505.678 1110.62 505.07 1110.28 504.464C1109.72 503.534 1109.32 502.528 1109.08 501.446ZM1117.19 498.495C1116.83 498.685 1116.5 498.837 1116.17 499.068C1111.67 502.545 1116.88 508.33 1121.23 504.849C1122.7 503.69 1124.51 502.14 1123.19 500.234C1122.28 498.937 1120.71 498.102 1119.12 498.063C1118.4 498.126 1117.76 498.269 1117.19 498.495Z" fill="#DBE1DE"/>
</g>
<defs>
<clipPath id="clip0">
<rect width="1284" height="538" rx="56" fill="white"/>
</clipPath>
</defs>
</svg>
