<svg width="1512" height="538" viewBox="0 0 1512 538" fill="none" xmlns="http://www.w3.org/2000/svg">
<g clip-path="url(#clip0)">
<rect width="1512" height="538" rx="56" fill="#F8F7F2"/>
<path d="M1007.34 335.52C1008.37 334.12 1011.68 334.913 1013.82 334.773C1019.09 334.447 1024.37 333.7 1029.59 333.28C1032.48 333.047 1035.37 332.861 1038.22 333.141C1040.65 333.374 1041.16 334.82 1039.81 336.359C1035.19 341.584 1030.52 346.761 1025.81 351.893C1024.46 353.339 1022.87 354.552 1021.38 355.904C1020.31 356.837 1018.95 357.63 1017.56 357.35C1015.92 356.977 1014.99 355.298 1014.29 353.805C1011.91 348.674 1008.79 343.45 1007.2 337.992C1006.87 336.779 1006.97 335.986 1007.34 335.52ZM1019.14 337.292C1019.05 336.966 1018.81 336.826 1018.3 337.199C1017.28 337.992 1017.6 340.697 1017.51 341.817C1017.37 343.776 1017.23 345.782 1017.14 347.788C1017.09 349.234 1017.32 350.913 1017.84 352.266C1017.98 352.732 1018.21 353.199 1018.63 353.432C1019.14 353.759 1019.84 353.619 1020.4 353.339C1023.81 351.566 1022.45 347.228 1022.64 344.243C1022.73 342.936 1024.04 338.132 1023.01 337.432C1021.29 336.266 1021.52 339.438 1021.52 340.184C1021.47 341.537 1021.43 342.936 1021.29 344.289C1021.19 345.175 1021.01 349.654 1019.33 349.28C1018.21 349.001 1018.91 343.496 1018.95 342.517C1019 341.304 1019.09 340.044 1019.14 338.831C1019.19 338.552 1019.28 337.712 1019.14 337.292ZM1028.05 336.266C1028 336.126 1027.96 336.079 1027.86 336.033C1027.63 335.893 1027.3 335.893 1027.02 336.033C1026.28 336.313 1025.86 337.152 1025.63 337.899C1025.07 339.578 1024.51 341.304 1024.32 343.03C1024.09 344.942 1024.27 347.181 1024.97 349.001C1025.39 349.141 1025.77 348.627 1025.95 348.208C1026.79 346.108 1027.4 344.196 1027.63 341.91C1027.72 341.024 1028.42 337.339 1028.05 336.266ZM1036.59 335.286C1035.89 335.1 1034.81 335.146 1034.81 335.146C1033.51 335.193 1032.16 335.24 1030.85 335.333C1030.57 335.333 1030.1 335.799 1030.06 336.079C1029.92 337.292 1029.82 338.552 1029.68 339.764C1029.59 340.651 1029.17 342.003 1029.36 342.89C1029.4 343.17 1029.64 343.496 1029.92 343.543C1030.1 343.589 1030.34 343.496 1030.48 343.403C1030.99 343.123 1031.32 342.563 1031.6 342.05C1032.11 341.117 1032.58 340.324 1032.76 339.298C1032.95 338.038 1032.81 337.665 1033.93 337.245C1035.05 336.826 1036.17 336.966 1037.05 335.939C1037.38 335.566 1037.05 335.38 1036.59 335.286ZM1014.99 337.665C1014.9 337.572 1014.76 337.479 1014.66 337.432C1012.05 336.499 1013.64 346.808 1013.73 347.974C1013.78 348.347 1013.96 348.861 1014.34 348.767C1014.62 348.721 1014.71 348.394 1014.76 348.161C1015.18 346.342 1015.32 344.336 1015.5 342.47C1015.64 341.164 1016.06 338.692 1014.99 337.665ZM1010.46 339.205C1010.46 339.671 1010.46 340.184 1010.51 340.651C1010.56 340.931 1010.65 341.117 1010.88 341.21C1011.4 340.744 1011.68 338.458 1011.16 337.899C1010.32 337.012 1010.46 338.692 1010.46 339.205Z" fill="#DBE1DE"/>
<path d="M1042.47 450.44C1039.8 433.935 1048.73 413.493 1063.02 404.609C1079.98 394.06 1103.45 395.17 1120.81 403.701C1138.43 412.382 1150.79 428.332 1153.47 448.017C1154.88 458.567 1151.95 469.722 1153.97 480.17C1154.78 484.309 1157.05 487.539 1160.13 490.366C1163.76 493.747 1166.19 495.817 1168.76 500.057C1140.5 509.748 1110.16 515.855 1081.44 504.196C1058.78 494.959 1044.95 474.567 1042.47 450.44ZM1150.24 498.341C1150.69 495.666 1144.18 490.517 1142.92 488.246C1139.84 482.643 1138.88 475.274 1137.42 469.015C1134.74 457.406 1133.43 445.09 1128.99 433.986C1120.76 413.543 1099.96 398.956 1077.55 404.004C1057.21 408.546 1044.85 428.181 1045.91 448.573C1046.92 467.753 1058.73 486.933 1075.18 496.725C1086.29 503.338 1099.16 505.861 1111.98 505.962C1119.55 506.013 1126.97 505.003 1134.44 503.54C1137.26 502.984 1149.53 502.48 1150.24 498.341Z" fill="#DBE1DE"/>
<path d="M1107.13 434.995C1104.86 437.418 1102.24 438.629 1098.96 437.62C1096.18 436.761 1093.76 435.096 1090.98 434.389C1089.57 434.036 1088.05 433.935 1086.64 434.288C1084.77 434.742 1083.31 435.903 1081.79 436.963C1080.89 437.62 1079.57 438.629 1078.77 438.73C1077.2 438.932 1075.48 438.225 1073.97 437.922C1069.53 437.014 1064.88 437.922 1063.32 442.717C1062.82 444.383 1065.39 445.09 1065.94 443.424C1067.31 439.134 1072 440.244 1075.38 440.951C1076.7 441.254 1078.11 441.557 1079.47 441.304C1080.78 441.001 1081.95 440.143 1083.06 439.336C1084.47 438.326 1085.83 437.115 1087.6 436.812C1088.81 436.56 1090.02 436.812 1091.23 437.216C1093.91 438.074 1096.28 439.689 1099.06 440.345C1102.99 441.304 1106.43 439.689 1109.15 436.812C1110.26 435.651 1108.34 433.733 1107.13 434.995Z" fill="#DBE1DE"/>
<path d="M1115.11 447.815C1114.2 446.553 1112.18 447.563 1112.58 448.774C1112.48 448.875 1112.33 449.077 1112.23 449.127C1111.58 449.632 1110.77 450.036 1110.01 450.339C1108.35 451.045 1107.23 451.045 1105.67 450.036C1103.9 448.925 1102.44 448.017 1100.27 447.815C1098.5 447.664 1096.79 448.067 1095.22 448.925C1093.66 449.733 1092.29 450.894 1090.73 451.601C1089.22 452.307 1087.55 452.56 1085.88 452.358C1082.7 451.954 1079.88 450.238 1076.75 449.632C1072.41 448.724 1068.77 450.44 1065.95 453.771C1064.84 455.083 1066.7 457.001 1067.86 455.689C1069.18 454.124 1070.74 452.711 1072.76 452.206C1074.27 451.853 1075.84 452.156 1077.35 452.56C1080.58 453.519 1083.61 455.134 1087.04 455.134C1089.01 455.134 1090.88 454.579 1092.65 453.67C1094.26 452.812 1095.63 451.601 1097.29 450.894C1099.01 450.187 1101.08 450.339 1102.64 451.247C1104.36 452.257 1105.92 453.67 1108.09 453.569C1109.86 453.519 1111.78 452.61 1113.24 451.651C1114.35 450.995 1116.27 449.38 1115.11 447.815Z" fill="#DBE1DE"/>
<path d="M1120.2 464.169C1120.15 465.33 1119.85 466.239 1118.79 466.39C1117.58 466.542 1116.17 466.037 1115.01 465.532C1112.28 464.422 1109.76 462.302 1106.83 461.797C1102.29 461.04 1099.56 465.179 1096.38 467.602C1095.02 468.662 1093.86 469.166 1092.29 468.258C1090.32 467.097 1088.66 465.482 1086.54 464.573C1081.24 462.251 1075.94 464.624 1072.15 468.561C1070.94 469.823 1072.86 471.741 1074.07 470.479C1075.79 468.662 1077.86 467.097 1080.33 466.491C1082.75 465.886 1085.12 466.643 1087.14 468.006C1088.86 469.116 1090.48 470.731 1092.49 471.337C1094.41 471.892 1096.18 471.084 1097.74 469.974C1099.61 468.611 1101.13 466.794 1102.99 465.482C1104.61 464.321 1106.12 464.22 1107.94 464.977C1110.66 466.138 1113.04 467.905 1115.96 468.712C1117.48 469.116 1119.2 469.318 1120.61 468.611C1122.32 467.753 1122.83 465.936 1122.93 464.119C1122.98 462.453 1120.26 462.453 1120.2 464.169Z" fill="#DBE1DE"/>
<path d="M911.87 490.388C912.212 487.517 915.445 492.765 915.618 493.116C917.153 495.881 918.721 497.287 922.096 497.733C929.143 498.545 926.107 492.846 928.622 488.599C935.373 477.341 950.923 487.071 951.86 497.381C953.035 509.771 941.731 517.962 930.256 516.034C918.129 514.042 910.417 502.45 911.87 490.388ZM920.194 501.895C924.527 506.213 931.042 508.597 936.844 505.057C940.473 502.894 942.406 496.182 941.186 492.221C940.497 489.944 938.948 488.612 936.473 488.56C932.881 488.49 931.93 490.572 931.553 493.611C930.593 500.697 926.612 501.843 919.892 501.658C919.966 501.639 920.08 501.767 920.194 501.895Z" fill="#DBE1DE"/>
<path d="M969.078 489.032C975.788 489.775 982.188 495.286 981.006 502.432C980.094 507.918 975.203 512.484 969.645 512.782C955.703 513.5 954.09 487.331 969.078 489.032ZM968.457 503.015C976.036 502.255 973.623 492.658 967.078 494.015C961.516 495.188 962.124 503.68 968.457 503.015Z" fill="#DBE1DE"/>
<path d="M1330.68 403.137C1327.33 405.903 1329.26 396.841 1329.43 396.28C1330.63 391.68 1330.39 388.524 1327.18 384.536C1320.36 376.339 1317.75 385.686 1310.61 387.693C1291.58 392.928 1284.77 366.208 1294.46 354.026C1306.04 339.333 1326.83 342.162 1337.31 356.168C1348.43 370.921 1344.78 391.529 1330.68 403.137ZM1333.57 381.985C1333.34 372.792 1328.73 363.438 1318.75 361.265C1312.56 359.851 1303.49 365.142 1300.7 370.715C1299.09 373.906 1299.39 376.962 1302.03 379.587C1305.86 383.391 1309.06 382.116 1312.62 379.202C1321.02 372.494 1326.54 375.38 1333.65 382.555C1333.55 382.5 1333.56 382.242 1333.57 381.985Z" fill="#DBE1DE"/>
<path d="M1267.07 345.232C1260.54 337.459 1259.3 324.824 1268.01 318.281C1274.69 313.264 1284.75 313.375 1291.1 318.82C1307.01 332.511 1281.6 362.638 1267.07 345.232ZM1282.26 330.672C1273.23 323.633 1265.89 336.572 1274.41 341.89C1281.68 346.388 1289.83 336.523 1282.26 330.672Z" fill="#DBE1DE"/>
<path d="M1495.19 70.1869C1494.65 76.3185 1494.16 83.6054 1489.32 88.0041C1485.1 91.8697 1479.1 93.9136 1473.68 95.3799C1459.51 99.2899 1444.04 100.623 1429.47 102.178C1421.96 102.978 1414.45 103.511 1406.9 103.511C1400.5 103.511 1393.97 103.555 1388.24 100.445C1382.55 97.3793 1381.4 93.1582 1381.13 87.0266C1380.77 79.3843 1381.17 71.742 1382.02 64.1442C1383.4 51.5699 1383.88 35.6189 1394.99 27.3545C1405.43 19.5789 1419.43 23.1779 1431.43 23.1779C1438.76 23.1779 1446.09 22.778 1453.38 22.0227C1457.82 21.5784 1462.71 21.1341 1466.66 18.868C1469.86 17.0463 1471.77 14.0694 1472.97 10.6481C1474.93 5.04969 1476.08 -0.682036 1478.26 -6.23603C1479.32 -9.03524 1479.68 -11.7456 1483.06 -10.8125C1485.9 -10.0572 1489.63 -8.14662 1490.74 -5.30297C1493.54 1.80614 1493.63 11.4034 1494.16 18.9124C1495.41 35.7077 1496.65 53.3917 1495.19 70.1869ZM1480.83 1.40627C1479.55 -1.30408 1479.1 2.1616 1478.92 3.00581C1478.44 5.40514 1477.59 7.76003 1476.97 10.1149C1475.5 15.8022 1473.5 19.2235 1468.04 21.7561C1456.75 26.9991 1444.09 25.6217 1431.96 25.7994C1422.23 25.9327 1411.12 24.3331 1401.92 28.2432C1393.7 31.7533 1389.7 39.1734 1387.79 47.5266C1386.42 53.5249 1385.53 59.5677 1384.99 65.6993C1384.46 71.8309 1383.66 78.7179 1384.64 84.8495C1386.64 97.1127 1400.77 95.291 1410.32 95.3354C1423.12 95.4243 1435.87 93.5581 1448.58 92.314C1457.82 91.381 1475.19 91.692 1480.43 82.0503C1483.63 76.1853 1483.77 67.0767 1483.77 60.6341C1483.81 53.7915 1483.63 46.949 1483.41 40.1065C1483.19 32.7752 1482.92 25.4884 1482.35 18.1571C1482.08 14.8691 1481.68 11.5367 1481.5 8.24878C1481.41 6.02718 1481.81 3.45014 1480.83 1.40627Z" fill="#DBE1DE"/>
<path d="M1419.08 50.9038C1419.08 50.5927 1418.94 50.2817 1418.72 50.0596C1418.63 50.0151 1418.54 49.9263 1418.5 49.8818C1418.32 49.793 1418.1 49.7041 1417.88 49.7041C1417.83 49.7041 1417.79 49.7041 1417.74 49.7041C1417.61 49.7041 1417.48 49.7041 1417.34 49.7485C1417.08 49.793 1416.9 49.9707 1416.68 50.104C1416.5 50.2817 1416.36 50.5039 1416.32 50.7261C1416.28 50.8594 1416.28 50.9926 1416.28 51.1259C1416.28 51.1704 1416.28 51.2148 1416.28 51.2592C1416.28 51.4369 1416.32 51.5702 1416.36 51.7035C1416.41 51.8368 1416.5 51.9701 1416.63 52.1034C1416.85 52.3256 1417.16 52.4589 1417.48 52.4589C1417.79 52.4589 1418.1 52.3256 1418.32 52.1034C1418.36 52.0146 1418.45 51.9701 1418.5 51.8813C1418.59 51.8368 1418.68 51.748 1418.72 51.7035C1418.94 51.5702 1419.08 51.2148 1419.08 50.9038Z" fill="#DBE1DE"/>
<path d="M1430.63 49.3481C1429.07 49.3481 1429.07 51.7475 1430.63 51.7475C1432.14 51.7475 1432.14 49.3481 1430.63 49.3481Z" fill="#DBE1DE"/>
<path d="M1445.73 48.5488C1444.18 48.5488 1444.18 50.9482 1445.73 50.9482C1447.29 50.9482 1447.29 48.5488 1445.73 48.5488Z" fill="#DBE1DE"/>
<path d="M1461.68 47.749C1460.13 47.749 1460.13 50.1483 1461.68 50.1483C1463.2 50.1483 1463.2 47.749 1461.68 47.749Z" fill="#DBE1DE"/>
<path d="M1417.87 67.2544C1416.32 67.2544 1416.32 69.6537 1417.87 69.6537C1419.43 69.6537 1419.43 67.2544 1417.87 67.2544Z" fill="#DBE1DE"/>
<path d="M1432.18 65.6548C1430.63 65.6548 1430.63 68.0541 1432.18 68.0541C1433.74 68.0541 1433.74 65.6548 1432.18 65.6548Z" fill="#DBE1DE"/>
<path d="M1448.58 65.6104C1448.35 65.3882 1448.04 65.2549 1447.73 65.2549H1447.33C1447.02 65.2549 1446.71 65.3882 1446.49 65.6104C1446.27 65.8325 1446.13 66.1435 1446.13 66.4546C1446.13 66.7656 1446.27 67.0766 1446.49 67.2988C1446.71 67.5209 1447.02 67.6542 1447.33 67.6542H1447.73C1448.04 67.6542 1448.35 67.5209 1448.58 67.2988C1448.8 67.0766 1448.93 66.7656 1448.93 66.4546C1448.93 66.1435 1448.8 65.8325 1448.58 65.6104Z" fill="#DBE1DE"/>
<path d="M1463.24 65.2549C1461.68 65.2549 1461.68 67.6542 1463.24 67.6542C1464.79 67.6542 1464.79 65.2549 1463.24 65.2549Z" fill="#DBE1DE"/>
<path d="M1444.65 347.413C1445.78 344.3 1447.05 340.581 1450.18 338.969C1452.92 337.548 1456.32 337.321 1459.34 337.314C1467.25 337.256 1475.47 338.716 1483.26 339.938C1487.28 340.568 1491.26 341.336 1495.18 342.388C1498.51 343.279 1501.91 344.166 1504.45 346.581C1506.98 348.966 1507 351.321 1506.28 354.545C1505.4 358.567 1504.13 362.483 1502.63 366.315C1500.17 372.659 1497.69 380.881 1490.77 383.63C1484.26 386.217 1477.48 382.397 1471.25 380.726C1467.44 379.705 1463.57 378.892 1459.68 378.27C1457.31 377.882 1454.7 377.432 1452.33 378.059C1450.42 378.561 1449.01 379.842 1447.91 381.453C1446.11 384.091 1444.71 386.909 1442.81 389.492C1441.86 390.799 1441.3 392.158 1439.68 391.203C1438.3 390.414 1436.63 388.901 1436.45 387.269C1435.98 383.184 1437.27 378.183 1438.04 374.206C1439.74 365.303 1441.55 355.938 1444.65 347.413ZM1442.53 385.161C1442.83 386.75 1443.54 385.01 1443.75 384.596C1444.34 383.417 1445.1 382.311 1445.76 381.173C1447.31 378.421 1448.83 376.922 1452.02 376.366C1458.61 375.213 1465 377.693 1471.33 379.29C1476.41 380.575 1481.96 382.954 1487.29 382.203C1492.05 381.523 1495.16 378.223 1497.32 374.148C1498.87 371.222 1500.17 368.205 1501.3 365.092C1502.43 361.979 1503.81 358.511 1504.15 355.188C1504.82 348.535 1497.22 347.515 1492.27 346.161C1485.63 344.333 1478.74 343.527 1471.96 342.404C1467.03 341.601 1458.04 339.02 1453.97 343.301C1451.49 345.904 1450.16 350.62 1449.26 353.969C1448.28 357.519 1447.42 361.1 1446.58 364.688C1445.68 368.529 1444.8 372.354 1444.08 376.245C1443.76 377.991 1443.51 379.778 1443.14 381.512C1442.88 382.679 1442.31 383.963 1442.53 385.161Z" fill="#DBE1DE"/>
<path d="M1481.53 368.036C1481.48 368.198 1481.51 368.378 1481.59 368.524C1481.63 368.56 1481.67 368.618 1481.68 368.648C1481.76 368.718 1481.87 368.796 1481.98 368.827C1482.01 368.833 1482.03 368.839 1482.05 368.845C1482.12 368.864 1482.19 368.882 1482.27 368.878C1482.41 368.892 1482.53 368.824 1482.66 368.786C1482.78 368.718 1482.88 368.621 1482.93 368.512C1482.98 368.449 1482.99 368.38 1483.01 368.31C1483.02 368.287 1483.02 368.264 1483.03 368.241C1483.06 368.149 1483.05 368.073 1483.05 367.998C1483.04 367.922 1483.01 367.841 1482.96 367.753C1482.88 367.606 1482.74 367.494 1482.57 367.45C1482.41 367.407 1482.23 367.433 1482.09 367.518C1482.05 367.558 1482 367.568 1481.96 367.608C1481.91 367.619 1481.85 367.653 1481.82 367.67C1481.69 367.708 1481.57 367.874 1481.53 368.036Z" fill="#DBE1DE"/>
<path d="M1475.31 367.236C1476.11 367.452 1476.45 366.205 1475.64 365.988C1474.85 365.778 1474.52 367.025 1475.31 367.236Z" fill="#DBE1DE"/>
<path d="M1467.34 365.547C1468.15 365.764 1468.49 364.517 1467.68 364.3C1466.87 364.083 1466.54 365.33 1467.34 365.547Z" fill="#DBE1DE"/>
<path d="M1458.94 363.741C1459.75 363.958 1460.08 362.711 1459.28 362.494C1458.49 362.284 1458.16 363.531 1458.94 363.741Z" fill="#DBE1DE"/>
<path d="M1484.43 359.705C1485.24 359.921 1485.57 358.674 1484.76 358.458C1483.96 358.241 1483.62 359.488 1484.43 359.705Z" fill="#DBE1DE"/>
<path d="M1476.77 358.544C1477.58 358.76 1477.91 357.513 1477.1 357.297C1476.3 357.08 1475.96 358.327 1476.77 358.544Z" fill="#DBE1DE"/>
<path d="M1468.24 356.283C1468.33 356.429 1468.47 356.542 1468.63 356.585L1468.84 356.641C1469 356.684 1469.18 356.658 1469.33 356.574C1469.47 356.489 1469.59 356.346 1469.63 356.185C1469.67 356.023 1469.65 355.843 1469.56 355.696C1469.48 355.55 1469.33 355.437 1469.17 355.394L1468.96 355.338C1468.8 355.295 1468.62 355.321 1468.48 355.405C1468.33 355.49 1468.22 355.633 1468.17 355.795C1468.13 355.956 1468.16 356.137 1468.24 356.283Z" fill="#DBE1DE"/>
<path d="M1460.57 354.426C1461.38 354.643 1461.71 353.395 1460.9 353.179C1460.1 352.962 1459.76 354.209 1460.57 354.426Z" fill="#DBE1DE"/>
<path d="M1289.24 92.8044C1286.67 91.597 1284.23 90.0542 1281.79 88.5784C1271.71 82.474 1261.28 76.9734 1250.59 72.0765C1245.78 69.8628 1240.98 67.8503 1236.31 65.4354C1234.41 64.4963 1231.5 63.3559 1230.35 61.4776C1229.6 60.2031 1230.21 59.264 1230.69 58.1236C1231.5 56.1782 1232.52 54.2999 1233.46 52.4888C1235.16 49.1347 1237.8 48.0614 1241.11 49.8726C1245.38 52.1534 1249.64 54.4341 1253.97 56.6478C1262.57 61.1422 1271.1 65.6366 1279.69 70.064C1283.48 72.0764 1287.27 74.0888 1291.07 76.0342C1294.65 77.9124 1298.17 80.1932 1301.83 82.0044C1305.89 83.9497 1303.38 86.8343 1301.35 89.5175C1300.34 90.9262 1298.98 93.8107 1297.43 94.6157C1295.26 95.8231 1291.61 93.8778 1289.64 93.0057C1289.58 92.9386 1289.44 92.8715 1289.24 92.8044ZM1234.34 60.3372C1234.34 60.4043 1247.27 66.777 1248.22 67.2466C1253.43 69.7286 1258.64 72.2106 1263.85 74.8268C1269.41 77.5771 1274.89 80.3945 1280.37 83.279C1283.08 84.7547 1285.85 86.1634 1288.56 87.6392C1291 88.9808 1293.57 90.9262 1296.34 91.53C1297.36 89.7188 1298.38 87.9075 1299.19 86.0293C1299.26 85.828 1299.39 85.6268 1299.32 85.4255C1299.26 85.1572 1299.05 84.956 1298.78 84.8219C1297.36 83.8827 1295.94 82.9436 1294.52 82.1386C1289.64 79.3883 1284.57 77.0405 1279.63 74.4243C1266.09 67.3808 1252.75 59.8006 1238.95 53.3608C1238.68 53.2267 1238.4 53.0925 1238.13 53.1596C1237.93 53.1596 1237.73 53.2937 1237.52 53.4279C1236.85 53.9646 1236.51 54.8366 1236.17 55.6416C1235.56 57.1174 1235.22 58.9956 1234.34 60.3372Z" fill="#DBE1DE"/>
<path d="M1227.7 170.864C1230.82 166.682 1233.76 162.499 1237.73 159C1242.13 155.116 1246.99 151.745 1251.73 148.288C1253.56 146.965 1255.61 145.088 1258 145.002C1260.52 144.917 1262.27 147.307 1263.85 148.928C1267.61 152.769 1271.62 156.482 1274.69 160.878C1270.55 161.56 1266.37 161.945 1262.48 163.566C1258.05 165.401 1254.29 168.687 1250.49 171.547C1246.1 174.833 1241.74 178.119 1237.39 181.49C1236.62 182.088 1234.53 183.197 1234.74 184.392C1234.92 185.544 1237.48 186.697 1238.24 187.337C1239.23 188.105 1242.34 190.025 1242.17 191.562C1241.96 193.738 1238.41 192.842 1237.13 192.885C1232.4 193.013 1227.45 194.634 1222.92 195.957C1221.09 196.512 1219.64 197.408 1217.93 198.134C1215.8 199.03 1214.26 197.963 1212.89 196.256C1211.4 194.421 1212.13 192.842 1212.6 190.665C1213.19 187.934 1213.75 185.16 1214.35 182.429C1215.58 176.668 1216.82 171.12 1219.25 165.743C1219.94 164.206 1220.45 163.182 1222.03 164.42C1224.25 166.084 1225.95 168.815 1227.7 170.864ZM1270.38 159.64C1268.8 156.397 1265.68 153.58 1263.34 150.849C1260.56 147.648 1257.62 148.886 1254.59 151.02C1247.55 156.013 1241.15 161.304 1235.51 167.876C1233.81 169.84 1232.31 171.888 1230.86 174.064C1230.31 174.875 1228.56 178.417 1227.4 178.46C1226.59 178.503 1224.25 174.875 1223.78 174.278C1223.22 173.552 1222.5 171.376 1221.69 170.992C1219.89 170.181 1218.7 176.454 1218.44 177.479C1217.08 183.368 1217.25 189.556 1216.56 195.573C1217.93 195.744 1219.59 195.018 1220.92 194.677C1222.67 194.25 1224.42 193.823 1226.21 193.439C1229.67 192.671 1233.12 191.946 1236.54 191.135C1240.08 190.324 1235.26 188.233 1233.85 187.465C1230.99 185.928 1229.75 185.032 1232.7 182.685C1238.84 177.777 1245.07 172.912 1251.39 168.261C1253.99 166.34 1256.64 164.462 1259.5 163.011C1263 161.219 1266.62 160.536 1270.38 159.64Z" fill="#DBE1DE"/>
<path d="M1120.43 117.158C1121.71 115.404 1125.86 116.398 1128.55 116.222C1135.16 115.813 1141.77 114.878 1148.32 114.352C1151.94 114.059 1155.57 113.825 1159.13 114.176C1162.17 114.468 1162.82 116.281 1161.12 118.21C1155.33 124.759 1149.49 131.249 1143.58 137.68C1141.88 139.493 1139.9 141.013 1138.03 142.709C1136.68 143.878 1134.99 144.872 1133.23 144.521C1131.18 144.053 1130.02 141.949 1129.14 140.078C1126.16 133.646 1122.24 127.098 1120.25 120.257C1119.84 118.737 1119.96 117.743 1120.43 117.158ZM1135.22 119.38C1135.1 118.97 1134.81 118.795 1134.17 119.263C1132.88 120.257 1133.29 123.648 1133.17 125.051C1133 127.507 1132.82 130.021 1132.7 132.535C1132.65 134.348 1132.94 136.452 1133.58 138.148C1133.76 138.733 1134.05 139.317 1134.58 139.61C1135.22 140.019 1136.1 139.844 1136.8 139.493C1141.07 137.271 1139.37 131.834 1139.6 128.092C1139.72 126.454 1141.36 120.432 1140.07 119.555C1137.91 118.093 1138.2 122.069 1138.2 123.005C1138.14 124.7 1138.08 126.454 1137.91 128.15C1137.79 129.261 1137.56 134.874 1135.45 134.406C1134.05 134.055 1134.93 127.156 1134.99 125.928C1135.04 124.408 1135.16 122.829 1135.22 121.309C1135.28 120.958 1135.39 119.906 1135.22 119.38ZM1146.39 118.093C1146.33 117.918 1146.27 117.86 1146.15 117.801C1145.86 117.626 1145.45 117.626 1145.1 117.801C1144.16 118.152 1143.64 119.204 1143.35 120.14C1142.64 122.245 1141.94 124.408 1141.71 126.571C1141.42 128.969 1141.65 131.775 1142.53 134.055C1143.05 134.231 1143.52 133.588 1143.76 133.061C1144.81 130.43 1145.57 128.033 1145.86 125.168C1145.98 124.057 1146.85 119.438 1146.39 118.093ZM1157.09 116.866C1156.21 116.632 1154.86 116.69 1154.86 116.69C1153.23 116.749 1151.53 116.807 1149.89 116.924C1149.54 116.924 1148.96 117.509 1148.9 117.86C1148.73 119.38 1148.61 120.958 1148.43 122.479C1148.32 123.589 1147.79 125.285 1148.02 126.396C1148.08 126.747 1148.37 127.156 1148.73 127.215C1148.96 127.273 1149.25 127.156 1149.43 127.039C1150.07 126.688 1150.48 125.987 1150.83 125.344C1151.47 124.174 1152.06 123.18 1152.29 121.894C1152.53 120.315 1152.35 119.848 1153.75 119.321C1155.16 118.795 1156.56 118.971 1157.67 117.684C1158.08 117.216 1157.67 116.983 1157.09 116.866ZM1130.02 119.848C1129.9 119.731 1129.72 119.614 1129.61 119.555C1126.33 118.386 1128.32 131.307 1128.44 132.769C1128.5 133.237 1128.73 133.88 1129.2 133.763C1129.55 133.704 1129.66 133.295 1129.72 133.003C1130.25 130.723 1130.42 128.208 1130.66 125.87C1130.83 124.233 1131.36 121.134 1130.02 119.848ZM1124.34 121.777C1124.34 122.362 1124.34 123.005 1124.4 123.589C1124.46 123.94 1124.58 124.174 1124.87 124.291C1125.51 123.706 1125.86 120.841 1125.22 120.14C1124.17 119.029 1124.34 121.134 1124.34 121.777Z" fill="#DBE1DE"/>
<path d="M1505.93 535.94C1502.68 535.351 1501.28 529.031 1499.26 525.481C1494.32 516.746 1488.66 508.359 1483.59 499.781C1480.79 495.033 1478.06 490.246 1476.17 485.151C1474.55 480.812 1476.6 478.733 1480.35 479.764C1493.12 483.308 1505.85 486.972 1518.54 490.754C1522.14 491.862 1525.53 493.563 1529.08 494.989C1531.57 496.046 1534.05 497.698 1534.74 500.322C1535.46 503.422 1533.36 506.413 1531.39 508.851C1524.6 517.185 1518.28 526.872 1510.27 534.122C1508.47 535.689 1507.04 536.19 1505.93 535.94ZM1499.14 514.299C1498.66 514.73 1498.62 515.245 1499.68 515.811C1501.89 516.905 1506.24 514.096 1508.23 513.324C1511.7 511.933 1515.24 510.504 1518.74 508.995C1521.25 507.871 1523.93 506.076 1525.81 504.073C1526.49 503.446 1527.1 502.66 1527.15 501.748C1527.28 500.6 1526.46 499.521 1525.51 498.797C1519.65 494.453 1513.36 500.373 1508.11 502.538C1505.8 503.465 1496.5 505.231 1496.16 507.566C1495.6 511.486 1500.83 508.448 1502.1 507.828C1504.45 506.782 1506.88 505.697 1509.31 504.811C1510.9 504.233 1518.71 500.826 1519.47 504.006C1519.92 506.152 1509.94 509.536 1508.22 510.271C1506.11 511.2 1503.88 512.089 1501.77 513.018C1501.25 513.171 1499.74 513.71 1499.14 514.299ZM1489.97 499.928C1489.77 500.124 1489.73 500.243 1489.73 500.441C1489.69 500.956 1489.96 501.514 1490.43 501.876C1491.53 502.918 1493.31 502.937 1494.78 502.715C1498.12 502.274 1501.53 501.795 1504.64 500.678C1508.1 499.485 1511.77 497.304 1514.3 494.594C1514.19 493.761 1513 493.55 1512.13 493.58C1507.84 493.892 1504.07 494.447 1499.97 495.95C1498.38 496.528 1491.5 498.398 1489.97 499.928ZM1481.2 486.156C1481.46 487.507 1482.43 489.301 1482.43 489.301C1483.6 491.495 1484.81 493.767 1486.05 495.922C1486.29 496.4 1487.47 496.809 1487.99 496.656C1490.18 495.886 1492.41 494.997 1494.59 494.228C1496.19 493.65 1498.85 493.242 1500.21 492.185C1500.65 491.873 1501.01 491.203 1500.86 490.686C1500.78 490.328 1500.43 490.007 1500.15 489.846C1499.25 489.202 1498.02 489.109 1496.91 489.058C1494.89 488.957 1493.15 488.82 1491.24 489.355C1488.93 490.084 1488.41 490.633 1486.76 489.07C1485.11 487.506 1484.42 485.476 1481.93 484.816C1481.02 484.568 1480.97 485.281 1481.2 486.156ZM1503.23 521.082C1503.15 521.319 1503.11 521.636 1503.11 521.834C1503.68 527.074 1519.98 515.788 1521.9 514.658C1522.49 514.268 1523.22 513.522 1522.75 512.962C1522.43 512.523 1521.8 512.635 1521.36 512.749C1517.9 513.545 1514.36 514.975 1511.02 516.208C1508.67 517.056 1504.09 518.395 1503.23 521.082ZM1509.63 527.534C1510.42 527.146 1511.3 526.719 1512.06 526.251C1512.5 525.938 1512.74 525.624 1512.71 525.148C1511.48 524.659 1507.34 526.082 1506.81 527.425C1506 529.597 1508.75 527.96 1509.63 527.534Z" fill="#DBE1DE"/>
<path d="M1473.17 250.597C1471.67 253.525 1469.85 256.259 1467.77 258.732C1466.53 260.163 1465.3 261.66 1463.87 262.962C1460.87 265.76 1436.6 279.491 1435.49 272.528C1434.91 269.014 1434.06 265.565 1433.21 262.116C1432.76 260.424 1432.56 258.341 1434.78 258.732C1444.08 260.554 1450 255.152 1456.12 249.556C1461.59 244.545 1463.15 238.167 1463.15 231.269C1463.15 224.761 1458.66 219.816 1452.35 218.319C1447.99 217.278 1447.6 216.171 1450.46 212.917C1452.02 211.16 1453.19 209.013 1454.82 207.321C1455.86 206.28 1458.14 205.043 1459.64 205.238C1460.68 205.368 1461.59 205.889 1462.5 206.41C1467.57 209.533 1471.67 214.154 1474.28 219.49C1475.38 221.638 1476.75 223.785 1477.14 226.193C1478.64 234.393 1477.01 243.113 1473.17 250.597ZM1439.2 270.706C1441.28 272.137 1447.21 268.949 1449.16 268.103C1454.23 265.89 1459.31 263.677 1463.08 259.578C1473.17 248.775 1480.2 230.553 1469.85 217.473C1469.01 216.432 1468.16 215.39 1467.25 214.349C1465.36 212.332 1463.21 210.64 1460.81 209.273C1458.33 207.906 1457.68 208.883 1456.25 211.03C1455.99 211.421 1453.84 215.13 1453.71 215.13C1454.95 215.325 1455.99 216.041 1457.1 216.562C1460.68 218.254 1463.74 220.336 1465.17 224.241C1467.97 231.985 1466.99 239.794 1462.82 246.302C1457.55 254.502 1450.39 261.139 1439.85 262.506C1439.01 262.636 1438.22 263.027 1437.31 263.352C1437.77 265.369 1437.7 267.517 1438.29 269.469C1438.62 270.12 1438.88 270.511 1439.2 270.706Z" fill="#DBE1DE"/>
<path d="M1386.88 219.425C1389.09 213.503 1393.39 208.037 1397.88 203.677C1401 200.683 1404.71 198.275 1408.68 196.583C1412.72 194.891 1416.88 193.134 1421.31 193.004C1425.21 192.874 1427.03 195.997 1427.49 199.577C1427.62 200.488 1427.88 201.334 1428.07 202.18C1428.72 204.718 1427.62 206.215 1425.02 206.475C1407.84 208.427 1400.74 216.627 1399.05 231.79C1398.01 241.031 1401.98 248.189 1408.75 253.981C1411.94 256.714 1411.8 258.276 1408.03 260.033C1407.25 260.424 1406.4 260.814 1405.62 261.27C1403.74 262.376 1401.59 263.417 1399.38 263.612C1396.84 263.873 1395.8 262.897 1394.43 260.814C1390.52 254.632 1386.16 247.929 1384.67 240.705C1383.24 233.677 1384.21 226.323 1386.62 219.62C1386.82 219.62 1386.82 219.49 1386.88 219.425ZM1405.88 256.519C1400.35 251.313 1396.58 244.545 1395.8 236.931C1395.01 228.861 1397.03 219.1 1402.63 213.048C1406.01 209.403 1410.5 206.865 1415.19 205.304C1416.1 204.978 1424.95 201.789 1425.28 202.896C1424.69 200.878 1424.49 198.731 1423.26 196.974C1422.41 195.737 1422.09 195.802 1420.59 195.997C1418.31 196.323 1416.17 196.974 1414.08 198.015C1411.74 199.251 1409.27 199.707 1406.99 201.269C1401.59 204.783 1395.67 208.622 1392.87 214.544C1391.44 217.668 1389.74 220.662 1388.64 223.916C1386.95 228.796 1386.95 234.393 1388.12 239.404C1389.35 244.675 1392.54 249.686 1394.88 254.502C1397.55 260.033 1400.61 260.619 1405.88 256.519Z" fill="#DBE1DE"/>
<path d="M1113.5 238.178C1112.28 235.054 1108.42 236.113 1105.67 236.431C1101.54 236.96 1097.46 237.489 1093.33 237.966C1091.26 238.231 1090.42 239.184 1091.42 241.037C1092.64 243.366 1094.07 245.537 1095.5 247.761C1097.99 251.731 1100.48 255.702 1103.02 259.62C1107.62 266.715 1112.76 273.438 1117.31 280.586C1119.59 284.08 1121.28 288.051 1123.61 291.492C1125.2 293.875 1126.95 296.151 1128.7 298.481C1129.54 299.593 1131.34 303.722 1133.2 302.346C1134.68 301.234 1132.77 298.428 1132.45 297.105C1131.87 294.987 1131.29 292.869 1130.65 290.751C1129.49 286.727 1128.33 282.704 1127.11 278.627C1125.41 273.015 1123.72 267.403 1121.81 261.897C1120.44 257.873 1118.9 253.849 1117.42 249.825C1116.04 246.066 1114.77 242.36 1113.66 238.548C1113.61 238.442 1113.55 238.337 1113.5 238.178ZM1127.21 288.686L1127.16 288.739C1125.78 287.839 1124.94 285.086 1124.14 283.657C1123.08 281.698 1122.02 279.792 1121.02 277.833C1118.9 273.968 1116.84 270.05 1114.72 266.185C1112.6 262.267 1110.54 258.402 1108.42 254.484C1107.78 253.373 1102.81 242.678 1102.12 242.784C1104.71 242.413 1107.52 241.937 1110.27 241.672C1110.96 241.619 1112.07 242.201 1112.34 242.784C1113.66 245.431 1114.88 248.078 1115.83 250.831C1118.95 259.938 1122.02 269.044 1124.94 278.15C1125.57 280.109 1126.05 282.174 1126.53 284.186C1126.9 285.298 1128.11 287.733 1127.21 288.686Z" fill="#DBE1DE"/>
<path d="M1136.32 314.788C1135.42 315.318 1134.57 315.9 1133.83 316.641C1131.98 318.494 1132.14 320.771 1132.45 323.206C1132.61 324.265 1132.77 325.377 1133.14 326.383C1134.15 329.083 1136.16 329.613 1138.75 330.089C1143.89 330.989 1148.18 328.395 1149.66 323.471C1151.09 318.653 1146.17 312.565 1141.14 313.306C1140.5 313.412 1139.81 313.518 1139.18 313.676C1138.17 313.888 1137.22 314.259 1136.32 314.788ZM1139.55 322.2C1139.44 321.83 1139.34 321.512 1139.28 321.142C1138.75 315.847 1146.11 315.688 1146.54 320.877C1146.7 322.624 1146.8 324.848 1144.63 325.165C1143.15 325.377 1141.56 324.848 1140.5 323.789C1140.08 323.259 1139.76 322.73 1139.55 322.2Z" fill="#DBE1DE"/>
<path d="M1261.1 539.588C1257.79 540.922 1255.79 537.156 1254.03 534.792C1251.43 531.206 1248.87 527.662 1246.22 524.116C1244.92 522.323 1245.04 520.972 1247.21 520.4C1249.9 519.644 1252.63 519.168 1255.39 518.654C1260.28 517.686 1265.18 516.718 1270.06 515.829C1278.92 514.224 1287.87 513.299 1296.73 511.613C1301.1 510.829 1305.41 509.245 1309.77 508.54C1312.78 508.033 1315.82 507.726 1318.89 507.381C1320.37 507.226 1324.89 505.609 1325.17 508.049C1325.39 510.008 1321.83 510.578 1320.57 511.297C1318.5 512.39 1316.44 513.483 1314.33 514.536C1310.37 516.568 1306.4 518.6 1302.36 520.63C1296.77 523.41 1291.19 526.19 1285.53 528.729C1281.41 530.597 1277.18 532.342 1272.98 534.128C1269.06 535.803 1265.26 537.522 1261.5 539.44C1261.38 539.477 1261.26 539.513 1261.1 539.588ZM1310.23 513.376L1310.23 513.296C1308.53 512.886 1305.78 514.237 1304.09 514.665C1301.8 515.273 1299.55 515.843 1297.3 516.492C1292.76 517.67 1288.22 518.928 1283.68 520.106C1279.1 521.322 1274.6 522.541 1270.02 523.758C1268.7 524.077 1256.78 528.021 1256.36 527.41C1257.97 529.69 1259.65 532.212 1261.45 534.537C1261.91 535.109 1263.17 535.546 1263.82 535.326C1266.83 534.421 1269.77 533.434 1272.6 532.164C1281.93 527.943 1291.23 523.681 1300.4 519.296C1302.38 518.359 1304.33 517.222 1306.24 516.124C1307.37 515.601 1310.14 514.768 1310.23 513.376Z" fill="#DBE1DE"/>
<path d="M1337.08 501.394C1336.84 500.31 1336.67 499.229 1336.71 498.115C1336.79 495.328 1338.67 493.79 1340.79 492.26C1341.72 491.611 1342.7 490.923 1343.75 490.477C1346.58 489.287 1348.45 490.46 1350.71 492.122C1355.16 495.444 1356.27 500.658 1353.54 505.397C1350.85 510.018 1342.54 510.644 1339.45 506.207C1339.07 505.638 1338.65 505.027 1338.31 504.419C1337.74 503.486 1337.33 502.477 1337.08 501.394ZM1345.18 498.49C1344.82 498.678 1344.49 498.828 1344.17 499.057C1339.68 502.508 1344.93 508.325 1349.25 504.869C1350.72 503.718 1352.52 502.178 1351.19 500.265C1350.27 498.962 1348.7 498.118 1347.11 498.07C1346.39 498.128 1345.75 498.268 1345.18 498.49Z" fill="#DBE1DE"/>
</g>
<defs>
<clipPath id="clip0">
<rect width="1512" height="538" rx="56" fill="white"/>
</clipPath>
</defs>
</svg>
