<svg width="735" height="722" viewBox="0 0 735 722" fill="none" xmlns="http://www.w3.org/2000/svg">
<path d="M0.472508 421.44C-2.20265 404.935 6.73136 384.493 21.0157 375.609C37.9752 365.06 61.4459 366.17 78.8092 374.701C96.4248 383.382 108.791 399.332 111.466 419.017C112.88 429.567 109.952 440.722 111.971 451.17C112.779 455.309 115.05 458.539 118.129 461.366C121.763 464.747 124.186 466.817 126.76 471.057C98.4943 480.748 68.159 486.855 39.4389 475.196C16.7758 465.959 2.94577 445.567 0.472508 421.44ZM108.236 469.341C108.69 466.666 102.179 461.517 100.917 459.246C97.8381 453.643 96.8791 446.274 95.4153 440.015C92.7402 428.406 91.4278 416.09 86.9861 404.986C78.7587 384.543 57.9631 369.956 35.5524 375.004C15.2111 379.546 2.84482 399.181 3.90479 419.573C4.91428 438.753 16.7253 457.933 33.1801 467.725C44.2845 474.338 57.1555 476.861 69.9761 476.962C77.5473 477.013 84.9671 476.003 92.4373 474.54C95.2639 473.984 107.529 473.48 108.236 469.341Z" fill="#C2C2C2"/>
<path d="M65.1312 405.995C62.8599 408.418 60.2352 409.629 56.9543 408.62C54.1782 407.761 51.7554 406.096 48.9793 405.389C47.566 405.036 46.0518 404.935 44.6385 405.288C42.7709 405.742 41.3072 406.903 39.7929 407.963C38.8844 408.62 37.5721 409.629 36.7645 409.73C35.1997 409.932 33.4836 409.225 31.9694 408.922C27.5276 408.014 22.8839 408.922 21.3192 413.717C20.8145 415.383 23.3887 416.09 23.9439 414.424C25.3067 410.134 30.0009 411.244 33.3827 411.951C34.695 412.254 36.1083 412.557 37.4711 412.304C38.7835 412.001 39.9444 411.143 41.0548 410.336C42.4681 409.326 43.8309 408.115 45.5975 407.812C46.8089 407.56 48.0203 407.812 49.2317 408.216C51.9069 409.074 54.2792 410.689 57.0553 411.345C60.9923 412.304 64.4246 410.689 67.1502 407.812C68.2606 406.651 66.3426 404.733 65.1312 405.995Z" fill="#C2C2C2"/>
<path d="M73.1078 418.815C72.1992 417.553 70.1802 418.563 70.584 419.774C70.4831 419.875 70.3317 420.077 70.2307 420.128C69.5746 420.632 68.7669 421.036 68.0098 421.339C66.3442 422.046 65.2337 422.046 63.669 421.036C61.9024 419.926 60.4386 419.017 58.2682 418.815C56.5016 418.664 54.7855 419.068 53.2208 419.926C51.656 420.733 50.2932 421.894 48.7285 422.601C47.2143 423.308 45.5486 423.56 43.883 423.358C40.7031 422.954 37.8765 421.238 34.747 420.632C30.4062 419.724 26.7721 421.44 23.9455 424.771C22.835 426.084 24.7026 428.002 25.8635 426.689C27.1758 425.125 28.7406 423.711 30.7595 423.207C32.2738 422.853 33.8385 423.156 35.3527 423.56C38.5831 424.519 41.6116 426.134 45.0439 426.134C47.0124 426.134 48.8799 425.579 50.6466 424.67C52.2617 423.812 53.6246 422.601 55.2902 421.894C57.0064 421.188 59.0758 421.339 60.6405 422.248C62.3567 423.257 63.9214 424.67 66.0918 424.569C67.8584 424.519 69.7765 423.61 71.2402 422.651C72.3507 421.995 74.2687 420.38 73.1078 418.815Z" fill="#C2C2C2"/>
<path d="M78.2037 435.169C78.1532 436.33 77.8504 437.239 76.7904 437.39C75.579 437.542 74.1657 437.037 73.0048 436.532C70.2792 435.422 67.7555 433.302 64.8279 432.797C60.2852 432.04 57.5596 436.179 54.3797 438.602C53.0169 439.662 51.856 440.166 50.2912 439.258C48.3227 438.097 46.6571 436.482 44.5371 435.573C39.2373 433.251 33.9375 435.624 30.1519 439.561C28.9405 440.823 30.8585 442.741 32.0699 441.479C33.786 439.662 35.8555 438.097 38.3287 437.491C40.7515 436.886 43.1238 437.643 45.1428 439.006C46.859 440.116 48.4742 441.731 50.4931 442.337C52.4112 442.892 54.1778 442.084 55.7425 440.974C57.6101 439.611 59.1243 437.794 60.9919 436.482C62.607 435.321 64.1213 435.22 65.9384 435.977C68.664 437.138 71.0363 438.905 73.9638 439.712C75.4781 440.116 77.1942 440.318 78.6075 439.611C80.3236 438.753 80.8284 436.936 80.9293 435.119C80.9798 433.453 78.2542 433.453 78.2037 435.169Z" fill="#C2C2C2"/>
<path d="M678.578 318.889C679.634 316.18 682.986 317.098 685.373 317.373C688.955 317.833 692.49 318.292 696.072 318.705C697.863 318.935 698.597 319.761 697.725 321.368C696.669 323.389 695.429 325.271 694.189 327.2C692.031 330.643 689.873 334.087 687.669 337.485C683.674 343.638 679.22 349.469 675.272 355.668C673.297 358.699 671.828 362.142 669.807 365.127C668.43 367.193 666.915 369.168 665.399 371.188C664.665 372.152 663.103 375.734 661.496 374.54C660.211 373.576 661.864 371.142 662.139 369.994C662.644 368.158 663.149 366.321 663.7 364.484C664.711 360.995 665.721 357.505 666.777 353.969C668.246 349.102 669.716 344.235 671.369 339.459C672.562 335.97 673.894 332.48 675.18 328.99C676.374 325.73 677.476 322.516 678.44 319.21C678.486 319.118 678.532 319.026 678.578 318.889ZM666.685 362.693L666.731 362.739C667.925 361.959 668.659 359.571 669.348 358.331C670.267 356.632 671.185 354.979 672.057 353.28C673.894 349.929 675.685 346.531 677.521 343.179C679.358 339.781 681.149 336.429 682.986 333.031C683.537 332.067 687.853 322.792 688.45 322.883C686.2 322.562 683.766 322.149 681.378 321.919C680.782 321.873 679.817 322.378 679.588 322.883C678.44 325.179 677.384 327.475 676.557 329.863C673.848 337.761 671.185 345.658 668.659 353.556C668.108 355.255 667.695 357.046 667.282 358.791C666.961 359.755 665.904 361.867 666.685 362.693Z" fill="#C2C2C2"/>
<path d="M658.789 385.331C659.569 385.79 660.304 386.295 660.947 386.938C662.554 388.545 662.416 390.52 662.141 392.632C662.003 393.55 661.865 394.514 661.544 395.387C660.671 397.728 658.927 398.188 656.677 398.601C652.223 399.381 648.503 397.132 647.218 392.861C645.978 388.683 650.248 383.402 654.61 384.045C655.161 384.137 655.758 384.229 656.309 384.367C657.182 384.55 658.008 384.872 658.789 385.331ZM655.988 391.759C656.08 391.438 656.172 391.162 656.218 390.841C656.677 386.249 650.294 386.111 649.927 390.611C649.789 392.127 649.697 394.055 651.58 394.331C652.866 394.514 654.243 394.055 655.161 393.137C655.529 392.678 655.804 392.218 655.988 391.759Z" fill="#C2C2C2"/>
<path d="M122.866 581.759C123.589 582.877 124.247 583.995 124.839 584.982C126.681 588.336 127.93 592.085 128.522 595.9C128.983 598.729 129.049 601.623 129.377 604.451C130.298 611.424 133.127 618.001 136.218 624.316C137.468 626.881 139.836 629.315 138.783 632.34C137.797 635.103 135.1 637.142 132.337 637.865C130.364 638.392 129.575 637.471 127.996 636.287C124.905 633.985 121.813 631.617 119.379 628.591C116.288 624.776 113.92 620.369 112.341 615.765C111.157 612.41 110.434 608.858 110.171 605.306C109.908 602.018 110.368 598.597 109.053 595.44C107.145 590.77 102.409 588.073 97.8707 586.692C94.845 585.771 89.1882 586.889 88.07 590.309C87.215 593.072 90.0433 595.637 91.0958 597.874C92.4113 600.636 92.6744 603.465 91.03 606.161C88.9251 609.648 84.3866 609.516 81.5582 607.214C75.5068 602.346 72.4811 595.177 73.0731 587.415C73.7309 578.207 79.7165 571.892 88.1358 568.603C100.831 563.539 115.564 571.169 122.866 581.759ZM117.143 586.494C113.591 581.232 108.526 576.891 103.133 575.049C97.476 573.142 90.438 573.602 85.439 577.088C84.5181 577.746 83.7288 578.47 82.9395 579.193C78.3352 583.469 75.7042 587.547 77.1512 593.993C77.8748 597.084 83.3342 608.332 87.6096 604.977C88.6621 604.122 89.846 602.018 89.254 600.702C88.5963 599.123 87.7412 597.545 86.8861 596.032C84.1893 591.362 85.3733 586.56 90.2407 584.192C93.5953 582.548 97.6076 582.548 100.962 584.258C107.079 587.349 111.947 591.428 112.999 598.729C114.052 605.964 113.986 613.265 117.669 620.106C119.182 622.934 121.09 625.631 123.392 627.933C124.51 629.052 125.826 629.972 126.944 631.091C128.128 632.275 132.272 635.498 132.666 632.077C132.929 629.709 130.167 627.078 129.114 625.171C127.799 622.737 126.549 620.238 125.562 617.672C123.589 612.476 122.405 606.951 122.274 601.36C122.274 596.427 120.235 591.099 117.143 586.494Z" fill="#C2C2C2"/>
<path d="M161.477 645.89C161.674 646.35 161.806 646.811 161.937 647.271C162.398 649.113 162.398 651.218 161.608 652.928C160.622 655.033 160.03 657.072 158.254 658.782C154.899 661.874 149.242 662.4 145.296 660.098C142.796 658.651 140.955 656.217 140.231 653.454C139.376 650.363 140.56 648.192 142.204 645.561C143.454 643.588 145.362 641.943 147.532 640.957C152.86 638.457 159.24 640.562 161.477 645.89ZM145.954 647.6C144.243 649.31 143.323 652.796 145.098 654.77C147.795 657.73 150.558 657.927 153.584 655.164C154.833 654.046 155.162 652.205 154.768 650.56C153.978 647.008 148.716 644.838 145.954 647.6Z" fill="#C2C2C2"/>
<path d="M347.871 17.3883C348.213 14.5173 351.446 19.7656 351.619 20.1162C353.154 22.8812 354.722 24.2875 358.097 24.733C365.144 25.5448 362.108 19.8467 364.623 15.5995C371.373 4.34104 386.924 14.0707 387.86 24.3812C389.036 36.7715 377.732 44.9621 366.257 43.0341C354.129 41.0426 346.418 29.4507 347.871 17.3883ZM356.195 28.8955C360.528 33.2136 367.043 35.5971 372.844 32.0575C376.473 29.894 378.407 23.182 377.187 19.2209C376.497 16.944 374.949 15.6118 372.474 15.5604C368.882 15.4906 367.931 17.5718 367.554 20.6109C366.594 27.6973 362.613 28.8434 355.893 28.6587C355.967 28.6388 356.081 28.7672 356.195 28.8955Z" fill="#C2C2C2"/>
<path d="M405.079 16.0318C411.789 16.7748 418.189 22.2861 417.007 29.432C416.095 34.9174 411.204 39.4837 405.646 39.7818C391.703 40.5001 390.091 14.3303 405.079 16.0318ZM404.458 30.0152C412.036 29.2551 409.624 19.6579 403.079 21.0146C397.517 22.1873 398.125 30.6799 404.458 30.0152Z" fill="#C2C2C2"/>
<path d="M288.677 374.137C285.324 376.903 287.257 367.841 287.432 367.28C288.633 362.68 288.388 359.524 285.181 355.536C278.362 347.339 275.748 356.686 268.605 358.693C249.58 363.928 242.771 337.208 252.455 325.026C264.036 310.333 284.83 313.162 295.305 327.168C306.424 341.921 302.777 362.529 288.677 374.137ZM291.57 352.985C291.34 343.792 286.731 334.438 276.749 332.265C270.558 330.851 261.488 336.142 258.704 341.715C257.09 344.906 257.39 347.962 260.029 350.587C263.862 354.391 267.056 353.116 270.62 350.202C279.019 343.494 284.537 346.38 291.652 353.555C291.551 353.5 291.56 353.242 291.57 352.985Z" fill="#C2C2C2"/>
<path d="M225.067 316.232C218.541 308.459 217.303 295.823 226.006 289.281C232.691 284.263 242.749 284.375 249.102 289.82C265.006 303.51 239.597 333.638 225.067 316.232ZM240.256 301.672C231.227 294.632 223.889 307.572 232.413 312.89C239.678 317.388 247.832 307.523 240.256 301.672Z" fill="#C2C2C2"/>
<path d="M661.603 128.521C661.695 128.659 661.695 128.751 661.649 128.843C663.857 120.932 672.78 113.758 679.862 110.354C687.405 106.721 697.431 106.629 701.984 114.861C709.803 115.091 714.402 109.848 722.221 115.321C726.36 118.219 729.12 123.14 727.74 128.337C726.314 133.81 722.175 134.96 728.062 139.099C734.731 143.79 736.064 152.207 733.121 159.658C732.109 162.279 728.476 164.027 727.694 166.234C726.866 168.58 729.718 170.604 730.131 173.685C731.281 181.688 727.326 190.426 721.761 196.037C716.932 200.866 712.609 200.222 706.4 199.303C704.56 210.249 695.5 217.561 684.369 216.504C681.748 216.274 679.126 215.584 676.689 214.526C673.101 213.008 673.607 212.41 671.216 214.664C667.306 218.389 664.639 220.781 658.522 219.309C650.289 217.331 643.115 212.272 640.585 203.948C626.19 211.812 611.702 219.539 597.353 227.496C594.363 225.518 597.077 220.919 598.365 218.757C600.618 214.848 603.056 211.123 605.217 207.167C608.483 201.234 611.748 195.347 615.06 189.414C618.325 183.527 622.832 177.318 625.04 170.972C626.834 165.866 624.81 159.29 625.638 153.863C626.558 147.746 628.949 142.089 632.353 136.938C635.894 131.602 639.389 127.325 645.644 125.44C648.772 124.52 651.485 124.06 654.705 124.934C655.579 125.21 660.914 127.279 661.603 128.521ZM606.321 216.596C608.391 220.275 637.044 201.142 639.297 199.763C646.702 195.117 644.264 204.316 645.874 207.903C647.346 211.123 652.497 213.1 655.487 214.434C658.43 215.768 662.753 217.515 665.697 215.308C668.732 213.054 666.985 210.249 667.766 207.351C668.226 205.558 668.364 204.638 670.894 205.787C672.826 206.661 674.527 209.145 676.367 210.341C682.76 214.434 692.28 214.848 697.983 209.191C700.007 207.213 702.306 203.764 701.662 200.82C701.157 198.567 698.535 196.635 698.397 194.335C698.259 191.76 700.559 191.714 702.582 192.542C706.216 194.014 708.055 196.451 712.287 196.405C721.071 196.359 725.624 184.677 725.9 177.364C726.084 172.581 724.061 171.661 720.335 169.592C718.45 168.534 715.276 165.82 717.576 163.613C718.955 162.279 721.853 163.061 723.463 162.003C726.36 160.072 729.35 151.701 728.2 148.252C726.544 143.238 720.105 146.596 716.518 145.722C707.779 143.606 719.369 130.867 720.335 126.865C721.163 123.278 719.461 119.645 715.644 118.955C712.792 118.449 710.171 119.967 707.825 121.438C703.686 124.06 698.903 127.693 695.408 122.174C694.304 120.472 693.798 117.943 691.866 116.931C688.923 115.321 684.461 117.989 681.794 119.231C677.977 121.024 673.699 123.37 671.032 126.773C669.192 129.073 667.996 131.878 666.341 134.27C665.237 135.926 663.719 138.593 661.419 138.271C659.81 138.041 658.568 135.512 657.51 134.5C655.992 132.89 654.245 132.108 651.991 132.2C638.286 132.89 622.326 162.647 639.297 168.902C633.318 178.054 627.707 187.483 621.177 196.267C618.233 200.222 615.244 204.316 611.932 207.903C610.598 209.559 604.757 213.744 606.321 216.596Z" fill="#C2C2C2"/>
<path d="M705.939 148.252C692.555 150.735 678.987 151.977 665.374 152.437C661.51 152.575 657.693 152.621 653.83 152.621C652.266 152.621 652.266 155.058 653.83 155.058C667.581 155.058 681.333 154.276 694.947 152.437C698.81 151.931 702.673 151.287 706.537 150.597C708.146 150.321 707.456 147.976 705.939 148.252Z" fill="#C2C2C2"/>
<path d="M709.158 157.128C702.122 158.968 694.855 159.428 687.634 159.428C684.047 159.428 680.46 159.244 676.872 159.106C673.147 158.968 669.421 159.29 665.742 159.704C661.511 160.164 657.326 160.715 653.048 160.715C651.485 160.715 651.485 163.153 653.048 163.153C660.637 163.107 668.134 161.359 675.722 161.497C683.035 161.635 690.302 162.095 697.615 161.497C701.754 161.175 705.847 160.532 709.848 159.474C711.32 159.06 710.676 156.714 709.158 157.128Z" fill="#C2C2C2"/>
<path d="M709.987 169.224C702.536 170.328 695.224 172.306 687.681 172.765C680.506 173.225 673.331 172.949 666.203 172.673C662.385 172.536 658.522 172.398 654.705 172.398C653.141 172.398 653.141 174.835 654.705 174.835C669.146 174.835 683.542 176.491 697.891 173.915C702.168 173.133 706.4 172.214 710.677 171.57C712.149 171.34 711.505 168.994 709.987 169.224Z" fill="#C2C2C2"/>
<path d="M710.492 180.63C708.008 181.964 705.019 182.102 702.305 182.194C699.086 182.286 695.866 182.148 692.647 182.148C689.014 182.194 685.38 182.654 681.747 182.746C677.424 182.838 673.1 182.7 668.777 182.516C663.948 182.332 659.119 182.102 654.29 182.102C652.726 182.102 652.726 184.539 654.29 184.539C663.12 184.539 671.905 185.321 680.735 185.229C684.552 185.183 688.324 184.677 692.095 184.631C695.407 184.585 698.718 184.769 701.983 184.677C705.249 184.585 708.744 184.355 711.688 182.792C713.113 182.01 711.872 179.894 710.492 180.63Z" fill="#C2C2C2"/>
<path d="M624.2 289.39C626.565 287.401 628.666 285.637 630.768 283.873C631.556 283.198 632.532 283.047 633.132 284.061C635.947 289.127 636.66 295.732 637.298 301.399C637.411 302.263 637.823 303.201 637.711 304.064C637.561 305.19 636.623 305.227 635.609 305.19C632.457 305.04 629.154 305.19 625.927 305.265C623.862 305.302 621.836 305.678 619.847 306.016C619.171 306.128 617.82 306.654 617.145 306.241C616.394 305.79 616.844 305.002 616.957 304.252C617.37 301.925 618.083 299.673 619.171 297.571C619.396 297.121 619.659 296.708 619.697 296.22C619.772 295.207 617.97 294.119 617.295 293.481C613.88 290.028 610.389 286.613 607.274 282.897C603.934 278.882 600.669 274.716 598.155 270.137C595.678 265.484 593.013 259.779 594.364 254.563C595.115 251.673 601.457 251.86 603.709 252.161C605.285 252.386 606.937 252.273 608.55 252.236C609.789 252.236 610.765 253.399 610.389 254.788C609.376 258.653 610.427 262.331 611.215 266.084C612.116 270.287 613.542 274.266 615.568 278.056C617.82 282.409 621.123 285.825 624.2 289.39ZM606.824 253.925C603.822 253.925 601.12 253.662 598.493 254.112C597.254 254.3 595.002 254.525 595.303 256.964C595.941 262.106 597.817 266.797 600.519 271.113C604.422 277.268 608.926 282.935 614.33 287.851C616.544 289.84 618.571 292.055 620.935 293.818C622.211 294.794 622.136 295.395 621.536 296.633C620.447 298.997 619.622 301.474 618.571 304.139C624.275 303.914 629.417 303.726 635.009 303.539C634.446 303.576 632.081 288.94 631.556 287.626C631.293 287.739 631.106 287.889 630.918 288.076C629.192 289.578 627.465 291.116 625.589 292.43C624.125 293.481 623.412 292.205 622.286 291.154C621.085 290.028 619.959 288.865 618.871 287.626C614.78 283.047 611.403 277.868 608.926 272.239C606.411 266.61 606.149 260.117 606.824 253.925Z" fill="#C2C2C2"/>
<path d="M629.91 461.112C630.936 459.713 634.248 460.506 636.394 460.366C641.665 460.039 646.936 459.293 652.161 458.873C655.053 458.64 657.945 458.453 660.79 458.733C663.216 458.966 663.729 460.412 662.376 461.952C657.758 467.176 653.094 472.354 648.382 477.485C647.03 478.931 645.444 480.144 643.951 481.497C642.878 482.43 641.525 483.223 640.126 482.943C638.493 482.57 637.56 480.89 636.86 479.398C634.481 474.267 631.356 469.042 629.77 463.584C629.444 462.372 629.537 461.579 629.91 461.112ZM641.712 462.885C641.618 462.558 641.385 462.418 640.872 462.791C639.846 463.584 640.172 466.29 640.079 467.409C639.939 469.369 639.799 471.374 639.706 473.38C639.659 474.826 639.893 476.506 640.406 477.858C640.546 478.325 640.779 478.791 641.199 479.025C641.712 479.351 642.411 479.211 642.971 478.931C646.376 477.159 645.024 472.82 645.21 469.835C645.304 468.529 646.61 463.724 645.583 463.025C643.858 461.858 644.091 465.03 644.091 465.777C644.044 467.13 643.997 468.529 643.858 469.882C643.764 470.768 643.578 475.246 641.898 474.873C640.779 474.593 641.478 469.089 641.525 468.109C641.572 466.896 641.665 465.637 641.712 464.424C641.758 464.144 641.852 463.304 641.712 462.885ZM650.621 461.858C650.575 461.718 650.528 461.672 650.435 461.625C650.202 461.485 649.875 461.485 649.595 461.625C648.849 461.905 648.429 462.745 648.196 463.491C647.636 465.17 647.076 466.896 646.89 468.622C646.656 470.535 646.843 472.774 647.543 474.593C647.962 474.733 648.336 474.22 648.522 473.8C649.362 471.701 649.968 469.788 650.202 467.503C650.295 466.616 650.995 462.931 650.621 461.858ZM659.158 460.879C658.458 460.692 657.385 460.739 657.385 460.739C656.079 460.786 654.726 460.832 653.42 460.925C653.14 460.925 652.674 461.392 652.627 461.672C652.487 462.885 652.394 464.144 652.254 465.357C652.161 466.243 651.741 467.596 651.927 468.482C651.974 468.762 652.207 469.089 652.487 469.135C652.674 469.182 652.907 469.089 653.047 468.995C653.56 468.716 653.887 468.156 654.167 467.643C654.68 466.71 655.146 465.917 655.333 464.89C655.519 463.631 655.379 463.258 656.499 462.838C657.618 462.418 658.738 462.558 659.624 461.532C659.951 461.159 659.624 460.972 659.158 460.879ZM637.56 463.258C637.467 463.165 637.327 463.071 637.234 463.025C634.621 462.092 636.207 472.401 636.301 473.567C636.347 473.94 636.534 474.453 636.907 474.36C637.187 474.313 637.28 473.987 637.327 473.753C637.747 471.934 637.887 469.928 638.073 468.062C638.213 466.756 638.633 464.284 637.56 463.258ZM633.035 464.797C633.035 465.264 633.035 465.777 633.082 466.243C633.129 466.523 633.222 466.71 633.455 466.803C633.968 466.337 634.248 464.051 633.735 463.491C632.895 462.605 633.035 464.284 633.035 464.797Z" fill="#C2C2C2"/>
<path d="M267.869 611.679C270.282 610.009 272.868 608.63 275.549 607.565C277.125 606.962 278.729 606.307 280.404 605.888C283.939 604.953 308.817 604.407 306.747 610.347C305.723 613.357 304.932 616.426 304.141 619.494C303.785 621.016 303.059 622.736 301.485 621.495C294.939 616.133 288.003 617.879 280.832 619.696C274.419 621.327 270.499 625.681 267.587 631.103C264.839 636.219 266.281 642.002 270.611 645.844C273.599 648.503 273.439 649.538 269.814 650.887C267.845 651.608 266.017 652.802 264.024 653.445C262.766 653.824 260.454 653.834 259.359 653.049C258.596 652.507 258.099 651.713 257.603 650.919C254.932 646.321 253.66 640.958 253.866 635.664C253.903 633.509 253.736 631.244 254.445 629.186C256.731 622.109 261.691 615.941 267.869 611.679ZM303.062 610.214C302.029 608.209 296.028 608.216 294.136 608.056C289.212 607.653 284.287 607.249 279.589 608.878C267.1 613.111 253.882 624.468 256.493 639.118C256.719 640.294 256.944 641.47 257.221 642.673C257.852 645.055 258.826 647.292 260.142 649.383C261.509 651.501 262.433 651.009 264.465 649.925C264.834 649.728 268.088 647.719 268.191 647.774C267.301 647.098 266.785 646.096 266.135 645.22C264.036 642.378 262.511 639.45 263.034 635.776C264.104 628.507 268.168 622.781 274.189 619.424C281.795 615.204 290.224 613.008 299.088 616.385C299.808 616.639 300.587 616.662 301.44 616.791C301.934 615.013 302.892 613.352 303.256 611.57C303.275 610.921 303.235 610.505 303.062 610.214Z" fill="#C2C2C2"/>
<path d="M322.538 672.612C318.298 676.333 312.614 678.817 307.243 680.349C303.524 681.383 299.592 681.71 295.757 681.364C291.871 680.99 287.855 680.613 284.322 678.847C281.197 677.301 281.084 674.076 282.237 671.071C282.519 670.299 282.672 669.525 282.875 668.777C283.435 666.507 284.937 665.798 287.093 666.692C301.422 672.411 310.46 668.96 318.192 657.755C322.912 650.931 322.813 643.628 319.938 636.217C318.586 632.723 319.347 631.55 323.056 631.762C323.835 631.785 324.665 631.835 325.471 631.807C327.422 631.734 329.549 631.822 331.371 632.603C333.476 633.47 333.882 634.677 334.077 636.89C334.537 643.399 335.134 650.508 333.261 656.819C331.419 662.948 327.547 668.316 322.825 672.569C322.671 672.486 322.616 672.589 322.538 672.612ZM323.261 635.431C325.411 641.859 325.521 648.773 322.92 655.088C320.127 661.76 314.42 668.582 307.465 670.977C303.267 672.413 298.666 672.512 294.323 671.762C293.469 671.633 285.166 670.403 285.377 669.396C284.986 671.229 284.233 672.999 284.463 674.903C284.606 676.232 284.889 676.318 286.148 676.796C288.076 677.502 290.039 677.897 292.116 677.958C294.479 677.975 296.615 678.661 299.065 678.395C304.795 677.913 311.071 677.395 315.771 673.921C318.215 672.07 320.809 670.431 323.052 668.341C326.443 665.218 328.806 660.819 330 656.386C331.254 651.72 330.863 646.435 331.054 641.66C331.292 636.186 329.135 634.434 323.261 635.431Z" fill="#C2C2C2"/>
<path d="M679.187 628.187C678.654 634.319 678.165 641.605 673.322 646.004C669.101 649.87 663.102 651.914 657.682 653.38C643.508 657.29 628.046 658.623 613.472 660.178C605.963 660.978 598.454 661.511 590.9 661.511C584.502 661.511 577.971 661.555 572.239 658.445C566.552 655.379 565.397 651.158 565.13 645.027C564.774 637.384 565.174 629.742 566.019 622.144C567.396 609.57 567.885 593.619 578.993 585.355C589.434 577.579 603.43 581.178 615.427 581.178C622.758 581.178 630.089 580.778 637.376 580.023C641.819 579.578 646.707 579.134 650.661 576.868C653.861 575.046 655.771 572.069 656.971 568.648C658.926 563.05 660.081 557.318 662.258 551.764C663.325 548.965 663.68 546.254 667.057 547.187C669.9 547.943 673.633 549.853 674.744 552.697C677.543 559.806 677.632 569.403 678.165 576.912C679.409 593.708 680.653 611.392 679.187 628.187ZM664.835 559.406C663.547 556.696 663.102 560.162 662.925 561.006C662.436 563.405 661.592 565.76 660.97 568.115C659.503 573.802 657.504 577.223 652.039 579.756C640.753 584.999 628.09 583.622 615.96 583.799C606.229 583.933 595.122 582.333 585.924 586.243C577.704 589.753 573.705 597.173 571.795 605.527C570.417 611.525 569.529 617.568 568.996 623.699C568.462 629.831 567.663 636.718 568.64 642.849C570.64 655.113 584.769 653.291 594.322 653.335C607.118 653.424 619.87 651.558 632.578 650.314C641.82 649.381 659.192 649.692 664.435 640.05C667.634 634.185 667.768 625.077 667.768 618.634C667.812 611.792 667.634 604.949 667.412 598.106C667.19 590.775 666.924 583.488 666.346 576.157C666.079 572.869 665.679 569.537 665.502 566.249C665.413 564.027 665.813 561.45 664.835 559.406Z" fill="#C2C2C2"/>
<path d="M603.076 608.904C603.076 608.593 602.942 608.282 602.72 608.059C602.631 608.015 602.543 607.926 602.498 607.882C602.32 607.793 602.098 607.704 601.876 607.704C601.832 607.704 601.787 607.704 601.743 607.704C601.609 607.704 601.476 607.704 601.343 607.748C601.076 607.793 600.899 607.971 600.676 608.104C600.499 608.282 600.365 608.504 600.321 608.726C600.277 608.859 600.276 608.993 600.276 609.126C600.276 609.17 600.276 609.215 600.276 609.259C600.276 609.437 600.321 609.57 600.365 609.703C600.41 609.837 600.499 609.97 600.632 610.103C600.854 610.325 601.165 610.459 601.476 610.459C601.787 610.459 602.098 610.325 602.32 610.103C602.365 610.014 602.454 609.97 602.498 609.881C602.587 609.837 602.676 609.748 602.72 609.703C602.942 609.57 603.076 609.215 603.076 608.904Z" fill="#C2C2C2"/>
<path d="M614.628 607.348C613.073 607.348 613.073 609.747 614.628 609.747C616.139 609.747 616.139 607.348 614.628 607.348Z" fill="#C2C2C2"/>
<path d="M629.733 606.549C628.178 606.549 628.178 608.948 629.733 608.948C631.288 608.948 631.288 606.549 629.733 606.549Z" fill="#C2C2C2"/>
<path d="M645.685 605.749C644.13 605.749 644.13 608.148 645.685 608.148C647.196 608.148 647.196 605.749 645.685 605.749Z" fill="#C2C2C2"/>
<path d="M601.874 625.254C600.319 625.254 600.319 627.654 601.874 627.654C603.429 627.654 603.429 625.254 601.874 625.254Z" fill="#C2C2C2"/>
<path d="M616.181 623.655C614.626 623.655 614.626 626.054 616.181 626.054C617.737 626.054 617.737 623.655 616.181 623.655Z" fill="#C2C2C2"/>
<path d="M632.577 623.611C632.355 623.388 632.043 623.255 631.732 623.255H631.333C631.022 623.255 630.711 623.388 630.488 623.611C630.266 623.833 630.133 624.144 630.133 624.455C630.133 624.766 630.266 625.077 630.488 625.299C630.711 625.521 631.022 625.654 631.333 625.654H631.732C632.043 625.654 632.355 625.521 632.577 625.299C632.799 625.077 632.932 624.766 632.932 624.455C632.932 624.144 632.799 623.833 632.577 623.611Z" fill="#C2C2C2"/>
<path d="M647.237 623.255C645.682 623.255 645.682 625.654 647.237 625.654C648.792 625.654 648.792 623.255 647.237 623.255Z" fill="#C2C2C2"/>
<path d="M402.653 318.413C403.784 315.3 405.052 311.581 408.182 309.969C410.915 308.548 414.317 308.321 417.339 308.314C425.25 308.255 433.473 309.716 441.264 310.937C445.278 311.567 449.255 312.336 453.181 313.388C456.507 314.279 459.908 315.166 462.454 317.58C464.983 319.966 464.995 322.321 464.28 325.545C463.4 329.567 462.128 333.483 460.631 337.315C458.164 343.658 455.689 351.881 448.764 354.629C442.254 357.217 435.481 353.397 429.245 351.726C425.435 350.705 421.569 349.892 417.676 349.27C415.305 348.882 412.703 348.432 410.332 349.059C408.415 349.56 407.008 350.842 405.908 352.453C404.112 355.09 402.713 357.909 400.808 360.492C399.864 361.799 399.302 363.158 397.676 362.203C396.304 361.414 394.63 359.901 394.448 358.268C393.984 354.184 395.274 349.183 396.043 345.206C397.735 336.303 399.551 326.938 402.653 318.413ZM400.533 356.161C400.825 357.749 401.539 356.01 401.749 355.596C402.337 354.417 403.104 353.31 403.755 352.173C405.309 349.421 406.825 347.921 410.018 347.366C416.614 346.213 423.004 348.692 429.333 350.289C434.41 351.575 439.96 353.954 445.285 353.202C450.047 352.523 453.158 349.223 455.315 345.147C456.866 342.221 458.17 339.204 459.301 336.092C460.432 332.979 461.807 329.511 462.152 326.188C462.821 319.535 455.224 318.514 450.264 317.161C443.626 315.332 436.738 314.526 429.96 313.403C425.026 312.601 416.04 310.02 411.972 314.301C409.492 316.904 408.155 321.62 407.257 324.968C406.281 328.519 405.421 332.1 404.583 335.687C403.678 339.529 402.801 343.353 402.081 347.244C401.761 348.99 401.505 350.778 401.139 352.512C400.876 353.679 400.309 354.963 400.533 356.161Z" fill="#C2C2C2"/>
<path d="M439.526 339.036C439.482 339.197 439.508 339.378 439.593 339.524C439.633 339.559 439.667 339.618 439.683 339.647C439.763 339.718 439.866 339.795 439.982 339.826C440.005 339.832 440.028 339.839 440.051 339.845C440.121 339.863 440.19 339.882 440.265 339.877C440.41 339.891 440.527 339.824 440.661 339.786C440.778 339.718 440.879 339.621 440.933 339.512C440.974 339.449 440.993 339.379 441.011 339.31C441.018 339.287 441.024 339.264 441.03 339.241C441.055 339.148 441.05 339.073 441.046 338.997C441.041 338.922 441.013 338.84 440.963 338.752C440.878 338.606 440.735 338.493 440.573 338.45C440.412 338.407 440.232 338.433 440.085 338.517C440.05 338.557 439.997 338.568 439.962 338.608C439.909 338.619 439.851 338.653 439.822 338.67C439.688 338.708 439.569 338.874 439.526 339.036Z" fill="#C2C2C2"/>
<path d="M433.304 338.235C434.113 338.452 434.447 337.205 433.639 336.988C432.853 336.778 432.519 338.025 433.304 338.235Z" fill="#C2C2C2"/>
<path d="M425.343 336.547C426.151 336.764 426.486 335.517 425.677 335.3C424.869 335.083 424.535 336.33 425.343 336.547Z" fill="#C2C2C2"/>
<path d="M416.941 334.741C417.749 334.958 418.083 333.711 417.275 333.494C416.49 333.284 416.156 334.531 416.941 334.741Z" fill="#C2C2C2"/>
<path d="M442.429 330.705C443.237 330.921 443.572 329.674 442.763 329.457C441.955 329.241 441.621 330.488 442.429 330.705Z" fill="#C2C2C2"/>
<path d="M434.768 329.543C435.577 329.76 435.911 328.513 435.103 328.296C434.294 328.08 433.96 329.327 434.768 329.543Z" fill="#C2C2C2"/>
<path d="M426.24 327.283C426.325 327.429 426.468 327.542 426.629 327.585L426.837 327.641C426.999 327.684 427.179 327.658 427.326 327.574C427.472 327.489 427.585 327.346 427.628 327.184C427.671 327.023 427.645 326.842 427.561 326.696C427.476 326.55 427.333 326.437 427.171 326.394L426.964 326.338C426.802 326.295 426.622 326.321 426.475 326.405C426.329 326.49 426.216 326.633 426.173 326.794C426.13 326.956 426.156 327.136 426.24 327.283Z" fill="#C2C2C2"/>
<path d="M418.57 325.426C419.378 325.642 419.712 324.395 418.904 324.179C418.096 323.962 417.761 325.209 418.57 325.426Z" fill="#C2C2C2"/>
<path d="M247.237 63.8044C244.665 62.597 242.228 61.0542 239.791 59.5784C229.706 53.474 219.282 47.9734 208.587 43.0765C203.781 40.8628 198.976 38.8503 194.305 36.4354C192.41 35.4963 189.499 34.3559 188.349 32.4776C187.604 31.2031 188.213 30.264 188.687 29.1236C189.499 27.1782 190.515 25.2999 191.462 23.4888C193.154 20.1347 195.794 19.0614 199.111 20.8726C203.375 23.1534 207.64 25.4341 211.972 27.6478C220.568 32.1422 229.097 36.6366 237.693 41.064C241.483 43.0764 245.274 45.0888 249.064 47.0342C252.652 48.9124 256.172 51.1932 259.827 53.0044C263.888 54.9497 261.384 57.8343 259.353 60.5175C258.338 61.9262 256.984 64.8107 255.427 65.6157C253.261 66.8231 249.606 64.8778 247.643 64.0057C247.575 63.9386 247.44 63.8715 247.237 63.8044ZM192.342 31.3372C192.342 31.4043 205.271 37.777 206.218 38.2466C211.43 40.7286 216.642 43.2106 221.854 45.8268C227.404 48.5771 232.887 51.3945 238.37 54.279C241.077 55.7547 243.853 57.1634 246.56 58.6392C248.997 59.9808 251.569 61.9262 254.344 62.53C255.359 60.7188 256.375 58.9075 257.187 57.0293C257.255 56.828 257.39 56.6268 257.322 56.4255C257.255 56.1572 257.052 55.956 256.781 55.8219C255.359 54.8827 253.938 53.9436 252.517 53.1386C247.643 50.3883 242.566 48.0405 237.625 45.4243C224.088 38.3808 210.753 30.8006 196.945 24.3608C196.674 24.2267 196.403 24.0925 196.133 24.1596C195.93 24.1596 195.727 24.2937 195.524 24.4279C194.847 24.9646 194.508 25.8366 194.17 26.6416C193.561 28.1174 193.222 29.9956 192.342 31.3372Z" fill="#C2C2C2"/>
<path d="M545.618 72.4156C543.48 75.8692 541.288 79.3227 539.259 82.8311C537.67 85.6816 534.271 84.8045 531.914 83.5985C531.037 83.16 530.16 82.7214 529.283 82.2281C527.912 81.5154 526.377 80.6383 526.048 79.1582C525.719 77.8974 526.432 76.5818 527.035 75.4306C531.64 67.2079 536.902 59.2592 541.726 51.1461C543.097 48.789 545.18 49.2275 547.263 50.3787C548.414 50.9817 549.51 51.6395 550.662 52.2425C551.374 52.6262 552.142 53.0648 552.58 53.7774C553.128 54.7093 553.074 55.8605 552.8 56.9021C552.361 58.6014 552.032 60.4104 551.319 61.9453C549.73 65.5633 547.701 69.0169 545.618 72.4156ZM543.974 63.1513C544.906 62.5483 546.112 62.5483 547.044 61.8905C548.304 61.0682 549.456 59.9719 550.333 58.7659C550.442 58.6014 550.552 58.3821 550.497 58.1629C550.388 57.7243 549.73 57.8339 549.346 58.0532C547.921 58.7659 546.55 59.643 545.125 60.3556C544.467 60.6845 543.426 60.9586 542.987 61.5616C542.658 62.0001 542.877 62.6031 542.329 63.1513C541.452 63.9736 540.137 63.9736 538.985 64.3025C537.505 64.7411 536.299 65.6181 534.984 66.4404C534.6 66.6597 534.216 66.9338 533.997 67.3723C533.778 67.8109 533.942 68.3591 534.381 68.5235C534.655 68.6332 534.929 68.5235 535.203 68.4139C538.328 67.1531 541.123 64.9055 543.974 63.1513ZM549.73 55.0931C549.785 54.9834 549.839 54.9286 549.785 54.819C549.73 54.7093 549.62 54.5997 549.51 54.5449C547.592 53.2292 545.344 52.0781 543.371 53.7226C541.781 55.0931 541.123 57.2858 540.082 59.0399C539.588 59.9719 539.917 60.5749 540.904 60.3008C541.452 60.1363 542.549 58.9303 543.097 58.6014C545.125 57.4502 547.208 56.4635 549.291 55.422C549.456 55.3123 549.62 55.2027 549.73 55.0931ZM539.205 74.3342C537.122 74.9921 535.093 75.8143 533.01 76.6366C532.078 77.0203 529.611 77.4589 529.008 78.2263C527.254 80.3642 533.997 78.7745 534.6 78.5553C537.122 77.5685 541.397 76.0336 542.713 73.512C541.507 73.6764 540.356 74.0053 539.205 74.3342ZM544.851 68.1946C545.235 67.8657 545.618 67.5916 546.002 67.2627C546.276 66.9886 546.605 66.4952 546.331 66.2211C546.221 66.1115 546.057 66.0567 545.892 66.0567C544.577 65.9471 544.138 66.7145 543.206 67.3723C542.11 68.1398 540.794 68.688 539.588 69.291C538.602 69.7843 537.45 70.7162 536.519 70.5518C534.381 70.1132 532.462 71.1548 531.092 72.6897C530.872 72.9638 530.708 73.1831 530.653 73.512C533.229 73.7312 536.738 72.3608 539.095 71.4289C541.014 70.6614 543.097 69.5102 544.851 68.1946ZM536.902 81.5154C537.889 81.022 538.711 80.145 539.04 78.9938C537.341 78.8293 536.573 79.6516 535.258 80.4191C534.381 80.9124 532.955 80.8576 532.188 81.5154C531.969 81.6799 535.203 82.0088 535.587 81.954C536.025 81.8992 536.464 81.7347 536.902 81.5154Z" fill="#C2C2C2"/>
<path d="M516.948 53.8323C517.057 53.6678 517.167 53.4486 517.331 53.2841C519.689 49.8854 521.662 46.2126 524.184 42.9235C525.17 41.6079 527.418 40.0729 528.734 40.347C531.694 40.95 535.202 41.4982 536.518 44.8421C536.956 45.9933 536.189 47.8571 535.476 49.1179C531.584 56.2443 527.528 63.3159 523.471 70.3874C522.265 72.5253 520.511 74.9373 517.66 74.4988C516.4 74.2795 515.194 73.6217 514.152 72.9091C512.233 71.6483 509.876 70.8808 509.602 68.3043C509.438 66.5501 510.15 64.6863 510.973 63.2062C512.672 60.0816 514.919 56.8473 516.948 53.8323ZM529.282 53.339C527.418 53.8323 525.17 55.5317 523.855 56.354C522.539 57.1762 521.224 58.0533 519.743 58.5467C518.373 59.0401 516.619 58.6563 515.632 59.8075C514.262 61.3424 513.11 63.0418 512.233 64.8508C511.904 65.5086 511.576 66.2761 511.904 66.9339C512.453 68.1399 514.645 67.8658 515.632 67.4821C517.167 66.8791 518.592 66.1664 520.072 65.399C520.895 65.0152 523.087 64.3574 523.636 63.6996C524.348 62.7677 523.745 61.9454 522.758 62.0002C522.101 62.055 521.388 62.7129 520.785 63.0418C519.14 63.8092 517.825 64.7412 516.235 63.3159C516.125 63.2611 516.071 63.1514 516.016 63.0418C515.961 62.8773 516.016 62.7677 516.125 62.6581C517.112 60.7394 520.018 59.9719 521.936 59.3141C523.636 58.7111 524.951 57.7244 526.486 56.7377C528.076 55.6961 529.83 55.0383 530.707 53.2293C530.269 53.1745 529.83 53.2293 529.282 53.339ZM518.537 54.545C518.154 54.8739 517.825 55.2576 517.66 55.6961C518.921 56.4088 520.895 54.6546 521.936 54.1064C523.964 53.0648 525.938 52.0781 527.966 50.9818C529.391 50.2143 531.091 49.5565 532.406 48.6246C532.681 48.4053 534.654 46.4319 533.777 46.0481C532.078 45.3903 531.091 46.8704 529.83 47.8571C528.24 49.0631 526.651 50.2691 525.061 51.4203C524.129 52.0781 522.923 52.3522 521.827 52.9004C520.84 53.3938 519.469 53.8323 518.537 54.545ZM523.636 48.6794C524.732 50.0499 530.104 44.7325 530.762 43.7458C529.008 42.8687 526.87 43.0879 525.39 44.4584C524.732 45.171 522.813 47.6927 523.636 48.6794ZM516.345 69.2362C516.125 69.3459 515.906 69.4007 515.851 69.5103C515.742 69.62 515.851 69.7844 515.906 69.8392C516.783 70.9356 518.373 71.1001 519.743 71.1549C519.963 71.1549 520.127 71.1549 520.346 71.0452C520.511 70.9356 520.621 70.7163 520.73 70.5519C521.169 69.6748 521.607 68.7429 522.046 67.8658C522.101 67.7562 519.25 68.414 518.976 68.5236C518.592 68.6881 517.167 68.9622 516.345 69.2362Z" fill="#C2C2C2"/>
<path d="M549.797 397.888C553.278 394.414 556.744 390.876 560.319 387.516C563.241 384.854 561.268 381.09 559.195 378.644C558.436 377.731 557.677 376.819 556.853 375.921C555.635 374.502 554.177 372.935 552.341 372.956C550.764 372.916 549.41 374.12 548.219 375.149C539.798 382.848 531.881 391.247 523.649 399.174C521.248 401.441 522.341 403.775 524.273 405.913C525.302 407.103 526.38 408.214 527.409 409.405C528.058 410.139 528.787 410.922 529.748 411.243C530.998 411.631 532.34 411.249 533.492 410.638C535.374 409.652 537.416 408.765 539.029 407.501C542.855 404.627 546.366 401.283 549.797 397.888ZM538.422 398.508C537.968 399.773 538.301 401.195 537.783 402.475C537.162 404.189 536.187 405.848 535.008 407.215C534.844 407.39 534.616 407.58 534.343 407.576C533.795 407.568 533.743 406.762 533.895 406.249C534.342 404.372 534.997 402.514 535.444 400.637C535.65 399.771 535.685 398.467 536.275 397.784C536.701 397.275 537.473 397.367 537.968 396.569C538.695 395.308 538.331 393.757 538.401 392.309C538.509 390.444 539.21 388.78 539.816 387.002C539.969 386.489 540.186 385.961 540.642 385.581C541.099 385.201 541.79 385.244 542.105 385.715C542.31 386.008 542.257 386.362 542.203 386.715C541.58 390.747 539.702 394.663 538.422 398.508ZM530.512 407.519C530.398 407.614 530.348 407.694 530.204 407.659C530.059 407.625 529.9 407.526 529.805 407.412C527.724 405.513 525.746 403.182 527.14 400.401C528.317 398.149 530.72 396.768 532.5 395.055C533.462 394.216 534.264 394.438 534.214 395.676C534.171 396.368 533.052 397.994 532.816 398.731C532.019 401.44 531.431 404.168 530.778 406.911C530.695 407.135 530.611 407.359 530.512 407.519ZM550.288 389.798C550.488 387.16 550.897 384.542 551.291 381.859C551.486 380.655 551.322 377.626 552.06 376.703C554.096 374.045 554.084 382.432 553.992 383.204C553.525 386.449 552.897 391.913 550.287 394.16C550.148 392.693 550.218 391.245 550.288 389.798ZM544.609 398.149C544.327 398.692 544.11 399.221 543.829 399.764C543.581 400.163 543.09 400.686 542.692 400.439C542.532 400.34 542.422 400.161 542.377 399.968C541.884 398.447 542.668 397.718 543.186 396.438C543.788 394.933 544.071 393.231 544.448 391.643C544.757 390.343 545.538 388.729 545.087 387.676C543.979 385.276 544.677 382.727 546.108 380.688C546.371 380.353 546.584 380.099 546.957 379.943C547.927 382.92 547.28 387.435 546.832 390.471C546.458 392.944 545.676 395.718 544.609 398.149ZM558.117 385.1C557.808 386.4 557.001 387.611 555.735 388.317C555.072 386.359 555.829 385.227 556.371 383.464C556.71 382.294 556.252 380.629 556.815 379.543C556.949 379.239 558.23 382.961 558.271 383.428C558.328 383.96 558.255 384.523 558.117 385.1Z" fill="#C2C2C2"/>
<path d="M519.97 369.222C519.807 369.397 519.579 369.587 519.43 369.826C516.074 373.543 512.29 376.884 509.109 380.765C507.83 382.291 506.642 385.365 507.328 386.84C508.856 390.163 510.471 394.148 514.777 394.775C516.255 394.974 518.24 393.555 519.53 392.366C526.856 385.81 534.072 379.075 541.288 372.34C543.475 370.328 545.834 367.594 544.53 364.355C543.923 362.929 542.815 361.689 541.687 360.658C539.671 358.744 538.115 356.177 535.002 356.566C532.889 356.856 530.888 358.211 529.371 359.589C526.156 362.456 522.964 365.998 519.97 369.222ZM522.795 383.898C522.862 381.565 524.244 378.446 524.85 376.668C525.457 374.89 526.127 373.097 526.3 371.216C526.503 369.464 525.566 367.502 526.651 366.021C528.082 363.981 529.767 362.155 531.658 360.622C532.342 360.052 533.156 359.452 534.022 359.659C535.595 359.972 535.878 362.632 535.698 363.901C535.411 365.877 534.965 367.754 534.469 369.711C534.243 370.787 534.073 373.553 533.449 374.381C532.548 375.478 531.412 374.995 531.204 373.816C531.087 373.026 531.665 372.004 531.887 371.202C532.337 369.052 533.072 367.243 530.953 365.763C530.858 365.649 530.714 365.614 530.57 365.58C530.361 365.561 530.246 365.656 530.148 365.815C528.158 367.508 528.056 371.145 527.81 373.589C527.569 375.759 526.769 377.582 526.03 379.664C525.241 381.826 524.95 384.075 523.059 385.609C522.874 385.107 522.817 384.575 522.795 383.898ZM521.249 370.899C521.531 370.356 521.893 369.862 522.364 369.547C523.553 370.837 522.03 373.648 521.671 375.027C521.003 377.706 520.385 380.305 519.653 382.998C519.142 384.891 518.836 387.076 518.1 388.884C517.918 389.268 516.136 392.139 515.442 391.211C514.197 389.389 515.669 387.817 516.484 386.059C517.467 383.851 518.449 381.644 519.368 379.452C519.886 378.172 519.876 376.675 520.219 375.231C520.528 373.931 520.667 372.195 521.249 370.899ZM515.743 378.529C517.661 379.443 512.876 387.245 511.895 388.293C510.376 386.467 510.044 383.886 511.251 381.763C511.91 380.79 514.352 377.832 515.743 378.529ZM537.963 364.257C538.031 363.968 538.036 363.695 538.15 363.6C538.249 363.44 538.473 363.524 538.553 363.574C540.087 364.305 540.72 366.133 541.163 367.734C541.224 367.992 541.269 368.186 541.2 368.475C541.117 368.699 540.888 368.889 540.725 369.064C539.812 369.823 538.835 370.597 537.922 371.356C537.808 371.451 537.796 367.909 537.849 367.556C537.937 367.058 537.867 365.302 537.963 364.257Z" fill="#C2C2C2"/>
<path d="M185.703 141.864C188.818 137.682 191.762 133.499 195.731 130C200.127 126.116 204.992 122.745 209.729 119.288C211.564 117.965 213.613 116.088 216.002 116.002C218.52 115.917 220.27 118.307 221.849 119.928C225.604 123.769 229.616 127.482 232.689 131.878C228.549 132.56 224.367 132.945 220.483 134.566C216.045 136.401 212.29 139.687 208.491 142.547C204.096 145.833 199.743 149.119 195.39 152.49C194.622 153.088 192.531 154.197 192.744 155.392C192.915 156.544 195.475 157.697 196.243 158.337C197.225 159.105 200.34 161.025 200.17 162.562C199.956 164.738 196.414 163.842 195.134 163.885C190.397 164.013 185.446 165.634 180.923 166.957C179.088 167.512 177.637 168.408 175.93 169.134C173.796 170.03 172.26 168.963 170.894 167.256C169.4 165.421 170.126 163.842 170.595 161.665C171.193 158.934 171.747 156.16 172.345 153.429C173.583 147.668 174.82 142.12 177.253 136.743C177.935 135.206 178.448 134.182 180.027 135.42C182.246 137.084 183.953 139.815 185.703 141.864ZM228.378 130.64C226.799 127.397 223.684 124.58 221.337 121.849C218.563 118.648 215.618 119.886 212.588 122.02C205.547 127.013 199.145 132.304 193.512 138.876C191.805 140.84 190.311 142.888 188.861 145.064C188.306 145.875 186.556 149.417 185.404 149.46C184.593 149.503 182.246 145.875 181.776 145.278C181.222 144.552 180.496 142.376 179.685 141.992C177.893 141.181 176.698 147.454 176.442 148.479C175.076 154.368 175.247 160.556 174.564 166.573C175.93 166.744 177.594 166.018 178.917 165.677C180.667 165.25 182.416 164.823 184.209 164.439C187.666 163.671 191.122 162.946 194.536 162.135C198.078 161.324 193.256 159.233 191.848 158.465C188.989 156.928 187.751 156.032 190.696 153.685C196.841 148.777 203.072 143.912 209.388 139.261C211.991 137.34 214.637 135.462 217.496 134.011C220.995 132.219 224.623 131.536 228.378 130.64Z" fill="#C2C2C2"/>
<path d="M78.4257 88.158C79.712 86.4039 83.8633 87.3979 86.5528 87.2225C93.1597 86.8132 99.7666 85.8777 106.315 85.3515C109.94 85.0592 113.565 84.8253 117.132 85.1761C120.172 85.4685 120.815 87.2809 119.12 89.2104C113.331 95.7588 107.484 102.249 101.579 108.68C99.8836 110.493 97.8956 112.013 96.0247 113.709C94.6799 114.878 92.9843 115.872 91.2303 115.521C89.1839 115.053 88.0145 112.949 87.1375 111.078C84.1556 104.646 80.2383 98.0976 78.2503 91.2568C77.8411 89.7366 77.958 88.7427 78.4257 88.158ZM93.2182 90.3798C93.1013 89.9705 92.8089 89.7951 92.1658 90.2629C90.8795 91.2568 91.2887 94.6479 91.1718 96.0512C90.9964 98.5068 90.821 101.021 90.7041 103.535C90.6456 105.348 90.9379 107.452 91.5811 109.148C91.7565 109.733 92.0488 110.317 92.5751 110.61C93.2182 111.019 94.0952 110.844 94.7968 110.493C99.065 108.271 97.3694 102.834 97.6033 99.0915C97.7202 97.4544 99.3573 91.4322 98.071 90.5552C95.9077 89.0935 96.2001 93.0693 96.2001 94.0048C96.1416 95.7004 96.0831 97.4544 95.9077 99.15C95.7908 100.261 95.5569 105.874 93.4521 105.406C92.0488 105.055 92.9258 98.156 92.9843 96.9282C93.0428 95.408 93.1597 93.8294 93.2182 92.3092C93.2767 91.9584 93.3936 90.906 93.2182 90.3798ZM104.386 89.0935C104.327 88.9181 104.269 88.8596 104.152 88.8011C103.859 88.6257 103.45 88.6257 103.099 88.8011C102.164 89.152 101.638 90.2044 101.345 91.1399C100.644 93.2447 99.942 95.4081 99.7081 97.5714C99.4158 99.9686 99.6497 102.775 100.527 105.055C101.053 105.231 101.521 104.588 101.755 104.061C102.807 101.43 103.567 99.0331 103.859 96.1681C103.976 95.0572 104.853 90.4383 104.386 89.0935ZM115.085 87.8656C114.208 87.6318 112.863 87.6902 112.863 87.6902C111.226 87.7487 109.531 87.8072 107.894 87.9241C107.543 87.9241 106.958 88.5088 106.9 88.8596C106.724 90.3798 106.607 91.9584 106.432 93.4786C106.315 94.5895 105.789 96.285 106.023 97.3959C106.081 97.7468 106.374 98.156 106.724 98.2145C106.958 98.273 107.251 98.1561 107.426 98.0391C108.069 97.6883 108.478 96.9867 108.829 96.3435C109.472 95.1742 110.057 94.1802 110.291 92.8939C110.525 91.3153 110.349 90.8475 111.753 90.3213C113.156 89.7951 114.559 89.9705 115.67 88.6842C116.079 88.2165 115.67 87.9826 115.085 87.8656ZM88.0145 90.8475C87.8976 90.7306 87.7222 90.6137 87.6053 90.5552C84.331 89.3858 86.319 102.307 86.4359 103.769C86.4944 104.237 86.7282 104.88 87.196 104.763C87.5468 104.704 87.6637 104.295 87.7222 104.003C88.2484 101.723 88.4238 99.2085 88.6577 96.8698C88.8331 95.2326 89.3593 92.1338 88.0145 90.8475ZM82.3431 92.777C82.3431 93.3617 82.3431 94.0048 82.4016 94.5895C82.46 94.9403 82.577 95.1742 82.8693 95.2911C83.5125 94.7064 83.8633 91.8415 83.2201 91.1399C82.1677 90.029 82.3431 92.1338 82.3431 92.777Z" fill="#C2C2C2"/>
<path d="M463.929 506.94C460.684 506.351 459.284 500.032 457.26 496.481C452.316 487.746 446.656 479.36 441.592 470.781C438.787 466.033 436.062 461.247 434.174 456.152C432.554 451.813 434.598 449.733 438.354 450.764C451.123 454.309 463.852 457.972 476.54 461.754C480.136 462.862 483.528 464.564 487.081 465.989C489.568 467.046 492.048 468.698 492.734 471.322C493.455 474.422 491.362 477.414 489.393 479.851C482.604 488.185 476.277 497.872 468.27 505.122C466.469 506.689 465.037 507.19 463.929 506.94ZM457.14 485.299C456.659 485.73 456.614 486.245 457.679 486.811C459.888 487.905 464.239 485.096 466.23 484.324C469.694 482.934 473.238 481.504 476.743 479.995C479.253 478.872 481.929 477.076 483.813 475.074C484.494 474.446 485.097 473.66 485.146 472.748C485.277 471.6 484.456 470.521 483.512 469.797C477.65 465.453 471.363 471.374 466.106 473.538C463.797 474.466 454.5 476.231 454.158 478.567C453.601 482.486 458.827 479.449 460.103 478.828C462.453 477.782 464.883 476.698 467.311 475.811C468.903 475.233 476.711 471.827 477.47 475.007C477.923 477.153 467.935 480.536 466.223 481.271C464.111 482.201 461.882 483.089 459.77 484.018C459.253 484.171 457.741 484.711 457.14 485.299ZM447.974 470.928C447.774 471.124 447.733 471.243 447.731 471.441C447.686 471.956 447.957 472.514 448.429 472.876C449.528 473.918 451.312 473.937 452.782 473.715C456.117 473.274 459.532 472.795 462.637 471.678C466.099 470.485 469.769 468.304 472.296 465.595C472.186 464.761 470.999 464.55 470.126 464.58C465.841 464.892 462.068 465.447 457.968 466.95C456.376 467.528 449.497 469.398 447.974 470.928ZM439.198 457.156C439.462 458.507 440.434 460.302 440.434 460.302C441.6 462.495 442.805 464.768 444.051 466.922C444.284 467.4 445.469 467.809 445.986 467.656C448.175 466.886 450.405 465.998 452.594 465.228C454.186 464.65 456.847 464.242 458.206 463.186C458.646 462.873 459.01 462.203 458.856 461.686C458.781 461.328 458.427 461.007 458.152 460.846C457.246 460.202 456.018 460.11 454.909 460.058C452.888 459.958 451.144 459.82 449.236 460.355C446.928 461.084 446.407 461.634 444.758 460.07C443.109 458.506 442.417 456.477 439.926 455.816C439.017 455.568 438.97 456.282 439.198 457.156ZM461.231 492.083C461.15 492.32 461.107 492.636 461.104 492.835C461.684 498.075 477.98 486.788 479.895 485.658C480.494 485.268 481.215 484.522 480.746 483.962C480.433 483.523 479.797 483.635 479.36 483.75C475.902 484.546 472.358 485.975 469.015 487.209C466.666 488.056 462.092 489.396 461.231 492.083ZM467.626 498.534C468.423 498.146 469.3 497.719 470.058 497.251C470.498 496.939 470.739 496.624 470.704 496.148C469.48 495.659 465.342 497.082 464.812 498.425C463.996 500.597 466.749 498.961 467.626 498.534Z" fill="#C2C2C2"/>
<path d="M431.171 221.597C429.674 224.525 427.852 227.259 425.769 229.732C424.533 231.163 423.296 232.66 421.865 233.962C418.871 236.76 394.597 250.491 393.491 243.528C392.905 240.014 392.059 236.565 391.213 233.116C390.758 231.424 390.563 229.341 392.775 229.732C402.081 231.554 408.003 226.152 414.12 220.556C419.587 215.545 421.149 209.167 421.149 202.269C421.149 195.761 416.658 190.816 410.346 189.319C405.986 188.278 405.595 187.171 408.459 183.917C410.021 182.16 411.192 180.013 412.819 178.321C413.86 177.28 416.138 176.043 417.635 176.238C418.676 176.368 419.587 176.889 420.498 177.41C425.574 180.533 429.674 185.154 432.277 190.49C433.383 192.638 434.75 194.785 435.14 197.193C436.637 205.393 435.01 214.113 431.171 221.597ZM397.2 241.706C399.283 243.137 405.205 239.949 407.157 239.103C412.233 236.89 417.309 234.677 421.084 230.578C431.171 219.775 438.199 201.553 427.852 188.473C427.006 187.432 426.16 186.39 425.249 185.349C423.361 183.332 421.214 181.64 418.806 180.273C416.333 178.906 415.682 179.883 414.251 182.03C413.99 182.421 411.843 186.13 411.713 186.13C412.949 186.325 413.99 187.041 415.097 187.562C418.676 189.254 421.734 191.336 423.166 195.241C425.964 202.985 424.988 210.794 420.823 217.302C415.552 225.502 408.394 232.139 397.851 233.506C397.005 233.636 396.224 234.027 395.313 234.352C395.769 236.369 395.704 238.517 396.289 240.469C396.615 241.12 396.875 241.511 397.2 241.706Z" fill="#C2C2C2"/>
<path d="M344.88 190.425C347.092 184.503 351.387 179.037 355.878 174.677C359.001 171.683 362.711 169.275 366.68 167.583C370.715 165.891 374.88 164.134 379.305 164.004C383.21 163.874 385.032 166.997 385.488 170.577C385.618 171.488 385.878 172.334 386.073 173.18C386.724 175.718 385.618 177.215 383.015 177.475C365.834 179.427 358.741 187.627 357.049 202.79C356.008 212.031 359.977 219.189 366.745 224.981C369.934 227.714 369.804 229.276 366.03 231.033C365.249 231.424 364.403 231.814 363.622 232.27C361.734 233.376 359.587 234.417 357.374 234.612C354.836 234.873 353.795 233.897 352.428 231.814C348.524 225.632 344.164 218.929 342.667 211.705C341.235 204.677 342.211 197.323 344.619 190.62C344.814 190.62 344.814 190.49 344.88 190.425ZM363.882 227.519C358.35 222.313 354.576 215.545 353.795 207.931C353.014 199.861 355.031 190.1 360.628 184.048C364.012 180.403 368.502 177.865 373.188 176.304C374.099 175.978 382.95 172.789 383.275 173.896C382.689 171.878 382.494 169.731 381.258 167.974C380.412 166.737 380.086 166.802 378.589 166.997C376.312 167.323 374.164 167.974 372.082 169.015C369.739 170.251 367.266 170.707 364.988 172.269C359.587 175.783 353.665 179.622 350.867 185.544C349.435 188.668 347.743 191.662 346.637 194.916C344.945 199.796 344.945 205.393 346.116 210.404C347.352 215.675 350.541 220.686 352.884 225.502C355.552 231.033 358.611 231.619 363.882 227.519Z" fill="#C2C2C2"/>
<path d="M71.5002 209.178C70.2825 206.054 66.4176 207.113 63.6645 207.431C59.5349 207.96 55.4582 208.489 51.3285 208.966C49.2637 209.231 48.4166 210.184 49.4225 212.037C50.6403 214.366 52.0698 216.537 53.4992 218.761C55.9876 222.731 58.476 226.702 61.0173 230.62C65.6235 237.715 70.759 244.438 75.3122 251.586C77.5888 255.08 79.283 259.051 81.6126 262.492C83.2009 264.875 84.9481 267.151 86.6952 269.481C87.5423 270.593 89.3424 274.722 91.1955 273.346C92.6779 272.234 90.7719 269.428 90.4542 268.105C89.8718 265.987 89.2894 263.869 88.6541 261.751C87.4893 257.727 86.3246 253.704 85.1069 249.627C83.4127 244.015 81.7185 238.403 79.8125 232.897C78.4359 228.873 76.9005 224.849 75.4181 220.825C74.0415 217.066 72.7709 213.36 71.6591 209.548C71.6061 209.442 71.5532 209.337 71.5002 209.178ZM85.2127 259.686L85.1598 259.739C83.7833 258.839 82.9362 256.086 82.142 254.657C81.0831 252.698 80.0243 250.792 79.0183 248.833C76.9006 244.968 74.8357 241.05 72.718 237.185C70.6002 233.267 68.5354 229.402 66.4176 225.484C65.7823 224.373 60.8055 213.678 60.1173 213.784C62.7115 213.413 65.5175 212.937 68.2706 212.672C68.9589 212.619 70.0707 213.201 70.3355 213.784C71.6591 216.431 72.8768 219.078 73.8298 221.831C76.9535 230.938 80.0242 240.044 82.9362 249.15C83.5715 251.109 84.048 253.174 84.5245 255.186C84.8951 256.298 86.1128 258.733 85.2127 259.686Z" fill="#C2C2C2"/>
<path d="M94.3174 285.788C93.4174 286.317 92.5702 286.9 91.829 287.641C89.976 289.494 90.1348 291.771 90.4525 294.206C90.6113 295.265 90.7701 296.377 91.1408 297.383C92.1467 300.083 94.1586 300.612 96.7528 301.089C101.888 301.989 106.177 299.395 107.659 294.471C109.089 289.653 104.165 283.564 99.1353 284.306C98.5 284.411 97.8117 284.517 97.1764 284.676C96.1705 284.888 95.2175 285.259 94.3174 285.788ZM97.547 293.2C97.4411 292.83 97.3352 292.512 97.2823 292.141C96.7528 286.847 104.112 286.688 104.536 291.877C104.694 293.624 104.8 295.847 102.63 296.165C101.147 296.377 99.5589 295.847 98.5 294.789C98.0764 294.259 97.7588 293.73 97.547 293.2Z" fill="#C2C2C2"/>
<path d="M219.097 510.588C215.789 511.922 213.791 508.156 212.029 505.792C209.427 502.206 206.864 498.662 204.222 495.116C202.921 493.323 203.042 491.972 205.211 491.4C207.904 490.644 210.628 490.168 213.393 489.654C218.283 488.686 223.174 487.718 228.063 486.829C236.918 485.224 245.872 484.299 254.729 482.613C259.097 481.829 263.408 480.245 267.773 479.54C270.777 479.033 273.815 478.726 276.894 478.381C278.373 478.226 282.885 476.609 283.17 479.049C283.389 481.008 279.826 481.578 278.569 482.297C276.503 483.39 274.438 484.483 272.334 485.536C268.368 487.568 264.401 489.6 260.355 491.63C254.772 494.41 249.189 497.19 243.533 499.729C239.412 501.597 235.175 503.342 230.977 505.128C227.061 506.803 223.264 508.522 219.5 510.44C219.379 510.477 219.258 510.513 219.097 510.588ZM268.225 484.376L268.227 484.296C266.526 483.886 263.776 485.237 262.089 485.665C259.799 486.273 257.551 486.843 255.299 487.492C250.761 488.67 246.22 489.928 241.681 491.106C237.102 492.322 232.602 493.541 228.023 494.758C226.698 495.077 214.784 499.021 214.364 498.41C215.969 500.69 217.646 503.212 219.448 505.537C219.909 506.109 221.171 506.546 221.816 506.326C224.832 505.421 227.77 504.434 230.598 503.164C239.931 498.943 249.225 494.681 258.403 490.296C260.384 489.359 262.331 488.222 264.237 487.124C265.368 486.601 268.143 485.768 268.225 484.376Z" fill="#C2C2C2"/>
<path d="M295.084 472.393C294.838 471.31 294.671 470.229 294.705 469.114C294.789 466.327 296.669 464.79 298.787 463.26C299.723 462.611 300.7 461.923 301.75 461.477C304.575 460.287 306.452 461.459 308.713 463.122C313.156 466.444 314.274 471.658 311.54 476.397C308.851 481.018 300.543 481.644 297.449 477.207C297.068 476.637 296.648 476.027 296.308 475.419C295.738 474.485 295.33 473.477 295.084 472.393ZM303.181 469.49C302.817 469.678 302.494 469.828 302.168 470.057C297.681 473.508 302.924 479.325 307.253 475.869C308.722 474.718 310.522 473.178 309.185 471.265C308.268 469.962 306.699 469.118 305.107 469.07C304.388 469.128 303.746 469.268 303.181 469.49Z" fill="#C2C2C2"/>
<path d="M441.748 661.195C447.294 664.266 452.216 666.999 457.138 669.732C459.011 670.746 460.014 672.506 458.513 674.4C450.87 683.511 438.736 689.724 428.345 695.105C426.773 695.954 425.278 697.433 423.542 697.851C421.274 698.389 420.514 696.619 419.842 694.65C417.817 688.499 415.106 682.28 412.594 676.15C411.007 672.223 408.801 668.615 406.695 665.051C405.983 663.839 403.985 661.636 404.281 660.038C404.593 658.269 406.434 658.554 407.954 658.219C412.716 657.303 417.554 657.017 422.38 657.561C423.408 657.662 424.392 657.862 425.355 657.576C427.351 656.977 428.115 652.726 428.842 650.963C432.952 641.886 436.936 632.692 441.77 623.997C447.014 614.65 452.601 605.337 459.53 597.159C466.414 589.081 475.319 579.817 486.306 578.578C492.394 577.896 496.688 590.187 497.765 594.723C498.49 597.908 499.918 600.99 501.174 604.055C502.082 606.428 500.569 609.152 497.633 609.451C489.482 610.346 483.205 615.058 476.592 619.322C469.198 624.132 462.621 629.783 456.845 636.448C450.443 643.847 446.322 652.681 441.748 661.195ZM496.958 601.876C494.755 596.122 493.276 590.752 490.486 586.048C489.217 583.813 487.134 579.663 482.68 582.028C473.295 587.023 465.683 594.061 459.395 602.406C450.465 614.401 442.91 627.189 437.454 641.152C435.267 646.854 432.511 652.362 430.866 658.187C429.932 661.348 428.727 661.645 425.913 661.403C420.583 661.052 415.231 661.288 409.354 661.229C413.971 671.995 418.103 681.71 422.566 692.287C422.081 691.236 448.393 675.966 450.525 673.996C450.116 673.575 449.691 673.326 449.194 673.104C445.05 670.897 440.835 668.718 436.941 666.086C433.854 664.052 435.776 661.75 436.963 658.821C438.239 655.694 439.643 652.683 441.217 649.688C446.99 638.49 454.436 628.218 463.406 619.341C472.348 610.392 484.597 605.125 496.958 601.876Z" fill="#C2C2C2"/>
<g opacity="0.1" filter="url(#filter0_f)">
<rect x="177" y="155" width="387" height="515" rx="32" fill="#333333"/>
</g>
<defs>
<filter id="filter0_f" x="125" y="103" width="491" height="619" filterUnits="userSpaceOnUse" color-interpolation-filters="sRGB">
<feFlood flood-opacity="0" result="BackgroundImageFix"/>
<feBlend mode="normal" in="SourceGraphic" in2="BackgroundImageFix" result="shape"/>
<feGaussianBlur stdDeviation="26" result="effect1_foregroundBlur"/>
</filter>
</defs>
</svg>
