<svg width="680" height="502" viewBox="0 0 680 502" fill="none" xmlns="http://www.w3.org/2000/svg">
<g opacity="0.1">
<path d="M80.149 64.0408C82.7442 61.8576 85.0511 59.9214 87.358 57.9853C88.223 57.2438 89.2941 57.079 89.9532 58.1913C93.0427 63.7525 93.8254 71.0026 94.5257 77.2229C94.6493 78.1704 95.1024 79.2003 94.9789 80.1477C94.8141 81.3835 93.7842 81.4247 92.672 81.3835C89.2117 81.2188 85.5866 81.3835 82.0439 81.4659C79.7782 81.5071 77.5538 81.9191 75.3705 82.2898C74.629 82.4134 73.146 82.9901 72.4045 82.537C71.5806 82.0426 72.075 81.1776 72.1985 80.3537C72.6517 77.7997 73.4344 75.328 74.629 73.0211C74.8762 72.5268 75.1645 72.0737 75.2057 71.5382C75.2881 70.4259 73.3108 69.2313 72.5693 68.531C68.8206 64.7411 64.9896 60.9925 61.5705 56.9143C57.9042 52.5065 54.3203 47.934 51.5603 42.9083C48.8415 37.8002 45.9167 31.5387 47.3997 25.8128C48.2236 22.6408 55.1854 22.8468 57.657 23.1763C59.3872 23.4235 61.1997 23.2999 62.9711 23.2587C64.3305 23.2587 65.4015 24.5357 64.9896 26.0599C63.8773 30.3029 65.0308 34.3399 65.8959 38.4593C66.8845 43.0731 68.4499 47.4396 70.6744 51.6002C73.146 56.3787 76.7711 60.1274 80.149 64.0408ZM61.0761 25.1125C57.7806 25.1125 54.8147 24.8241 51.9311 25.3184C50.5717 25.5244 48.1 25.7716 48.4296 28.4492C49.1299 34.0928 51.1896 39.242 54.1555 43.9793C58.4397 50.7352 63.383 56.9555 69.315 62.3519C71.7454 64.5352 73.9699 66.9656 76.5651 68.9017C77.9657 69.9728 77.8833 70.6319 77.2242 71.9913C76.0296 74.5865 75.1233 77.3053 73.9699 80.2301C80.2314 79.9829 85.875 79.777 92.0129 79.571C91.395 79.6122 88.7997 63.5465 88.223 62.1047C87.9347 62.2283 87.7287 62.3931 87.5227 62.5991C85.6278 64.2468 83.7329 65.9358 81.6732 67.3776C80.0666 68.531 79.2839 67.1304 78.0481 65.977C76.7299 64.7411 75.4941 63.4641 74.2994 62.1047C69.8093 57.079 66.1018 51.3943 63.383 45.2152C60.623 39.036 60.3347 31.9095 61.0761 25.1125Z" fill="#333333"/>
</g>
<g opacity="0.1">
<path d="M43.3017 431.135C41.593 420.592 47.2995 407.535 56.4236 401.86C67.2563 395.122 82.2481 395.831 93.3387 401.28C104.591 406.825 112.49 417.013 114.198 429.587C115.101 436.325 113.231 443.45 114.521 450.124C115.036 452.768 116.487 454.831 118.454 456.637C120.775 458.797 122.323 460.119 123.967 462.827C105.912 469.017 86.536 472.918 68.1913 465.471C53.7154 459.571 44.8815 446.545 43.3017 431.135ZM112.135 461.731C112.425 460.022 108.266 456.733 107.46 455.283C105.493 451.704 104.881 446.997 103.946 442.999C102.237 435.584 101.399 427.717 98.5617 420.624C93.3065 407.567 80.0235 398.249 65.7088 401.473C52.7159 404.375 44.817 416.917 45.4941 429.942C46.1389 442.193 53.6831 454.444 64.1935 460.699C71.2864 464.922 79.5076 466.535 87.6967 466.599C92.5327 466.631 97.2721 465.986 102.044 465.051C103.849 464.697 111.684 464.374 112.135 461.731Z" fill="#333333"/>
<path d="M84.6016 421.269C83.1508 422.816 81.4743 423.59 79.3787 422.945C77.6055 422.397 76.058 421.333 74.2847 420.882C73.382 420.656 72.4148 420.592 71.5121 420.818C70.3192 421.108 69.3842 421.849 68.417 422.526C67.8367 422.945 66.9984 423.59 66.4826 423.655C65.4831 423.784 64.3869 423.332 63.4197 423.139C60.5826 422.559 57.6165 423.139 56.617 426.202C56.2946 427.266 57.9389 427.717 58.2935 426.653C59.164 423.913 62.1624 424.622 64.3225 425.073C65.1607 425.267 66.0634 425.46 66.9339 425.299C67.7722 425.106 68.5137 424.557 69.223 424.042C70.1257 423.397 70.9962 422.623 72.1246 422.43C72.8984 422.268 73.6722 422.43 74.4459 422.687C76.1547 423.236 77.67 424.267 79.4432 424.686C81.9579 425.299 84.1503 424.267 85.8913 422.43C86.6005 421.688 85.3754 420.463 84.6016 421.269Z" fill="#333333"/>
<path d="M89.6955 429.458C89.1152 428.652 87.8256 429.297 88.0835 430.07C88.019 430.135 87.9223 430.264 87.8578 430.296C87.4387 430.619 86.9229 430.877 86.4393 431.07C85.3753 431.521 84.6661 431.521 83.6666 430.877C82.5382 430.167 81.6032 429.587 80.2169 429.458C79.0885 429.361 77.9923 429.619 76.9928 430.167C75.9934 430.683 75.1229 431.425 74.1235 431.876C73.1562 432.327 72.0923 432.489 71.0284 432.36C68.9972 432.102 67.1918 431.005 65.1929 430.619C62.4202 430.038 60.0989 431.134 58.2935 433.262C57.5842 434.101 58.7771 435.326 59.5186 434.487C60.3568 433.488 61.3563 432.585 62.6459 432.263C63.6131 432.037 64.6126 432.231 65.5798 432.489C67.6432 433.101 69.5776 434.133 71.7699 434.133C73.0273 434.133 74.2202 433.778 75.3486 433.198C76.3803 432.65 77.2508 431.876 78.3147 431.425C79.4109 430.973 80.7327 431.07 81.7322 431.65C82.8284 432.295 83.8278 433.198 85.2141 433.133C86.3425 433.101 87.5677 432.521 88.5027 431.908C89.2119 431.489 90.4371 430.457 89.6955 429.458Z" fill="#333333"/>
<path d="M92.9517 439.904C92.9195 440.646 92.726 441.226 92.049 441.323C91.2752 441.419 90.3725 441.097 89.6309 440.775C87.89 440.065 86.2779 438.711 84.408 438.389C81.5064 437.905 79.7654 440.549 77.7342 442.096C76.8638 442.773 76.1222 443.096 75.1228 442.516C73.8654 441.774 72.8015 440.742 71.4474 440.162C68.0622 438.679 64.6769 440.194 62.2589 442.709C61.4851 443.515 62.7103 444.74 63.484 443.934C64.5802 442.773 65.902 441.774 67.4818 441.387C69.0294 441 70.5447 441.484 71.8343 442.354C72.9304 443.064 73.9621 444.095 75.2517 444.482C76.4769 444.837 77.6053 444.321 78.6047 443.612C79.7976 442.741 80.7648 441.581 81.9577 440.742C82.9894 440.001 83.9566 439.936 85.1173 440.42C86.8583 441.161 88.3736 442.29 90.2435 442.806C91.2107 443.064 92.3069 443.193 93.2096 442.741C94.3058 442.193 94.6282 441.032 94.6927 439.872C94.7249 438.808 92.9839 438.808 92.9517 439.904Z" fill="#333333"/>
</g>
<g opacity="0.1">
<path d="M587.863 302.539C590.216 299.38 592.441 296.22 595.439 293.577C598.76 290.643 602.435 288.096 606.014 285.484C607.4 284.485 608.948 283.066 610.753 283.002C612.656 282.937 613.977 284.743 615.17 285.968C618.007 288.869 621.038 291.674 623.359 294.995C620.232 295.511 617.072 295.801 614.139 297.026C610.786 298.413 607.948 300.895 605.079 303.055C601.758 305.538 598.47 308.02 595.181 310.567C594.601 311.019 593.021 311.857 593.182 312.76C593.311 313.63 595.246 314.5 595.826 314.984C596.568 315.564 598.921 317.015 598.792 318.176C598.631 319.82 595.955 319.143 594.988 319.175C591.409 319.272 587.669 320.497 584.252 321.497C582.865 321.916 581.769 322.593 580.48 323.141C578.868 323.818 577.707 323.012 576.675 321.722C575.547 320.336 576.095 319.143 576.45 317.499C576.901 315.435 577.32 313.34 577.771 311.276C578.706 306.924 579.641 302.733 581.479 298.67C581.995 297.51 582.382 296.736 583.575 297.671C585.251 298.928 586.541 300.992 587.863 302.539ZM620.103 294.06C618.91 291.61 616.557 289.482 614.783 287.419C612.688 285.001 610.463 285.936 608.174 287.548C602.854 291.32 598.018 295.317 593.763 300.283C592.473 301.766 591.345 303.313 590.248 304.957C589.829 305.57 588.507 308.246 587.637 308.278C587.024 308.31 585.251 305.57 584.897 305.119C584.477 304.57 583.929 302.926 583.317 302.636C581.963 302.023 581.06 306.763 580.867 307.537C579.835 311.986 579.964 316.661 579.448 321.206C580.48 321.335 581.737 320.787 582.736 320.529C584.058 320.207 585.38 319.885 586.734 319.594C589.346 319.014 591.957 318.466 594.536 317.853C597.212 317.241 593.569 315.661 592.505 315.081C590.345 313.92 589.41 313.243 591.635 311.47C596.277 307.762 600.985 304.087 605.756 300.573C607.723 299.122 609.722 297.703 611.882 296.607C614.525 295.253 617.266 294.737 620.103 294.06Z" fill="#333333"/>
</g>
<g opacity="0.1">
<path d="M574.681 181.032C575.1 182.095 575.455 183.159 575.81 184.256C575.939 184.675 576.067 185.126 575.842 185.513C575.648 185.868 575.229 186.029 574.842 186.158C569.394 187.899 563.623 189.285 557.852 188.834C555.885 188.673 555.595 187.77 556.465 185.932C559.045 180.58 561.624 175.228 564.268 169.909C565.46 167.491 566.686 167.297 568.491 169.747C571.038 173.197 573.101 177.002 574.681 181.032ZM565.847 185.416C565.751 185.448 565.654 185.448 565.557 185.416C564.88 185.223 565.718 183.772 565.912 183.45C567.137 181.128 568.459 178.904 569.652 176.55C569.942 176.002 570.554 173.906 569.265 174.197C568.265 174.39 567.846 176.228 567.492 177.034C566.943 178.194 566.395 179.355 565.847 180.516C565.299 181.676 564.751 182.869 564.203 184.03C563.848 184.771 562.494 186.867 563.655 187.351C563.945 187.48 564.3 187.48 564.622 187.48C565.267 187.48 565.944 187.447 566.557 187.286C569.49 186.512 570.425 182.611 571.328 180.161C571.522 179.677 572.134 178.517 571.747 178.065C571.296 177.582 570.619 178.065 570.296 178.388C569.458 179.226 569.233 180.548 568.684 181.547C568.007 182.74 567.427 184.449 566.299 185.223C566.105 185.287 565.976 185.384 565.847 185.416ZM566.137 175.712C566.073 175.647 565.944 175.647 565.686 175.776C565.203 176.067 565.009 177.066 564.783 177.55C564.332 178.452 563.913 179.323 563.429 180.226C563.236 180.58 561.785 183.707 561.205 183.45C560.109 182.966 562.075 180.161 562.43 179.516C563.204 178.001 564.01 176.486 564.751 174.97C565.235 174.035 565.847 173.133 566.299 172.262C566.75 171.392 566.17 170.908 565.331 171.456C564.59 171.94 564.235 173.423 563.848 174.197C563.3 175.325 562.752 176.453 562.204 177.582C561.14 179.774 560.076 181.967 559.077 184.223C558.754 184.965 557.948 186.416 558.69 187.157C560.947 189.414 562.301 184.449 562.881 183.256C563.913 181.193 565.074 179.194 565.88 177.034C565.944 176.679 566.299 175.905 566.137 175.712ZM572.94 184.836C573.134 184.61 573.263 184.352 573.295 184.159C573.392 183.45 573.359 182.708 573.327 181.967C573.327 181.451 573.488 180.774 572.843 181.064C572.134 181.386 572.005 183.063 571.747 183.675C571.618 183.998 571.135 184.675 571.296 184.997C571.683 185.771 572.489 185.384 572.94 184.836Z" fill="#333333"/>
</g>
<g opacity="0.1">
<path d="M34.1773 328.535C33.4358 329.985 32.5331 331.339 31.5014 332.565C30.8888 333.274 30.2762 334.015 29.5669 334.66C28.0839 336.047 16.0582 342.849 15.5101 339.4C15.22 337.659 14.8008 335.95 14.3817 334.241C14.156 333.403 14.0593 332.371 15.1555 332.565C19.7659 333.467 22.6997 330.791 25.7303 328.019C28.4385 325.536 29.2123 322.377 29.2123 318.959C29.2123 315.735 26.9877 313.285 23.8604 312.543C21.7003 312.027 21.5068 311.479 22.9254 309.867C23.6992 308.997 24.2795 307.933 25.0855 307.095C25.6014 306.579 26.7298 305.966 27.4713 306.063C27.9872 306.128 28.4385 306.385 28.8899 306.643C31.4046 308.191 33.4358 310.48 34.7254 313.124C35.2735 314.188 35.9505 315.252 36.144 316.444C36.8855 320.507 36.0795 324.827 34.1773 328.535ZM17.3478 338.497C18.3795 339.206 21.3134 337.626 22.2806 337.207C24.7954 336.111 27.3101 335.015 29.1801 332.984C34.1773 327.632 37.6593 318.605 32.5331 312.124C32.1139 311.608 31.6948 311.093 31.2434 310.577C30.3085 309.577 29.2445 308.739 28.0516 308.062C26.8265 307.385 26.5041 307.868 25.7948 308.932C25.6659 309.126 24.6019 310.964 24.5374 310.964C25.15 311.06 25.6658 311.415 26.2139 311.673C27.9872 312.511 29.5025 313.543 30.2117 315.477C31.5981 319.314 31.1145 323.183 29.0511 326.407C26.4396 330.469 22.8932 333.757 17.6702 334.435C17.2511 334.499 16.8642 334.692 16.4129 334.854C16.6386 335.853 16.6063 336.917 16.8965 337.884C17.0577 338.207 17.1866 338.4 17.3478 338.497Z" fill="#333333"/>
<path d="M-8.5735 313.092C-7.47733 310.158 -5.34948 307.449 -3.12489 305.289C-1.57736 303.806 0.260354 302.613 2.22701 301.775C4.22592 300.937 6.28929 300.066 8.48163 300.002C10.416 299.937 11.3188 301.485 11.5445 303.258C11.6089 303.71 11.7379 304.129 11.8346 304.548C12.157 305.805 11.6089 306.547 10.3193 306.676C1.80788 307.643 -1.70632 311.705 -2.54457 319.217C-3.06042 323.795 -1.09375 327.342 2.25925 330.211C3.83902 331.565 3.77455 332.339 1.90461 333.209C1.51773 333.403 1.0986 333.596 0.711715 333.822C-0.223255 334.37 -1.2872 334.886 -2.38337 334.983C-3.64074 335.112 -4.15658 334.628 -4.83363 333.596C-6.76805 330.534 -8.92815 327.213 -9.66968 323.634C-10.379 320.152 -9.89536 316.509 -8.70247 313.188C-8.60575 313.188 -8.60574 313.124 -8.5735 313.092ZM0.840664 331.469C-1.89977 328.889 -3.7697 325.536 -4.15659 321.764C-4.54347 317.766 -3.54402 312.93 -0.771352 309.932C0.905146 308.127 3.12974 306.869 5.45105 306.095C5.90241 305.934 10.2871 304.354 10.4483 304.902C10.1581 303.903 10.0614 302.839 9.44884 301.969C9.02971 301.356 8.86852 301.388 8.12699 301.485C6.99858 301.646 5.93465 301.969 4.90296 302.484C3.74231 303.097 2.51717 303.323 1.38875 304.096C-1.28719 305.837 -4.22107 307.74 -5.6074 310.674C-6.31669 312.221 -7.15494 313.704 -7.70303 315.316C-8.54127 317.734 -8.54127 320.507 -7.96094 322.989C-7.34838 325.601 -5.76859 328.083 -4.60794 330.469C-3.28609 333.209 -1.7708 333.5 0.840664 331.469Z" fill="#333333"/>
</g>
<g opacity="0.1">
<path d="M13.9761 145.694C15.2543 146.918 16.3405 148.312 17.305 149.866C18.6774 152.046 19.1537 154.491 20.3853 156.69C22.3223 160.12 25.178 162.922 28.6323 164.854C30.3746 165.8 31.7907 165.93 33.5047 165.087C35.854 163.907 36.0965 166.742 35.925 168.379C35.8575 169.464 35.6092 170.538 35.281 171.551C34.8086 173.085 33.7316 173.339 32.213 173.51C27.6877 173.983 21.5916 171.872 18.7009 168.286C17.1956 166.447 16.0536 164.379 14.9116 162.312C13.6304 160.012 12.0563 157.931 10.7047 155.641C8.16145 151.183 3.56641 148.509 -1.45049 150.376C-4.52304 151.511 -5.28297 150.933 -4.89021 147.76C-4.72028 146.374 -5.07657 144.021 -4.43165 143.753C-2.03277 142.674 0.718138 141.546 3.25913 141.774C5.91052 142.023 8.97313 142.395 11.3458 143.757C12.3474 144.266 13.1874 144.905 13.9761 145.694ZM-2.4834 147.002C-2.45962 147.967 -2.27881 147.978 -1.39391 147.894C-0.438597 147.8 0.427138 147.574 1.39203 147.55C1.92489 147.514 2.46734 147.547 2.96978 147.551C5.32037 147.697 7.67724 148.416 9.5875 149.805C11.2978 151.043 11.9694 152.816 12.9323 154.621C14.4214 157.394 16.2034 159.948 17.6925 162.722C20.2645 167.392 25.1937 171.203 30.7718 171.089C32.1688 171.078 33.6474 170.877 33.8285 169.31C33.8831 168.657 33.8993 167.723 33.5714 167.158C33.6114 167.188 31.4383 167.556 31.1471 167.524C29.7918 167.314 28.4878 166.954 27.2654 166.403C24.7806 165.271 22.7233 163.328 20.9684 161.236C19.9014 159.983 19.1576 158.471 18.2827 157.048C17.4973 155.756 16.9119 154.617 16.4386 153.247C15.3736 150.165 12.9566 146.37 9.65731 145.314C6.16764 144.175 2.833 143.912 -0.836192 144.089C-1.22823 144.106 -1.69068 144.133 -2.01397 144.392C-2.69097 144.951 -2.51843 146.218 -2.4834 147.002Z" fill="#333333"/>
</g>
<path opacity="0.1" d="M444.358 464.688C445.126 463.858 445.721 462.813 446.468 462.012C446.969 461.436 447.789 461.271 448.494 461.38C449.199 461.489 449.814 461.891 450.381 462.303C454.403 465.225 458.579 467.991 462.601 470.914C463.006 471.208 463.139 472.558 462.841 472.968C461.947 474.199 460.95 475.4 459.894 476.514C459.126 477.344 458.543 478.487 457.442 477.732C454.37 475.545 451.298 473.358 448.227 471.171C446.451 469.925 444.371 469.041 442.787 467.532C442.733 467.492 442.673 467.404 442.641 467.336C442.608 467.267 442.623 467.189 442.639 467.111C442.933 466.026 443.638 465.509 444.358 464.688ZM445.281 466.881C445.315 467.174 445.542 467.429 445.963 467.645C447.041 468.205 448.141 468.735 449.209 469.422C451.751 471.089 454.292 472.757 456.7 474.551C458.623 475.993 459.126 474.165 460.06 473.276C461.304 472.075 460.424 471.526 459.561 470.898C455.718 468.24 451.923 465.573 447.999 462.856C447.972 462.836 446.017 465.356 445.847 465.591C445.458 466.069 445.235 466.49 445.281 466.881Z" fill="#333333"/>
<g opacity="0.1">
<path d="M557.173 1.32611C557.915 -0.576072 560.268 0.0687287 561.945 0.262171C564.459 0.584574 566.942 0.906986 569.457 1.19715C570.714 1.35835 571.23 1.93867 570.617 3.06708C569.876 4.48566 569.005 5.80752 568.135 7.16161C566.62 9.57964 565.104 11.9977 563.557 14.3834C560.752 18.7036 557.625 22.7982 554.852 27.1506C553.466 29.2785 552.434 31.6965 551.015 33.7921C550.048 35.2429 548.984 36.6293 547.92 38.0479C547.404 38.7249 546.308 41.2397 545.18 40.4014C544.277 39.7244 545.438 38.0156 545.631 37.2096C545.986 35.92 546.34 34.6304 546.727 33.3408C547.437 30.8905 548.146 28.4402 548.887 25.9577C549.919 22.5403 550.951 19.1228 552.111 15.7698C552.95 13.3195 553.885 10.8692 554.787 8.41897C555.626 6.12991 556.399 3.87309 557.076 1.55178C557.109 1.4873 557.141 1.42283 557.173 1.32611ZM548.823 32.0834L548.855 32.1156C549.693 31.5675 550.209 29.8911 550.693 29.0206C551.338 27.8277 551.982 26.667 552.595 25.4741C553.885 23.1206 555.142 20.7348 556.432 18.3812C557.721 15.9955 558.979 13.6419 560.268 11.2561C560.655 10.5791 563.686 4.06653 564.105 4.13101C562.525 3.90533 560.816 3.61517 559.14 3.45397C558.721 3.42173 558.044 3.77637 557.882 4.13101C557.076 5.74303 556.335 7.35505 555.755 9.03155C553.852 14.5769 551.982 20.1222 550.209 25.6676C549.822 26.8605 549.532 28.1178 549.242 29.343C549.016 30.02 548.275 31.5031 548.823 32.0834Z" fill="#333333"/>
<path d="M543.277 47.978C543.825 48.3004 544.341 48.6551 544.793 49.1064C545.921 50.2348 545.824 51.6212 545.631 53.1042C545.534 53.749 545.437 54.4261 545.212 55.0387C544.599 56.6829 543.374 57.0053 541.794 57.2955C538.667 57.8436 536.056 56.2638 535.153 53.2654C534.282 50.3316 537.281 46.6239 540.344 47.0753C540.73 47.1398 541.15 47.2043 541.536 47.301C542.149 47.4299 542.729 47.6556 543.277 47.978ZM541.311 52.4917C541.375 52.266 541.44 52.0725 541.472 51.8469C541.794 48.6228 537.313 48.5261 537.055 51.6857C536.958 52.7496 536.894 54.1037 538.216 54.2971C539.118 54.4261 540.086 54.1037 540.73 53.4589C540.988 53.1365 541.182 52.8141 541.311 52.4917Z" fill="#333333"/>
</g>
<g opacity="0.1">
<path d="M98.2931 247.145C97.1647 246.693 99.6472 245.952 99.8084 245.92C101.098 245.597 101.84 245.114 102.388 243.792C103.484 241.019 100.84 241.632 99.3893 240.149C95.5527 236.183 101.195 230.928 105.483 231.669C110.641 232.54 112.737 238.021 110.706 242.47C108.578 247.177 103.032 249.047 98.2931 247.145ZM103.871 245.017C106.095 243.727 107.772 241.342 106.966 238.601C106.482 236.892 103.967 235.377 102.226 235.442C101.227 235.474 100.518 235.957 100.228 236.957C99.8084 238.408 100.55 239.02 101.743 239.504C104.515 240.665 104.548 242.406 103.742 245.114C103.742 245.081 103.806 245.049 103.871 245.017Z" fill="#333333"/>
<path d="M103.967 223.771C104.999 221.127 107.933 219.128 110.706 220.386C112.833 221.353 114.155 223.835 113.672 226.124C112.447 231.863 101.646 229.671 103.967 223.771ZM109.577 225.544C110.093 222.384 105.934 222.32 105.773 225.125C105.644 227.511 109.158 228.188 109.577 225.544Z" fill="#333333"/>
</g>
<g opacity="0.1">
<path d="M660.938 103.044C661.43 103.805 661.878 104.566 662.281 105.238C663.534 107.521 664.385 110.073 664.788 112.669C665.101 114.594 665.146 116.564 665.37 118.489C665.996 123.234 667.921 127.711 670.025 132.008C670.876 133.754 672.487 135.41 671.771 137.47C671.1 139.35 669.264 140.738 667.384 141.23C666.041 141.588 665.504 140.961 664.43 140.156C662.326 138.589 660.221 136.977 658.565 134.918C656.461 132.322 654.85 129.322 653.775 126.189C652.969 123.906 652.477 121.488 652.298 119.071C652.119 116.832 652.432 114.505 651.537 112.356C650.239 109.177 647.015 107.342 643.927 106.402C641.867 105.775 638.017 106.536 637.256 108.864C636.674 110.744 638.599 112.49 639.316 114.012C640.211 115.892 640.39 117.817 639.271 119.653C637.838 122.025 634.749 121.936 632.825 120.369C628.706 117.056 626.647 112.177 627.05 106.894C627.497 100.627 631.571 96.3295 637.301 94.0912C645.941 90.6442 655.969 95.8371 660.938 103.044ZM657.043 106.268C654.626 102.686 651.179 99.7317 647.508 98.4783C643.658 97.1801 638.868 97.4934 635.466 99.866C634.839 100.314 634.302 100.806 633.765 101.299C630.631 104.208 628.84 106.984 629.825 111.371C630.318 113.475 634.033 121.13 636.943 118.847C637.659 118.265 638.465 116.832 638.062 115.937C637.615 114.863 637.033 113.788 636.451 112.759C634.615 109.58 635.421 106.312 638.734 104.701C641.017 103.582 643.748 103.582 646.031 104.746C650.194 106.85 653.507 109.625 654.223 114.594C654.939 119.518 654.894 124.487 657.401 129.143C658.431 131.068 659.729 132.904 661.296 134.47C662.057 135.231 662.952 135.858 663.713 136.619C664.519 137.425 667.339 139.618 667.608 137.291C667.787 135.679 665.907 133.888 665.191 132.59C664.295 130.934 663.445 129.233 662.773 127.487C661.43 123.95 660.624 120.19 660.535 116.385C660.535 113.027 659.147 109.401 657.043 106.268Z" fill="#333333"/>
<path d="M687.215 146.692C687.35 147.005 687.439 147.318 687.529 147.632C687.842 148.885 687.842 150.318 687.305 151.482C686.633 152.914 686.23 154.302 685.022 155.466C682.739 157.57 678.889 157.928 676.203 156.361C674.502 155.376 673.248 153.72 672.756 151.84C672.174 149.736 672.98 148.259 674.099 146.468C674.949 145.125 676.248 144.006 677.725 143.334C681.351 141.633 685.693 143.066 687.215 146.692ZM676.65 147.856C675.487 149.02 674.86 151.392 676.068 152.735C677.904 154.75 679.784 154.884 681.843 153.004C682.694 152.243 682.918 150.989 682.649 149.87C682.112 147.453 678.531 145.975 676.65 147.856Z" fill="#333333"/>
</g>
<g opacity="0.1">
<path d="M256.144 509.291C254.616 509.021 253.943 506.05 252.983 504.384C250.637 500.283 247.955 496.349 245.553 492.322C244.223 490.094 242.93 487.847 242.03 485.453C241.258 483.415 242.215 482.431 243.985 482.908C250.003 484.549 256.001 486.245 261.981 487.997C263.676 488.511 265.276 489.304 266.951 489.967C268.124 490.46 269.295 491.232 269.624 492.465C269.969 493.923 268.991 495.335 268.07 496.486C264.893 500.424 261.936 504.996 258.184 508.426C257.339 509.168 256.666 509.406 256.144 509.291ZM252.902 499.121C252.677 499.325 252.657 499.567 253.159 499.831C254.201 500.341 256.243 499.01 257.178 498.642C258.805 497.98 260.47 497.3 262.116 496.582C263.295 496.048 264.55 495.197 265.433 494.25C265.752 493.954 266.034 493.582 266.055 493.153C266.115 492.612 265.726 492.106 265.28 491.768C262.512 489.736 259.565 492.536 257.096 493.566C256.011 494.008 251.64 494.859 251.484 495.959C251.23 497.805 253.683 496.364 254.282 496.069C255.386 495.572 256.527 495.056 257.668 494.633C258.416 494.358 262.083 492.738 262.448 494.233C262.666 495.241 257.972 496.856 257.168 497.206C256.176 497.648 255.129 498.07 254.137 498.512C253.894 498.586 253.184 498.843 252.902 499.121ZM248.557 492.377C248.463 492.47 248.444 492.526 248.443 492.619C248.423 492.862 248.552 493.124 248.775 493.293C249.295 493.781 250.135 493.786 250.826 493.678C252.394 493.464 254.001 493.231 255.459 492.698C257.086 492.129 258.809 491.095 259.992 489.814C259.938 489.422 259.379 489.325 258.969 489.342C256.952 489.498 255.178 489.767 253.252 490.483C252.504 490.759 249.27 491.654 248.557 492.377ZM244.397 485.915C244.523 486.55 244.985 487.393 244.985 487.393C245.539 488.422 246.111 489.489 246.702 490.5C246.813 490.725 247.371 490.915 247.614 490.842C248.643 490.475 249.69 490.052 250.719 489.685C251.467 489.409 252.718 489.211 253.356 488.711C253.562 488.563 253.732 488.247 253.658 488.004C253.622 487.836 253.455 487.686 253.325 487.61C252.897 487.309 252.319 487.268 251.797 487.246C250.845 487.204 250.025 487.143 249.127 487.399C248.043 487.747 247.799 488.007 247.02 487.274C246.24 486.542 245.91 485.588 244.736 485.283C244.308 485.168 244.287 485.504 244.397 485.915ZM254.842 502.305C254.804 502.416 254.785 502.566 254.784 502.659C255.068 505.124 262.713 499.776 263.612 499.24C263.893 499.055 264.231 498.703 264.009 498.44C263.861 498.234 263.562 498.288 263.356 498.343C261.731 498.725 260.066 499.406 258.495 499.994C257.391 500.398 255.242 501.038 254.842 502.305ZM257.866 505.327C258.24 505.142 258.652 504.94 259.008 504.718C259.214 504.57 259.327 504.421 259.31 504.197C258.732 503.97 256.788 504.649 256.541 505.282C256.162 506.306 257.454 505.53 257.866 505.327Z" fill="#333333"/>
</g>
<g opacity="0.1">
<path d="M562.461 420.18C562.848 415.731 563.202 410.444 566.716 407.252C569.779 404.447 574.132 402.964 578.065 401.9C588.35 399.063 599.569 398.096 610.144 396.967C615.593 396.387 621.041 396 626.522 396C631.165 396 635.904 395.968 640.063 398.225C644.19 400.449 645.028 403.512 645.222 407.961C645.479 413.507 645.189 419.052 644.577 424.565C643.577 433.689 643.223 445.263 635.163 451.26C627.586 456.902 617.43 454.291 608.726 454.291C603.406 454.291 598.086 454.581 592.799 455.129C589.575 455.451 586.028 455.774 583.159 457.418C580.838 458.74 579.451 460.9 578.581 463.382C577.162 467.445 576.324 471.604 574.744 475.634C573.97 477.665 573.712 479.631 571.262 478.954C569.199 478.406 566.491 477.02 565.685 474.957C563.654 469.798 563.589 462.834 563.202 457.386C562.332 445.199 561.429 432.367 562.461 420.18ZM572.874 470.088C573.809 472.055 574.132 469.54 574.261 468.928C574.615 467.187 575.228 465.478 575.679 463.769C576.743 459.642 578.194 457.16 582.159 455.322C590.349 451.518 599.537 452.517 608.339 452.388C615.399 452.292 623.459 453.452 630.133 450.615C636.098 448.068 638.999 442.684 640.386 436.623C641.385 432.27 642.03 427.886 642.417 423.437C642.804 418.987 643.384 413.99 642.675 409.541C641.224 400.643 630.971 401.964 624.04 401.932C614.754 401.868 605.501 403.222 596.281 404.125C589.575 404.802 576.969 404.576 573.164 411.572C570.843 415.828 570.746 422.437 570.746 427.112C570.714 432.077 570.843 437.042 571.004 442.007C571.166 447.327 571.359 452.614 571.778 457.934C571.972 460.32 572.262 462.738 572.391 465.123C572.455 466.735 572.165 468.605 572.874 470.088Z" fill="#333333"/>
<path d="M617.688 434.14C617.688 434.366 617.785 434.592 617.946 434.753C618.011 434.785 618.075 434.85 618.107 434.882C618.236 434.946 618.398 435.011 618.559 435.011C618.591 435.011 618.623 435.011 618.655 435.011C618.752 435.011 618.849 435.011 618.946 434.979C619.139 434.946 619.268 434.817 619.429 434.721C619.558 434.592 619.655 434.431 619.687 434.269C619.719 434.173 619.719 434.076 619.719 433.979C619.719 433.947 619.719 433.915 619.719 433.882C619.719 433.753 619.687 433.657 619.655 433.56C619.623 433.463 619.558 433.367 619.461 433.27C619.3 433.109 619.075 433.012 618.849 433.012C618.623 433.012 618.398 433.109 618.236 433.27C618.204 433.334 618.14 433.367 618.107 433.431C618.043 433.463 617.978 433.528 617.946 433.56C617.817 433.689 617.688 433.947 617.688 434.14Z" fill="#333333"/>
<path d="M609.338 435.301C610.466 435.301 610.466 433.56 609.338 433.56C608.21 433.56 608.21 435.301 609.338 435.301Z" fill="#333333"/>
<path d="M598.344 435.881C599.473 435.881 599.473 434.14 598.344 434.14C597.216 434.14 597.216 435.881 598.344 435.881Z" fill="#333333"/>
<path d="M586.802 436.462C587.93 436.462 587.93 434.721 586.802 434.721C585.673 434.721 585.673 436.462 586.802 436.462Z" fill="#333333"/>
<path d="M618.591 422.308C619.72 422.308 619.72 420.567 618.591 420.567C617.463 420.567 617.463 422.308 618.591 422.308Z" fill="#333333"/>
<path d="M608.177 423.469C609.306 423.469 609.306 421.728 608.177 421.728C607.049 421.728 607.049 423.469 608.177 423.469Z" fill="#333333"/>
<path d="M596.281 423.501C596.442 423.662 596.668 423.759 596.893 423.759H597.184C597.409 423.759 597.635 423.662 597.796 423.501C597.957 423.34 598.054 423.114 598.054 422.889C598.054 422.663 597.957 422.437 597.796 422.276C597.635 422.115 597.409 422.018 597.184 422.018H596.893C596.668 422.018 596.442 422.115 596.281 422.276C596.12 422.437 596.023 422.663 596.023 422.889C596.055 423.114 596.12 423.34 596.281 423.501Z" fill="#333333"/>
<path d="M585.641 423.759C586.77 423.759 586.77 422.018 585.641 422.018C584.513 422.018 584.513 423.759 585.641 423.759Z" fill="#333333"/>
</g>
</svg>
