<svg width="768" height="737" viewBox="0 0 768 737" fill="none" xmlns="http://www.w3.org/2000/svg">
<rect width="768" height="737" fill="#F8F7F2"/>
<g opacity="0.05">
<path d="M0.49386 443.972C-2.30291 426.585 7.03724 405.049 21.9709 395.691C39.7014 384.578 64.2391 385.747 82.3917 394.734C100.808 403.88 113.737 420.682 116.533 441.42C118.011 452.533 114.95 464.284 117.061 475.291C117.905 479.652 120.28 483.055 123.499 486.032C127.298 489.595 129.831 491.775 132.522 496.242C102.972 506.451 71.2574 512.885 41.2317 500.602C17.5383 490.871 3.07955 469.389 0.49386 443.972ZM113.156 494.434C113.631 491.616 106.824 486.192 105.505 483.799C102.286 477.897 101.283 470.134 99.7527 463.54C96.9559 451.31 95.5839 438.336 90.9403 426.638C82.3389 405.103 60.598 389.736 37.1685 395.053C15.9025 399.838 2.97401 420.523 4.08217 442.005C5.13755 462.211 17.4855 482.417 34.6883 492.732C46.2975 499.698 59.7537 502.357 73.157 502.463C81.0724 502.516 88.8295 501.453 96.6393 499.911C99.5944 499.326 112.417 498.794 113.156 494.434Z" fill="#333333"/>
<path d="M68.0945 427.701C65.7199 430.253 62.9759 431.53 59.5459 430.466C56.6436 429.562 54.1106 427.807 51.2083 427.063C49.7308 426.691 48.1477 426.585 46.6702 426.957C44.7177 427.435 43.1874 428.658 41.6043 429.775C40.6545 430.466 39.2825 431.53 38.4382 431.636C36.8023 431.849 35.0082 431.104 33.4251 430.785C28.7814 429.828 23.9267 430.785 22.2908 435.837C21.7631 437.591 24.4544 438.336 25.0348 436.581C26.4596 432.061 31.3671 433.231 34.9027 433.976C36.2747 434.295 37.7522 434.614 39.177 434.348C40.549 434.029 41.7626 433.125 42.9236 432.274C44.4011 431.211 45.8259 429.934 47.6728 429.615C48.9393 429.35 50.2057 429.615 51.4722 430.041C54.2689 430.945 56.7491 432.646 59.6514 433.338C63.7674 434.348 67.3557 432.646 70.2052 429.615C71.3662 428.392 69.3609 426.372 68.0945 427.701Z" fill="#333333"/>
<path d="M76.4315 441.207C75.4816 439.877 73.3709 440.941 73.793 442.217C73.6875 442.323 73.5292 442.536 73.4236 442.589C72.7376 443.121 71.8933 443.546 71.1018 443.865C69.3604 444.61 68.1995 444.61 66.5636 443.546C64.7167 442.377 63.1864 441.419 60.9173 441.207C59.0704 441.047 57.2763 441.473 55.6404 442.377C54.0046 443.227 52.5798 444.45 50.944 445.195C49.3609 445.939 47.6195 446.205 45.8781 445.992C42.5537 445.567 39.5986 443.759 36.3269 443.121C31.7887 442.164 27.9894 443.972 25.0343 447.481C23.8734 448.864 25.8258 450.884 27.0395 449.502C28.4115 447.853 30.0474 446.365 32.1581 445.833C33.7412 445.461 35.377 445.78 36.9601 446.205C40.3374 447.215 43.5035 448.917 47.0918 448.917C49.1498 448.917 51.1023 448.332 52.9492 447.375C54.6378 446.471 56.0626 445.195 57.804 444.45C59.5981 443.706 61.7617 443.865 63.3975 444.823C65.1916 445.886 66.8275 447.375 69.0966 447.268C70.9435 447.215 72.9487 446.258 74.479 445.248C75.6399 444.557 77.6452 442.855 76.4315 441.207Z" fill="#333333"/>
<path d="M81.7564 458.436C81.7036 459.659 81.387 460.616 80.2789 460.775C79.0124 460.935 77.5349 460.403 76.3212 459.871C73.4716 458.702 70.8332 456.468 67.7725 455.937C63.0233 455.139 60.1738 459.499 56.8493 462.052C55.4246 463.168 54.2109 463.7 52.575 462.743C50.517 461.52 48.7756 459.818 46.5593 458.861C41.0186 456.415 35.4778 458.914 31.5201 463.062C30.2537 464.391 32.2589 466.412 33.5253 465.082C35.3195 463.168 37.483 461.52 40.0687 460.882C42.6016 460.244 45.0818 461.041 47.1926 462.477C48.9867 463.647 50.6753 465.348 52.7861 465.986C54.7913 466.571 56.6382 465.72 58.2741 464.551C60.2266 463.115 61.8096 461.201 63.7621 459.818C65.4507 458.595 67.0338 458.489 68.9335 459.286C71.783 460.509 74.2632 462.371 77.3238 463.221C78.9068 463.647 80.701 463.859 82.1785 463.115C83.9727 462.211 84.5004 460.297 84.6059 458.383C84.6587 456.628 81.8092 456.628 81.7564 458.436Z" fill="#333333"/>
<path d="M709.425 335.938C710.529 333.084 714.034 334.051 716.53 334.341C720.274 334.825 723.971 335.309 727.715 335.744C729.587 335.986 730.355 336.857 729.443 338.55C728.339 340.678 727.043 342.661 725.747 344.693C723.491 348.321 721.234 351.949 718.93 355.528C714.754 362.01 710.097 368.153 705.969 374.684C703.905 377.876 702.369 381.504 700.257 384.648C698.816 386.825 697.232 388.905 695.648 391.033C694.88 392.049 693.248 395.822 691.568 394.565C690.224 393.549 691.952 390.985 692.24 389.776C692.768 387.841 693.296 385.906 693.872 383.971C694.928 380.295 695.984 376.618 697.088 372.894C698.624 367.766 700.161 362.639 701.889 357.608C703.137 353.932 704.529 350.256 705.873 346.579C707.121 343.145 708.273 339.759 709.281 336.276C709.329 336.179 709.377 336.083 709.425 335.938ZM696.992 382.085L697.04 382.133C698.288 381.311 699.056 378.795 699.777 377.489C700.737 375.699 701.697 373.958 702.609 372.168C704.529 368.637 706.401 365.058 708.321 361.526C710.241 357.947 712.114 354.416 714.034 350.836C714.61 349.82 719.122 340.049 719.746 340.146C717.394 339.807 714.85 339.372 712.354 339.13C711.73 339.082 710.721 339.614 710.481 340.146C709.281 342.565 708.177 344.983 707.313 347.499C704.481 355.819 701.697 364.139 699.056 372.458C698.48 374.248 698.048 376.135 697.616 377.973C697.28 378.989 696.176 381.214 696.992 382.085Z" fill="#333333"/>
<path d="M688.738 405.932C689.554 406.416 690.322 406.948 690.994 407.625C692.675 409.318 692.531 411.398 692.243 413.623C692.099 414.591 691.955 415.607 691.618 416.526C690.706 418.993 688.882 419.476 686.53 419.912C681.874 420.734 677.985 418.364 676.641 413.865C675.345 409.463 679.809 403.901 684.37 404.578C684.946 404.675 685.57 404.771 686.146 404.916C687.058 405.11 687.922 405.449 688.738 405.932ZM685.81 412.704C685.906 412.366 686.002 412.076 686.05 411.737C686.53 406.9 679.857 406.755 679.473 411.495C679.329 413.091 679.233 415.123 681.202 415.413C682.546 415.607 683.986 415.123 684.946 414.155C685.33 413.672 685.618 413.188 685.81 412.704Z" fill="#333333"/>
<path d="M128.46 612.861C129.217 614.039 129.905 615.217 130.523 616.256C132.449 619.79 133.755 623.74 134.374 627.759C134.856 630.739 134.925 633.788 135.268 636.767C136.231 644.112 139.188 651.041 142.42 657.694C143.727 660.396 146.202 662.96 145.102 666.147C144.07 669.058 141.251 671.206 138.363 671.968C136.3 672.522 135.475 671.552 133.824 670.305C130.592 667.88 127.36 665.385 124.816 662.198C121.584 658.179 119.108 653.536 117.458 648.685C116.22 645.152 115.464 641.41 115.189 637.668C114.914 634.203 115.395 630.6 114.02 627.274C112.025 622.354 107.074 619.513 102.329 618.058C99.166 617.088 93.2521 618.266 92.0831 621.869C91.1892 624.779 94.1461 627.482 95.2464 629.838C96.6217 632.748 96.8967 635.728 95.1776 638.569C92.9771 642.241 88.2322 642.103 85.2753 639.677C78.9488 634.55 75.7855 626.997 76.4044 618.82C77.0921 609.119 83.3498 602.467 92.1519 599.002C105.424 593.667 120.827 601.705 128.46 612.861ZM122.478 617.85C118.764 612.307 113.469 607.733 107.831 605.793C101.917 603.784 94.5587 604.269 89.3325 607.941C88.3697 608.634 87.5446 609.396 86.7194 610.159C81.9057 614.663 79.1551 618.959 80.6679 625.75C81.4244 629.006 87.132 640.855 91.6018 637.321C92.702 636.421 93.9398 634.203 93.3209 632.817C92.6333 631.154 91.7393 629.491 90.8453 627.898C88.0259 622.978 89.2637 617.919 94.3524 615.425C97.8595 613.693 102.054 613.693 105.561 615.494C111.957 618.751 117.045 623.047 118.146 630.739C119.246 638.361 119.177 646.052 123.028 653.259C124.61 656.238 126.604 659.079 129.011 661.505C130.18 662.683 131.555 663.653 132.724 664.831C133.962 666.078 138.294 669.473 138.707 665.87C138.982 663.376 136.094 660.604 134.993 658.594C133.618 656.031 132.311 653.397 131.28 650.695C129.217 645.221 127.979 639.4 127.842 633.51C127.842 628.313 125.71 622.701 122.478 617.85Z" fill="#333333"/>
<path d="M168.83 680.423C169.037 680.908 169.174 681.393 169.312 681.878C169.793 683.818 169.793 686.035 168.968 687.837C167.936 690.054 167.318 692.202 165.461 694.004C161.954 697.261 156.04 697.815 151.914 695.39C149.301 693.865 147.375 691.302 146.619 688.391C145.725 685.135 146.963 682.848 148.682 680.076C149.988 677.997 151.983 676.265 154.252 675.226C159.822 672.593 166.492 674.81 168.83 680.423ZM152.602 682.224C150.814 684.026 149.851 687.698 151.708 689.777C154.527 692.895 157.415 693.103 160.578 690.193C161.885 689.015 162.229 687.075 161.816 685.342C160.991 681.601 155.49 679.314 152.602 682.224Z" fill="#333333"/>
<path d="M457.992 169.289C456.791 170.824 455.558 172.267 454.476 173.557C450.717 177.704 446.135 181.216 441.153 183.846C437.47 185.825 433.51 187.287 429.765 189.084C420.585 193.665 412.845 200.71 405.592 207.996C402.642 210.947 400.4 215.39 395.733 215.361C391.461 215.299 387.382 212.518 385.086 209.022C383.433 206.53 384.331 204.997 385.222 202.243C386.943 196.858 388.755 191.441 391.782 186.627C395.589 180.525 400.553 175.147 406.159 170.774C410.228 167.54 414.785 164.852 419.558 162.804C423.969 160.881 428.902 159.901 432.636 156.578C438.179 151.716 439.671 143.859 439.442 136.899C439.29 132.259 435.089 124.93 429.848 124.996C425.637 125.117 423.429 130.261 420.841 132.783C417.65 135.919 413.874 137.624 409.383 136.616C403.587 135.343 401.635 128.975 403.48 123.956C407.346 113.243 415.809 105.643 426.789 102.79C439.795 99.3421 451.315 104.667 459.806 114.807C472.757 130.045 469.162 154.129 457.992 169.289ZM448.773 163.581C454.359 156.154 457.964 147.062 457.968 138.696C457.939 129.933 453.996 120.373 446.84 115.079C445.5 114.111 444.132 113.357 442.763 112.603C434.704 108.231 427.844 106.507 419.637 111.571C415.715 114.04 402.773 126.953 409.407 131.304C411.081 132.361 414.54 133.009 416.075 131.563C417.943 129.902 419.717 127.966 421.401 126.062C426.573 120.103 433.75 119.474 439.302 125.115C443.146 128.996 445.032 134.571 444.251 140.041C442.864 150.004 439.529 158.698 429.957 163.619C420.476 168.508 410.378 171.874 402.678 180.232C399.489 183.673 396.667 187.601 394.575 191.89C393.559 193.973 392.908 196.237 391.892 198.32C390.816 200.525 388.32 207.809 393.221 206.737C396.61 205.981 398.939 200.897 401.074 198.532C403.811 195.551 406.67 192.631 409.743 190.045C415.98 184.843 423.042 180.581 430.688 177.75C437.49 175.413 443.878 170.057 448.773 163.581Z" fill="#333333"/>
<path d="M387.715 253.316C387.173 253.808 386.6 254.209 386.027 254.61C383.704 256.122 380.802 257.118 378.073 256.832C374.707 256.458 371.618 256.601 368.425 254.944C362.586 251.747 359.201 244.138 360.521 237.564C361.341 233.406 363.831 229.695 367.3 227.381C371.16 224.729 374.71 225.346 379.11 226.384C382.418 227.186 385.582 229.057 387.963 231.606C393.913 237.824 394.01 247.685 387.715 253.316ZM378.061 232.559C374.899 230.993 369.66 231.365 367.774 234.767C364.96 239.915 365.987 243.847 371.218 246.742C373.347 247.949 376.041 247.533 378.123 246.206C382.649 243.427 383.168 235.089 378.061 232.559Z" fill="#333333"/>
<path d="M363.683 18.3165C364.041 15.292 367.421 20.8208 367.602 21.1902C369.207 24.103 370.846 25.5845 374.375 26.0539C381.742 26.909 378.568 20.9063 381.197 16.432C388.255 4.57164 404.512 14.8215 405.491 25.6832C406.72 38.7359 394.902 47.3645 382.905 45.3334C370.227 43.2354 362.164 31.0238 363.683 18.3165ZM372.386 30.4389C376.916 34.9878 383.728 37.4988 389.793 33.7699C393.586 31.4908 395.608 24.4199 394.332 20.247C393.612 17.8484 391.993 16.445 389.405 16.3908C385.65 16.3173 384.655 18.5098 384.261 21.7114C383.258 29.1766 379.096 30.384 372.071 30.1894C372.148 30.1685 372.267 30.3037 372.386 30.4389Z" fill="#333333"/>
<path d="M423.486 16.8886C430.502 17.6713 437.193 23.4772 435.957 31.0052C435.003 36.7839 429.89 41.5943 424.079 41.9084C409.503 42.6651 407.818 15.0962 423.486 16.8886ZM422.838 31.6196C430.76 30.8189 428.238 20.7086 421.396 22.1378C415.581 23.3732 416.216 32.3198 422.838 31.6196Z" fill="#333333"/>
<path d="M278.153 413.186C273.772 414.4 279.492 406.523 279.899 406.059C283.013 402.156 284.13 399.016 282.776 393.8C279.778 382.982 273.286 390.839 265.614 389.689C245.226 386.519 250.162 357.9 264.611 350.364C281.945 341.235 300.57 352.918 304.57 370.897C308.865 389.871 296.569 408.108 278.153 413.186ZM289.962 394.102C293.676 385.167 293.281 374.188 284.689 367.797C279.388 363.768 268.473 364.944 263.432 369.101C260.527 371.472 259.507 374.539 260.9 378.2C262.929 383.509 266.522 383.66 271.168 382.396C282.05 379.569 286.079 384.721 289.796 394.686C289.723 394.589 289.843 394.345 289.962 394.102Z" fill="#333333"/>
<path d="M242.251 330.106C239.352 319.821 243.577 307.142 254.677 304.605C263.201 302.665 272.748 307.108 276.478 315.08C285.793 335.096 248.664 353.101 242.251 330.106ZM262.969 322.659C257.368 312 244.832 321.274 250.689 330.061C255.694 337.516 267.693 331.549 262.969 322.659Z" fill="#333333"/>
<path d="M691.688 135.391C691.784 135.537 691.784 135.633 691.736 135.73C694.044 127.397 703.372 119.838 710.777 116.253C718.662 112.425 729.144 112.329 733.905 121.001C742.079 121.243 746.887 115.72 755.061 121.486C759.388 124.538 762.273 129.722 760.831 135.197C759.34 140.963 755.013 142.174 761.167 146.535C768.139 151.477 769.534 160.343 766.457 168.192C765.399 170.954 761.6 172.795 760.783 175.121C759.917 177.592 762.898 179.724 763.331 182.97C764.533 191.4 760.398 200.606 754.58 206.517C749.531 211.604 745.012 210.926 738.52 209.957C736.597 221.488 727.125 229.192 715.489 228.078C712.748 227.836 710.007 227.109 707.459 225.994C703.709 224.396 704.237 223.766 701.737 226.14C697.65 230.064 694.861 232.584 688.466 231.033C679.86 228.95 672.359 223.62 669.714 214.851C654.664 223.136 639.518 231.276 624.516 239.658C621.391 237.574 624.228 232.729 625.574 230.452C627.93 226.334 630.479 222.409 632.739 218.242C636.152 211.992 639.566 205.79 643.028 199.54C646.442 193.338 651.154 186.798 653.462 180.111C655.337 174.733 653.222 167.805 654.087 162.088C655.049 155.644 657.549 149.684 661.107 144.258C664.81 138.637 668.464 134.131 675.003 132.145C678.273 131.176 681.11 130.691 684.476 131.612C685.389 131.903 690.967 134.083 691.688 135.391ZM633.893 228.175C636.056 232.051 666.012 211.895 668.368 210.442C676.109 205.548 673.561 215.238 675.244 219.017C676.782 222.409 682.168 224.492 685.293 225.898C688.37 227.303 692.89 229.144 695.967 226.818C699.141 224.444 697.314 221.488 698.131 218.436C698.612 216.546 698.756 215.577 701.401 216.789C703.42 217.709 705.199 220.326 707.122 221.585C713.806 225.898 723.759 226.334 729.721 220.374C731.837 218.291 734.241 214.657 733.568 211.556C733.039 209.182 730.298 207.147 730.154 204.724C730.01 202.011 732.414 201.963 734.53 202.835C738.328 204.385 740.251 206.953 744.675 206.905C753.859 206.856 758.619 194.55 758.908 186.846C759.1 181.807 756.984 180.838 753.09 178.658C751.118 177.543 747.8 174.685 750.205 172.359C751.647 170.954 754.676 171.778 756.359 170.663C759.388 168.629 762.514 159.81 761.312 156.177C759.581 150.895 752.849 154.432 749.099 153.512C739.963 151.283 752.08 137.862 753.09 133.647C753.955 129.868 752.176 126.04 748.185 125.313C745.204 124.78 742.463 126.379 740.011 127.93C735.684 130.691 730.683 134.519 727.029 128.705C725.875 126.912 725.346 124.247 723.326 123.182C720.249 121.486 715.585 124.296 712.796 125.604C708.805 127.494 704.334 129.965 701.545 133.55C699.622 135.973 698.371 138.928 696.64 141.448C695.486 143.192 693.9 146.002 691.496 145.663C689.813 145.421 688.514 142.756 687.409 141.69C685.822 139.994 683.995 139.17 681.639 139.267C667.31 139.994 650.625 171.342 668.368 177.931C662.117 187.573 656.251 197.505 649.423 206.759C646.346 210.926 643.221 215.238 639.759 219.017C638.364 220.762 632.258 225.171 633.893 228.175Z" fill="#333333"/>
<path d="M738.036 156.177C724.044 158.793 709.859 160.101 695.627 160.586C691.588 160.731 687.597 160.779 683.558 160.779C681.923 160.779 681.923 163.347 683.558 163.347C697.935 163.347 712.312 162.524 726.544 160.586C730.583 160.053 734.622 159.374 738.661 158.648C740.344 158.357 739.623 155.886 738.036 156.177Z" fill="#333333"/>
<path d="M741.407 165.528C734.051 167.466 726.454 167.951 718.905 167.951C715.154 167.951 711.404 167.757 707.653 167.612C703.759 167.466 699.864 167.806 696.017 168.242C691.594 168.726 687.218 169.308 682.746 169.308C681.112 169.308 681.112 171.875 682.746 171.875C690.68 171.827 698.518 169.986 706.451 170.131C714.096 170.277 721.693 170.761 729.339 170.131C733.666 169.792 737.945 169.114 742.129 167.999C743.667 167.563 742.994 165.092 741.407 165.528Z" fill="#333333"/>
<path d="M742.268 178.271C734.479 179.434 726.834 181.518 718.948 182.002C711.447 182.487 703.946 182.196 696.494 181.905C692.503 181.76 688.464 181.614 684.473 181.614C682.838 181.614 682.838 184.182 684.473 184.182C699.571 184.182 714.621 185.927 729.623 183.213C734.094 182.39 738.518 181.421 742.99 180.742C744.528 180.5 743.855 178.029 742.268 178.271Z" fill="#333333"/>
<path d="M742.796 190.287C740.2 191.692 737.075 191.837 734.238 191.934C730.872 192.031 727.506 191.886 724.14 191.886C720.342 191.934 716.543 192.419 712.745 192.515C708.225 192.612 703.705 192.467 699.185 192.273C694.137 192.079 689.088 191.837 684.039 191.837C682.405 191.837 682.405 194.405 684.039 194.405C693.271 194.405 702.455 195.229 711.687 195.132C715.678 195.083 719.621 194.55 723.563 194.502C727.025 194.453 730.487 194.647 733.901 194.55C737.315 194.453 740.969 194.211 744.047 192.564C745.537 191.74 744.239 189.511 742.796 190.287Z" fill="#333333"/>
<path d="M652.581 304.861C655.053 302.766 657.25 300.908 659.447 299.049C660.271 298.338 661.291 298.18 661.919 299.247C664.862 304.584 665.607 311.543 666.274 317.513C666.392 318.422 666.823 319.41 666.706 320.32C666.549 321.506 665.568 321.545 664.508 321.506C661.213 321.348 657.76 321.506 654.386 321.585C652.228 321.624 650.109 322.02 648.029 322.376C647.323 322.494 645.911 323.048 645.205 322.613C644.42 322.138 644.891 321.308 645.008 320.517C645.44 318.066 646.185 315.694 647.323 313.48C647.559 313.006 647.833 312.571 647.873 312.057C647.951 310.989 646.068 309.843 645.361 309.171C641.791 305.533 638.142 301.936 634.886 298.021C631.394 293.791 627.98 289.403 625.351 284.579C622.762 279.677 619.976 273.667 621.389 268.172C622.173 265.127 628.804 265.325 631.158 265.641C632.806 265.879 634.532 265.76 636.22 265.72C637.514 265.72 638.534 266.946 638.142 268.409C637.083 272.481 638.181 276.356 639.005 280.309C639.947 284.737 641.438 288.928 643.557 292.921C645.911 297.507 649.364 301.105 652.581 304.861ZM634.415 267.5C631.276 267.5 628.451 267.223 625.704 267.697C624.41 267.895 622.056 268.132 622.369 270.702C623.036 276.118 624.998 281.06 627.823 285.607C631.904 292.091 636.612 298.061 642.262 303.24C644.577 305.336 646.695 307.668 649.167 309.526C650.501 310.554 650.423 311.187 649.795 312.492C648.657 314.982 647.794 317.592 646.695 320.399C652.659 320.162 658.035 319.964 663.881 319.766C663.292 319.806 660.82 304.387 660.271 303.003C659.996 303.122 659.8 303.28 659.604 303.477C657.799 305.059 655.994 306.68 654.033 308.064C652.502 309.171 651.757 307.826 650.58 306.719C649.324 305.533 648.147 304.308 647.009 303.003C642.733 298.18 639.201 292.724 636.612 286.793C633.983 280.863 633.709 274.023 634.415 267.5Z" fill="#333333"/>
<path d="M658.543 485.765C659.615 484.291 663.078 485.126 665.321 484.979C670.832 484.635 676.343 483.849 681.805 483.407C684.828 483.161 687.852 482.964 690.827 483.259C693.363 483.505 693.899 485.028 692.485 486.65C687.657 492.154 682.78 497.608 677.855 503.014C676.44 504.537 674.782 505.815 673.222 507.24C672.1 508.223 670.686 509.058 669.223 508.763C667.516 508.37 666.54 506.601 665.809 505.029C663.322 499.623 660.054 494.119 658.396 488.37C658.055 487.092 658.152 486.257 658.543 485.765ZM670.881 487.633C670.783 487.289 670.539 487.141 670.003 487.534C668.93 488.37 669.271 491.22 669.174 492.399C669.028 494.463 668.881 496.576 668.784 498.689C668.735 500.213 668.979 501.982 669.515 503.407C669.662 503.898 669.905 504.39 670.344 504.636C670.881 504.98 671.612 504.832 672.197 504.537C675.758 502.67 674.343 498.1 674.538 494.955C674.636 493.579 676.001 488.517 674.928 487.78C673.124 486.552 673.368 489.893 673.368 490.679C673.319 492.105 673.27 493.579 673.124 495.004C673.027 495.938 672.831 500.655 671.076 500.262C669.905 499.967 670.637 494.168 670.686 493.136C670.734 491.859 670.832 490.532 670.881 489.254C670.93 488.959 671.027 488.075 670.881 487.633ZM680.195 486.552C680.147 486.404 680.098 486.355 680 486.306C679.756 486.158 679.415 486.158 679.123 486.306C678.342 486.601 677.903 487.485 677.659 488.272C677.074 490.041 676.489 491.859 676.294 493.677C676.05 495.692 676.245 498.051 676.977 499.967C677.416 500.115 677.806 499.574 678.001 499.132C678.879 496.92 679.513 494.906 679.756 492.498C679.854 491.564 680.586 487.682 680.195 486.552ZM689.12 485.52C688.388 485.323 687.267 485.372 687.267 485.372C685.901 485.421 684.487 485.47 683.121 485.569C682.829 485.569 682.341 486.06 682.292 486.355C682.146 487.633 682.049 488.959 681.902 490.237C681.805 491.171 681.366 492.596 681.561 493.53C681.61 493.824 681.853 494.168 682.146 494.218C682.341 494.267 682.585 494.168 682.731 494.07C683.268 493.775 683.609 493.186 683.902 492.645C684.438 491.662 684.926 490.827 685.121 489.746C685.316 488.419 685.17 488.026 686.34 487.584C687.511 487.141 688.681 487.289 689.608 486.208C689.949 485.814 689.608 485.618 689.12 485.52ZM666.54 488.026C666.443 487.928 666.297 487.829 666.199 487.78C663.468 486.797 665.126 497.657 665.224 498.886C665.272 499.279 665.468 499.82 665.858 499.721C666.15 499.672 666.248 499.328 666.297 499.083C666.735 497.166 666.882 495.053 667.077 493.087C667.223 491.711 667.662 489.107 666.54 488.026ZM661.81 489.647C661.81 490.139 661.81 490.679 661.859 491.171C661.907 491.466 662.005 491.662 662.249 491.761C662.785 491.269 663.078 488.861 662.541 488.272C661.664 487.338 661.81 489.107 661.81 489.647Z" fill="#333333"/>
<path d="M275.869 644.052C278.221 641.404 280.857 639.05 283.691 637.04C285.364 635.884 287.055 634.661 288.894 633.695C292.762 631.595 321.679 623.929 320.924 631.508C320.572 635.34 320.507 639.177 320.443 643.013C320.453 644.906 320.087 647.135 317.899 646.118C308.748 641.654 301.133 645.668 293.263 649.831C286.227 653.562 282.866 659.795 280.982 667.002C279.205 673.801 282.51 680.204 288.646 683.505C292.883 685.792 292.985 687.055 289.128 689.667C287.029 691.073 285.228 692.994 283.079 694.314C281.715 695.116 279.016 695.781 277.518 695.165C276.474 694.742 275.671 693.948 274.869 693.153C270.459 688.493 267.47 682.538 266.228 676.246C265.668 673.698 264.837 671.079 265.09 668.456C265.777 659.477 269.845 650.814 275.869 644.052ZM316.581 632.391C314.813 630.322 307.802 632.024 305.547 632.371C299.68 633.285 293.813 634.2 288.78 637.445C275.372 645.956 263.109 663.059 270.265 679.572C270.858 680.892 271.451 682.213 272.111 683.551C273.517 686.178 275.282 688.537 277.405 690.627C279.596 692.735 280.537 691.895 282.608 690.045C282.984 689.709 286.224 686.424 286.359 686.46C285.13 685.916 284.246 684.881 283.241 684.033C279.992 681.281 277.39 678.263 276.971 673.79C276.185 664.929 279.329 657.039 285.425 651.386C293.129 644.27 302.364 639.305 313.667 640.778C314.58 640.875 315.496 640.682 316.53 640.593C316.608 638.36 317.262 636.134 317.188 633.933C317.028 633.164 316.865 632.684 316.581 632.391Z" fill="#333333"/>
<path d="M356.813 700.362C352.901 705.941 346.956 710.47 341.109 713.789C337.053 716.057 332.55 717.552 327.972 718.228C323.327 718.885 318.529 719.575 313.905 718.493C309.821 717.555 308.785 713.79 309.29 709.925C309.404 708.938 309.365 707.982 309.394 707.045C309.412 704.214 310.968 702.955 313.738 703.399C332.083 706.087 341.677 699.472 347.572 684.096C351.175 674.728 349.014 666.157 343.578 658.244C341.018 654.511 341.58 652.915 345.973 652.118C346.889 651.925 347.873 651.75 348.807 651.488C351.066 650.852 353.577 650.355 355.924 650.76C358.627 651.186 359.44 652.493 360.288 655.044C362.648 662.578 365.338 670.78 364.918 678.739C364.483 686.476 361.463 693.89 357.136 700.23C356.933 700.176 356.898 700.312 356.813 700.362ZM347.24 656.38C351.553 663.341 353.619 671.451 352.349 679.62C350.955 688.266 346.198 697.909 338.743 702.692C334.239 705.568 328.891 706.984 323.606 707.327C322.573 707.416 312.526 708.312 312.49 707.067C312.547 709.335 312.163 711.633 312.965 713.809C313.504 715.333 313.86 715.355 315.465 715.563C317.915 715.849 320.319 715.761 322.763 715.246C325.529 714.599 328.218 714.803 331.006 713.798C337.566 711.613 344.754 709.231 349.272 703.814C351.61 700.945 354.181 698.283 356.217 695.188C359.304 690.554 360.832 684.707 360.986 679.15C361.144 673.302 359.206 667.19 358.092 661.514C356.836 655.001 353.825 653.547 347.24 656.38Z" fill="#333333"/>
<path d="M710.069 661.773C709.512 668.232 709.001 675.909 703.937 680.543C699.524 684.615 693.253 686.768 687.586 688.313C672.768 692.432 656.603 693.836 641.367 695.474C633.516 696.317 625.666 696.879 617.769 696.879C611.08 696.879 604.252 696.925 598.259 693.649C592.314 690.419 591.106 685.973 590.827 679.513C590.456 671.462 590.874 663.411 591.756 655.407C593.196 642.161 593.707 625.357 605.32 616.651C616.236 608.459 630.869 612.251 643.411 612.251C651.075 612.251 658.74 611.829 666.358 611.034C671.003 610.566 676.113 610.097 680.247 607.71C683.591 605.791 685.589 602.655 686.843 599.051C688.887 593.153 690.095 587.115 692.371 581.264C693.486 578.315 693.857 575.46 697.388 576.443C700.36 577.239 704.262 579.251 705.424 582.247C708.35 589.736 708.443 599.847 709.001 607.757C710.301 625.45 711.602 644.08 710.069 661.773ZM695.065 589.315C693.718 586.46 693.253 590.111 693.068 591C692.557 593.528 691.674 596.008 691.024 598.489C689.491 604.481 687.4 608.085 681.687 610.753C669.888 616.276 656.649 614.825 643.968 615.012C633.795 615.153 622.182 613.468 612.567 617.587C603.973 621.284 599.792 629.101 597.795 637.901C596.355 644.22 595.426 650.586 594.868 657.045C594.311 663.505 593.475 670.76 594.497 677.22C596.587 690.138 611.359 688.219 621.346 688.266C634.724 688.36 648.056 686.394 661.341 685.083C671.003 684.1 689.166 684.428 694.647 674.271C697.991 668.092 698.131 658.497 698.131 651.709C698.177 644.501 697.991 637.293 697.759 630.084C697.527 622.361 697.248 614.685 696.644 606.961C696.366 603.498 695.948 599.987 695.762 596.523C695.669 594.183 696.087 591.468 695.065 589.315Z" fill="#333333"/>
<path d="M630.493 641.458C630.493 641.13 630.354 640.803 630.121 640.569C630.028 640.522 629.935 640.428 629.889 640.381C629.703 640.288 629.471 640.194 629.239 640.194C629.192 640.194 629.146 640.194 629.099 640.194C628.96 640.194 628.821 640.194 628.681 640.241C628.403 640.288 628.217 640.475 627.984 640.615C627.799 640.803 627.659 641.037 627.613 641.271C627.566 641.411 627.566 641.552 627.566 641.692C627.566 641.739 627.566 641.786 627.566 641.832C627.566 642.02 627.613 642.16 627.659 642.301C627.706 642.441 627.799 642.581 627.938 642.722C628.17 642.956 628.495 643.096 628.821 643.096C629.146 643.096 629.471 642.956 629.703 642.722C629.75 642.628 629.843 642.581 629.889 642.488C629.982 642.441 630.075 642.347 630.121 642.301C630.354 642.16 630.493 641.786 630.493 641.458Z" fill="#333333"/>
<path d="M642.568 639.82C640.942 639.82 640.942 642.348 642.568 642.348C644.147 642.348 644.147 639.82 642.568 639.82Z" fill="#333333"/>
<path d="M658.356 638.977C656.73 638.977 656.73 641.505 658.356 641.505C659.982 641.505 659.982 638.977 658.356 638.977Z" fill="#333333"/>
<path d="M675.036 638.135C673.41 638.135 673.41 640.662 675.036 640.662C676.615 640.662 676.615 638.135 675.036 638.135Z" fill="#333333"/>
<path d="M629.235 658.684C627.609 658.684 627.609 661.211 629.235 661.211C630.861 661.211 630.861 658.684 629.235 658.684Z" fill="#333333"/>
<path d="M644.192 656.999C642.566 656.999 642.566 659.526 644.192 659.526C645.818 659.526 645.818 656.999 644.192 656.999Z" fill="#333333"/>
<path d="M661.335 656.952C661.103 656.718 660.778 656.578 660.453 656.578H660.035C659.71 656.578 659.384 656.718 659.152 656.952C658.92 657.186 658.781 657.514 658.781 657.841C658.781 658.169 658.92 658.497 659.152 658.731C659.384 658.965 659.71 659.105 660.035 659.105H660.453C660.778 659.105 661.103 658.965 661.335 658.731C661.568 658.497 661.707 658.169 661.707 657.841C661.707 657.514 661.568 657.186 661.335 656.952Z" fill="#333333"/>
<path d="M676.669 656.578C675.043 656.578 675.043 659.105 676.669 659.105C678.294 659.105 678.294 656.578 676.669 656.578Z" fill="#333333"/>
<path d="M420.957 335.436C422.14 332.157 423.466 328.239 426.738 326.541C429.595 325.044 433.152 324.805 436.311 324.797C444.582 324.736 453.178 326.274 461.324 327.561C465.521 328.225 469.679 329.035 473.783 330.143C477.26 331.082 480.815 332.015 483.477 334.559C486.121 337.073 486.134 339.553 485.386 342.95C484.467 347.186 483.137 351.312 481.572 355.349C478.992 362.032 476.404 370.694 469.165 373.589C462.359 376.315 455.278 372.291 448.759 370.531C444.775 369.455 440.733 368.598 436.664 367.943C434.185 367.534 431.464 367.061 428.985 367.721C426.982 368.249 425.51 369.599 424.36 371.296C422.483 374.075 421.02 377.044 419.029 379.766C418.042 381.142 417.454 382.574 415.755 381.567C414.32 380.737 412.57 379.143 412.38 377.423C411.894 373.12 413.243 367.851 414.047 363.662C415.816 354.283 417.715 344.418 420.957 335.436ZM418.741 375.203C419.047 376.876 419.793 375.044 420.012 374.607C420.627 373.365 421.429 372.2 422.11 371.002C423.734 368.103 425.319 366.523 428.657 365.938C435.553 364.723 442.234 367.335 448.851 369.017C454.158 370.372 459.961 372.877 465.528 372.086C470.506 371.37 473.759 367.894 476.013 363.6C477.635 360.518 478.998 357.34 480.18 354.06C481.363 350.781 482.8 347.128 483.162 343.627C483.861 336.619 475.918 335.543 470.734 334.117C463.793 332.191 456.592 331.342 449.506 330.159C444.348 329.314 434.953 326.595 430.7 331.105C428.108 333.847 426.709 338.815 425.771 342.342C424.751 346.083 423.851 349.855 422.976 353.634C422.029 357.681 421.113 361.71 420.359 365.809C420.025 367.649 419.757 369.532 419.375 371.358C419.1 372.588 418.508 373.94 418.741 375.203Z" fill="#333333"/>
<path d="M459.513 357.161C459.468 357.331 459.495 357.521 459.584 357.676C459.626 357.713 459.661 357.775 459.679 357.805C459.762 357.88 459.87 357.961 459.991 357.994C460.015 358.001 460.039 358.007 460.063 358.014C460.136 358.033 460.208 358.053 460.287 358.048C460.438 358.063 460.561 357.992 460.701 357.951C460.823 357.88 460.928 357.778 460.985 357.663C461.028 357.596 461.047 357.523 461.067 357.45C461.073 357.426 461.08 357.402 461.086 357.377C461.112 357.28 461.107 357.2 461.103 357.121C461.098 357.041 461.069 356.955 461.016 356.863C460.928 356.709 460.778 356.59 460.609 356.544C460.44 356.499 460.252 356.526 460.099 356.615C460.062 356.657 460.007 356.669 459.97 356.711C459.915 356.722 459.854 356.758 459.823 356.775C459.683 356.816 459.559 356.991 459.513 357.161Z" fill="#333333"/>
<path d="M453.004 356.318C453.849 356.547 454.198 355.233 453.353 355.005C452.532 354.783 452.183 356.097 453.004 356.318Z" fill="#333333"/>
<path d="M444.69 354.54C445.535 354.768 445.885 353.454 445.04 353.226C444.195 352.998 443.845 354.312 444.69 354.54Z" fill="#333333"/>
<path d="M435.897 352.637C436.743 352.866 437.092 351.552 436.247 351.324C435.426 351.102 435.077 352.416 435.897 352.637Z" fill="#333333"/>
<path d="M462.546 348.385C463.391 348.613 463.741 347.299 462.896 347.071C462.051 346.843 461.701 348.157 462.546 348.385Z" fill="#333333"/>
<path d="M454.538 347.161C455.383 347.39 455.732 346.076 454.887 345.848C454.042 345.619 453.693 346.933 454.538 347.161Z" fill="#333333"/>
<path d="M445.623 344.78C445.711 344.934 445.861 345.053 446.03 345.098L446.247 345.157C446.416 345.203 446.604 345.175 446.758 345.086C446.911 344.997 447.028 344.846 447.074 344.676C447.119 344.506 447.092 344.316 447.003 344.162C446.915 344.007 446.765 343.889 446.596 343.843L446.379 343.785C446.21 343.739 446.022 343.766 445.869 343.855C445.716 343.944 445.598 344.095 445.553 344.265C445.507 344.436 445.534 344.626 445.623 344.78Z" fill="#333333"/>
<path d="M437.605 342.824C438.45 343.052 438.799 341.738 437.954 341.51C437.109 341.282 436.759 342.595 437.605 342.824Z" fill="#333333"/>
<path d="M258.483 67.2151C255.794 65.9431 253.247 64.3178 250.699 62.7631C240.155 56.3323 229.258 50.5376 218.077 45.3789C213.052 43.0468 208.028 40.9268 203.145 38.3828C201.164 37.3934 198.121 36.192 196.918 34.2134C196.14 32.8707 196.777 31.8813 197.272 30.68C198.121 28.6306 199.183 26.6519 200.173 24.7439C201.942 21.2105 204.702 20.0799 208.17 21.9879C212.628 24.3906 217.086 26.7933 221.615 29.1253C230.602 33.86 239.518 38.5947 248.506 43.2588C252.468 45.3788 256.431 47.4988 260.394 49.5482C264.145 51.5269 267.824 53.9296 271.646 55.8376C275.891 57.887 273.273 60.9257 271.15 63.7524C270.089 65.2365 268.673 68.2751 267.046 69.1231C264.781 70.3952 260.96 68.3458 258.908 67.4271C258.837 67.3564 258.696 67.2857 258.483 67.2151ZM201.093 33.012C201.093 33.0827 214.609 39.7961 215.6 40.2908C221.049 42.9055 226.498 45.5202 231.947 48.2762C237.749 51.1736 243.481 54.1416 249.213 57.1803C252.044 58.735 254.945 60.219 257.776 61.7737C260.323 63.1871 263.012 65.2365 265.914 65.8725C266.975 63.9644 268.037 62.0564 268.886 60.0777C268.957 59.8657 269.098 59.6536 269.027 59.4416C268.956 59.159 268.744 58.947 268.461 58.8057C266.975 57.8164 265.489 56.827 264.003 55.979C258.908 53.0816 253.601 50.6083 248.435 47.8522C234.282 40.4321 220.341 32.4467 205.905 25.6626C205.622 25.5213 205.339 25.3799 205.056 25.4506C204.844 25.4506 204.631 25.5919 204.419 25.7332C203.711 26.2986 203.358 27.2173 203.004 28.0653C202.367 29.62 202.013 31.5986 201.093 33.012Z" fill="#333333"/>
<path d="M570.429 76.2874C568.193 79.9256 565.901 83.5638 563.781 87.2597C562.119 90.2627 558.565 89.3387 556.101 88.0682C555.184 87.6062 554.267 87.1442 553.35 86.6245C551.917 85.8737 550.313 84.9497 549.969 83.3905C549.625 82.0623 550.37 80.6763 551 79.4636C555.814 70.8012 561.316 62.4276 566.359 53.8807C567.792 51.3975 569.97 51.8595 572.148 53.0722C573.351 53.7074 574.498 54.4004 575.701 55.0357C576.446 55.4399 577.248 55.9019 577.707 56.6527C578.28 57.6344 578.223 58.8471 577.936 59.9444C577.478 61.7346 577.134 63.6403 576.389 65.2573C574.727 69.0687 572.606 72.7069 570.429 76.2874ZM568.709 66.5277C569.683 65.8925 570.944 65.8925 571.919 65.1995C573.237 64.3333 574.44 63.1783 575.357 61.9078C575.472 61.7346 575.586 61.5036 575.529 61.2726C575.415 60.8106 574.727 60.9261 574.326 61.1571C572.836 61.9078 571.403 62.8318 569.913 63.5826C569.225 63.9291 568.136 64.2178 567.678 64.853C567.334 65.315 567.563 65.9503 566.99 66.5277C566.073 67.394 564.698 67.394 563.494 67.7405C561.947 68.2025 560.686 69.1265 559.31 69.9927C558.909 70.2237 558.508 70.5124 558.279 70.9744C558.05 71.4364 558.221 72.0139 558.68 72.1872C558.966 72.3027 559.253 72.1872 559.54 72.0717C562.806 70.7435 565.729 68.3757 568.709 66.5277ZM574.727 58.0387C574.784 57.9232 574.841 57.8654 574.784 57.7499C574.727 57.6344 574.612 57.5189 574.498 57.4612C572.492 56.0752 570.142 54.8624 568.079 56.5949C566.417 58.0387 565.729 60.3486 564.64 62.1966C564.124 63.1783 564.468 63.8136 565.5 63.5248C566.073 63.3516 567.219 62.0811 567.792 61.7346C569.913 60.5218 572.091 59.4824 574.268 58.3851C574.44 58.2696 574.612 58.1542 574.727 58.0387ZM563.723 78.3086C561.545 79.0016 559.425 79.8678 557.247 80.7341C556.273 81.1383 553.694 81.6003 553.064 82.4088C551.23 84.661 558.279 82.9863 558.909 82.7553C561.545 81.7158 566.016 80.0988 567.391 77.4423C566.13 77.6156 564.927 77.9621 563.723 78.3086ZM569.626 71.8407C570.027 71.4942 570.429 71.2054 570.83 70.8589C571.116 70.5702 571.46 70.0505 571.174 69.7617C571.059 69.6462 570.887 69.5885 570.715 69.5885C569.34 69.473 568.881 70.2814 567.907 70.9744C566.761 71.7829 565.385 72.3604 564.124 72.9957C563.093 73.5154 561.889 74.4971 560.915 74.3239C558.68 73.8619 556.674 74.9591 555.241 76.5761C555.012 76.8649 554.84 77.0959 554.783 77.4423C557.476 77.6733 561.144 76.2296 563.609 75.2479C565.614 74.4394 567.792 73.2267 569.626 71.8407ZM561.316 85.8737C562.348 85.354 563.207 84.43 563.551 83.2173C561.775 83.044 560.972 83.9102 559.597 84.7187C558.68 85.2385 557.19 85.1807 556.388 85.8737C556.158 86.047 559.54 86.3935 559.941 86.3357C560.399 86.278 560.858 86.1047 561.316 85.8737Z" fill="#333333"/>
<path d="M540.45 56.7098C540.565 56.5366 540.679 56.3056 540.851 56.1323C543.316 52.5519 545.379 48.6827 548.015 45.2177C549.047 43.8318 551.396 42.2148 552.772 42.5035C555.867 43.1388 559.534 43.7163 560.91 47.239C561.368 48.4517 560.566 50.4152 559.821 51.7434C555.752 59.2508 551.511 66.7004 547.27 74.1501C546.009 76.4023 544.175 78.9432 541.195 78.4812C539.877 78.2502 538.616 77.5573 537.527 76.8065C535.521 75.4783 533.057 74.6698 532.77 71.9556C532.599 70.1076 533.344 68.1442 534.203 66.5849C535.98 63.2932 538.33 59.886 540.45 56.7098ZM553.345 56.1901C551.396 56.7098 549.047 58.5001 547.671 59.3663C546.296 60.2325 544.92 61.1565 543.373 61.6763C541.94 62.196 540.106 61.7917 539.075 63.0045C537.642 64.6215 536.438 66.4117 535.521 68.3174C535.178 69.0104 534.834 69.8189 535.178 70.5119C535.751 71.7823 538.043 71.4936 539.075 71.0894C540.679 70.4541 542.169 69.7034 543.717 68.8949C544.576 68.4907 546.869 67.7976 547.442 67.1047C548.187 66.1229 547.557 65.2567 546.525 65.3144C545.837 65.3722 545.092 66.0652 544.462 66.4117C542.742 67.2202 541.367 68.2019 539.705 66.7004C539.59 66.6427 539.533 66.5272 539.476 66.4117C539.418 66.2384 539.476 66.1229 539.59 66.0074C540.622 63.9862 543.659 63.1777 545.665 62.4847C547.442 61.8495 548.817 60.81 550.422 59.7705C552.084 58.6733 553.918 57.9803 554.835 56.0746C554.376 56.0168 553.918 56.0746 553.345 56.1901ZM542.112 57.4606C541.711 57.8071 541.367 58.2113 541.195 58.6733C542.513 59.424 544.576 57.576 545.665 56.9986C547.786 55.9013 549.849 54.8619 551.969 53.7069C553.459 52.8984 555.236 52.2054 556.612 51.2236C556.898 50.9926 558.961 48.9137 558.044 48.5095C556.268 47.8165 555.236 49.3757 553.918 50.4152C552.256 51.6857 550.594 52.9561 548.932 54.1689C547.958 54.8619 546.697 55.1506 545.551 55.7281C544.519 56.2478 543.086 56.7098 542.112 57.4606ZM547.442 51.2814C548.588 52.7251 554.205 47.1235 554.892 46.084C553.058 45.16 550.823 45.391 549.276 46.8347C548.588 47.5855 546.582 50.2419 547.442 51.2814ZM539.82 72.9373C539.59 73.0528 539.361 73.1106 539.304 73.2261C539.189 73.3416 539.304 73.5148 539.361 73.5726C540.278 74.7275 541.94 74.9008 543.373 74.9586C543.602 74.9586 543.774 74.9585 544.003 74.8431C544.175 74.7276 544.29 74.4965 544.404 74.3233C544.863 73.3993 545.321 72.4176 545.78 71.4936C545.837 71.3781 542.857 72.0711 542.571 72.1866C542.169 72.3599 540.679 72.6486 539.82 72.9373Z" fill="#333333"/>
<path d="M574.786 419.16C578.425 415.5 582.048 411.772 585.787 408.233C588.841 405.429 586.778 401.464 584.612 398.887C583.818 397.926 583.024 396.964 582.163 396.018C580.889 394.524 579.365 392.873 577.446 392.895C575.797 392.853 574.381 394.121 573.136 395.205C564.332 403.315 556.055 412.163 547.449 420.515C544.939 422.902 546.081 425.362 548.102 427.614C549.177 428.868 550.304 430.038 551.38 431.292C552.059 432.066 552.821 432.891 553.826 433.228C555.132 433.638 556.535 433.235 557.74 432.592C559.708 431.553 561.842 430.618 563.528 429.286C567.528 426.26 571.199 422.736 574.786 419.16ZM562.893 419.813C562.419 421.146 562.768 422.644 562.226 423.992C561.577 425.797 560.558 427.546 559.325 428.986C559.154 429.17 558.915 429.37 558.629 429.366C558.057 429.357 558.002 428.508 558.161 427.968C558.628 425.991 559.314 424.033 559.78 422.056C559.996 421.143 560.033 419.77 560.649 419.05C561.095 418.514 561.901 418.611 562.419 417.771C563.179 416.442 562.799 414.808 562.872 413.283C562.985 411.317 563.718 409.565 564.351 407.691C564.511 407.151 564.738 406.595 565.215 406.195C565.692 405.795 566.415 405.84 566.745 406.337C566.959 406.645 566.903 407.017 566.847 407.39C566.195 411.637 564.232 415.763 562.893 419.813ZM554.624 429.306C554.505 429.406 554.453 429.49 554.302 429.453C554.151 429.417 553.984 429.313 553.885 429.193C551.71 427.193 549.642 424.737 551.099 421.807C552.329 419.434 554.841 417.979 556.703 416.176C557.709 415.292 558.547 415.525 558.494 416.83C558.45 417.559 557.28 419.271 557.033 420.048C556.2 422.901 555.585 425.775 554.903 428.665C554.815 428.901 554.727 429.138 554.624 429.306ZM575.299 410.637C575.508 407.858 575.936 405.1 576.348 402.274C576.552 401.005 576.38 397.814 577.152 396.842C579.28 394.042 579.268 402.878 579.172 403.69C578.684 407.109 578.026 412.866 575.298 415.233C575.153 413.687 575.226 412.162 575.299 410.637ZM569.362 419.435C569.068 420.007 568.841 420.564 568.546 421.136C568.287 421.556 567.774 422.108 567.357 421.847C567.191 421.743 567.076 421.555 567.028 421.351C566.513 419.749 567.332 418.981 567.874 417.632C568.503 416.047 568.799 414.254 569.194 412.581C569.517 411.212 570.333 409.511 569.862 408.401C568.704 405.874 569.434 403.188 570.93 401.04C571.204 400.688 571.427 400.42 571.816 400.256C572.831 403.392 572.154 408.147 571.687 411.346C571.295 413.952 570.477 416.874 569.362 419.435ZM583.485 405.688C583.161 407.057 582.318 408.334 580.994 409.077C580.301 407.014 581.093 405.822 581.658 403.965C582.013 402.732 581.534 400.978 582.123 399.834C582.263 399.513 583.602 403.434 583.645 403.927C583.704 404.487 583.628 405.08 583.485 405.688Z" fill="#333333"/>
<path d="M543.599 388.961C543.428 389.145 543.19 389.345 543.034 389.597C539.526 393.513 535.569 397.033 532.244 401.121C530.907 402.729 529.664 405.967 530.382 407.521C531.98 411.022 533.668 415.22 538.17 415.881C539.715 416.09 541.79 414.595 543.139 413.343C550.798 406.436 558.342 399.341 565.886 392.246C568.172 390.126 570.639 387.246 569.275 383.834C568.641 382.332 567.482 381.025 566.303 379.939C564.195 377.923 562.569 375.219 559.314 375.628C557.105 375.935 555.014 377.362 553.427 378.814C550.067 381.833 546.729 385.565 543.599 388.961ZM546.552 404.422C546.622 401.964 548.068 398.679 548.701 396.805C549.335 394.932 550.036 393.043 550.217 391.062C550.429 389.216 549.449 387.149 550.583 385.589C552.079 383.441 553.841 381.517 555.818 379.901C556.533 379.301 557.384 378.669 558.29 378.886C559.935 379.216 560.23 382.019 560.042 383.356C559.742 385.438 559.275 387.415 558.757 389.477C558.521 390.609 558.343 393.524 557.691 394.396C556.748 395.552 555.561 395.043 555.343 393.801C555.221 392.968 555.826 391.892 556.057 391.047C556.528 388.782 557.297 386.877 555.081 385.317C554.982 385.197 554.831 385.161 554.68 385.125C554.462 385.104 554.342 385.204 554.239 385.372C552.159 387.156 552.052 390.987 551.795 393.562C551.543 395.847 550.707 397.768 549.934 399.962C549.109 402.239 548.805 404.609 546.829 406.224C546.634 405.696 546.575 405.135 546.552 404.422ZM544.936 390.728C545.231 390.156 545.609 389.636 546.102 389.304C547.344 390.663 545.752 393.624 545.377 395.077C544.679 397.899 544.033 400.636 543.267 403.474C542.733 405.468 542.413 407.769 541.644 409.674C541.453 410.079 539.591 413.103 538.865 412.126C537.563 410.207 539.102 408.551 539.954 406.698C540.982 404.373 542.009 402.048 542.969 399.739C543.511 398.39 543.5 396.812 543.859 395.291C544.182 393.922 544.327 392.093 544.936 390.728ZM539.179 398.766C541.185 399.729 536.183 407.947 535.156 409.051C533.569 407.128 533.222 404.409 534.484 402.172C535.172 401.148 537.726 398.032 539.179 398.766ZM562.41 383.731C562.481 383.427 562.486 383.138 562.605 383.039C562.708 382.87 562.943 382.959 563.026 383.011C564.631 383.781 565.292 385.708 565.755 387.394C565.819 387.666 565.866 387.87 565.794 388.174C565.707 388.41 565.468 388.61 565.297 388.794C564.343 389.594 563.321 390.41 562.367 391.21C562.247 391.31 562.235 387.578 562.291 387.206C562.383 386.682 562.309 384.832 562.41 383.731Z" fill="#333333"/>
<path d="M209.37 170.484C212.627 166.078 215.705 161.672 219.855 157.986C224.45 153.895 229.536 150.343 234.489 146.701C236.407 145.308 238.549 143.33 241.047 143.24C243.679 143.15 245.509 145.667 247.159 147.376C251.086 151.422 255.28 155.333 258.492 159.964C254.164 160.683 249.792 161.088 245.732 162.796C241.092 164.729 237.165 168.191 233.195 171.203C228.599 174.665 224.048 178.127 219.498 181.678C218.695 182.308 216.508 183.477 216.731 184.735C216.91 185.949 219.587 187.163 220.39 187.838C221.416 188.647 224.673 190.67 224.495 192.288C224.271 194.581 220.568 193.637 219.23 193.682C214.278 193.817 209.102 195.525 204.373 196.919C202.454 197.503 200.937 198.448 199.153 199.212C196.922 200.156 195.316 199.032 193.888 197.234C192.327 195.3 193.085 193.637 193.576 191.344C194.2 188.467 194.78 185.545 195.405 182.667C196.699 176.598 197.993 170.754 200.536 165.089C201.25 163.471 201.785 162.392 203.436 163.695C205.756 165.449 207.541 168.326 209.37 170.484ZM253.986 158.66C252.335 155.243 249.078 152.276 246.624 149.399C243.724 146.027 240.646 147.331 237.478 149.579C230.116 154.839 223.424 160.413 217.535 167.337C215.75 169.405 214.188 171.563 212.671 173.856C212.091 174.71 210.262 178.441 209.058 178.486C208.21 178.531 205.756 174.71 205.265 174.081C204.685 173.316 203.927 171.023 203.079 170.619C201.205 169.765 199.956 176.373 199.688 177.452C198.26 183.656 198.439 190.175 197.725 196.514C199.153 196.694 200.893 195.93 202.276 195.57C204.105 195.121 205.934 194.671 207.808 194.266C211.422 193.457 215.036 192.693 218.605 191.839C222.308 190.985 217.267 188.782 215.794 187.972C212.805 186.354 211.511 185.41 214.59 182.937C221.015 177.767 227.528 172.642 234.132 167.742C236.853 165.718 239.619 163.74 242.609 162.212C246.267 160.324 250.059 159.604 253.986 158.66Z" fill="#333333"/>
<path d="M73.2814 82.1813C74.6262 80.3335 78.9661 81.3806 81.7779 81.1958C88.6852 80.7647 95.5924 79.7791 102.439 79.2248C106.228 78.9168 110.018 78.6705 113.747 79.04C116.925 79.348 117.598 81.2574 115.825 83.29C109.774 90.1886 103.661 97.0256 97.4873 103.801C95.7147 105.71 93.6364 107.312 91.6803 109.098C90.2744 110.33 88.5018 111.377 86.668 111.007C84.5286 110.515 83.3061 108.297 82.3892 106.326C79.2717 99.5509 75.1763 92.6523 73.098 85.4458C72.6701 83.8443 72.7924 82.7973 73.2814 82.1813ZM88.7463 84.5219C88.624 84.0907 88.3184 83.906 87.646 84.3987C86.3013 85.4458 86.7291 89.0183 86.6069 90.4965C86.4235 93.0835 86.2401 95.732 86.1179 98.3806C86.0568 100.29 86.3624 102.507 87.0348 104.294C87.2182 104.91 87.5238 105.526 88.0739 105.834C88.7463 106.265 89.6632 106.08 90.3967 105.71C94.8589 103.37 93.0863 97.6415 93.3308 93.6994C93.453 91.9748 95.1645 85.6306 93.8198 84.7067C91.5581 83.1668 91.8637 87.3552 91.8637 88.3407C91.8026 90.127 91.7415 91.9748 91.5581 93.761C91.4358 94.9313 91.1914 100.844 88.9908 100.352C87.5238 99.9821 88.4407 92.7139 88.5018 91.4205C88.5629 89.819 88.6852 88.156 88.7463 86.5545C88.8074 86.185 88.9297 85.0762 88.7463 84.5219ZM100.421 83.1668C100.36 82.9821 100.299 82.9205 100.177 82.8589C99.8713 82.6741 99.4434 82.6741 99.0766 82.8589C98.0986 83.2284 97.5485 84.3371 97.2428 85.3226C96.5093 87.54 95.7758 89.819 95.5313 92.098C95.2257 94.6234 95.4702 97.5799 96.3871 99.9821C96.9372 100.167 97.4262 99.4893 97.6707 98.935C98.771 96.1632 99.5656 93.6379 99.8713 90.6197C99.9935 89.4494 100.91 84.5835 100.421 83.1668ZM111.607 81.8733C110.691 81.627 109.285 81.6886 109.285 81.6886C107.573 81.7502 105.8 81.8118 104.089 81.935C103.722 81.935 103.111 82.5509 103.05 82.9205C102.866 84.5219 102.744 86.185 102.561 87.7864C102.439 88.9567 101.888 90.7429 102.133 91.9132C102.194 92.2828 102.5 92.7139 102.866 92.7755C103.111 92.8371 103.417 92.7139 103.6 92.5908C104.272 92.2212 104.7 91.482 105.067 90.8045C105.739 89.5726 106.351 88.5255 106.595 87.1705C106.84 85.5074 106.656 85.0147 108.123 84.4603C109.59 83.906 111.057 84.0907 112.219 82.7357C112.647 82.2429 112.219 81.9965 111.607 81.8733ZM83.3061 85.0147C83.1838 84.8915 83.0005 84.7683 82.8782 84.7067C79.4551 83.4748 81.5334 97.0871 81.6557 98.627C81.7168 99.1197 81.9613 99.7973 82.4503 99.6741C82.8171 99.6125 82.9393 99.1814 83.0004 98.8734C83.5506 96.4712 83.734 93.8226 83.9785 91.3589C84.1618 89.6342 84.712 86.3697 83.3061 85.0147ZM77.3769 87.0473C77.3769 87.6632 77.3768 88.3407 77.438 88.9567C77.4991 89.3262 77.6213 89.5726 77.927 89.6958C78.5994 89.0799 78.9661 86.0618 78.2937 85.3226C77.1935 84.1524 77.3769 86.3697 77.3769 87.0473Z" fill="#333333"/>
<path d="M467.854 565.987C464.462 565.366 462.998 558.709 460.881 554.969C455.713 545.767 449.795 536.932 444.501 527.895C441.569 522.893 438.721 517.851 436.746 512.483C435.053 507.912 437.19 505.721 441.116 506.807C454.466 510.542 467.773 514.401 481.038 518.385C484.798 519.553 488.344 521.345 492.059 522.846C494.658 523.96 497.252 525.7 497.969 528.465C498.722 531.731 496.534 534.882 494.476 537.45C487.378 546.229 480.763 556.434 472.392 564.072C470.51 565.723 469.012 566.25 467.854 565.987ZM460.756 543.189C460.254 543.643 460.207 544.186 461.32 544.782C463.629 545.935 468.178 542.976 470.259 542.162C473.881 540.697 477.586 539.191 481.251 537.601C483.875 536.418 486.672 534.526 488.642 532.417C489.354 531.756 489.984 530.928 490.036 529.967C490.173 528.758 489.314 527.621 488.327 526.858C482.199 522.282 475.626 528.519 470.13 530.8C467.715 531.776 457.996 533.636 457.639 536.097C457.057 540.226 462.52 537.026 463.854 536.372C466.311 535.27 468.851 534.128 471.39 533.194C473.054 532.585 481.217 528.996 482.01 532.346C482.484 534.607 472.042 538.172 470.252 538.946C468.045 539.925 465.713 540.861 463.506 541.84C462.966 542.001 461.384 542.569 460.756 543.189ZM451.174 528.05C450.964 528.257 450.921 528.381 450.919 528.59C450.872 529.133 451.156 529.72 451.65 530.102C452.799 531.2 454.664 531.22 456.2 530.985C459.687 530.521 463.257 530.016 466.503 528.84C470.122 527.583 473.96 525.285 476.601 522.431C476.486 521.553 475.245 521.331 474.333 521.363C469.852 521.691 465.908 522.275 461.622 523.859C459.958 524.468 452.766 526.438 451.174 528.05ZM441.999 513.542C442.274 514.965 443.291 516.855 443.291 516.855C444.51 519.166 445.77 521.56 447.073 523.829C447.316 524.333 448.555 524.764 449.096 524.603C451.384 523.792 453.715 522.856 456.004 522.045C457.668 521.436 460.45 521.006 461.871 519.893C462.33 519.564 462.711 518.858 462.551 518.313C462.472 517.937 462.102 517.599 461.814 517.428C460.868 516.75 459.584 516.653 458.424 516.599C456.311 516.493 454.488 516.348 452.493 516.911C450.08 517.679 449.535 518.258 447.812 516.611C446.088 514.964 445.364 512.826 442.76 512.13C441.809 511.869 441.76 512.62 441.999 513.542ZM465.034 550.335C464.948 550.585 464.903 550.919 464.901 551.128C465.506 556.648 482.544 544.758 484.546 543.568C485.172 543.157 485.926 542.371 485.435 541.781C485.108 541.318 484.444 541.436 483.987 541.557C480.371 542.395 476.666 543.901 473.171 545.201C470.716 546.094 465.934 547.505 465.034 550.335ZM471.719 557.131C472.552 556.723 473.469 556.273 474.262 555.78C474.721 555.451 474.973 555.119 474.937 554.618C473.658 554.103 469.331 555.602 468.777 557.017C467.924 559.305 470.802 557.581 471.719 557.131Z" fill="#333333"/>
<path d="M81.0297 208.627C79.7566 205.336 75.716 206.451 72.8378 206.786C68.5204 207.344 64.2584 207.902 59.941 208.404C57.7823 208.682 56.8967 209.686 57.9484 211.638C59.2214 214.093 60.7159 216.379 62.2104 218.722C64.8119 222.905 67.4134 227.088 70.0702 231.215C74.8858 238.689 80.2548 245.773 85.015 253.302C87.3951 256.983 89.1663 261.167 91.6017 264.792C93.2622 267.302 95.0888 269.7 96.9154 272.154C97.801 273.325 99.683 277.676 101.62 276.226C103.17 275.054 101.177 272.098 100.845 270.704C100.236 268.473 99.6276 266.242 98.9634 264.011C97.7457 259.772 96.528 255.533 95.2549 251.239C93.4837 245.326 91.7124 239.414 89.7198 233.614C88.2807 229.375 86.6755 225.136 85.1256 220.897C83.6865 216.937 82.3581 213.033 81.1957 209.017C81.1404 208.906 81.0851 208.794 81.0297 208.627ZM95.3656 261.836L95.3102 261.892C93.8711 260.943 92.9855 258.043 92.1552 256.537C91.0482 254.474 89.9412 252.466 88.8895 250.402C86.6755 246.33 84.5168 242.203 82.3028 238.132C80.0887 234.004 77.93 229.933 75.716 225.805C75.0518 224.634 69.8488 213.367 69.1293 213.479C71.8415 213.089 74.775 212.587 77.6533 212.308C78.3728 212.252 79.5352 212.866 79.812 213.479C81.1957 216.268 82.4688 219.057 83.4651 221.957C86.7308 231.55 89.9412 241.143 92.9855 250.737C93.6497 252.8 94.1479 254.976 94.646 257.095C95.0335 258.266 96.3065 260.832 95.3656 261.836Z" fill="#333333"/>
<path d="M104.88 289.333C103.939 289.891 103.053 290.504 102.279 291.285C100.341 293.237 100.507 295.636 100.839 298.201C101.005 299.317 101.172 300.488 101.559 301.548C102.611 304.392 104.714 304.95 107.426 305.452C112.795 306.4 117.279 303.667 118.828 298.48C120.323 293.405 115.175 286.991 109.917 287.772C109.253 287.883 108.533 287.995 107.869 288.162C106.817 288.385 105.821 288.775 104.88 289.333ZM108.256 297.142C108.146 296.751 108.035 296.417 107.98 296.026C107.426 290.449 115.12 290.281 115.563 295.747C115.729 297.588 115.84 299.93 113.57 300.265C112.02 300.488 110.36 299.93 109.253 298.815C108.81 298.257 108.478 297.699 108.256 297.142Z" fill="#333333"/>
<path d="M233.6 527.224C230.141 528.63 228.052 524.663 226.21 522.172C223.491 518.395 220.811 514.661 218.049 510.925C216.689 509.036 216.815 507.613 219.082 507.01C221.897 506.214 224.745 505.713 227.636 505.171C232.749 504.152 237.862 503.132 242.973 502.196C252.231 500.504 261.592 499.53 270.852 497.754C275.418 496.928 279.925 495.26 284.489 494.517C287.629 493.983 290.805 493.659 294.024 493.296C295.57 493.133 300.287 491.429 300.585 493.999C300.815 496.063 297.089 496.663 295.775 497.421C293.616 498.573 291.457 499.724 289.257 500.833C285.11 502.974 280.963 505.114 276.733 507.253C270.896 510.181 265.059 513.11 259.147 515.785C254.839 517.753 250.409 519.591 246.02 521.473C241.926 523.237 237.956 525.048 234.021 527.069C233.895 527.107 233.769 527.145 233.6 527.224ZM284.961 499.611L284.963 499.527C283.185 499.095 280.309 500.519 278.546 500.969C276.152 501.61 273.801 502.21 271.448 502.894C266.703 504.135 261.956 505.46 257.211 506.701C252.423 507.982 247.719 509.267 242.931 510.548C241.546 510.884 229.09 515.039 228.651 514.396C230.329 516.798 232.083 519.454 233.967 521.904C234.449 522.506 235.768 522.966 236.442 522.735C239.595 521.781 242.667 520.741 245.624 519.404C255.381 514.957 265.097 510.467 274.692 505.847C276.763 504.861 278.799 503.663 280.791 502.506C281.974 501.955 284.875 501.077 284.961 499.611Z" fill="#333333"/>
<path d="M313.043 486.988C312.786 485.846 312.612 484.708 312.647 483.533C312.735 480.597 314.7 478.978 316.914 477.366C317.893 476.682 318.914 475.958 320.012 475.487C322.966 474.234 324.928 475.469 327.292 477.22C331.937 480.72 333.105 486.213 330.248 491.205C327.436 496.073 318.75 496.733 315.516 492.059C315.117 491.459 314.678 490.816 314.323 490.175C313.727 489.191 313.301 488.129 313.043 486.988ZM321.509 483.929C321.128 484.127 320.79 484.285 320.449 484.526C315.758 488.162 321.24 494.29 325.765 490.649C327.301 489.436 329.183 487.814 327.785 485.799C326.826 484.426 325.186 483.537 323.522 483.486C322.77 483.547 322.099 483.695 321.509 483.929Z" fill="#333333"/>
<path d="M477.651 696.542C483.45 699.777 488.596 702.657 493.741 705.536C495.699 706.605 496.749 708.458 495.179 710.454C487.188 720.052 474.503 726.597 463.639 732.265C461.996 733.16 460.433 734.718 458.618 735.158C456.247 735.725 455.452 733.86 454.75 731.786C452.633 725.306 449.799 718.755 447.172 712.298C445.514 708.16 443.207 704.359 441.005 700.605C440.261 699.328 438.172 697.007 438.481 695.324C438.808 693.461 440.732 693.761 442.322 693.408C447.3 692.442 452.358 692.141 457.403 692.714C458.478 692.82 459.507 693.032 460.513 692.73C462.601 692.099 463.399 687.621 464.159 685.764C468.456 676.201 472.621 666.515 477.675 657.355C483.157 647.509 488.998 637.698 496.242 629.083C503.44 620.572 512.748 610.813 524.236 609.508C530.601 608.79 535.09 621.738 536.216 626.516C536.974 629.872 538.466 633.119 539.779 636.347C540.729 638.847 539.147 641.716 536.077 642.032C527.556 642.975 520.994 647.939 514.08 652.431C506.35 657.498 499.474 663.452 493.435 670.472C486.742 678.267 482.433 687.574 477.651 696.542ZM535.372 634.052C533.069 627.991 531.523 622.333 528.605 617.378C527.279 615.023 525.101 610.651 520.444 613.143C510.633 618.405 502.675 625.819 496.101 634.61C486.765 647.246 478.866 660.718 473.163 675.428C470.876 681.435 467.995 687.238 466.275 693.374C465.299 696.704 464.038 697.017 461.097 696.762C455.525 696.392 449.93 696.64 443.785 696.578C448.612 707.92 452.932 718.154 457.598 729.297C457.091 728.19 484.599 712.104 486.827 710.028C486.4 709.584 485.956 709.322 485.436 709.088C481.104 706.763 476.697 704.468 472.627 701.695C469.399 699.552 471.408 697.127 472.649 694.042C473.984 690.747 475.451 687.575 477.097 684.421C483.132 672.624 490.916 661.802 500.294 652.45C509.643 643.023 522.448 637.474 535.372 634.052Z" fill="#333333"/>
</g>
</svg>
