<svg width="414" height="721" viewBox="0 0 414 721" fill="none" xmlns="http://www.w3.org/2000/svg">
<g opacity="0.05">
<path d="M-5.47316 63.952C-4.88121 64.8669 -4.34308 65.7817 -3.85876 66.5889C-2.35199 69.3334 -1.32955 72.4007 -0.84523 75.5219C-0.468536 77.8359 -0.4147 80.2037 -0.14563 82.5176C0.607754 88.2218 2.92171 93.6032 5.45093 98.7692C6.47338 100.868 8.41068 102.859 7.54966 105.334C6.74246 107.595 4.53613 109.263 2.27597 109.855C0.661568 110.285 0.015789 109.532 -1.27573 108.563C-3.80495 106.68 -6.33417 104.743 -8.32526 102.267C-10.8545 99.1459 -12.7918 95.5405 -14.0833 91.7735C-15.0519 89.029 -15.6439 86.1231 -15.8591 83.2172C-16.0744 80.5265 -15.6977 77.7283 -16.774 75.1452C-18.3345 71.3245 -22.2091 69.1181 -25.9222 67.988C-28.3976 67.2347 -33.0256 68.1495 -33.9404 70.9478C-34.64 73.2079 -32.326 75.3066 -31.465 77.1363C-30.3887 79.3965 -30.1735 81.7104 -31.5188 83.9168C-33.2408 86.7689 -36.9539 86.6613 -39.2679 84.7778C-44.2187 80.7956 -46.6941 74.93 -46.2098 68.58C-45.6717 61.0461 -40.7747 55.88 -33.8866 53.1894C-23.5006 49.0458 -11.4464 55.2881 -5.47316 63.952ZM-10.1549 67.8266C-13.0608 63.5215 -17.2045 59.9699 -21.6171 58.4631C-26.2451 56.9025 -32.0031 57.2792 -36.0929 60.1313C-36.8463 60.6694 -37.4921 61.2614 -38.1378 61.8533C-41.9048 65.3512 -44.0573 68.6876 -42.8734 73.9613C-42.2814 76.4905 -37.8149 85.6926 -34.3171 82.9481C-33.4561 82.2486 -32.4874 80.5265 -32.9717 79.4503C-33.5099 78.1588 -34.2095 76.8672 -34.909 75.6295C-37.1154 71.8088 -36.1467 67.8804 -32.1645 65.9431C-29.4201 64.5978 -26.1375 64.5978 -23.393 65.997C-18.3883 68.5262 -14.4062 71.8626 -13.5452 77.8359C-12.6841 83.7553 -12.738 89.7286 -9.72442 95.3252C-8.48672 97.6392 -6.92612 99.8455 -5.04266 101.729C-4.12783 102.644 -3.05156 103.397 -2.13673 104.312C-1.16809 105.281 2.22215 107.917 2.54503 105.119C2.76028 103.182 0.500114 101.029 -0.360897 99.4688C-1.43716 97.4777 -2.45963 95.4328 -3.26683 93.3341C-4.88123 89.0829 -5.84986 84.5625 -5.95749 79.9884C-5.95749 75.9524 -7.6257 71.5935 -10.1549 67.8266Z" fill="#333333"/>
<path d="M26.1193 116.42C26.2807 116.797 26.3883 117.174 26.496 117.55C26.8727 119.057 26.8727 120.779 26.2269 122.178C25.4197 123.9 24.9354 125.569 23.4824 126.968C20.7379 129.497 16.11 129.927 12.8812 128.044C10.8363 126.86 9.32953 124.869 8.73758 122.609C8.03801 120.08 9.00665 118.304 10.352 116.151C11.3744 114.537 12.935 113.191 14.7108 112.384C19.0697 110.339 24.2896 112.061 26.1193 116.42ZM13.4193 117.819C12.0202 119.219 11.2668 122.071 12.7197 123.685C14.9261 126.107 17.1863 126.268 19.6617 124.008C20.6841 123.093 20.9532 121.586 20.6303 120.241C19.9845 117.335 15.6795 115.559 13.4193 117.819Z" fill="#333333"/>
<path d="M109.885 88.174C111.725 86.1179 113.787 84.2896 116.006 82.7282C117.315 81.8308 118.638 80.8806 120.077 80.1306C123.104 78.4998 145.733 72.546 145.143 78.4321C144.867 81.4085 144.816 84.3877 144.766 87.3669C144.774 88.837 144.487 90.5684 142.775 89.7788C135.614 86.3117 129.655 89.4287 123.496 92.6623C117.99 95.5598 115.36 100.401 113.886 105.997C112.495 111.277 115.082 116.25 119.883 118.813C123.199 120.59 123.279 121.571 120.26 123.599C118.618 124.691 117.208 126.183 115.527 127.208C114.46 127.83 112.347 128.347 111.175 127.869C110.358 127.54 109.73 126.923 109.102 126.306C105.651 122.687 103.312 118.062 102.34 113.176C101.901 111.197 101.251 109.163 101.449 107.126C101.987 100.153 105.17 93.4256 109.885 88.174ZM141.744 79.1178C140.36 77.5112 134.874 78.8329 133.109 79.1022C128.518 79.8127 123.927 80.5232 119.988 83.0431C109.495 89.6525 99.8992 102.935 105.499 115.759C105.963 116.784 106.427 117.81 106.944 118.849C108.044 120.889 109.425 122.721 111.086 124.345C112.801 125.982 113.537 125.329 115.158 123.892C115.452 123.631 117.988 121.081 118.093 121.108C117.132 120.686 116.44 119.882 115.654 119.224C113.111 117.086 111.074 114.743 110.747 111.269C110.132 104.387 112.592 98.26 117.362 93.87C123.391 88.3435 130.618 84.4876 139.464 85.6316C140.178 85.7068 140.895 85.5569 141.704 85.4876C141.765 83.7534 142.277 82.0249 142.219 80.3157C142.094 79.7182 141.966 79.3458 141.744 79.1178Z" fill="#333333"/>
<path d="M173.228 131.906C170.167 136.238 165.514 139.755 160.939 142.333C157.765 144.095 154.241 145.256 150.658 145.78C147.023 146.291 143.268 146.826 139.65 145.986C136.454 145.258 135.643 142.334 136.039 139.333C136.128 138.565 136.097 137.823 136.12 137.095C136.134 134.897 137.352 133.919 139.519 134.264C153.876 136.351 161.383 131.214 165.996 119.273C168.816 111.998 167.125 105.342 162.871 99.1963C160.868 96.2973 161.307 95.0579 164.745 94.4388C165.462 94.2889 166.232 94.1529 166.963 93.9502C168.731 93.4558 170.695 93.07 172.532 93.3844C174.647 93.7155 175.283 94.73 175.947 96.7117C177.794 102.562 179.899 108.932 179.57 115.113C179.23 121.121 176.867 126.879 173.481 131.803C173.322 131.761 173.294 131.867 173.228 131.906ZM165.737 97.749C169.112 103.155 170.728 109.453 169.735 115.797C168.644 122.512 164.921 130.001 159.087 133.715C155.563 135.949 151.377 137.048 147.242 137.314C146.433 137.384 138.571 138.08 138.543 137.112C138.587 138.874 138.287 140.659 138.914 142.348C139.337 143.532 139.615 143.549 140.871 143.711C142.788 143.933 144.67 143.864 146.582 143.464C148.747 142.962 150.851 143.121 153.032 142.34C158.166 140.643 163.791 138.793 167.327 134.587C169.156 132.358 171.169 130.291 172.762 127.887C175.177 124.289 176.373 119.748 176.494 115.432C176.617 110.891 175.1 106.144 174.229 101.736C173.246 96.6778 170.889 95.549 165.737 97.749Z" fill="#333333"/>
<path d="M449.666 101.937C449.23 106.954 448.83 112.915 444.868 116.514C441.414 119.677 436.507 121.349 432.072 122.548C420.476 125.747 407.826 126.838 395.903 128.11C389.76 128.764 383.616 129.201 377.437 129.201C372.202 129.201 366.858 129.237 362.169 126.692C357.516 124.184 356.571 120.731 356.353 115.714C356.062 109.462 356.389 103.209 357.08 96.9935C358.207 86.7061 358.607 73.6561 367.695 66.8948C376.237 60.5334 387.688 63.4778 397.502 63.4778C403.5 63.4778 409.498 63.1506 415.46 62.5327C419.095 62.1692 423.094 61.8057 426.329 59.9518C428.946 58.4614 430.509 56.0258 431.491 53.2268C433.09 48.6466 434.035 43.9573 435.816 39.4134C436.689 37.1233 436.98 34.9059 439.742 35.6693C442.069 36.2872 445.122 37.8503 446.031 40.1768C448.321 45.9929 448.394 53.8448 448.83 59.9881C449.848 73.7288 450.866 88.1965 449.666 101.937ZM437.925 45.6658C436.871 43.4484 436.507 46.2838 436.362 46.9744C435.962 48.9374 435.271 50.864 434.762 52.7906C433.563 57.4435 431.927 60.2426 427.456 62.3146C418.223 66.604 407.862 65.4771 397.939 65.6225C389.978 65.7316 380.89 64.4229 373.365 67.6218C366.64 70.4935 363.369 76.5642 361.806 83.3982C360.679 88.3056 359.952 93.2493 359.516 98.2657C359.079 103.282 358.425 108.917 359.225 113.933C360.861 123.966 372.42 122.476 380.236 122.512C390.705 122.585 401.138 121.058 411.534 120.04C419.095 119.277 433.308 119.531 437.598 111.643C440.215 106.845 440.324 99.3926 440.324 94.1217C440.36 88.5237 440.215 82.9256 440.033 77.3275C439.851 71.3296 439.633 65.368 439.161 59.3701C438.943 56.6801 438.615 53.9538 438.47 51.2638C438.397 49.4463 438.725 47.3379 437.925 45.6658Z" fill="#333333"/>
<path d="M387.396 86.1609C387.396 85.9065 387.287 85.652 387.106 85.4703C387.033 85.4339 386.96 85.3612 386.924 85.3249C386.778 85.2522 386.597 85.1794 386.415 85.1794C386.379 85.1794 386.342 85.1794 386.306 85.1794C386.197 85.1794 386.088 85.1795 385.979 85.2158C385.761 85.2522 385.615 85.3976 385.433 85.5066C385.288 85.652 385.179 85.8338 385.143 86.0155C385.106 86.1246 385.106 86.2336 385.106 86.3427C385.106 86.379 385.106 86.4154 385.106 86.4517C385.106 86.5971 385.143 86.7062 385.179 86.8152C385.215 86.9243 385.288 87.0334 385.397 87.1424C385.579 87.3242 385.833 87.4332 386.088 87.4332C386.342 87.4332 386.597 87.3242 386.778 87.1424C386.815 87.0697 386.887 87.0334 386.924 86.9607C386.996 86.9243 387.069 86.8516 387.106 86.8152C387.287 86.7062 387.396 86.4154 387.396 86.1609Z" fill="#333333"/>
<path d="M396.846 84.8884C395.574 84.8884 395.574 86.8514 396.846 86.8514C398.082 86.8514 398.082 84.8884 396.846 84.8884Z" fill="#333333"/>
<path d="M409.202 84.2341C407.929 84.2341 407.929 86.1971 409.202 86.1971C410.474 86.1971 410.474 84.2341 409.202 84.2341Z" fill="#333333"/>
<path d="M386.412 99.5378C385.14 99.5378 385.14 101.501 386.412 101.501C387.684 101.501 387.684 99.5378 386.412 99.5378Z" fill="#333333"/>
<path d="M398.115 98.2292C396.843 98.2292 396.843 100.192 398.115 100.192C399.387 100.192 399.387 98.2292 398.115 98.2292Z" fill="#333333"/>
<path d="M411.531 98.1934C411.35 98.0117 411.095 97.9026 410.841 97.9026H410.513C410.259 97.9026 410.005 98.0117 409.823 98.1934C409.641 98.3752 409.532 98.6296 409.532 98.8841C409.532 99.1385 409.641 99.393 409.823 99.5747C410.005 99.7565 410.259 99.8656 410.513 99.8656H410.841C411.095 99.8656 411.35 99.7565 411.531 99.5747C411.713 99.393 411.822 99.1385 411.822 98.8841C411.822 98.6296 411.713 98.3752 411.531 98.1934Z" fill="#333333"/>
<path d="M260.119 27.5497C257.464 27.0675 256.319 21.8977 254.663 18.9931C250.619 11.8464 245.987 4.9853 241.845 -2.03278C239.55 -5.91721 237.321 -9.83341 235.775 -14.0019C234.45 -17.5517 236.123 -19.2532 239.196 -18.4098C249.643 -15.5097 260.056 -12.5126 270.436 -9.41854C273.378 -8.5116 276.153 -7.11985 279.061 -5.95377C281.095 -5.08887 283.124 -3.73743 283.686 -1.59055C284.275 0.945889 282.563 3.39311 280.952 5.38728C275.398 12.2056 270.221 20.1307 263.671 26.0626C262.197 27.3446 261.025 27.7539 260.119 27.5497ZM254.565 9.84444C254.172 10.1971 254.135 10.6184 255.006 11.0817C256.813 11.9767 260.373 9.67875 262.002 9.04719C264.836 7.90935 267.735 6.73976 270.603 5.50496C272.656 4.58594 274.845 3.11689 276.387 1.47882C276.944 0.965689 277.437 0.322124 277.478 -0.423537C277.585 -1.36312 276.913 -2.24605 276.141 -2.83811C271.345 -6.39215 266.201 -1.54829 261.9 0.222822C260.011 0.981379 252.405 2.42561 252.125 4.33653C251.67 7.54313 255.945 5.05813 256.989 4.55014C258.912 3.69462 260.9 2.80736 262.886 2.08226C264.189 1.60945 270.576 -1.17767 271.197 1.42398C271.568 3.17958 263.397 5.94784 261.996 6.54937C260.268 7.30964 258.444 8.03642 256.717 8.79669C256.294 8.92197 255.056 9.36305 254.565 9.84444ZM247.066 -1.91269C246.902 -1.75223 246.869 -1.6553 246.867 -1.49312C246.83 -1.07181 247.052 -0.615329 247.438 -0.319301C248.338 0.533605 249.797 0.549031 250.999 0.367104C253.728 0.00667808 256.522 -0.385465 259.062 -1.29934C261.894 -2.275 264.897 -4.05984 266.964 -6.27625C266.874 -6.95841 265.903 -7.13085 265.189 -7.10596C261.683 -6.85106 258.597 -6.39713 255.242 -5.16747C253.94 -4.69466 248.312 -3.16463 247.066 -1.91269ZM239.886 -13.1799C240.102 -12.0747 240.897 -10.6065 240.897 -10.6065C241.851 -8.81233 242.837 -6.95292 243.857 -5.19047C244.047 -4.79919 245.017 -4.46458 245.44 -4.58987C247.231 -5.21971 249.055 -5.94649 250.846 -6.57634C252.148 -7.04915 254.325 -7.38299 255.437 -8.24708C255.797 -8.50279 256.094 -9.05107 255.969 -9.4741C255.907 -9.76669 255.618 -10.0293 255.393 -10.1614C254.652 -10.6883 253.647 -10.7638 252.739 -10.8058C251.086 -10.8881 249.66 -11.0005 248.098 -10.5629C246.21 -9.96652 245.784 -9.51688 244.435 -10.7962C243.086 -12.0756 242.52 -13.736 240.482 -14.2765C239.738 -14.479 239.699 -13.8955 239.886 -13.1799ZM257.912 15.3944C257.845 15.5883 257.81 15.8474 257.808 16.0096C258.282 20.2965 271.615 11.0626 273.181 10.1385C273.671 9.81926 274.262 9.20918 273.877 8.75097C273.622 8.39145 273.102 8.48329 272.744 8.57682C269.915 9.22813 267.015 10.3977 264.28 11.4068C262.359 12.1002 258.617 13.196 257.912 15.3944ZM263.144 20.6722C263.796 20.3547 264.513 20.0055 265.134 19.6228C265.493 19.3671 265.691 19.1097 265.662 18.7201C264.661 18.3203 261.275 19.4847 260.842 20.583C260.174 22.3601 262.427 21.0215 263.144 20.6722Z" fill="#333333"/>
<path d="M76.8081 -2.55303C74.1018 -1.46107 72.467 -4.54235 71.0257 -6.47675C68.8973 -9.40993 66.8005 -12.3096 64.6386 -15.2112C63.5744 -16.6778 63.673 -17.7832 65.4476 -18.2513C67.6506 -18.8694 69.8792 -19.2586 72.1415 -19.6793C76.1428 -20.4714 80.144 -21.2634 84.1434 -21.9903C91.388 -23.3039 98.7136 -24.0609 105.96 -25.4396C109.533 -26.0816 113.061 -27.377 116.632 -27.9538C119.089 -28.3687 121.574 -28.6196 124.093 -28.9022C125.303 -29.0287 128.995 -30.3517 129.228 -28.356C129.408 -26.7531 126.492 -26.2869 125.464 -25.6985C123.774 -24.8041 122.084 -23.9096 120.363 -23.0488C117.118 -21.3862 113.873 -19.7237 110.563 -18.0631C105.995 -15.7885 101.427 -13.5139 96.8002 -11.4366C93.4288 -9.90831 89.9625 -8.48066 86.5278 -7.01947C83.3241 -5.6491 80.2171 -4.24321 77.1378 -2.67349C77.0391 -2.64386 76.9404 -2.61424 76.8081 -2.55303ZM117.001 -23.9979L117.003 -24.063C115.611 -24.3984 113.361 -23.2927 111.981 -22.9431C110.108 -22.4455 108.268 -21.9794 106.426 -21.4481C102.713 -20.4844 98.9984 -19.4554 95.2853 -18.4917C91.5387 -17.4963 87.8572 -16.499 84.1106 -15.5037C83.0269 -15.243 73.2794 -12.0162 72.9358 -12.5156C74.2488 -10.6503 75.621 -8.58757 77.0958 -6.68476C77.4729 -6.21696 78.5054 -5.85976 79.0325 -6.03946C81.4999 -6.78001 83.9042 -7.58769 86.2177 -8.62631C93.8529 -12.0798 101.457 -15.5669 108.965 -19.1546C110.586 -19.9207 112.179 -20.8507 113.738 -21.7491C114.664 -22.1775 116.934 -22.8588 117.001 -23.9979Z" fill="#333333"/>
<path d="M267.79 128.939C272.327 131.452 276.354 133.688 280.381 135.924C281.913 136.754 282.734 138.193 281.506 139.743C275.253 147.197 265.326 152.28 256.824 156.682C255.539 157.377 254.316 158.587 252.895 158.929C251.04 159.369 250.418 157.921 249.868 156.31C248.211 151.277 245.993 146.19 243.938 141.175C242.64 137.962 240.835 135.01 239.112 132.094C238.53 131.103 236.895 129.3 237.137 127.993C237.392 126.546 238.898 126.779 240.142 126.505C244.038 125.755 247.996 125.522 251.944 125.966C252.786 126.049 253.591 126.213 254.378 125.979C256.012 125.488 256.636 122.011 257.231 120.569C260.594 113.142 263.853 105.62 267.808 98.5066C272.098 90.8596 276.669 83.2402 282.338 76.5498C287.97 69.9406 295.255 62.3615 304.244 61.3482C309.225 60.7902 312.738 70.8462 313.619 74.5566C314.212 77.1629 315.38 79.6841 316.408 82.1915C317.151 84.1331 315.913 86.3612 313.511 86.6064C306.842 87.3382 301.707 91.1934 296.297 94.6818C290.248 98.617 284.867 103.241 280.141 108.693C274.903 114.747 271.532 121.974 267.79 128.939ZM312.959 80.4087C311.157 75.7018 309.947 71.3079 307.664 67.4597C306.626 65.6307 304.921 62.2357 301.277 64.1708C293.6 68.2574 287.372 74.0152 282.227 80.8422C274.921 90.6558 268.74 101.118 264.277 112.542C262.488 117.207 260.233 121.713 258.887 126.479C258.123 129.065 257.137 129.308 254.835 129.11C250.475 128.823 246.096 129.015 241.288 128.967C245.065 137.775 248.446 145.723 252.096 154.377C251.7 153.517 273.227 141.024 274.97 139.412C274.636 139.068 274.288 138.864 273.881 138.682C270.492 136.877 267.043 135.094 263.857 132.941C261.331 131.277 262.904 129.393 263.875 126.997C264.919 124.439 266.068 121.975 267.356 119.525C272.078 110.364 278.17 101.96 285.509 94.6973C292.825 87.376 302.846 83.0668 312.959 80.4087Z" fill="#333333"/>
</g>
<g opacity="0.05">
<path d="M-13.6135 508.792C-15.8021 495.288 -8.49298 478.564 3.19343 471.296C17.0685 462.666 36.2705 463.574 50.4759 470.553C64.8878 477.656 75.005 490.705 77.1936 506.81C78.3499 515.44 75.9548 524.566 77.6066 533.114C78.2673 536.501 80.1255 539.143 82.6445 541.456C85.6177 544.223 87.5999 545.916 89.7059 549.385C66.5809 557.313 41.7627 562.31 18.266 552.771C-0.275326 545.214 -11.5901 528.531 -13.6135 508.792ZM74.5508 547.98C74.9224 545.792 69.5954 541.58 68.563 539.722C66.044 535.138 65.2594 529.109 64.0619 523.988C61.8733 514.49 60.7996 504.415 57.1657 495.33C50.4346 478.605 33.4212 466.671 15.0863 470.801C-1.55546 474.517 -11.6727 490.581 -10.8055 507.264C-9.97959 522.956 -0.316617 538.648 13.1455 546.659C22.2303 552.069 32.7605 554.133 43.2493 554.216C49.4436 554.257 55.5139 553.431 61.6255 552.234C63.938 551.78 73.9726 551.367 74.5508 547.98Z" fill="#333333"/>
<path d="M39.2868 496.155C37.4286 498.137 35.2812 499.128 32.5971 498.303C30.3259 497.601 28.3437 496.238 26.0725 495.66C24.9163 495.371 23.6774 495.288 22.5212 495.577C20.9933 495.949 19.7957 496.899 18.5569 497.766C17.8136 498.303 16.7399 499.128 16.0792 499.211C14.799 499.376 13.395 498.798 12.1562 498.55C8.52224 497.807 4.72313 498.55 3.44299 502.473C3.03004 503.836 5.13607 504.414 5.59031 503.051C6.70527 499.541 10.5457 500.45 13.3124 501.028C14.3861 501.276 15.5423 501.524 16.6573 501.317C17.731 501.069 18.6807 500.367 19.5892 499.707C20.7455 498.881 21.8604 497.89 23.3058 497.642C24.2968 497.435 25.2879 497.642 26.279 497.972C28.4676 498.674 30.4085 499.996 32.6797 500.532C35.9007 501.317 38.7087 499.996 40.9386 497.642C41.8471 496.692 40.2779 495.123 39.2868 496.155Z" fill="#333333"/>
<path d="M45.8116 506.644C45.0683 505.612 43.4165 506.438 43.7469 507.429C43.6643 507.511 43.5404 507.676 43.4579 507.718C42.921 508.131 42.2603 508.461 41.6409 508.709C40.2781 509.287 39.3697 509.287 38.0895 508.461C36.6442 507.553 35.4467 506.809 33.671 506.644C32.2257 506.52 30.8217 506.851 29.5415 507.553C28.2614 508.213 27.1464 509.163 25.8663 509.741C24.6274 510.319 23.2647 510.526 21.902 510.361C19.3004 510.03 16.9879 508.626 14.4276 508.131C10.8763 507.387 7.90307 508.791 5.59057 511.517C4.68208 512.591 6.20999 514.16 7.15977 513.086C8.23343 511.806 9.51357 510.65 11.1654 510.237C12.4042 509.948 13.6843 510.195 14.9232 510.526C17.566 511.31 20.0437 512.632 22.8518 512.632C24.4623 512.632 25.9902 512.178 27.4355 511.434C28.7569 510.732 29.8719 509.741 31.2346 509.163C32.6386 508.585 34.3317 508.709 35.6118 509.452C37.0159 510.278 38.296 511.434 40.0717 511.352C41.517 511.31 43.0862 510.567 44.2837 509.782C45.1922 509.246 46.7614 507.924 45.8116 506.644Z" fill="#333333"/>
<path d="M49.9799 520.024C49.9386 520.974 49.6909 521.717 48.8237 521.841C47.8326 521.965 46.6763 521.552 45.7266 521.139C43.4967 520.231 41.4319 518.496 39.0368 518.083C35.3203 517.464 33.0904 520.85 30.4888 522.832C29.3738 523.699 28.4241 524.112 27.1439 523.369C25.5334 522.419 24.1707 521.098 22.4363 520.355C18.1004 518.455 13.7644 520.396 10.6673 523.617C9.67625 524.649 11.2455 526.218 12.2365 525.186C13.6405 523.699 15.3336 522.419 17.3571 521.924C19.3392 521.428 21.2801 522.048 22.9319 523.163C24.3359 524.071 25.6573 525.393 27.3091 525.888C28.8783 526.342 30.3236 525.682 31.6038 524.773C33.1317 523.658 34.3705 522.172 35.8984 521.098C37.2198 520.148 38.4587 520.065 39.9453 520.685C42.1752 521.635 44.1161 523.08 46.5112 523.741C47.75 524.071 49.154 524.236 50.3103 523.658C51.7143 522.956 52.1272 521.47 52.2098 519.983C52.2511 518.62 50.0212 518.62 49.9799 520.024Z" fill="#333333"/>
<path d="M86.5268 639.952C87.1188 640.867 87.6569 641.782 88.1412 642.589C89.648 645.333 90.6704 648.401 91.1548 651.522C91.5315 653.836 91.5853 656.204 91.8544 658.518C92.6078 664.222 94.9217 669.603 97.4509 674.769C98.4734 676.868 100.411 678.859 99.5497 681.334C98.7425 683.595 96.5361 685.263 94.276 685.855C92.6616 686.285 92.0158 685.532 90.7243 684.563C88.195 682.68 85.6658 680.743 83.6747 678.267C81.1455 675.146 79.2082 671.54 77.9167 667.774C76.9481 665.029 76.3561 662.123 76.1409 659.217C75.9256 656.527 76.3023 653.728 75.226 651.145C73.6655 647.324 69.7909 645.118 66.0778 643.988C63.6024 643.235 58.9744 644.149 58.0596 646.948C57.36 649.208 59.674 651.307 60.535 653.136C61.6113 655.396 61.8265 657.71 60.4812 659.917C58.7592 662.769 55.0461 662.661 52.7321 660.778C47.7813 656.796 45.3059 650.93 45.7902 644.58C46.3283 637.046 51.2253 631.88 58.1134 629.189C68.4994 625.046 80.5536 631.288 86.5268 639.952ZM81.8451 643.827C78.9392 639.522 74.7955 635.97 70.3829 634.463C65.7549 632.903 59.9969 633.279 55.9071 636.131C55.1537 636.669 54.5079 637.261 53.8622 637.853C50.0952 641.351 47.9427 644.688 49.1266 649.961C49.7186 652.491 54.1851 661.693 57.6829 658.948C58.5439 658.249 59.5126 656.527 59.0283 655.45C58.4901 654.159 57.7905 652.867 57.091 651.63C54.8846 647.809 55.8533 643.88 59.8355 641.943C62.5799 640.598 65.8625 640.598 68.607 641.997C73.6117 644.526 77.5938 647.863 78.4548 653.836C79.3159 659.755 79.262 665.729 82.2756 671.325C83.5133 673.639 85.0739 675.846 86.9573 677.729C87.8722 678.644 88.9484 679.397 89.8633 680.312C90.8319 681.281 94.2222 683.917 94.545 681.119C94.7603 679.182 92.5001 677.029 91.6391 675.469C90.5628 673.478 89.5404 671.433 88.7332 669.334C87.1188 665.083 86.1501 660.563 86.0425 655.988C86.0425 651.952 84.3743 647.594 81.8451 643.827Z" fill="#333333"/>
<path d="M118.119 692.42C118.281 692.797 118.388 693.173 118.496 693.55C118.873 695.057 118.873 696.779 118.227 698.178C117.42 699.9 116.935 701.568 115.482 702.967C112.738 705.497 108.11 705.927 104.881 704.044C102.836 702.86 101.33 700.869 100.738 698.609C100.038 696.079 101.007 694.303 102.352 692.151C103.374 690.537 104.935 689.191 106.711 688.384C111.07 686.339 116.29 688.061 118.119 692.42ZM105.419 693.819C104.02 695.218 103.267 698.07 104.72 699.685C106.926 702.106 109.186 702.268 111.662 700.008C112.684 699.093 112.953 697.586 112.63 696.241C111.985 693.335 107.679 691.559 105.419 693.819Z" fill="#333333"/>
<path d="M344.402 295.471C343.462 296.663 342.497 297.784 341.65 298.785C338.708 302.006 335.123 304.734 331.224 306.776C328.342 308.313 325.243 309.448 322.313 310.844C315.129 314.402 309.072 319.873 303.396 325.531C301.088 327.823 299.333 331.273 295.681 331.25C292.338 331.202 289.146 329.042 287.349 326.328C286.055 324.392 286.758 323.202 287.455 321.063C288.802 316.881 290.22 312.674 292.589 308.935C295.568 304.196 299.452 300.02 303.84 296.624C307.024 294.112 310.59 292.025 314.325 290.435C317.777 288.941 321.637 288.18 324.56 285.599C328.897 281.823 330.065 275.722 329.886 270.317C329.766 266.713 326.479 261.021 322.377 261.073C319.082 261.166 317.355 265.161 315.329 267.12C312.832 269.555 309.877 270.879 306.362 270.097C301.827 269.108 300.299 264.163 301.743 260.264C304.769 251.945 311.392 246.043 319.984 243.827C330.162 241.15 339.176 245.285 345.822 253.16C355.956 264.994 353.143 283.698 344.402 295.471ZM337.187 291.038C341.559 285.27 344.38 278.209 344.383 271.712C344.36 264.907 341.275 257.482 335.675 253.371C334.626 252.619 333.555 252.034 332.484 251.448C326.178 248.053 320.81 246.714 314.387 250.646C311.317 252.564 301.19 262.592 306.382 265.971C307.691 266.792 310.398 267.295 311.6 266.173C313.061 264.882 314.45 263.379 315.768 261.9C319.814 257.273 325.431 256.784 329.776 261.165C332.784 264.179 334.26 268.508 333.649 272.757C332.563 280.494 329.953 287.246 322.463 291.067C315.043 294.864 307.141 297.478 301.115 303.969C298.62 306.642 296.412 309.692 294.775 313.022C293.98 314.64 293.47 316.398 292.675 318.016C291.833 319.729 289.879 325.386 293.715 324.553C296.367 323.966 298.189 320.018 299.86 318.181C302.002 315.866 304.24 313.598 306.644 311.59C311.525 307.55 317.051 304.24 323.035 302.042C328.358 300.227 333.357 296.067 337.187 291.038Z" fill="#333333"/>
<path d="M289.409 360.726C288.984 361.109 288.536 361.42 288.088 361.731C286.27 362.905 283.999 363.68 281.863 363.457C279.229 363.167 276.811 363.278 274.313 361.991C269.743 359.508 267.095 353.599 268.127 348.494C268.769 345.264 270.718 342.382 273.432 340.585C276.453 338.526 279.231 339.005 282.675 339.811C285.263 340.434 287.739 341.887 289.602 343.866C294.259 348.695 294.335 356.354 289.409 360.726ZM281.854 344.606C279.379 343.39 275.279 343.679 273.803 346.321C271.602 350.319 272.405 353.373 276.498 355.621C278.165 356.558 280.273 356.236 281.902 355.205C285.444 353.047 285.85 346.571 281.854 344.606Z" fill="#333333"/>
<path d="M270.603 178.225C270.884 175.876 273.528 180.17 273.67 180.457C274.926 182.719 276.209 183.869 278.97 184.234C284.735 184.898 282.251 180.236 284.309 176.761C289.832 167.55 302.554 175.511 303.32 183.946C304.282 194.083 295.033 200.784 285.645 199.206C275.724 197.577 269.415 188.093 270.603 178.225ZM277.414 187.639C280.959 191.172 286.289 193.122 291.035 190.226C294.004 188.456 295.586 182.965 294.588 179.724C294.024 177.861 292.757 176.771 290.732 176.729C287.793 176.672 287.015 178.375 286.707 180.861C285.921 186.659 282.665 187.597 277.167 187.445C277.227 187.429 277.321 187.534 277.414 187.639Z" fill="#333333"/>
<path d="M317.403 177.116C322.893 177.724 328.129 182.232 327.162 188.079C326.415 192.567 322.414 196.302 317.867 196.546C306.46 197.134 305.141 175.724 317.403 177.116ZM316.895 188.556C323.095 187.934 321.121 180.082 315.766 181.192C311.216 182.152 311.713 189.1 316.895 188.556Z" fill="#333333"/>
<path d="M203.67 484.883C200.242 485.826 204.718 479.708 205.037 479.348C207.473 476.317 208.347 473.878 207.288 469.828C204.942 461.426 199.862 467.528 193.857 466.635C177.903 464.173 181.766 441.947 193.073 436.095C206.638 429.005 221.213 438.078 224.343 452.041C227.704 466.776 218.082 480.939 203.67 484.883ZM212.911 470.062C215.818 463.123 215.508 454.597 208.785 449.633C204.636 446.505 196.095 447.418 192.15 450.646C189.877 452.488 189.079 454.869 190.169 457.712C191.757 461.835 194.568 461.953 198.204 460.971C206.72 458.775 209.873 462.777 212.782 470.515C212.725 470.44 212.818 470.251 212.911 470.062Z" fill="#333333"/>
<path d="M175.574 420.362C173.306 412.375 176.612 402.528 185.298 400.558C191.969 399.051 199.439 402.502 202.359 408.693C209.648 424.238 180.593 438.221 175.574 420.362ZM191.787 414.579C187.404 406.301 177.594 413.503 182.177 420.327C186.094 426.117 195.484 421.483 191.787 414.579Z" fill="#333333"/>
<path d="M201.885 664.174C203.725 662.118 205.787 660.29 208.006 658.728C209.315 657.831 210.638 656.881 212.077 656.131C215.104 654.5 237.733 648.546 237.143 654.432C236.867 657.409 236.816 660.388 236.766 663.367C236.774 664.837 236.487 666.568 234.775 665.779C227.614 662.312 221.655 665.429 215.496 668.662C209.99 671.56 207.36 676.401 205.886 681.997C204.495 687.278 207.082 692.25 211.883 694.813C215.199 696.59 215.279 697.571 212.26 699.599C210.618 700.691 209.208 702.183 207.527 703.208C206.46 703.83 204.347 704.347 203.175 703.869C202.358 703.541 201.73 702.923 201.102 702.306C197.651 698.687 195.312 694.062 194.34 689.176C193.901 687.198 193.251 685.163 193.449 683.126C193.987 676.153 197.17 669.426 201.885 664.174ZM233.744 655.118C232.36 653.511 226.874 654.833 225.109 655.102C220.518 655.813 215.927 656.523 211.988 659.043C201.495 665.653 191.899 678.935 197.499 691.759C197.963 692.784 198.427 693.81 198.944 694.85C200.044 696.89 201.425 698.721 203.086 700.345C204.801 701.982 205.537 701.329 207.158 699.893C207.452 699.631 209.988 697.081 210.093 697.108C209.132 696.686 208.44 695.883 207.654 695.224C205.111 693.086 203.074 690.743 202.747 687.269C202.132 680.388 204.592 674.26 209.362 669.87C215.391 664.344 222.618 660.488 231.464 661.632C232.178 661.707 232.895 661.557 233.704 661.488C233.765 659.754 234.277 658.025 234.219 656.316C234.094 655.718 233.966 655.346 233.744 655.118Z" fill="#333333"/>
<path d="M265.228 707.906C262.167 712.238 257.514 715.755 252.939 718.334C249.765 720.095 246.241 721.256 242.658 721.78C239.023 722.291 235.268 722.827 231.65 721.987C228.454 721.258 227.643 718.334 228.039 715.333C228.128 714.566 228.097 713.824 228.12 713.095C228.134 710.897 229.352 709.919 231.519 710.264C245.876 712.351 253.383 707.214 257.996 695.273C260.816 687.998 259.125 681.342 254.871 675.196C252.868 672.297 253.307 671.058 256.745 670.439C257.462 670.289 258.232 670.153 258.963 669.95C260.731 669.456 262.695 669.07 264.532 669.385C266.647 669.716 267.283 670.73 267.947 672.712C269.794 678.562 271.899 684.932 271.57 691.113C271.23 697.122 268.867 702.879 265.481 707.803C265.322 707.762 265.294 707.867 265.228 707.906ZM257.737 673.749C261.112 679.155 262.728 685.453 261.735 691.798C260.644 698.512 256.921 706.001 251.087 709.715C247.563 711.949 243.377 713.049 239.242 713.314C238.433 713.384 230.571 714.08 230.543 713.113C230.587 714.875 230.287 716.659 230.914 718.349C231.337 719.533 231.615 719.549 232.871 719.711C234.788 719.933 236.67 719.864 238.582 719.465C240.747 718.962 242.851 719.121 245.032 718.34C250.166 716.643 255.791 714.794 259.327 710.587C261.156 708.358 263.169 706.291 264.762 703.887C267.177 700.289 268.373 695.748 268.494 691.432C268.617 686.891 267.1 682.144 266.229 677.736C265.246 672.678 262.889 671.549 257.737 673.749Z" fill="#333333"/>
<path d="M315.421 424.502C316.347 421.955 317.385 418.912 319.945 417.594C322.181 416.431 324.964 416.245 327.436 416.239C333.909 416.192 340.636 417.387 347.01 418.386C350.295 418.901 353.548 419.53 356.76 420.391C359.481 421.12 362.264 421.845 364.346 423.821C366.416 425.773 366.426 427.699 365.841 430.337C365.121 433.627 364.08 436.831 362.855 439.966C360.837 445.156 358.812 451.883 353.147 454.132C347.821 456.248 342.279 453.123 337.178 451.756C334.06 450.921 330.897 450.256 327.713 449.747C325.773 449.429 323.644 449.062 321.704 449.575C320.136 449.985 318.984 451.033 318.084 452.351C316.615 454.509 315.471 456.815 313.912 458.928C313.14 459.997 312.68 461.109 311.35 460.328C310.227 459.682 308.858 458.445 308.709 457.109C308.329 453.767 309.385 449.676 310.014 446.422C311.398 439.138 312.884 431.477 315.421 424.502ZM313.687 455.385C313.926 456.684 314.51 455.261 314.682 454.922C315.163 453.958 315.79 453.053 316.323 452.122C317.595 449.871 318.835 448.644 321.447 448.189C326.844 447.246 332.071 449.274 337.25 450.581C341.403 451.633 345.944 453.579 350.3 452.964C354.196 452.408 356.742 449.708 358.506 446.374C359.775 443.98 360.841 441.512 361.767 438.965C362.692 436.419 363.817 433.581 364.1 430.863C364.647 425.42 358.431 424.585 354.374 423.478C348.943 421.982 343.308 421.322 337.762 420.403C333.726 419.747 326.374 417.635 323.046 421.138C321.017 423.268 319.923 427.126 319.189 429.865C318.39 432.77 317.686 435.7 317.001 438.635C316.26 441.777 315.543 444.906 314.953 448.09C314.692 449.518 314.482 450.981 314.183 452.399C313.968 453.354 313.504 454.404 313.687 455.385Z" fill="#333333"/>
<path d="M345.595 441.374C345.56 441.506 345.581 441.653 345.65 441.773C345.683 441.802 345.711 441.85 345.724 441.874C345.79 441.932 345.874 441.995 345.969 442.021C345.988 442.026 346.007 442.031 346.025 442.036C346.082 442.051 346.139 442.066 346.201 442.062C346.319 442.074 346.415 442.019 346.524 441.987C346.62 441.932 346.702 441.853 346.746 441.763C346.781 441.712 346.796 441.655 346.811 441.598C346.816 441.579 346.821 441.56 346.826 441.542C346.846 441.466 346.843 441.404 346.839 441.343C346.835 441.281 346.813 441.214 346.771 441.142C346.702 441.022 346.585 440.93 346.453 440.895C346.32 440.859 346.173 440.881 346.053 440.95C346.024 440.982 345.981 440.991 345.952 441.024C345.909 441.033 345.862 441.06 345.838 441.074C345.728 441.106 345.631 441.242 345.595 441.374Z" fill="#333333"/>
<path d="M340.5 440.719C341.161 440.896 341.435 439.876 340.773 439.699C340.131 439.527 339.857 440.547 340.5 440.719Z" fill="#333333"/>
<path d="M333.992 439.338C334.654 439.515 334.927 438.495 334.266 438.318C333.604 438.141 333.331 439.161 333.992 439.338Z" fill="#333333"/>
<path d="M327.114 437.861C327.775 438.038 328.048 437.017 327.387 436.84C326.745 436.668 326.471 437.688 327.114 437.861Z" fill="#333333"/>
<path d="M347.969 434.558C348.631 434.735 348.904 433.715 348.243 433.538C347.581 433.36 347.308 434.381 347.969 434.558Z" fill="#333333"/>
<path d="M341.699 433.608C342.361 433.785 342.634 432.765 341.973 432.588C341.311 432.41 341.038 433.431 341.699 433.608Z" fill="#333333"/>
<path d="M334.724 431.758C334.793 431.878 334.91 431.97 335.042 432.006L335.213 432.051C335.345 432.087 335.492 432.065 335.612 431.996C335.732 431.927 335.824 431.81 335.859 431.678C335.895 431.546 335.874 431.398 335.804 431.278C335.735 431.159 335.618 431.066 335.486 431.031L335.316 430.985C335.184 430.95 335.036 430.971 334.916 431.04C334.797 431.11 334.704 431.227 334.669 431.359C334.634 431.491 334.655 431.639 334.724 431.758Z" fill="#333333"/>
<path d="M328.449 430.239C329.111 430.416 329.384 429.396 328.723 429.219C328.061 429.041 327.788 430.062 328.449 430.239Z" fill="#333333"/>
<path d="M188.275 216.2C186.171 215.212 184.177 213.95 182.184 212.742C173.932 207.748 165.404 203.248 156.655 199.242C152.723 197.43 148.791 195.784 144.97 193.808C143.42 193.04 141.038 192.107 140.097 190.57C139.488 189.528 139.986 188.759 140.374 187.826C141.038 186.235 141.869 184.698 142.644 183.216C144.029 180.472 146.188 179.594 148.902 181.076C152.391 182.942 155.879 184.808 159.424 186.619C166.456 190.296 173.434 193.973 180.467 197.595C183.568 199.242 186.669 200.888 189.77 202.479C192.705 204.016 195.585 205.882 198.575 207.364C201.898 208.955 199.849 211.315 198.188 213.511C197.357 214.663 196.249 217.023 194.976 217.682C193.204 218.669 190.213 217.078 188.607 216.364C188.552 216.309 188.441 216.255 188.275 216.2ZM143.364 189.637C143.364 189.692 153.941 194.906 154.716 195.29C158.981 197.321 163.245 199.351 167.509 201.492C172.05 203.742 176.535 206.047 181.021 208.407C183.236 209.614 185.506 210.767 187.721 211.974C189.715 213.072 191.819 214.663 194.09 215.157C194.92 213.675 195.751 212.193 196.416 210.657C196.471 210.492 196.582 210.327 196.526 210.163C196.471 209.943 196.305 209.779 196.083 209.669C194.92 208.901 193.757 208.132 192.594 207.474C188.607 205.224 184.454 203.303 180.411 201.162C169.336 195.4 158.427 189.198 147.13 183.93C146.908 183.82 146.687 183.71 146.465 183.765C146.299 183.765 146.133 183.875 145.967 183.985C145.413 184.424 145.136 185.137 144.859 185.796C144.361 187.003 144.084 188.54 143.364 189.637Z" fill="#333333"/>
<path d="M408.932 208.041C409.022 207.906 409.112 207.727 409.246 207.592C411.175 204.812 412.789 201.807 414.852 199.116C415.659 198.04 417.498 196.784 418.575 197.008C420.996 197.502 423.867 197.95 424.943 200.686C425.302 201.628 424.674 203.152 424.091 204.184C420.907 210.014 417.588 215.8 414.269 221.585C413.283 223.334 411.847 225.307 409.515 224.949C408.484 224.769 407.497 224.231 406.645 223.648C405.075 222.617 403.147 221.989 402.923 219.881C402.788 218.446 403.371 216.921 404.044 215.71C405.434 213.154 407.273 210.508 408.932 208.041ZM419.023 207.637C417.498 208.041 415.659 209.431 414.583 210.104C413.507 210.777 412.43 211.494 411.219 211.898C410.098 212.301 408.663 211.988 407.856 212.929C406.735 214.185 405.793 215.575 405.075 217.055C404.806 217.594 404.537 218.221 404.806 218.76C405.255 219.746 407.049 219.522 407.856 219.208C409.112 218.715 410.278 218.132 411.489 217.504C412.161 217.19 413.955 216.652 414.404 216.114C414.987 215.351 414.493 214.678 413.686 214.723C413.148 214.768 412.565 215.306 412.072 215.575C410.726 216.203 409.65 216.966 408.349 215.8C408.26 215.755 408.215 215.665 408.17 215.575C408.125 215.441 408.17 215.351 408.259 215.261C409.067 213.692 411.444 213.064 413.013 212.526C414.404 212.032 415.48 211.225 416.736 210.418C418.036 209.566 419.472 209.028 420.189 207.548C419.83 207.503 419.472 207.548 419.023 207.637ZM410.233 208.624C409.919 208.893 409.65 209.207 409.515 209.566C410.547 210.149 412.161 208.714 413.013 208.265C414.673 207.413 416.287 206.606 417.947 205.709C419.113 205.081 420.503 204.543 421.579 203.78C421.804 203.601 423.418 201.986 422.701 201.672C421.31 201.134 420.503 202.345 419.472 203.152C418.171 204.139 416.87 205.126 415.57 206.068C414.807 206.606 413.821 206.83 412.924 207.278C412.116 207.682 410.995 208.041 410.233 208.624ZM414.404 203.825C415.301 204.946 419.696 200.596 420.234 199.789C418.799 199.071 417.05 199.251 415.839 200.372C415.301 200.955 413.731 203.018 414.404 203.825ZM408.439 220.643C408.26 220.733 408.08 220.778 408.035 220.868C407.946 220.957 408.035 221.092 408.08 221.137C408.798 222.034 410.098 222.168 411.219 222.213C411.399 222.213 411.533 222.213 411.713 222.123C411.847 222.034 411.937 221.854 412.027 221.72C412.386 221.002 412.744 220.24 413.103 219.522C413.148 219.432 410.816 219.971 410.592 220.06C410.278 220.195 409.112 220.419 408.439 220.643Z" fill="#333333"/>
<path d="M435.803 489.522C438.65 486.68 441.486 483.785 444.411 481.036C446.801 478.859 445.187 475.779 443.492 473.778C442.871 473.031 442.249 472.285 441.575 471.55C440.579 470.389 439.386 469.107 437.884 469.124C436.594 469.092 435.486 470.077 434.512 470.918C427.622 477.217 421.145 484.089 414.41 490.574C412.446 492.428 413.34 494.338 414.921 496.087C415.762 497.061 416.644 497.97 417.486 498.944C418.017 499.545 418.614 500.186 419.4 500.448C420.423 500.766 421.52 500.453 422.463 499.953C424.003 499.146 425.673 498.42 426.993 497.386C430.123 495.036 432.995 492.299 435.803 489.522ZM426.496 490.029C426.125 491.064 426.398 492.228 425.974 493.275C425.466 494.677 424.668 496.035 423.703 497.153C423.569 497.296 423.383 497.451 423.159 497.448C422.711 497.441 422.668 496.782 422.793 496.362C423.158 494.827 423.695 493.307 424.06 491.771C424.228 491.063 424.258 489.996 424.74 489.437C425.089 489.021 425.72 489.096 426.125 488.443C426.719 487.412 426.422 486.143 426.479 484.958C426.568 483.432 427.141 482.07 427.637 480.616C427.762 480.196 427.94 479.764 428.313 479.453C428.686 479.143 429.252 479.178 429.51 479.563C429.678 479.803 429.634 480.092 429.59 480.381C429.08 483.68 427.544 486.884 426.496 490.029ZM420.025 497.401C419.931 497.479 419.891 497.544 419.773 497.516C419.655 497.488 419.524 497.407 419.447 497.314C417.744 495.761 416.126 493.853 417.266 491.578C418.229 489.735 420.195 488.605 421.652 487.205C422.439 486.518 423.095 486.699 423.053 487.713C423.019 488.279 422.103 489.608 421.91 490.211C421.258 492.428 420.777 494.66 420.243 496.904C420.174 497.087 420.106 497.271 420.025 497.401ZM436.204 482.903C436.368 480.745 436.703 478.603 437.025 476.409C437.185 475.423 437.05 472.945 437.654 472.19C439.32 470.015 439.31 476.877 439.235 477.508C438.853 480.163 438.338 484.634 436.204 486.472C436.09 485.272 436.147 484.088 436.204 482.903ZM431.558 489.736C431.328 490.18 431.15 490.612 430.92 491.057C430.717 491.383 430.316 491.812 429.989 491.609C429.859 491.528 429.769 491.382 429.732 491.223C429.329 489.979 429.97 489.383 430.394 488.335C430.886 487.105 431.118 485.712 431.427 484.413C431.68 483.349 432.318 482.029 431.949 481.167C431.043 479.204 431.614 477.118 432.785 475.45C433 475.176 433.174 474.968 433.479 474.841C434.272 477.276 433.743 480.97 433.377 483.454C433.07 485.478 432.431 487.747 431.558 489.736ZM442.61 479.06C442.357 480.123 441.697 481.114 440.661 481.692C440.118 480.09 440.738 479.164 441.181 477.722C441.458 476.764 441.084 475.402 441.545 474.513C441.654 474.265 442.702 477.31 442.735 477.692C442.782 478.127 442.722 478.587 442.61 479.06Z" fill="#333333"/>
<path d="M411.398 466.07C411.264 466.213 411.077 466.368 410.956 466.564C408.21 469.605 405.114 472.338 402.512 475.513C401.466 476.762 400.493 479.277 401.055 480.484C402.305 483.202 403.626 486.462 407.149 486.975C408.358 487.138 409.982 485.977 411.037 485.005C417.031 479.641 422.935 474.131 428.838 468.621C430.628 466.975 432.558 464.738 431.491 462.088C430.994 460.921 430.087 459.907 429.165 459.063C427.515 457.498 426.242 455.398 423.696 455.715C421.967 455.953 420.33 457.062 419.088 458.189C416.459 460.534 413.847 463.432 411.398 466.07ZM413.709 478.077C413.763 476.168 414.895 473.616 415.39 472.162C415.886 470.707 416.435 469.24 416.576 467.701C416.742 466.268 415.976 464.663 416.863 463.451C418.034 461.782 419.413 460.288 420.959 459.033C421.52 458.568 422.185 458.077 422.894 458.246C424.181 458.502 424.412 460.679 424.265 461.717C424.03 463.333 423.665 464.869 423.259 466.47C423.075 467.35 422.936 469.613 422.425 470.29C421.688 471.188 420.758 470.793 420.588 469.828C420.492 469.182 420.966 468.346 421.147 467.69C421.515 465.93 422.117 464.451 420.383 463.24C420.306 463.146 420.187 463.118 420.069 463.09C419.898 463.074 419.805 463.152 419.724 463.283C418.096 464.668 418.013 467.643 417.812 469.642C417.614 471.418 416.96 472.909 416.355 474.613C415.71 476.381 415.471 478.222 413.925 479.476C413.773 479.066 413.727 478.63 413.709 478.077ZM412.444 467.442C412.675 466.998 412.971 466.594 413.356 466.336C414.329 467.391 413.083 469.691 412.789 470.819C412.243 473.01 411.737 475.137 411.138 477.341C410.72 478.889 410.469 480.676 409.868 482.156C409.718 482.47 408.261 484.819 407.693 484.059C406.674 482.569 407.879 481.283 408.546 479.844C409.35 478.038 410.153 476.233 410.905 474.439C411.328 473.392 411.32 472.167 411.601 470.986C411.854 469.923 411.967 468.502 412.444 467.442ZM407.939 473.684C409.508 474.432 405.594 480.814 404.791 481.672C403.549 480.178 403.277 478.067 404.264 476.33C404.803 475.534 406.802 473.114 407.939 473.684ZM426.118 462.008C426.174 461.772 426.177 461.548 426.271 461.47C426.352 461.34 426.535 461.408 426.6 461.449C427.856 462.047 428.374 463.543 428.736 464.852C428.786 465.064 428.823 465.222 428.767 465.459C428.698 465.642 428.511 465.797 428.378 465.94C427.631 466.561 426.831 467.195 426.084 467.816C425.991 467.894 425.981 464.996 426.025 464.707C426.097 464.299 426.039 462.863 426.118 462.008Z" fill="#333333"/>
<path d="M149.847 296.399C152.395 292.977 154.804 289.556 158.051 286.693C161.648 283.516 165.628 280.757 169.503 277.929C171.005 276.847 172.681 275.311 174.636 275.241C176.696 275.171 178.127 277.126 179.419 278.453C182.491 281.595 185.773 284.633 188.287 288.229C184.901 288.788 181.479 289.102 178.302 290.429C174.671 291.93 171.598 294.618 168.491 296.958C164.895 299.646 161.333 302.334 157.772 305.093C157.144 305.581 155.433 306.489 155.607 307.467C155.747 308.409 157.842 309.352 158.47 309.876C159.273 310.504 161.822 312.075 161.683 313.332C161.508 315.113 158.61 314.38 157.563 314.415C153.687 314.519 149.637 315.846 145.936 316.929C144.435 317.382 143.248 318.116 141.851 318.709C140.105 319.442 138.849 318.57 137.731 317.173C136.509 315.672 137.103 314.38 137.487 312.599C137.976 310.365 138.43 308.095 138.918 305.861C139.931 301.147 140.943 296.608 142.934 292.209C143.492 290.952 143.911 290.114 145.203 291.127C147.018 292.489 148.415 294.723 149.847 296.399ZM184.761 287.216C183.469 284.563 180.92 282.259 179 280.024C176.731 277.406 174.322 278.418 171.843 280.164C166.082 284.249 160.845 288.578 156.236 293.955C154.839 295.561 153.617 297.237 152.43 299.017C151.976 299.681 150.545 302.579 149.602 302.614C148.939 302.649 147.019 299.681 146.634 299.192C146.181 298.599 145.587 296.818 144.924 296.504C143.457 295.84 142.48 300.973 142.27 301.811C141.153 306.629 141.293 311.691 140.734 316.614C141.851 316.754 143.213 316.16 144.295 315.881C145.727 315.532 147.158 315.183 148.625 314.869C151.453 314.24 154.281 313.647 157.074 312.983C159.972 312.32 156.026 310.609 154.874 309.981C152.535 308.724 151.522 307.99 153.932 306.07C158.959 302.055 164.057 298.075 169.224 294.269C171.354 292.698 173.518 291.162 175.858 289.975C178.721 288.508 181.688 287.95 184.761 287.216Z" fill="#333333"/>
<path d="M43.3482 227.823C44.4006 226.388 47.7968 227.201 49.9972 227.057C55.4025 226.722 60.8078 225.957 66.1653 225.527C69.131 225.287 72.0968 225.096 75.0147 225.383C77.5021 225.622 78.0282 227.105 76.641 228.684C71.9054 234.041 67.122 239.351 62.2907 244.613C60.9035 246.095 59.2771 247.339 57.7464 248.726C56.6462 249.683 55.259 250.496 53.824 250.209C52.1497 249.827 51.1931 248.104 50.4755 246.574C48.036 241.312 44.8311 235.955 43.2047 230.358C42.8699 229.114 42.9655 228.301 43.3482 227.823ZM55.4503 229.64C55.3547 229.306 55.1155 229.162 54.5893 229.545C53.537 230.358 53.8718 233.132 53.7761 234.28C53.6326 236.289 53.4891 238.346 53.3935 240.403C53.3456 241.886 53.5848 243.608 54.111 244.995C54.2545 245.474 54.4937 245.952 54.9242 246.191C55.4503 246.526 56.1679 246.382 56.7419 246.095C60.2338 244.278 58.8466 239.829 59.0379 236.768C59.1336 235.428 60.473 230.501 59.4206 229.784C57.6507 228.588 57.8899 231.841 57.8899 232.606C57.842 233.993 57.7942 235.428 57.6507 236.816C57.555 237.724 57.3637 242.316 55.6417 241.934C54.4937 241.647 55.2112 236.002 55.259 234.998C55.3068 233.754 55.4025 232.463 55.4503 231.219C55.4982 230.932 55.5938 230.071 55.4503 229.64ZM64.5867 228.588C64.5389 228.445 64.4911 228.397 64.3954 228.349C64.1562 228.205 63.8214 228.205 63.5344 228.349C62.769 228.636 62.3385 229.497 62.0993 230.262C61.5253 231.984 60.9513 233.754 60.76 235.524C60.5208 237.485 60.7121 239.781 61.4296 241.647C61.8602 241.79 62.2428 241.264 62.4342 240.834C63.2952 238.681 63.9171 236.72 64.1562 234.376C64.2519 233.467 64.9694 229.688 64.5867 228.588ZM73.3405 227.583C72.6229 227.392 71.5227 227.44 71.5227 227.44C70.1834 227.488 68.7962 227.536 67.4568 227.631C67.1698 227.631 66.6915 228.11 66.6436 228.397C66.5001 229.64 66.4044 230.932 66.2609 232.176C66.1653 233.084 65.7348 234.472 65.9261 235.38C65.9739 235.667 66.2131 236.002 66.5001 236.05C66.6914 236.098 66.9306 236.002 67.0741 235.907C67.6003 235.62 67.9352 235.046 68.2222 234.519C68.7483 233.563 69.2267 232.75 69.418 231.697C69.6094 230.406 69.4659 230.023 70.6139 229.593C71.7619 229.162 72.9099 229.306 73.8188 228.253C74.1536 227.87 73.8188 227.679 73.3405 227.583ZM51.1931 230.023C51.0974 229.927 50.9539 229.832 50.8582 229.784C48.1795 228.827 49.8059 239.399 49.9015 240.594C49.9494 240.977 50.1407 241.503 50.5234 241.408C50.8104 241.36 50.906 241.025 50.9539 240.786C51.3844 238.92 51.5279 236.863 51.7192 234.95C51.8628 233.611 52.2932 231.075 51.1931 230.023ZM46.5531 231.602C46.5531 232.08 46.5531 232.606 46.601 233.084C46.6488 233.371 46.7444 233.563 46.9836 233.658C47.5098 233.18 47.7968 230.836 47.2706 230.262C46.4096 229.353 46.5531 231.075 46.5531 231.602Z" fill="#333333"/>
<path d="M352.119 603.55C349.464 603.068 348.319 597.898 346.663 594.993C342.619 587.846 337.987 580.985 333.845 573.967C331.55 570.083 329.321 566.167 327.775 561.998C326.45 558.448 328.123 556.747 331.196 557.59C341.643 560.49 352.056 563.487 362.436 566.581C365.378 567.488 368.153 568.88 371.061 570.046C373.095 570.911 375.124 572.263 375.686 574.409C376.275 576.946 374.563 579.393 372.952 581.387C367.398 588.206 362.221 596.131 355.671 602.063C354.197 603.345 353.025 603.754 352.119 603.55ZM346.565 585.844C346.172 586.197 346.135 586.618 347.006 587.082C348.813 587.977 352.373 585.679 354.002 585.047C356.836 583.909 359.735 582.74 362.603 581.505C364.656 580.586 366.845 579.117 368.387 577.479C368.944 576.966 369.437 576.322 369.478 575.576C369.585 574.637 368.913 573.754 368.141 573.162C363.345 569.608 358.201 574.452 353.9 576.223C352.011 576.981 344.405 578.426 344.125 580.337C343.67 583.543 347.945 581.058 348.989 580.55C350.912 579.695 352.9 578.807 354.886 578.082C356.189 577.609 362.576 574.822 363.197 577.424C363.568 579.18 355.397 581.948 353.996 582.549C352.268 583.31 350.444 584.036 348.717 584.797C348.294 584.922 347.056 585.363 346.565 585.844ZM339.066 574.087C338.902 574.248 338.869 574.345 338.867 574.507C338.83 574.928 339.052 575.385 339.438 575.681C340.338 576.534 341.797 576.549 342.999 576.367C345.728 576.007 348.522 575.615 351.062 574.701C353.894 573.725 356.897 571.94 358.964 569.724C358.874 569.042 357.903 568.869 357.189 568.894C353.683 569.149 350.597 569.603 347.242 570.833C345.94 571.305 340.312 572.835 339.066 574.087ZM331.886 562.82C332.102 563.925 332.897 565.393 332.897 565.393C333.851 567.188 334.837 569.047 335.857 570.81C336.047 571.201 337.017 571.535 337.44 571.41C339.231 570.78 341.055 570.054 342.846 569.424C344.148 568.951 346.325 568.617 347.437 567.753C347.797 567.497 348.094 566.949 347.969 566.526C347.907 566.233 347.618 565.971 347.393 565.839C346.652 565.312 345.647 565.236 344.739 565.194C343.086 565.112 341.66 564.999 340.098 565.437C338.21 566.033 337.784 566.483 336.435 565.204C335.086 563.924 334.52 562.264 332.482 561.723C331.738 561.521 331.699 562.104 331.886 562.82ZM349.912 591.394C349.845 591.588 349.81 591.847 349.808 592.01C350.282 596.296 363.615 587.063 365.181 586.138C365.671 585.819 366.262 585.209 365.877 584.751C365.622 584.391 365.102 584.483 364.744 584.577C361.915 585.228 359.015 586.398 356.28 587.407C354.359 588.1 350.617 589.196 349.912 591.394ZM355.144 596.672C355.796 596.355 356.513 596.006 357.134 595.623C357.493 595.367 357.691 595.11 357.662 594.72C356.661 594.32 353.275 595.485 352.842 596.583C352.174 598.36 354.427 597.021 355.144 596.672Z" fill="#333333"/>
<path d="M49.4102 326.021C48.4139 323.465 45.252 324.331 42.9996 324.591C39.621 325.024 36.2857 325.458 32.9071 325.847C31.2178 326.064 30.5248 326.844 31.3478 328.36C32.3441 330.266 33.5136 332.041 34.6831 333.861C36.7189 337.109 38.7547 340.358 40.8338 343.563C44.6022 349.367 48.8038 354.868 52.5289 360.716C54.3914 363.575 55.7775 366.823 57.6834 369.639C58.9828 371.588 60.4122 373.451 61.8416 375.357C62.5347 376.266 64.0074 379.645 65.5234 378.519C66.7362 377.609 65.1769 375.313 64.917 374.23C64.4405 372.498 63.964 370.765 63.4443 369.033C62.4913 365.741 61.5384 362.449 60.5422 359.113C59.1561 354.522 57.77 349.931 56.2107 345.426C55.0845 342.134 53.8283 338.842 52.6155 335.55C51.4893 332.475 50.4498 329.443 49.5401 326.324C49.4968 326.237 49.4535 326.151 49.4102 326.021ZM60.6288 367.343L60.5855 367.387C59.4593 366.65 58.7662 364.398 58.1165 363.228C57.2502 361.626 56.3839 360.066 55.5609 358.464C53.8283 355.302 52.139 352.096 50.4064 348.934C48.6738 345.729 46.9845 342.567 45.2519 339.362C44.7322 338.452 40.6606 329.702 40.0975 329.789C42.2199 329.486 44.5156 329.096 46.768 328.879C47.3311 328.836 48.2407 329.313 48.4573 329.789C49.5401 331.955 50.5364 334.121 51.316 336.373C53.8716 343.823 56.3839 351.273 58.7662 358.724C59.286 360.326 59.6759 362.015 60.0657 363.661C60.3689 364.571 61.3651 366.564 60.6288 367.343Z" fill="#333333"/>
<path d="M68.0746 388.698C67.3382 389.131 66.6452 389.607 66.0388 390.214C64.5228 391.73 64.6527 393.592 64.9126 395.585C65.0425 396.451 65.1725 397.361 65.4757 398.184C66.2987 400.393 67.9447 400.826 70.0671 401.216C74.2687 401.952 77.7772 399.83 78.99 395.802C80.1595 391.86 76.1312 386.879 72.0163 387.485C71.4965 387.572 70.9334 387.658 70.4136 387.788C69.5906 387.962 68.811 388.265 68.0746 388.698ZM70.7168 394.762C70.6302 394.459 70.5436 394.199 70.5002 393.896C70.0671 389.564 76.0879 389.434 76.4344 393.679C76.5644 395.108 76.651 396.928 74.8751 397.188C73.6622 397.361 72.3628 396.928 71.4965 396.061C71.15 395.628 70.8901 395.195 70.7168 394.762Z" fill="#333333"/>
<path d="M168.808 573.446C166.102 574.538 164.467 571.456 163.026 569.522C160.897 566.589 158.801 563.689 156.639 560.788C155.574 559.321 155.673 558.216 157.448 557.747C159.651 557.129 161.879 556.74 164.141 556.319C168.143 555.527 172.144 554.735 176.143 554.008C183.388 552.695 190.714 551.938 197.96 550.559C201.533 549.917 205.061 548.622 208.632 548.045C211.089 547.63 213.574 547.379 216.093 547.097C217.303 546.97 220.995 545.647 221.228 547.643C221.408 549.246 218.492 549.712 217.464 550.3C215.774 551.195 214.084 552.089 212.363 552.95C209.118 554.613 205.873 556.275 202.563 557.936C197.995 560.21 193.427 562.485 188.8 564.562C185.429 566.09 181.962 567.518 178.528 568.979C175.324 570.35 172.217 571.756 169.138 573.325C169.039 573.355 168.94 573.385 168.808 573.446ZM209.001 552.001L209.003 551.936C207.611 551.6 205.361 552.706 203.981 553.056C202.108 553.553 200.268 554.019 198.426 554.551C194.713 555.514 190.998 556.543 187.285 557.507C183.539 558.502 179.857 559.5 176.111 560.495C175.027 560.756 165.279 563.983 164.936 563.483C166.249 565.349 167.621 567.411 169.096 569.314C169.473 569.782 170.505 570.139 171.032 569.959C173.5 569.219 175.904 568.411 178.218 567.372C185.853 563.919 193.457 560.432 200.965 556.844C202.586 556.078 204.179 555.148 205.738 554.25C206.664 553.821 208.934 553.14 209.001 552.001Z" fill="#333333"/>
<path d="M230.978 542.198C230.776 541.312 230.64 540.427 230.668 539.515C230.737 537.235 232.274 535.978 234.007 534.726C234.773 534.195 235.573 533.632 236.431 533.267C238.743 532.293 240.279 533.252 242.128 534.612C245.763 537.33 246.677 541.596 244.441 545.473C242.241 549.254 235.444 549.766 232.913 546.136C232.601 545.67 232.257 545.171 231.979 544.673C231.513 543.909 231.179 543.084 230.978 542.198ZM237.603 539.822C237.304 539.976 237.04 540.099 236.774 540.286C233.102 543.11 237.392 547.869 240.933 545.041C242.135 544.1 243.608 542.84 242.514 541.275C241.764 540.209 240.481 539.518 239.178 539.479C238.59 539.526 238.064 539.641 237.603 539.822Z" fill="#333333"/>
<path d="M359.79 704.939C364.327 707.452 368.354 709.688 372.381 711.924C373.913 712.754 374.734 714.193 373.506 715.743C367.253 723.197 357.326 728.28 348.824 732.682C347.539 733.377 346.316 734.587 344.895 734.929C343.04 735.369 342.418 733.921 341.868 732.31C340.211 727.277 337.993 722.19 335.938 717.175C334.64 713.962 332.835 711.01 331.112 708.094C330.53 707.103 328.895 705.3 329.137 703.993C329.392 702.546 330.898 702.779 332.142 702.505C336.038 701.755 339.996 701.522 343.944 701.966C344.786 702.049 345.591 702.213 346.378 701.979C348.012 701.488 348.636 698.011 349.231 696.569C352.594 689.142 355.853 681.62 359.808 674.507C364.098 666.86 368.669 659.24 374.338 652.55C379.97 645.941 387.255 638.362 396.244 637.348C401.225 636.79 404.738 646.846 405.619 650.557C406.212 653.163 407.38 655.684 408.408 658.191C409.151 660.133 407.913 662.361 405.511 662.606C398.842 663.338 393.707 667.193 388.297 670.682C382.248 674.617 376.867 679.241 372.141 684.693C366.903 690.747 363.532 697.974 359.79 704.939ZM404.959 656.409C403.157 651.702 401.947 647.308 399.664 643.46C398.626 641.631 396.921 638.236 393.277 640.171C385.6 644.257 379.372 650.015 374.227 656.842C366.921 666.656 360.74 677.118 356.277 688.542C354.488 693.207 352.233 697.713 350.887 702.479C350.123 705.065 349.137 705.308 346.835 705.11C342.475 704.823 338.096 705.015 333.288 704.967C337.065 713.775 340.446 721.723 344.096 730.377C343.7 729.517 365.227 717.024 366.97 715.412C366.636 715.068 366.288 714.864 365.881 714.682C362.492 712.877 359.043 711.094 355.857 708.941C353.331 707.277 354.904 705.393 355.875 702.997C356.919 700.439 358.068 697.975 359.356 695.525C364.078 686.364 370.17 677.96 377.509 670.697C384.825 663.376 394.846 659.067 404.959 656.409Z" fill="#333333"/>
</g>
</svg>
