<svg width="1294" height="479" viewBox="0 0 1294 479" fill="none" xmlns="http://www.w3.org/2000/svg">
<path d="M0.472386 385.44C-2.20277 368.935 6.73124 348.493 21.0156 339.609C37.975 329.06 61.4458 330.17 78.809 338.701C96.4247 347.382 108.791 363.332 111.466 383.017C112.879 393.567 109.952 404.722 111.971 415.17C112.778 419.309 115.05 422.539 118.129 425.366C121.763 428.747 124.186 430.817 126.76 435.057C98.4942 444.748 68.1589 450.855 39.4388 439.196C16.7757 429.959 2.94564 409.567 0.472386 385.44ZM108.236 433.341C108.69 430.666 102.179 425.517 100.917 423.246C97.838 417.643 96.879 410.274 95.4152 404.015C92.74 392.406 91.4277 380.09 86.9859 368.986C78.7586 348.543 57.963 333.956 35.5523 339.004C15.211 343.546 2.8447 363.181 3.90466 383.573C4.91416 402.753 16.7252 421.933 33.18 431.725C44.2844 438.338 57.1554 440.861 69.976 440.962C77.5472 441.013 84.9669 440.003 92.4372 438.54C95.2638 437.984 107.529 437.48 108.236 433.341Z" fill="#333333"/>
<path d="M65.1311 369.995C62.8597 372.418 60.2351 373.629 56.9542 372.62C54.1781 371.761 51.7553 370.096 48.9792 369.389C47.5659 369.036 46.0517 368.935 44.6384 369.288C42.7708 369.742 41.3071 370.903 39.7928 371.963C38.8843 372.62 37.5719 373.629 36.7643 373.73C35.1996 373.932 33.4835 373.225 31.9693 372.922C27.5275 372.014 22.8838 372.922 21.3191 377.717C20.8144 379.383 23.3886 380.09 23.9438 378.424C25.3066 374.134 30.0007 375.244 33.3825 375.951C34.6949 376.254 36.1082 376.557 37.471 376.304C38.7833 376.001 39.9442 375.143 41.0547 374.336C42.468 373.326 43.8308 372.115 45.5974 371.812C46.8088 371.56 48.0202 371.812 49.2316 372.216C51.9067 373.074 54.279 374.689 57.0552 375.345C60.9922 376.304 64.4245 374.689 67.1501 371.812C68.2605 370.651 66.3425 368.733 65.1311 369.995Z" fill="#333333"/>
<path d="M73.1077 382.815C72.1991 381.554 70.1801 382.563 70.5839 383.774C70.483 383.875 70.3316 384.077 70.2306 384.128C69.5744 384.632 68.7668 385.036 68.0097 385.339C66.344 386.046 65.2336 386.046 63.6689 385.036C61.9023 383.926 60.4385 383.017 58.2681 382.815C56.5015 382.664 54.7854 383.068 53.2206 383.926C51.6559 384.733 50.2931 385.894 48.7284 386.601C47.2142 387.308 45.5485 387.56 43.8828 387.358C40.7029 386.954 37.8763 385.238 34.7469 384.632C30.4061 383.724 26.7719 385.44 23.9453 388.771C22.8349 390.084 24.7025 392.002 25.8634 390.689C27.1757 389.125 28.7404 387.711 30.7594 387.207C32.2737 386.853 33.8384 387.156 35.3526 387.56C38.583 388.519 41.6115 390.134 45.0438 390.134C47.0123 390.134 48.8798 389.579 50.6464 388.67C52.2616 387.812 53.6244 386.601 55.2901 385.894C57.0062 385.188 59.0757 385.339 60.6404 386.248C62.3566 387.257 63.9213 388.67 66.0917 388.569C67.8583 388.519 69.7763 387.61 71.2401 386.651C72.3505 385.995 74.2686 384.38 73.1077 382.815Z" fill="#333333"/>
<path d="M78.2036 399.169C78.1531 400.33 77.8503 401.239 76.7903 401.39C75.5789 401.542 74.1656 401.037 73.0047 400.532C70.2791 399.422 67.7553 397.302 64.8278 396.797C60.2851 396.04 57.5595 400.179 54.3796 402.602C53.0167 403.662 51.8558 404.166 50.2911 403.258C48.3226 402.097 46.6569 400.482 44.537 399.573C39.2372 397.251 33.9373 399.624 30.1517 403.561C28.9403 404.823 30.8584 406.741 32.0698 405.479C33.7859 403.662 35.8554 402.097 38.3286 401.491C40.7514 400.886 43.1237 401.643 45.1427 403.006C46.8588 404.116 48.474 405.731 50.493 406.337C52.4111 406.892 54.1777 406.084 55.7424 404.974C57.6099 403.611 59.1242 401.794 60.9917 400.482C62.6069 399.321 64.1212 399.22 65.9383 399.977C68.6639 401.138 71.0362 402.905 73.9637 403.712C75.478 404.116 77.1941 404.318 78.6074 403.611C80.3235 402.753 80.8283 400.936 80.9292 399.119C80.9797 397.453 78.2541 397.453 78.2036 399.169Z" fill="#333333"/>
<path d="M1180.64 141.181C1182.64 135.669 1184.89 129.081 1190.43 126.227C1195.27 123.71 1201.29 123.308 1206.65 123.295C1220.66 123.192 1235.22 125.779 1249.02 127.942C1256.13 129.058 1263.17 130.419 1270.13 132.282C1276.01 133.86 1282.04 135.43 1286.55 139.707C1291.03 143.932 1291.05 148.102 1289.78 153.812C1288.22 160.935 1285.97 167.871 1283.32 174.657C1278.95 185.892 1274.57 200.455 1262.3 205.322C1250.77 209.905 1238.78 203.139 1227.73 200.18C1220.99 198.372 1214.14 196.932 1207.24 195.83C1203.04 195.143 1198.44 194.347 1194.24 195.457C1190.84 196.345 1188.35 198.614 1186.4 201.467C1183.22 206.139 1180.74 211.13 1177.37 215.705C1175.7 218.019 1174.7 220.426 1171.82 218.735C1169.39 217.338 1166.43 214.659 1166.11 211.767C1165.28 204.533 1167.57 195.676 1168.93 188.632C1171.93 172.865 1175.14 156.28 1180.64 141.181ZM1176.88 208.035C1177.4 210.848 1178.66 207.767 1179.04 207.034C1180.08 204.946 1181.44 202.986 1182.59 200.972C1185.34 196.098 1188.03 193.442 1193.68 192.459C1205.36 190.416 1216.68 194.808 1227.89 197.636C1236.88 199.913 1246.71 204.125 1256.14 202.795C1264.57 201.591 1270.08 195.747 1273.9 188.529C1276.65 183.347 1278.96 178.004 1280.96 172.491C1282.97 166.978 1285.4 160.836 1286.01 154.951C1287.2 143.169 1273.74 141.361 1264.96 138.964C1253.2 135.726 1241 134.298 1229 132.309C1220.26 130.888 1204.35 126.317 1197.14 133.899C1192.75 138.509 1190.38 146.861 1188.79 152.791C1187.06 159.079 1185.54 165.422 1184.06 171.775C1182.45 178.578 1180.9 185.352 1179.62 192.243C1179.06 195.335 1178.6 198.501 1177.96 201.572C1177.49 203.639 1176.49 205.912 1176.88 208.035Z" fill="#333333"/>
<path d="M1245.94 177.705C1245.86 177.992 1245.91 178.311 1246.06 178.57C1246.13 178.633 1246.19 178.737 1246.22 178.789C1246.36 178.914 1246.54 179.051 1246.75 179.106C1246.79 179.117 1246.83 179.128 1246.87 179.138C1246.99 179.171 1247.12 179.204 1247.25 179.196C1247.51 179.221 1247.71 179.101 1247.95 179.033C1248.16 178.914 1248.34 178.742 1248.43 178.548C1248.5 178.437 1248.54 178.314 1248.57 178.191C1248.58 178.15 1248.59 178.11 1248.6 178.069C1248.65 177.905 1248.64 177.771 1248.63 177.638C1248.62 177.504 1248.57 177.359 1248.48 177.204C1248.33 176.945 1248.08 176.745 1247.79 176.668C1247.51 176.592 1247.19 176.638 1246.93 176.787C1246.87 176.858 1246.77 176.877 1246.71 176.948C1246.62 176.967 1246.52 177.027 1246.46 177.057C1246.23 177.125 1246.02 177.419 1245.94 177.705Z" fill="#333333"/>
<path d="M1234.92 176.288C1236.35 176.671 1236.94 174.463 1235.51 174.079C1234.12 173.706 1233.53 175.915 1234.92 176.288Z" fill="#333333"/>
<path d="M1220.83 173.298C1222.26 173.681 1222.85 171.473 1221.42 171.089C1219.99 170.706 1219.39 172.914 1220.83 173.298Z" fill="#333333"/>
<path d="M1205.94 170.1C1207.37 170.483 1207.97 168.274 1206.53 167.891C1205.14 167.518 1204.55 169.727 1205.94 170.1Z" fill="#333333"/>
<path d="M1251.08 162.951C1252.51 163.334 1253.1 161.126 1251.67 160.742C1250.24 160.359 1249.65 162.567 1251.08 162.951Z" fill="#333333"/>
<path d="M1237.52 160.894C1238.95 161.278 1239.54 159.069 1238.11 158.686C1236.68 158.302 1236.09 160.511 1237.52 160.894Z" fill="#333333"/>
<path d="M1222.41 156.89C1222.56 157.15 1222.81 157.349 1223.1 157.426L1223.47 157.524C1223.76 157.601 1224.07 157.555 1224.33 157.405C1224.59 157.256 1224.79 157.002 1224.87 156.716C1224.95 156.43 1224.9 156.111 1224.75 155.851C1224.6 155.592 1224.35 155.392 1224.06 155.316L1223.69 155.217C1223.41 155.14 1223.09 155.186 1222.83 155.336C1222.57 155.486 1222.37 155.739 1222.29 156.026C1222.22 156.312 1222.26 156.631 1222.41 156.89Z" fill="#333333"/>
<path d="M1208.82 153.601C1210.26 153.985 1210.85 151.776 1209.42 151.393C1207.99 151.009 1207.39 153.218 1208.82 153.601Z" fill="#333333"/>
<path d="M1187.58 398.889C1188.63 396.18 1191.99 397.098 1194.37 397.373C1197.95 397.833 1201.49 398.292 1205.07 398.705C1206.86 398.935 1207.6 399.761 1206.72 401.368C1205.67 403.389 1204.43 405.271 1203.19 407.2C1201.03 410.643 1198.87 414.087 1196.67 417.485C1192.67 423.638 1188.22 429.469 1184.27 435.668C1182.3 438.699 1180.83 442.142 1178.81 445.127C1177.43 447.193 1175.91 449.168 1174.4 451.188C1173.66 452.152 1172.1 455.734 1170.5 454.54C1169.21 453.576 1170.86 451.142 1171.14 449.994C1171.64 448.158 1172.15 446.321 1172.7 444.484C1173.71 440.995 1174.72 437.505 1175.78 433.969C1177.25 429.102 1178.72 424.235 1180.37 419.459C1181.56 415.97 1182.89 412.48 1184.18 408.99C1185.37 405.73 1186.48 402.516 1187.44 399.21C1187.49 399.118 1187.53 399.026 1187.58 398.889ZM1175.68 442.693L1175.73 442.739C1176.92 441.959 1177.66 439.571 1178.35 438.331C1179.27 436.632 1180.18 434.979 1181.06 433.28C1182.89 429.929 1184.68 426.531 1186.52 423.179C1188.36 419.781 1190.15 416.429 1191.99 413.031C1192.54 412.067 1196.85 402.792 1197.45 402.883C1195.2 402.562 1192.77 402.149 1190.38 401.919C1189.78 401.873 1188.82 402.378 1188.59 402.883C1187.44 405.179 1186.38 407.475 1185.56 409.863C1182.85 417.761 1180.18 425.658 1177.66 433.556C1177.11 435.255 1176.7 437.046 1176.28 438.791C1175.96 439.755 1174.9 441.867 1175.68 442.693Z" fill="#333333"/>
<path d="M1167.79 465.331C1168.57 465.79 1169.3 466.295 1169.95 466.938C1171.55 468.545 1171.42 470.519 1171.14 472.632C1171 473.55 1170.87 474.514 1170.54 475.387C1169.67 477.728 1167.93 478.188 1165.68 478.601C1161.22 479.381 1157.5 477.131 1156.22 472.861C1154.98 468.683 1159.25 463.402 1163.61 464.045C1164.16 464.137 1164.76 464.229 1165.31 464.367C1166.18 464.55 1167.01 464.872 1167.79 465.331ZM1164.99 471.759C1165.08 471.438 1165.17 471.162 1165.22 470.841C1165.68 466.249 1159.29 466.111 1158.93 470.611C1158.79 472.126 1158.7 474.055 1160.58 474.331C1161.87 474.514 1163.24 474.055 1164.16 473.137C1164.53 472.677 1164.8 472.218 1164.99 471.759Z" fill="#333333"/>
<path d="M117.747 97.1944C123.294 100.266 128.216 102.999 133.138 105.732C135.011 106.746 136.014 108.506 134.513 110.4C126.87 119.511 114.736 125.724 104.345 131.105C102.773 131.954 101.278 133.433 99.5415 133.851C97.2739 134.389 96.5136 132.619 95.842 130.65C93.8166 124.499 91.1057 118.28 88.5938 112.15C87.0074 108.223 84.8013 104.615 82.6946 101.051C81.9832 99.8389 79.985 97.6355 80.2805 96.0381C80.5927 94.2694 82.4334 94.5541 83.9543 94.2191C88.716 93.3029 93.5541 93.0171 98.3799 93.5606C99.4081 93.6617 100.392 93.8622 101.354 93.5761C103.351 92.9765 104.115 88.726 104.842 86.9634C108.952 77.8857 112.936 68.6918 117.77 59.9967C123.014 50.6498 128.601 41.3366 135.53 33.1588C142.414 25.0805 151.318 15.8165 162.306 14.5779C168.394 13.8959 172.688 26.1873 173.765 30.7226C174.49 33.9082 175.918 36.9899 177.173 40.0547C178.082 42.4279 176.569 45.1514 173.633 45.4511C165.482 46.3456 159.205 51.0578 152.592 55.3217C145.198 60.1317 138.621 65.7834 132.845 72.448C126.443 79.847 122.321 88.6814 117.747 97.1944ZM172.958 37.8756C170.755 32.1224 169.276 26.7517 166.486 22.048C165.217 19.8125 163.134 15.6628 158.679 18.028C149.295 23.023 141.683 30.0608 135.395 38.4054C126.464 50.4006 118.91 63.1885 113.454 77.1516C111.267 82.8541 108.511 88.3621 106.866 94.187C105.932 97.3481 104.726 97.6449 101.913 97.4029C96.5834 97.0522 91.2311 97.2874 85.3541 97.2288C89.9711 107.995 94.1032 117.71 98.5657 128.287C98.0807 127.236 124.393 111.966 126.525 109.996C126.116 109.575 125.691 109.325 125.193 109.104C121.05 106.897 116.835 104.718 112.941 102.086C109.854 100.052 111.775 97.7494 112.963 94.8209C114.239 91.6935 115.643 88.6824 117.217 85.6882C122.989 74.4899 130.436 64.2175 139.406 55.3406C148.348 46.3918 160.597 41.1246 172.958 37.8756Z" fill="#333333"/>
<path d="M1090.36 79.5335C1087.56 81.7372 1089.31 74.3462 1089.47 73.8895C1090.54 70.1421 1090.4 67.5501 1087.84 64.2204C1082.41 57.3719 1080.09 64.9832 1074.2 66.4931C1058.5 70.4216 1053.43 48.39 1061.6 38.5886C1071.37 26.7657 1088.36 29.4797 1096.68 41.1603C1105.52 53.4646 1102.13 70.2876 1090.36 79.5335ZM1093.13 62.2506C1093.12 54.7109 1089.52 46.956 1081.38 44.985C1076.33 43.7079 1068.79 47.8721 1066.4 52.3876C1065.02 54.9728 1065.21 57.4829 1067.32 59.685C1070.39 62.8763 1073.03 61.8914 1076.01 59.5713C1083.02 54.2321 1087.49 56.7027 1093.19 62.7199C1093.1 62.6726 1093.12 62.4616 1093.13 62.2506Z" fill="#333333"/>
<path d="M1039.32 30.8592C1034.12 24.3635 1033.34 13.9829 1040.6 8.78554C1046.18 4.8002 1054.42 5.08314 1059.52 9.66713C1072.3 21.1917 1050.9 45.4036 1039.32 30.8592ZM1052.05 19.2137C1044.78 13.2716 1038.52 23.7382 1045.4 28.2597C1051.27 32.085 1058.14 24.1539 1052.05 19.2137Z" fill="#333333"/>
<path d="M160.925 290.94C157.68 290.351 156.28 284.032 154.256 280.482C149.312 271.746 143.652 263.36 138.588 254.782C135.783 250.034 133.058 245.247 131.169 240.152C129.55 235.813 131.594 233.733 135.35 234.764C148.119 238.309 160.848 241.972 173.535 245.754C177.132 246.863 180.524 248.564 184.077 249.989C186.564 251.046 189.044 252.698 189.73 255.322C190.451 258.423 188.358 261.414 186.389 263.851C179.6 272.185 173.273 281.872 165.266 289.123C163.465 290.69 162.033 291.19 160.925 290.94ZM154.136 269.299C153.655 269.73 153.61 270.245 154.675 270.812C156.884 271.905 161.235 269.097 163.226 268.325C166.69 266.934 170.234 265.504 173.739 263.995C176.249 262.872 178.924 261.076 180.809 259.074C181.49 258.447 182.093 257.66 182.142 256.749C182.273 255.6 181.452 254.521 180.508 253.797C174.646 249.453 168.359 255.374 163.102 257.539C160.793 258.466 151.496 260.231 151.154 262.567C150.597 266.486 155.823 263.449 157.099 262.828C159.449 261.782 161.879 260.698 164.307 259.812C165.899 259.234 173.707 255.827 174.466 259.007C174.919 261.153 164.931 264.536 163.219 265.272C161.107 266.201 158.878 267.089 156.766 268.019C156.249 268.172 154.737 268.711 154.136 269.299ZM144.97 254.928C144.77 255.125 144.729 255.243 144.727 255.441C144.682 255.956 144.953 256.514 145.425 256.876C146.524 257.919 148.308 257.937 149.778 257.715C153.113 257.275 156.528 256.795 159.633 255.678C163.095 254.486 166.765 252.304 169.292 249.595C169.182 248.761 167.995 248.55 167.122 248.581C162.837 248.892 159.064 249.447 154.964 250.95C153.372 251.528 146.493 253.398 144.97 254.928ZM136.194 241.157C136.458 242.507 137.43 244.302 137.43 244.302C138.596 246.495 139.801 248.768 141.047 250.922C141.28 251.4 142.465 251.809 142.982 251.656C145.171 250.886 147.401 249.998 149.59 249.228C151.182 248.65 153.843 248.242 155.202 247.186C155.642 246.873 156.006 246.203 155.852 245.686C155.777 245.329 155.423 245.008 155.148 244.846C154.242 244.202 153.014 244.11 151.905 244.058C149.884 243.958 148.14 243.82 146.232 244.355C143.924 245.084 143.403 245.634 141.754 244.07C140.105 242.506 139.413 240.477 136.922 239.816C136.013 239.569 135.966 240.282 136.194 241.157ZM158.227 276.083C158.146 276.32 158.103 276.637 158.1 276.835C158.679 282.075 174.976 270.788 176.891 269.659C177.49 269.268 178.211 268.523 177.742 267.963C177.429 267.523 176.793 267.635 176.356 267.75C172.898 268.546 169.354 269.975 166.011 271.209C163.662 272.056 159.088 273.396 158.227 276.083ZM164.622 282.534C165.419 282.146 166.296 281.719 167.054 281.251C167.494 280.939 167.735 280.624 167.7 280.148C166.476 279.659 162.338 281.083 161.808 282.425C160.992 284.597 163.745 282.961 164.622 282.534Z" fill="#333333"/>
<path d="M1116.8 337.888C1120.28 334.414 1123.74 330.876 1127.32 327.516C1130.24 324.854 1128.27 321.09 1126.2 318.644C1125.44 317.732 1124.68 316.819 1123.85 315.921C1122.63 314.502 1121.18 312.935 1119.34 312.956C1117.76 312.916 1116.41 314.12 1115.22 315.149C1106.8 322.848 1098.88 331.247 1090.65 339.174C1088.25 341.441 1089.34 343.775 1091.27 345.913C1092.3 347.103 1093.38 348.214 1094.41 349.405C1095.06 350.139 1095.79 350.923 1096.75 351.243C1098 351.632 1099.34 351.249 1100.49 350.638C1102.37 349.652 1104.42 348.765 1106.03 347.501C1109.85 344.627 1113.37 341.283 1116.8 337.888ZM1105.42 338.508C1104.97 339.773 1105.3 341.195 1104.78 342.475C1104.16 344.189 1103.19 345.849 1102.01 347.216C1101.84 347.39 1101.62 347.58 1101.34 347.576C1100.8 347.568 1100.74 346.762 1100.9 346.249C1101.34 344.372 1102 342.514 1102.44 340.637C1102.65 339.771 1102.69 338.468 1103.28 337.784C1103.7 337.275 1104.47 337.367 1104.97 336.57C1105.69 335.308 1105.33 333.758 1105.4 332.31C1105.51 330.444 1106.21 328.78 1106.82 327.002C1106.97 326.489 1107.19 325.961 1107.64 325.581C1108.1 325.202 1108.79 325.244 1109.11 325.716C1109.31 326.008 1109.26 326.362 1109.2 326.715C1108.58 330.747 1106.7 334.663 1105.42 338.508ZM1097.51 347.519C1097.4 347.614 1097.35 347.694 1097.2 347.659C1097.06 347.625 1096.9 347.526 1096.8 347.412C1094.72 345.513 1092.75 343.182 1094.14 340.401C1095.32 338.149 1097.72 336.768 1099.5 335.055C1100.46 334.216 1101.26 334.438 1101.21 335.677C1101.17 336.368 1100.05 337.994 1099.82 338.731C1099.02 341.44 1098.43 344.168 1097.78 346.911C1097.69 347.135 1097.61 347.359 1097.51 347.519ZM1117.29 329.798C1117.49 327.16 1117.9 324.542 1118.29 321.859C1118.49 320.655 1118.32 317.626 1119.06 316.703C1121.1 314.045 1121.08 322.432 1120.99 323.204C1120.53 326.449 1119.9 331.913 1117.29 334.161C1117.15 332.693 1117.22 331.246 1117.29 329.798ZM1111.61 338.149C1111.33 338.693 1111.11 339.221 1110.83 339.764C1110.58 340.163 1110.09 340.687 1109.69 340.439C1109.53 340.34 1109.42 340.162 1109.38 339.968C1108.88 338.447 1109.67 337.718 1110.19 336.438C1110.79 334.933 1111.07 333.231 1111.45 331.643C1111.76 330.343 1112.54 328.729 1112.09 327.676C1110.98 325.277 1111.68 322.727 1113.11 320.688C1113.37 320.354 1113.58 320.099 1113.96 319.944C1114.93 322.92 1114.28 327.435 1113.83 330.471C1113.46 332.945 1112.68 335.718 1111.61 338.149ZM1125.12 325.1C1124.81 326.4 1124 327.611 1122.74 328.317C1122.07 326.359 1122.83 325.227 1123.37 323.464C1123.71 322.294 1123.25 320.629 1123.82 319.543C1123.95 319.239 1125.23 322.961 1125.27 323.428C1125.33 323.96 1125.25 324.523 1125.12 325.1Z" fill="#333333"/>
<path d="M1086.97 309.222C1086.81 309.397 1086.58 309.587 1086.43 309.826C1083.07 313.543 1079.29 316.884 1076.11 320.765C1074.83 322.291 1073.64 325.365 1074.33 326.84C1075.86 330.163 1077.47 334.148 1081.78 334.775C1083.25 334.974 1085.24 333.555 1086.53 332.366C1093.86 325.81 1101.07 319.075 1108.29 312.34C1110.48 310.328 1112.83 307.594 1111.53 304.355C1110.92 302.929 1109.81 301.689 1108.69 300.658C1106.67 298.744 1105.11 296.177 1102 296.566C1099.89 296.856 1097.89 298.211 1096.37 299.589C1093.16 302.456 1089.96 305.998 1086.97 309.222ZM1089.79 323.898C1089.86 321.565 1091.24 318.446 1091.85 316.668C1092.46 314.89 1093.13 313.097 1093.3 311.216C1093.5 309.464 1092.57 307.502 1093.65 306.021C1095.08 303.981 1096.77 302.155 1098.66 300.622C1099.34 300.052 1100.16 299.452 1101.02 299.659C1102.6 299.972 1102.88 302.632 1102.7 303.901C1102.41 305.877 1101.96 307.754 1101.47 309.711C1101.24 310.787 1101.07 313.553 1100.45 314.381C1099.55 315.478 1098.41 314.995 1098.2 313.816C1098.09 313.026 1098.67 312.004 1098.89 311.202C1099.34 309.052 1100.07 307.243 1097.95 305.763C1097.86 305.649 1097.71 305.614 1097.57 305.58C1097.36 305.561 1097.25 305.656 1097.15 305.815C1095.16 307.508 1095.06 311.145 1094.81 313.589C1094.57 315.759 1093.77 317.582 1093.03 319.664C1092.24 321.826 1091.95 324.075 1090.06 325.609C1089.87 325.107 1089.82 324.575 1089.79 323.898ZM1088.25 310.899C1088.53 310.356 1088.89 309.862 1089.36 309.547C1090.55 310.837 1089.03 313.648 1088.67 315.027C1088 317.706 1087.39 320.305 1086.65 322.998C1086.14 324.891 1085.84 327.076 1085.1 328.884C1084.92 329.268 1083.14 332.139 1082.44 331.211C1081.2 329.389 1082.67 327.817 1083.48 326.059C1084.47 323.851 1085.45 321.644 1086.37 319.452C1086.89 318.172 1086.88 316.675 1087.22 315.231C1087.53 313.931 1087.67 312.195 1088.25 310.899ZM1082.74 318.529C1084.66 319.443 1079.88 327.245 1078.89 328.293C1077.38 326.467 1077.04 323.886 1078.25 321.763C1078.91 320.79 1081.35 317.832 1082.74 318.529ZM1104.96 304.257C1105.03 303.968 1105.04 303.695 1105.15 303.6C1105.25 303.44 1105.47 303.524 1105.55 303.574C1107.09 304.305 1107.72 306.133 1108.16 307.734C1108.22 307.992 1108.27 308.186 1108.2 308.475C1108.12 308.699 1107.89 308.889 1107.72 309.064C1106.81 309.823 1105.83 310.597 1104.92 311.356C1104.81 311.451 1104.8 307.909 1104.85 307.556C1104.94 307.058 1104.87 305.302 1104.96 304.257Z" fill="#333333"/>
<path d="M389.288 135.28C387.506 137.141 385.523 138.782 383.404 140.169C382.155 140.966 380.89 141.811 379.523 142.466C376.647 143.893 355.342 148.738 356.078 143.263C356.429 140.494 356.569 137.716 356.71 134.937C356.749 133.565 357.071 131.958 358.644 132.749C365.218 136.209 370.877 133.488 376.726 130.663C381.956 128.132 384.562 123.697 386.114 118.521C387.577 113.637 385.32 108.915 380.919 106.372C377.881 104.61 377.837 103.692 380.718 101.894C382.285 100.927 383.647 99.5785 385.248 98.6746C386.264 98.1274 388.252 97.7118 389.331 98.1949C390.083 98.5268 390.65 99.1224 391.216 99.718C394.323 103.204 396.361 107.594 397.114 112.184C397.461 114.044 398.004 115.963 397.755 117.858C397.034 124.348 393.852 130.527 389.288 135.28ZM359.271 142.73C360.512 144.273 365.674 143.212 367.329 143.016C371.636 142.497 375.943 141.978 379.698 139.751C389.697 133.912 399.07 121.818 394.247 109.674C393.846 108.703 393.445 107.731 392.996 106.745C392.033 104.806 390.802 103.054 389.303 101.486C387.754 99.9046 387.046 100.491 385.489 101.78C385.205 102.015 382.76 104.316 382.662 104.286C383.546 104.711 384.166 105.482 384.879 106.122C387.185 108.197 389.012 110.447 389.208 113.7C389.567 120.141 387.078 125.782 382.488 129.729C376.688 134.697 369.823 138.069 361.604 136.723C360.94 136.63 360.266 136.748 359.509 136.787C359.397 138.404 358.865 140.001 358.866 141.597C358.964 142.159 359.071 142.511 359.271 142.73Z" fill="#333333"/>
<path d="M331.542 92.4787C334.534 88.5321 338.987 85.3957 343.337 83.1335C346.355 81.5895 349.68 80.6167 353.04 80.2398C356.449 79.8774 359.969 79.4955 363.32 80.3931C366.279 81.1736 366.944 83.9277 366.481 86.7163C366.374 87.4293 366.379 88.1227 366.335 88.8015C366.253 90.8526 365.086 91.727 363.074 91.3369C349.741 88.938 342.574 93.4963 337.894 104.495C335.034 111.196 336.403 117.461 340.179 123.33C341.958 126.098 341.509 127.241 338.281 127.711C337.607 127.828 336.884 127.931 336.196 128.097C334.531 128.503 332.685 128.801 330.981 128.45C329.017 128.075 328.455 127.108 327.898 125.238C326.358 119.72 324.594 113.709 325.095 107.951C325.601 102.355 327.988 97.0555 331.303 92.5667C331.449 92.6106 331.478 92.5129 331.542 92.4787ZM337.46 124.59C334.479 119.439 333.169 113.511 334.295 107.621C335.524 101.39 339.234 94.5178 344.795 91.2346C348.154 89.2608 352.095 88.366 355.963 88.2477C356.719 88.2085 364.079 87.8059 364.074 88.7094C364.088 87.0637 364.425 85.4081 363.892 83.8114C363.535 82.6932 363.276 82.6688 362.109 82.4787C360.327 82.2106 358.569 82.216 356.772 82.529C354.735 82.93 352.777 82.7157 350.716 83.3756C345.872 84.798 340.565 86.3475 337.133 90.1624C335.356 92.1847 333.413 94.0507 331.85 96.2437C329.483 99.5261 328.224 103.726 327.976 107.75C327.719 111.984 328.985 116.462 329.66 120.603C330.418 125.354 332.582 126.482 337.46 124.59Z" fill="#333333"/>
</svg>
