<svg width="217" height="228" viewBox="0 0 217 228" fill="none" xmlns="http://www.w3.org/2000/svg">
<path d="M8.05242 120.554C6.90397 121.514 7.58529 118.394 7.64646 118.2C8.0672 116.616 7.99186 115.532 6.9102 114.169C4.60968 111.369 3.6957 114.589 1.25876 115.297C-5.23209 117.145 -7.48147 107.978 -4.15319 103.765C-0.172193 98.6846 6.89966 99.6033 10.43 104.391C14.1775 109.434 12.8828 116.528 8.05242 120.554ZM9.09184 113.275C9.03733 110.116 7.49207 106.912 4.09934 106.191C1.9951 105.721 -1.10621 107.563 -2.06865 109.486C-2.62624 110.587 -2.53182 111.637 -1.6404 112.532C-0.345167 113.83 0.745666 113.384 1.9666 112.373C4.84338 110.045 6.7146 111.023 9.11837 113.471C9.08407 113.453 9.08795 113.364 9.09184 113.275Z" fill="#EDEBE1"/>
<path d="M-13.4547 100.811C-15.6562 98.1561 -16.0452 93.8158 -13.0656 91.5443C-10.7765 89.8023 -7.35261 89.8148 -5.2038 91.6702C0.175836 96.3354 -8.55274 106.758 -13.4547 100.811ZM-8.24603 95.7672C-11.3018 93.3705 -13.8334 97.8374 -10.9449 99.6436C-8.48318 101.171 -5.68175 97.759 -8.24603 95.7672Z" fill="#EDEBE1"/>
<path d="M150.157 221.164C150.631 220.518 152.161 220.884 153.153 220.819C155.588 220.668 158.023 220.324 160.437 220.13C161.773 220.022 163.11 219.936 164.424 220.065C165.545 220.173 165.782 220.841 165.157 221.552C163.023 223.966 160.868 226.358 158.691 228.729C158.066 229.397 157.334 229.957 156.644 230.582C156.148 231.013 155.523 231.38 154.877 231.25C154.122 231.078 153.691 230.302 153.368 229.612C152.269 227.242 150.825 224.828 150.092 222.306C149.941 221.746 149.984 221.38 150.157 221.164ZM155.61 221.983C155.566 221.832 155.459 221.768 155.222 221.94C154.747 222.306 154.898 223.556 154.855 224.074C154.791 224.979 154.726 225.906 154.683 226.832C154.661 227.5 154.769 228.276 155.006 228.901C155.071 229.117 155.179 229.332 155.372 229.44C155.61 229.591 155.933 229.526 156.191 229.397C157.765 228.578 157.14 226.574 157.226 225.194C157.269 224.591 157.873 222.371 157.398 222.048C156.601 221.509 156.709 222.974 156.709 223.319C156.687 223.944 156.666 224.591 156.601 225.216C156.558 225.625 156.472 227.694 155.696 227.522C155.179 227.393 155.502 224.849 155.523 224.397C155.545 223.837 155.588 223.255 155.61 222.694C155.631 222.565 155.674 222.177 155.61 221.983ZM159.726 221.509C159.704 221.444 159.683 221.423 159.64 221.401C159.532 221.336 159.381 221.336 159.252 221.401C158.907 221.53 158.713 221.918 158.605 222.263C158.347 223.039 158.088 223.837 158.002 224.634C157.894 225.518 157.98 226.552 158.304 227.393C158.498 227.457 158.67 227.22 158.756 227.026C159.144 226.056 159.424 225.173 159.532 224.117C159.575 223.707 159.898 222.005 159.726 221.509ZM163.67 221.056C163.347 220.97 162.851 220.992 162.851 220.992C162.248 221.013 161.623 221.035 161.019 221.078C160.89 221.078 160.674 221.293 160.653 221.423C160.588 221.983 160.545 222.565 160.48 223.125C160.437 223.535 160.243 224.16 160.329 224.569C160.351 224.699 160.459 224.849 160.588 224.871C160.674 224.893 160.782 224.849 160.847 224.806C161.084 224.677 161.235 224.418 161.364 224.181C161.601 223.75 161.817 223.384 161.903 222.91C161.989 222.328 161.924 222.155 162.442 221.961C162.959 221.768 163.476 221.832 163.886 221.358C164.036 221.186 163.886 221.099 163.67 221.056ZM153.691 222.155C153.648 222.112 153.584 222.069 153.541 222.048C152.334 221.617 153.066 226.38 153.11 226.918C153.131 227.091 153.217 227.328 153.39 227.285C153.519 227.263 153.562 227.112 153.584 227.005C153.778 226.164 153.842 225.237 153.928 224.375C153.993 223.772 154.187 222.63 153.691 222.155ZM151.601 222.867C151.601 223.082 151.601 223.319 151.622 223.535C151.644 223.664 151.687 223.75 151.795 223.793C152.032 223.578 152.161 222.522 151.924 222.263C151.536 221.854 151.601 222.63 151.601 222.867Z" fill="#EDEBE1"/>
<path d="M11.877 204.555C12.9919 203.783 14.1868 203.146 15.4255 202.654C16.1538 202.376 16.8948 202.073 17.6686 201.88C19.3017 201.447 30.7959 201.195 29.8394 203.94C29.3667 205.33 29.0012 206.748 28.6356 208.166C28.4711 208.869 28.1357 209.663 27.4083 209.09C24.384 206.613 21.1796 207.42 17.8663 208.259C14.9035 209.013 13.0923 211.024 11.7468 213.529C10.4774 215.893 11.1434 218.565 13.1441 220.34C14.5245 221.569 14.4505 222.047 12.7759 222.67C11.8659 223.003 11.0216 223.555 10.1007 223.852C9.51943 224.027 8.45103 224.032 7.94551 223.669C7.59274 223.419 7.36341 223.052 7.13407 222.685C5.89985 220.56 5.31211 218.083 5.40761 215.637C5.42471 214.641 5.34728 213.594 5.67514 212.644C6.73096 209.374 9.0228 206.524 11.877 204.555ZM28.1368 203.878C27.6598 202.952 24.887 202.955 24.0129 202.881C21.7378 202.695 19.4627 202.508 17.2922 203.261C11.5216 205.217 5.41478 210.464 6.62127 217.233C6.72542 217.776 6.82957 218.319 6.95736 218.875C7.24926 219.976 7.69918 221.009 8.3071 221.975C8.93865 222.954 9.36541 222.726 10.3043 222.225C10.475 222.134 11.9785 221.206 12.0257 221.232C11.6148 220.919 11.3762 220.456 11.076 220.051C10.1061 218.739 9.40147 217.386 9.64313 215.689C10.1374 212.33 12.0152 209.684 14.7972 208.133C18.311 206.184 22.2056 205.169 26.3011 206.729C26.6337 206.847 26.9935 206.857 27.3878 206.917C27.6159 206.095 28.0584 205.328 28.2265 204.505C28.2353 204.205 28.2169 204.012 28.1368 203.878Z" fill="#EDEBE1"/>
<path d="M37.1353 232.708C35.1766 234.428 32.5504 235.575 30.0691 236.283C28.3508 236.761 26.5339 236.912 24.7621 236.752C22.9667 236.579 21.1114 236.405 19.4788 235.589C18.0353 234.875 17.9829 233.385 18.5156 231.996C18.646 231.64 18.7165 231.282 18.8106 230.936C19.0693 229.888 19.7631 229.56 20.7592 229.973C27.3797 232.615 31.5553 231.021 35.1274 225.844C37.3081 222.691 37.2627 219.317 35.9344 215.893C35.3095 214.278 35.6614 213.737 37.3749 213.835C37.7347 213.845 38.1181 213.868 38.4906 213.855C39.3918 213.822 40.3749 213.862 41.2165 214.223C42.1891 214.624 42.3768 215.181 42.4669 216.204C42.6791 219.211 42.9552 222.496 42.0898 225.411C41.2388 228.243 39.4499 230.724 37.2679 232.688C37.197 232.65 37.1716 232.697 37.1353 232.708ZM37.4694 215.53C38.4629 218.5 38.5135 221.694 37.312 224.612C36.0216 227.695 33.3848 230.846 30.1717 231.953C28.2318 232.616 26.106 232.662 24.0996 232.315C23.7052 232.256 19.8689 231.688 19.9665 231.222C19.7857 232.069 19.4378 232.887 19.5441 233.767C19.6102 234.381 19.741 234.42 20.3227 234.642C21.2134 234.968 22.1203 235.15 23.0797 235.178C24.1717 235.186 25.1587 235.503 26.2906 235.38C28.9377 235.157 31.8375 234.918 34.0089 233.313C35.1382 232.458 36.3366 231.701 37.3731 230.735C38.9396 229.292 40.0313 227.26 40.5833 225.211C41.1624 223.056 40.9817 220.614 41.0702 218.408C41.1801 215.878 40.1836 215.069 37.4694 215.53Z" fill="#EDEBE1"/>
<path d="M145.651 7.83219C144.664 9.4278 143.65 11.0234 142.713 12.6444C141.979 13.9614 140.409 13.5561 139.319 12.9989C138.914 12.7963 138.509 12.5937 138.104 12.3658C137.471 12.0365 136.761 11.6313 136.609 10.9474C136.458 10.3649 136.787 9.75705 137.065 9.22518C139.193 5.4261 141.624 1.75367 143.853 -1.99476C144.486 -3.08382 145.449 -2.88121 146.411 -2.34934C146.943 -2.07074 147.449 -1.76681 147.981 -1.48821C148.311 -1.31092 148.665 -1.10831 148.868 -0.779054C149.121 -0.348492 149.096 0.183381 148.969 0.664598C148.767 1.44974 148.615 2.28554 148.285 2.9947C147.551 4.6663 146.614 6.2619 145.651 7.83219ZM144.891 3.55189C145.322 3.27329 145.879 3.27329 146.31 2.96937C146.892 2.58946 147.424 2.08291 147.829 1.52571C147.88 1.44973 147.931 1.34843 147.905 1.24712C147.855 1.0445 147.551 1.09515 147.374 1.19646C146.715 1.52572 146.082 1.93095 145.423 2.26021C145.119 2.41217 144.638 2.53881 144.436 2.81741C144.284 3.02003 144.385 3.29862 144.132 3.55189C143.726 3.93179 143.119 3.9318 142.587 4.08377C141.903 4.28638 141.346 4.69161 140.738 5.07152C140.561 5.17283 140.383 5.29947 140.282 5.50208C140.181 5.7047 140.257 5.95798 140.459 6.03396C140.586 6.08462 140.712 6.03396 140.839 5.9833C142.283 5.40078 143.574 4.36236 144.891 3.55189ZM147.551 -0.171196C147.576 -0.22185 147.601 -0.247178 147.576 -0.297832C147.551 -0.348486 147.5 -0.399141 147.45 -0.424468C146.563 -1.03232 145.525 -1.56419 144.613 -0.804375C143.878 -0.171196 143.574 0.841879 143.093 1.65235C142.865 2.08291 143.017 2.36152 143.473 2.23489C143.726 2.1589 144.233 1.6017 144.486 1.44973C145.423 0.917864 146.386 0.461977 147.348 -0.0192392C147.424 -0.0698934 147.5 -0.120542 147.551 -0.171196ZM142.688 8.71864C141.726 9.02256 140.788 9.40247 139.826 9.78238C139.395 9.95967 138.256 10.1623 137.977 10.5169C137.167 11.5046 140.282 10.7701 140.561 10.6688C141.726 10.2129 143.701 9.50378 144.309 8.33873C143.752 8.41471 143.22 8.56667 142.688 8.71864ZM145.297 5.88199C145.474 5.73003 145.651 5.60339 145.829 5.45143C145.955 5.32479 146.107 5.09685 145.981 4.97022C145.93 4.91956 145.854 4.89424 145.778 4.89424C145.17 4.84359 144.967 5.19816 144.537 5.50208C144.03 5.85666 143.422 6.10993 142.865 6.38853C142.409 6.61648 141.878 7.04704 141.447 6.97106C140.459 6.76844 139.573 7.24966 138.94 7.95882C138.838 8.08546 138.762 8.18677 138.737 8.33873C139.927 8.44004 141.548 7.80686 142.637 7.3763C143.524 7.02172 144.486 6.48984 145.297 5.88199ZM141.624 12.0365C142.08 11.8085 142.46 11.4033 142.612 10.8714C141.827 10.7955 141.472 11.1754 140.864 11.5299C140.459 11.7579 139.801 11.7326 139.446 12.0365C139.345 12.1125 140.839 12.2644 141.016 12.2391C141.219 12.2138 141.422 12.1378 141.624 12.0365Z" fill="#EDEBE1"/>
<path d="M132.405 -0.754694C132.455 -0.830675 132.506 -0.931983 132.582 -1.00797C133.671 -2.57825 134.583 -4.27516 135.748 -5.79479C136.204 -6.40265 137.242 -7.11181 137.85 -6.98517C139.218 -6.70657 140.839 -6.4533 141.447 -4.90834C141.649 -4.37647 141.295 -3.51535 140.965 -2.93282C139.167 0.359709 137.293 3.62691 135.419 6.89412C134.862 7.88188 134.051 8.99627 132.734 8.79366C132.152 8.69235 131.594 8.38843 131.113 8.05918C130.227 7.47665 129.138 7.12207 129.011 5.93169C128.935 5.12122 129.264 4.2601 129.644 3.57626C130.429 2.13262 131.468 0.638302 132.405 -0.754694ZM138.103 -0.982629C137.242 -0.754684 136.204 0.0304585 135.596 0.410367C134.988 0.790274 134.38 1.19551 133.697 1.42345C133.063 1.6514 132.253 1.47411 131.797 2.00598C131.164 2.71514 130.632 3.50028 130.227 4.33608C130.075 4.64001 129.923 4.99458 130.075 5.29851C130.328 5.85571 131.341 5.72907 131.797 5.55178C132.506 5.27318 133.165 4.94393 133.848 4.58935C134.228 4.41206 135.241 4.10813 135.495 3.8042C135.824 3.37364 135.545 2.99374 135.09 3.01906C134.786 3.04439 134.456 3.34832 134.178 3.50029C133.418 3.85487 132.81 4.28543 132.076 3.62692C132.025 3.60159 132 3.55094 131.974 3.50029C131.949 3.4243 131.974 3.37365 132.025 3.32299C132.481 2.43654 133.823 2.08195 134.71 1.77803C135.495 1.49943 136.103 1.04355 136.812 0.58766C137.546 0.106443 138.357 -0.197489 138.762 -1.03329C138.559 -1.05861 138.357 -1.03328 138.103 -0.982629ZM133.139 -0.425427C132.962 -0.273465 132.81 -0.0961804 132.734 0.106437C133.317 0.43569 134.228 -0.374785 134.71 -0.628057C135.647 -1.10927 136.558 -1.56515 137.496 -2.07169C138.154 -2.42627 138.939 -2.73021 139.547 -3.16078C139.674 -3.26208 140.586 -4.17385 140.18 -4.35114C139.395 -4.65507 138.939 -3.97124 138.357 -3.51535C137.622 -2.95815 136.888 -2.40095 136.153 -1.86908C135.723 -1.56515 135.166 -1.43851 134.659 -1.18524C134.203 -0.957298 133.57 -0.754681 133.139 -0.425427ZM135.495 -3.13544C136.001 -2.50226 138.483 -4.959 138.787 -5.41489C137.977 -5.82012 136.989 -5.71881 136.305 -5.08564C136.001 -4.75638 135.115 -3.59133 135.495 -3.13544ZM132.126 6.36225C132.025 6.41291 131.924 6.43824 131.898 6.48889C131.848 6.53955 131.898 6.61552 131.924 6.64085C132.329 7.14739 133.063 7.22338 133.697 7.24871C133.798 7.24871 133.874 7.2487 133.975 7.19805C134.051 7.14739 134.102 7.04608 134.152 6.9701C134.355 6.56486 134.558 6.13431 134.76 5.72908C134.786 5.67842 133.469 5.98235 133.342 6.033C133.165 6.10899 132.506 6.23562 132.126 6.36225Z" fill="#EDEBE1"/>
<path d="M215.083 198.201C216.691 196.596 218.292 194.961 219.945 193.409C221.294 192.179 220.383 190.44 219.425 189.31C219.075 188.888 218.724 188.466 218.343 188.051C217.78 187.396 217.107 186.672 216.258 186.682C215.53 186.663 214.904 187.219 214.354 187.695C210.463 191.252 206.805 195.132 203.002 198.795C201.893 199.842 202.398 200.921 203.29 201.908C203.766 202.458 204.264 202.972 204.739 203.522C205.039 203.861 205.376 204.223 205.82 204.371C206.397 204.551 207.017 204.374 207.55 204.092C208.419 203.636 209.363 203.226 210.108 202.642C211.876 201.315 213.498 199.769 215.083 198.201ZM209.827 198.487C209.618 199.072 209.772 199.729 209.532 200.32C209.245 201.112 208.795 201.879 208.25 202.51C208.175 202.591 208.069 202.679 207.943 202.677C207.69 202.673 207.666 202.301 207.736 202.064C207.942 201.197 208.245 200.338 208.452 199.471C208.547 199.071 208.563 198.468 208.836 198.153C209.033 197.918 209.389 197.96 209.618 197.592C209.953 197.009 209.786 196.292 209.818 195.623C209.868 194.761 210.192 193.993 210.472 193.171C210.542 192.934 210.643 192.69 210.853 192.515C211.064 192.339 211.384 192.359 211.529 192.577C211.624 192.712 211.599 192.875 211.575 193.039C211.287 194.901 210.419 196.711 209.827 198.487ZM206.173 202.65C206.12 202.694 206.097 202.731 206.031 202.715C205.964 202.699 205.89 202.654 205.846 202.601C204.885 201.724 203.971 200.647 204.615 199.362C205.159 198.321 206.269 197.683 207.091 196.892C207.536 196.504 207.907 196.607 207.883 197.179C207.864 197.499 207.347 198.25 207.237 198.59C206.869 199.842 206.598 201.102 206.296 202.37C206.257 202.473 206.219 202.577 206.173 202.65ZM215.31 194.463C215.402 193.244 215.591 192.035 215.773 190.795C215.863 190.239 215.788 188.839 216.129 188.413C217.069 187.185 217.064 191.06 217.021 191.416C216.805 192.916 216.515 195.44 215.31 196.479C215.245 195.801 215.277 195.132 215.31 194.463ZM212.686 198.322C212.556 198.572 212.456 198.816 212.325 199.067C212.211 199.252 211.984 199.494 211.8 199.379C211.726 199.334 211.676 199.251 211.655 199.162C211.427 198.459 211.789 198.122 212.028 197.531C212.307 196.836 212.437 196.049 212.612 195.315C212.755 194.715 213.115 193.969 212.907 193.482C212.395 192.374 212.718 191.196 213.379 190.254C213.5 190.099 213.599 189.982 213.771 189.91C214.219 191.285 213.92 193.371 213.713 194.774C213.54 195.917 213.179 197.198 212.686 198.322ZM218.927 192.293C218.784 192.893 218.412 193.453 217.827 193.779C217.52 192.874 217.87 192.351 218.12 191.537C218.277 190.996 218.065 190.227 218.326 189.725C218.387 189.584 218.979 191.304 218.998 191.52C219.024 191.766 218.991 192.026 218.927 192.293Z" fill="#EDEBE1"/>
<path d="M201.303 184.957C201.227 185.038 201.122 185.125 201.053 185.236C199.503 186.953 197.754 188.497 196.284 190.29C195.694 190.995 195.144 192.415 195.462 193.097C196.168 194.632 196.914 196.473 198.903 196.763C199.586 196.855 200.503 196.199 201.099 195.65C204.484 192.621 207.818 189.509 211.152 186.398C212.162 185.468 213.252 184.205 212.65 182.708C212.369 182.05 211.857 181.477 211.336 181C210.405 180.116 209.686 178.93 208.248 179.11C207.271 179.244 206.347 179.87 205.646 180.507C204.161 181.831 202.686 183.468 201.303 184.957ZM202.608 191.738C202.639 190.66 203.277 189.219 203.557 188.397C203.837 187.576 204.147 186.747 204.227 185.878C204.321 185.069 203.888 184.162 204.389 183.478C205.05 182.536 205.829 181.692 206.702 180.983C207.019 180.72 207.395 180.443 207.795 180.538C208.522 180.683 208.652 181.912 208.569 182.499C208.437 183.412 208.23 184.279 208.001 185.183C207.897 185.68 207.819 186.958 207.53 187.341C207.114 187.848 206.589 187.624 206.493 187.08C206.439 186.714 206.706 186.242 206.808 185.872C207.016 184.878 207.356 184.043 206.377 183.359C206.333 183.306 206.266 183.29 206.2 183.274C206.103 183.266 206.05 183.309 206.005 183.383C205.086 184.165 205.038 185.846 204.925 186.975C204.813 187.977 204.444 188.82 204.102 189.781C203.738 190.78 203.603 191.82 202.73 192.528C202.644 192.296 202.618 192.05 202.608 191.738ZM201.894 185.732C202.024 185.481 202.191 185.253 202.409 185.107C202.958 185.703 202.254 187.002 202.088 187.639C201.78 188.877 201.494 190.077 201.156 191.322C200.92 192.196 200.778 193.206 200.439 194.041C200.354 194.218 199.531 195.545 199.21 195.116C198.635 194.275 199.315 193.548 199.692 192.736C200.146 191.716 200.6 190.696 201.024 189.684C201.263 189.092 201.259 188.4 201.418 187.733C201.56 187.133 201.624 186.33 201.894 185.732ZM199.349 189.257C200.236 189.679 198.025 193.284 197.572 193.768C196.87 192.924 196.717 191.732 197.274 190.751C197.578 190.302 198.707 188.935 199.349 189.257ZM209.616 182.663C209.647 182.53 209.649 182.403 209.702 182.359C209.748 182.286 209.851 182.324 209.888 182.347C210.597 182.685 210.889 183.53 211.094 184.269C211.122 184.389 211.143 184.478 211.111 184.612C211.073 184.715 210.967 184.803 210.892 184.884C210.47 185.235 210.018 185.592 209.597 185.943C209.544 185.987 209.538 184.35 209.563 184.187C209.604 183.957 209.571 183.146 209.616 182.663Z" fill="#EDEBE1"/>
<path d="M204.255 106.95C205.694 105.017 207.055 103.085 208.888 101.468C210.919 99.674 213.167 98.1163 215.356 96.5192C216.203 95.908 217.15 95.0405 218.254 95.001C219.417 94.9616 220.226 96.0658 220.955 96.815C222.69 98.5895 224.544 100.305 225.963 102.336C224.051 102.651 222.119 102.829 220.324 103.578C218.274 104.426 216.539 105.944 214.784 107.265C212.753 108.783 210.742 110.302 208.731 111.859C208.376 112.135 207.41 112.648 207.508 113.2C207.587 113.732 208.77 114.265 209.125 114.56C209.578 114.915 211.018 115.803 210.939 116.512C210.84 117.518 209.204 117.104 208.612 117.124C206.424 117.183 204.137 117.932 202.047 118.543C201.199 118.8 200.528 119.214 199.74 119.549C198.754 119.963 198.044 119.47 197.413 118.681C196.723 117.833 197.058 117.104 197.275 116.098C197.551 114.836 197.807 113.555 198.083 112.293C198.655 109.631 199.227 107.068 200.351 104.584C200.666 103.874 200.903 103.401 201.632 103.972C202.658 104.741 203.446 106.003 204.255 106.95ZM223.972 101.764C223.242 100.266 221.803 98.9642 220.719 97.7023C219.437 96.2235 218.077 96.7953 216.677 97.7811C213.423 100.088 210.466 102.533 207.863 105.569C207.074 106.476 206.384 107.423 205.714 108.428C205.458 108.803 204.649 110.44 204.117 110.459C203.742 110.479 202.658 108.803 202.441 108.527C202.185 108.192 201.849 107.186 201.475 107.009C200.647 106.634 200.095 109.533 199.976 110.006C199.345 112.727 199.424 115.586 199.109 118.366C199.74 118.445 200.509 118.11 201.12 117.952C201.928 117.755 202.737 117.557 203.565 117.38C205.162 117.025 206.759 116.69 208.336 116.315C209.973 115.941 207.745 114.974 207.094 114.62C205.773 113.91 205.201 113.496 206.562 112.411C209.401 110.144 212.28 107.896 215.198 105.747C216.401 104.86 217.623 103.992 218.944 103.322C220.561 102.494 222.237 102.178 223.972 101.764Z" fill="#EDEBE1"/>
<path d="M208.75 43.6248C207.251 43.3525 206.604 40.433 205.669 38.7927C203.385 34.7567 200.77 30.882 198.43 26.9187C197.134 24.7251 195.875 22.5135 195.002 20.1594C194.254 18.1547 195.199 17.1938 196.934 17.6702C202.834 19.3079 208.715 21.0005 214.576 22.7478C216.238 23.2599 217.805 24.0459 219.447 24.7044C220.596 25.1929 221.742 25.9561 222.059 27.1685C222.392 28.6009 221.425 29.9829 220.515 31.1091C217.378 34.9595 214.455 39.4351 210.756 42.785C209.924 43.509 209.262 43.7401 208.75 43.6248ZM205.613 33.6261C205.391 33.8253 205.371 34.0632 205.863 34.3249C206.883 34.8303 208.893 33.5326 209.813 33.1759C211.414 32.5333 213.051 31.8728 214.671 31.1755C215.83 30.6565 217.066 29.8269 217.937 28.9018C218.252 28.6121 218.53 28.2486 218.553 27.8275C218.614 27.2969 218.234 26.7983 217.798 26.4639C215.09 24.4569 212.185 27.1923 209.756 28.1925C208.689 28.6209 204.394 29.4365 204.236 30.5157C203.978 32.3265 206.393 30.9232 206.982 30.6363C208.068 30.1532 209.191 29.6521 210.313 29.2426C211.048 28.9756 214.655 27.4016 215.006 28.8709C215.216 29.8623 210.601 31.4256 209.81 31.7653C208.834 32.1947 207.804 32.6051 206.829 33.0344C206.59 33.1052 205.891 33.3543 205.613 33.6261ZM201.379 26.9865C201.286 27.0772 201.267 27.1319 201.266 27.2235C201.245 27.4614 201.371 27.7192 201.589 27.8864C202.097 28.368 202.921 28.3768 203.6 28.274C205.141 28.0705 206.719 27.849 208.153 27.3329C209.753 26.7819 211.449 25.774 212.616 24.5223C212.565 24.1371 212.016 24.0397 211.613 24.0538C209.633 24.1977 207.89 24.4541 205.996 25.1485C205.261 25.4155 202.082 26.2795 201.379 26.9865ZM197.324 20.6236C197.446 21.2478 197.895 22.0769 197.895 22.0769C198.434 23.0901 198.991 24.1402 199.566 25.1355C199.674 25.3565 200.221 25.5454 200.46 25.4747C201.472 25.119 202.502 24.7085 203.513 24.3528C204.249 24.0858 205.478 23.8973 206.106 23.4093C206.309 23.2649 206.477 22.9553 206.407 22.7164C206.372 22.5512 206.208 22.4029 206.081 22.3283C205.663 22.0307 205.095 21.9881 204.583 21.9644C203.649 21.9178 202.843 21.8544 201.961 22.1015C200.895 22.4383 200.655 22.6922 199.893 21.9697C199.131 21.2473 198.811 20.3096 197.66 20.0043C197.24 19.89 197.218 20.2195 197.324 20.6236ZM207.504 36.7603C207.466 36.8699 207.446 37.0162 207.445 37.1078C207.713 39.5287 215.242 34.3141 216.127 33.7922C216.403 33.6119 216.737 33.2674 216.52 33.0086C216.375 32.8056 216.082 32.8575 215.88 32.9103C214.282 33.2781 212.645 33.9386 211.1 34.5085C210.015 34.9 207.902 35.5189 207.504 36.7603ZM210.458 39.7409C210.827 39.5616 211.232 39.3644 211.582 39.1483C211.785 39.0039 211.896 38.8585 211.88 38.6385C211.315 38.4127 209.403 39.0703 209.158 39.6905C208.781 40.6941 210.053 39.9381 210.458 39.7409Z" fill="#EDEBE1"/>
<path d="M19.708 21.077C21.5588 18.8067 23.2047 16.7925 24.8506 14.7782C25.4654 14.0098 26.3477 13.6976 27.086 14.5353C30.6028 18.7571 32.4338 24.7833 34.0293 29.9489C34.2866 30.733 34.8369 31.5339 34.8845 32.3578C34.9436 33.433 34.0763 33.6337 33.1259 33.7778C30.1631 34.1949 27.1135 34.9182 24.1206 35.5583C22.2047 35.9579 20.3834 36.6655 18.5904 37.3315C17.9811 37.5557 16.8155 38.2838 16.1134 38.0186C15.3347 37.7318 15.6149 36.9181 15.5872 36.1991C15.5606 33.9589 15.8269 31.7356 16.4694 29.5858C16.5995 29.1266 16.7713 28.6957 16.7201 28.2346C16.611 27.2775 14.7408 26.5821 13.9989 26.1072C10.2079 23.4946 6.3537 20.9302 2.79598 18.0199C-1.02451 14.8698 -4.80161 11.5665 -7.95253 7.74616C-11.0619 3.95411 -14.5449 -0.853446 -14.2081 -5.95098C-14.0195 -8.77517 -8.07885 -9.7209 -5.92846 -9.83907C-4.42054 -9.90781 -2.90239 -10.3044 -1.40592 -10.6245C-0.252384 -10.8433 0.86201 -9.93202 0.757773 -8.57236C0.496885 -4.79291 2.12541 -1.5529 3.52251 1.80344C5.10403 5.55935 7.13515 9.0127 9.69241 12.1852C12.5323 15.7024 16.2118 18.2999 19.708 21.077ZM-2.74203 -8.88629C-5.53849 -8.35587 -8.10172 -8.12318 -10.4691 -7.23959C-11.5894 -6.84602 -13.647 -6.23847 -12.9364 -4.01939C-11.4338 0.656824 -8.85723 4.69477 -5.57794 8.2373C-0.855187 13.2805 4.34067 17.7632 10.2429 21.3876C12.6566 22.8491 14.9354 24.5534 17.4493 25.7786C18.8101 26.4621 18.8463 27.0346 18.5058 28.2942C17.9098 30.6887 17.5784 33.1417 17.0704 35.8092C22.3439 34.5916 27.0996 33.5085 32.2749 32.3458C31.7572 32.4802 26.9692 19.2652 26.2477 18.1346C26.0229 18.2859 25.8747 18.4588 25.7331 18.6668C24.3903 20.37 23.0542 22.1082 21.5385 23.6631C20.3608 24.9005 19.4712 23.8379 18.2369 23.0581C16.9194 22.2216 15.6652 21.3369 14.4327 20.3756C9.81364 16.8337 5.75265 12.6066 2.45104 7.80079C-0.88553 3.00167 -2.27725 -2.99926 -2.74203 -8.88629Z" fill="#EDEBE1"/>
</svg>
